<svg width="35" height="13" viewBox="0 0 35 13" fill="none" xmlns="http://www.w3.org/2000/svg">
<mask id="mask0_1_807" style="mask-type:luminance" maskUnits="userSpaceOnUse" x="0" y="0" width="35" height="13">
<path d="M35 0H0V13H35V0Z" fill="white"/>
</mask>
<g mask="url(#mask0_1_807)">
<path d="M11.9893 2.04688V12H9.93848L5.93945 5.32812V12H3.88867V2.04688H5.93945L9.94531 8.72559V2.04688H11.9893ZM17.0547 12.1367C16.4805 12.1367 15.9655 12.0456 15.5098 11.8633C15.054 11.6764 14.6667 11.4189 14.3477 11.0908C14.0332 10.7627 13.7917 10.3822 13.623 9.94922C13.4544 9.51172 13.3701 9.04688 13.3701 8.55469V8.28125C13.3701 7.7207 13.4499 7.20801 13.6094 6.74316C13.7689 6.27832 13.9967 5.875 14.293 5.5332C14.5938 5.19141 14.9583 4.92936 15.3867 4.74707C15.8151 4.56022 16.2982 4.4668 16.8359 4.4668C17.36 4.4668 17.8249 4.55339 18.2305 4.72656C18.6361 4.89974 18.9756 5.14583 19.249 5.46484C19.527 5.78385 19.7367 6.16667 19.8779 6.61328C20.0192 7.05534 20.0898 7.54753 20.0898 8.08984V8.91016H14.2109V7.59766H18.1553V7.44727C18.1553 7.17383 18.1051 6.93001 18.0049 6.71582C17.9092 6.49707 17.7633 6.32389 17.5674 6.19629C17.3714 6.06868 17.1208 6.00488 16.8154 6.00488C16.5557 6.00488 16.3324 6.06185 16.1455 6.17578C15.9587 6.28971 15.806 6.44922 15.6875 6.6543C15.5736 6.85938 15.487 7.10091 15.4277 7.37891C15.373 7.65234 15.3457 7.95312 15.3457 8.28125V8.55469C15.3457 8.85091 15.3867 9.12435 15.4688 9.375C15.5553 9.62565 15.6761 9.84212 15.8311 10.0244C15.9906 10.2067 16.182 10.348 16.4053 10.4482C16.6331 10.5485 16.8906 10.5986 17.1777 10.5986C17.5332 10.5986 17.8636 10.5303 18.1689 10.3936C18.4788 10.2523 18.7454 10.0404 18.9688 9.75781L19.9258 10.7969C19.7708 11.0202 19.5589 11.2344 19.29 11.4395C19.0257 11.6445 18.7067 11.8132 18.333 11.9453C17.9593 12.0729 17.5332 12.1367 17.0547 12.1367ZM22.7969 4.60352L24.0205 6.85254L25.2783 4.60352H27.377L25.2852 8.21973L27.4727 12H25.3672L24.0342 9.62109L22.7012 12H20.5957L22.7832 8.21973L20.6914 4.60352H22.7969ZM31.957 4.60352V5.99805H27.6504V4.60352H31.957ZM28.7168 2.77832H30.6855V9.77148C30.6855 9.98568 30.7129 10.1497 30.7676 10.2637C30.8268 10.3776 30.9134 10.4574 31.0273 10.5029C31.1413 10.5439 31.2848 10.5645 31.458 10.5645C31.5811 10.5645 31.6904 10.5599 31.7861 10.5508C31.8864 10.5371 31.9707 10.5234 32.0391 10.5098L32.0459 11.959C31.8773 12.0137 31.695 12.057 31.499 12.0889C31.3031 12.1208 31.0866 12.1367 30.8496 12.1367C30.4167 12.1367 30.0384 12.0661 29.7148 11.9248C29.3958 11.779 29.1497 11.5465 28.9766 11.2275C28.8034 10.9085 28.7168 10.4893 28.7168 9.96973V2.77832Z" fill="white"/>
</g>
</svg>
