<svg width="18" height="18" viewBox="0 0 18 18" fill="none" xmlns="http://www.w3.org/2000/svg">
<path d="M10.1775 15.648L9.39707 16.4285C9.0666 16.759 8.53223 16.759 8.20527 16.4285L1.3709 9.59763C1.04043 9.26716 1.04043 8.73279 1.3709 8.40584L8.20527 1.57146C8.53574 1.24099 9.07012 1.24099 9.39707 1.57146L10.1775 2.35193C10.5115 2.68591 10.5045 3.23083 10.1635 3.55779L5.92715 7.59373H16.0311C16.4986 7.59373 16.8748 7.9699 16.8748 8.43748V9.56248C16.8748 10.0301 16.4986 10.4062 16.0311 10.4062H5.92715L10.1635 14.4422C10.508 14.7691 10.515 15.314 10.1775 15.648Z" fill="black"/>
</svg>
