<svg width="16" height="16" viewBox="0 0 16 16" fill="none" xmlns="http://www.w3.org/2000/svg">
<g clip-path="url(#clip0_1_877)">
<path d="M8.00016 4.66665C6.16016 4.66665 4.66683 6.15998 4.66683 7.99998C4.66683 9.83998 6.16016 11.3333 8.00016 11.3333C9.84016 11.3333 11.3335 9.83998 11.3335 7.99998C11.3335 6.15998 9.84016 4.66665 8.00016 4.66665ZM8.00016 1.33331C4.32016 1.33331 1.3335 4.31998 1.3335 7.99998C1.3335 11.68 4.32016 14.6666 8.00016 14.6666C11.6802 14.6666 14.6668 11.68 14.6668 7.99998C14.6668 4.31998 11.6802 1.33331 8.00016 1.33331ZM8.00016 13.3333C5.0535 13.3333 2.66683 10.9466 2.66683 7.99998C2.66683 5.05331 5.0535 2.66665 8.00016 2.66665C10.9468 2.66665 13.3335 5.05331 13.3335 7.99998C13.3335 10.9466 10.9468 13.3333 8.00016 13.3333Z" fill="white"/>
</g>
<defs>
<clipPath id="clip0_1_877">
<rect width="16" height="16" fill="white"/>
</clipPath>
</defs>
</svg>
