<svg width="53" height="20" viewBox="0 0 53 20" fill="none" xmlns="http://www.w3.org/2000/svg">
<mask id="mask0_2_940" style="mask-type:luminance" maskUnits="userSpaceOnUse" x="0" y="0" width="53" height="20">
<path d="M53 0H0V20H53V0Z" fill="white"/>
</mask>
<g mask="url(#mask0_2_940)">
<path d="M4.256 15L0.336 5.2H2.058L4.396 11.15C4.508 11.4393 4.606 11.7007 4.69 11.934C4.78333 12.1673 4.86267 12.382 4.928 12.578C4.99333 12.7647 5.054 12.942 5.11 13.11C5.166 13.278 5.222 13.446 5.278 13.614L4.914 13.628C4.97933 13.404 5.04933 13.1707 5.124 12.928C5.19867 12.6853 5.28267 12.4193 5.376 12.13C5.47867 11.8407 5.6 11.514 5.74 11.15L7.91 5.2H9.674L5.726 15H4.256ZM11.2538 15V7.65H12.6958V15H11.2538ZM11.9538 6.026C11.6458 6.026 11.4078 5.94667 11.2398 5.788C11.0718 5.62933 10.9878 5.40533 10.9878 5.116C10.9878 4.84533 11.0718 4.626 11.2398 4.458C11.4171 4.29 11.6551 4.206 11.9538 4.206C12.2618 4.206 12.4998 4.28533 12.6678 4.444C12.8358 4.60267 12.9198 4.82667 12.9198 5.116C12.9198 5.38667 12.8311 5.606 12.6538 5.774C12.4858 5.942 12.2525 6.026 11.9538 6.026ZM17.9783 15.14C17.3063 15.14 16.7043 14.9767 16.1723 14.65C15.6496 14.314 15.2343 13.8613 14.9263 13.292C14.6183 12.7133 14.4643 12.0553 14.4643 11.318C14.4643 10.5807 14.6136 9.92733 14.9123 9.358C15.2203 8.77933 15.6356 8.32667 16.1583 8C16.681 7.664 17.2736 7.496 17.9363 7.496C18.3003 7.496 18.6503 7.55667 18.9863 7.678C19.3316 7.79 19.6396 7.94867 19.9103 8.154C20.181 8.35 20.391 8.56933 20.5403 8.812C20.699 9.04533 20.7783 9.28333 20.7783 9.526L20.3583 9.554V4.64H21.8003V15H20.3583V13.25H20.6383C20.6383 13.474 20.5636 13.698 20.4143 13.922C20.265 14.1367 20.0643 14.3373 19.8123 14.524C19.5696 14.7107 19.285 14.86 18.9583 14.972C18.641 15.084 18.3143 15.14 17.9783 15.14ZM18.1743 13.894C18.613 13.894 19.0003 13.782 19.3363 13.558C19.6723 13.334 19.9336 13.0307 20.1203 12.648C20.3163 12.256 20.4143 11.8127 20.4143 11.318C20.4143 10.8233 20.3163 10.3847 20.1203 10.002C19.9336 9.61 19.6723 9.302 19.3363 9.078C19.0003 8.854 18.613 8.742 18.1743 8.742C17.7356 8.742 17.3483 8.854 17.0123 9.078C16.6763 9.302 16.4103 9.61 16.2143 10.002C16.0276 10.3847 15.9343 10.8233 15.9343 11.318C15.9343 11.8127 16.0276 12.256 16.2143 12.648C16.4103 13.0307 16.6763 13.334 17.0123 13.558C17.3483 13.782 17.7356 13.894 18.1743 13.894ZM27.2153 15.14C26.4593 15.14 25.7873 14.9813 25.1993 14.664C24.6207 14.3373 24.1633 13.894 23.8273 13.334C23.5007 12.774 23.3373 12.13 23.3373 11.402C23.3373 10.8233 23.4307 10.296 23.6173 9.82C23.804 9.344 24.0607 8.93333 24.3873 8.588C24.7233 8.23333 25.12 7.96267 25.5773 7.776C26.044 7.58 26.548 7.482 27.0893 7.482C27.5653 7.482 28.0087 7.57533 28.4193 7.762C28.83 7.93933 29.1847 8.18667 29.4833 8.504C29.7913 8.82133 30.0247 9.19933 30.1833 9.638C30.3513 10.0673 30.4307 10.5387 30.4213 11.052L30.4073 11.668H24.4013L24.0793 10.52H29.1613L28.9513 10.758V10.422C28.9233 10.114 28.8207 9.83867 28.6433 9.596C28.466 9.35333 28.242 9.162 27.9713 9.022C27.7007 8.882 27.4067 8.812 27.0893 8.812C26.5853 8.812 26.1607 8.91 25.8153 9.106C25.47 9.29267 25.2087 9.57267 25.0313 9.946C24.854 10.31 24.7653 10.7627 24.7653 11.304C24.7653 11.8173 24.8727 12.2653 25.0873 12.648C25.302 13.0213 25.6053 13.3107 25.9973 13.516C26.3893 13.7213 26.842 13.824 27.3553 13.824C27.7193 13.824 28.0553 13.7633 28.3633 13.642C28.6807 13.5207 29.0213 13.3013 29.3853 12.984L30.1133 14.006C29.8893 14.23 29.614 14.426 29.2873 14.594C28.97 14.762 28.6293 14.8973 28.2653 15C27.9107 15.0933 27.5607 15.14 27.2153 15.14ZM35.2925 15.14C34.5738 15.14 33.9298 14.9767 33.3605 14.65C32.8005 14.314 32.3571 13.8613 32.0305 13.292C31.7038 12.7133 31.5405 12.0553 31.5405 11.318C31.5405 10.5807 31.7038 9.92733 32.0305 9.358C32.3571 8.77933 32.8005 8.32667 33.3605 8C33.9298 7.664 34.5738 7.496 35.2925 7.496C36.0018 7.496 36.6365 7.664 37.1965 8C37.7658 8.32667 38.2138 8.77933 38.5405 9.358C38.8671 9.92733 39.0305 10.5807 39.0305 11.318C39.0305 12.0553 38.8671 12.7133 38.5405 13.292C38.2138 13.8613 37.7658 14.314 37.1965 14.65C36.6365 14.9767 36.0018 15.14 35.2925 15.14ZM35.2925 13.824C35.7311 13.824 36.1231 13.7167 36.4685 13.502C36.8138 13.278 37.0845 12.9793 37.2805 12.606C37.4765 12.2233 37.5698 11.794 37.5605 11.318C37.5698 10.8327 37.4765 10.4033 37.2805 10.03C37.0845 9.64733 36.8138 9.34867 36.4685 9.134C36.1231 8.91933 35.7311 8.812 35.2925 8.812C34.8538 8.812 34.4571 8.924 34.1025 9.148C33.7571 9.36267 33.4865 9.66133 33.2905 10.044C33.0945 10.4173 33.0011 10.842 33.0105 11.318C33.0011 11.794 33.0945 12.2233 33.2905 12.606C33.4865 12.9793 33.7571 13.278 34.1025 13.502C34.4571 13.7167 34.8538 13.824 35.2925 13.824ZM43.0518 15.14C42.4358 15.14 41.8804 15.0327 41.3858 14.818C40.8911 14.6033 40.4804 14.286 40.1538 13.866L41.1338 13.026C41.4138 13.3527 41.7171 13.5907 42.0438 13.74C42.3798 13.88 42.7578 13.95 43.1778 13.95C43.3458 13.95 43.4998 13.9313 43.6398 13.894C43.7891 13.8473 43.9151 13.782 44.0178 13.698C44.1298 13.614 44.2138 13.516 44.2698 13.404C44.3258 13.2827 44.3538 13.152 44.3538 13.012C44.3538 12.7693 44.2651 12.5733 44.0878 12.424C43.9944 12.3587 43.8451 12.2887 43.6398 12.214C43.4438 12.13 43.1871 12.046 42.8698 11.962C42.3284 11.822 41.8851 11.6633 41.5398 11.486C41.1944 11.3087 40.9284 11.108 40.7418 10.884C40.6018 10.7067 40.4991 10.5153 40.4338 10.31C40.3684 10.0953 40.3358 9.862 40.3358 9.61C40.3358 9.302 40.4011 9.022 40.5318 8.77C40.6718 8.50867 40.8584 8.28467 41.0918 8.098C41.3344 7.902 41.6144 7.75267 41.9318 7.65C42.2584 7.54733 42.6038 7.496 42.9678 7.496C43.3131 7.496 43.6538 7.54267 43.9898 7.636C44.3351 7.72933 44.6524 7.86467 44.9418 8.042C45.2311 8.21933 45.4738 8.42933 45.6698 8.672L44.8438 9.582C44.6664 9.40467 44.4704 9.25067 44.2558 9.12C44.0504 8.98 43.8404 8.87267 43.6258 8.798C43.4111 8.72333 43.2151 8.686 43.0378 8.686C42.8418 8.686 42.6644 8.70467 42.5058 8.742C42.3471 8.77933 42.2118 8.83533 42.0998 8.91C41.9971 8.98467 41.9178 9.078 41.8618 9.19C41.8058 9.302 41.7778 9.428 41.7778 9.568C41.7871 9.68933 41.8151 9.806 41.8618 9.918C41.9178 10.0207 41.9924 10.1093 42.0858 10.184C42.1884 10.2587 42.3424 10.338 42.5478 10.422C42.7531 10.506 43.0144 10.5853 43.3318 10.66C43.7984 10.7813 44.1811 10.9167 44.4798 11.066C44.7878 11.206 45.0304 11.3693 45.2078 11.556C45.3944 11.7333 45.5251 11.9387 45.5998 12.172C45.6744 12.4053 45.7118 12.6667 45.7118 12.956C45.7118 13.376 45.5904 13.754 45.3478 14.09C45.1144 14.4167 44.7971 14.6733 44.3958 14.86C43.9944 15.0467 43.5464 15.14 43.0518 15.14Z" fill="black"/>
</g>
</svg>
