<svg width="36" height="19" viewBox="0 0 36 19" fill="none" xmlns="http://www.w3.org/2000/svg">
<mask id="mask0_1_783" style="mask-type:luminance" maskUnits="userSpaceOnUse" x="0" y="0" width="36" height="19">
<path d="M36 0H0V19H36V0Z" fill="white"/>
</mask>
<g mask="url(#mask0_1_783)">
<path d="M7.28711 12.4004V14H2.27637V12.4004H7.28711ZM2.93945 4.04688V14H0.888672V4.04688H2.93945ZM8.02539 10.377V10.2334C8.02539 9.69108 8.10286 9.19206 8.25781 8.73633C8.41276 8.27604 8.63835 7.87728 8.93457 7.54004C9.23079 7.2028 9.59538 6.94076 10.0283 6.75391C10.4613 6.5625 10.958 6.4668 11.5186 6.4668C12.0791 6.4668 12.5781 6.5625 13.0156 6.75391C13.4531 6.94076 13.82 7.2028 14.1162 7.54004C14.417 7.87728 14.6449 8.27604 14.7998 8.73633C14.9548 9.19206 15.0322 9.69108 15.0322 10.2334V10.377C15.0322 10.9147 14.9548 11.4137 14.7998 11.874C14.6449 12.3298 14.417 12.7285 14.1162 13.0703C13.82 13.4076 13.4554 13.6696 13.0225 13.8564C12.5895 14.0433 12.0928 14.1367 11.5322 14.1367C10.9717 14.1367 10.4727 14.0433 10.0352 13.8564C9.60221 13.6696 9.23535 13.4076 8.93457 13.0703C8.63835 12.7285 8.41276 12.3298 8.25781 11.874C8.10286 11.4137 8.02539 10.9147 8.02539 10.377ZM9.99414 10.2334V10.377C9.99414 10.6868 10.0215 10.9762 10.0762 11.2451C10.1309 11.514 10.2174 11.751 10.3359 11.9561C10.459 12.1566 10.6185 12.3138 10.8145 12.4277C11.0104 12.5417 11.2497 12.5986 11.5322 12.5986C11.8057 12.5986 12.0404 12.5417 12.2363 12.4277C12.4323 12.3138 12.5895 12.1566 12.708 11.9561C12.8265 11.751 12.9131 11.514 12.9678 11.2451C13.027 10.9762 13.0566 10.6868 13.0566 10.377V10.2334C13.0566 9.93262 13.027 9.65007 12.9678 9.38574C12.9131 9.11686 12.8242 8.87988 12.7012 8.6748C12.5827 8.46517 12.4255 8.30111 12.2295 8.18262C12.0335 8.06413 11.7965 8.00488 11.5186 8.00488C11.2406 8.00488 11.0036 8.06413 10.8076 8.18262C10.6162 8.30111 10.459 8.46517 10.3359 8.6748C10.2174 8.87988 10.1309 9.11686 10.0762 9.38574C10.0215 9.65007 9.99414 9.93262 9.99414 10.2334ZM20.9248 6.60352H22.709V13.7539C22.709 14.4284 22.5586 15.0003 22.2578 15.4697C21.9616 15.9437 21.5469 16.3014 21.0137 16.543C20.4805 16.7891 19.8607 16.9121 19.1543 16.9121C18.8444 16.9121 18.5163 16.8711 18.1699 16.7891C17.8281 16.707 17.5 16.5794 17.1855 16.4062C16.8757 16.2331 16.6159 16.0143 16.4062 15.75L17.2744 14.5879C17.5023 14.8522 17.7666 15.0573 18.0674 15.2031C18.3682 15.3535 18.7008 15.4287 19.0654 15.4287C19.4209 15.4287 19.7217 15.3626 19.9678 15.2305C20.2139 15.1029 20.403 14.9137 20.5352 14.6631C20.6673 14.417 20.7334 14.1185 20.7334 13.7676V8.3125L20.9248 6.60352ZM15.9482 10.3906V10.2471C15.9482 9.68197 16.0166 9.16927 16.1533 8.70898C16.2946 8.24414 16.4928 7.84538 16.748 7.5127C17.0078 7.18001 17.3223 6.92253 17.6914 6.74023C18.0605 6.55794 18.4775 6.4668 18.9424 6.4668C19.4346 6.4668 19.847 6.55794 20.1797 6.74023C20.5124 6.92253 20.7858 7.18229 21 7.51953C21.2142 7.85221 21.3805 8.24642 21.499 8.70215C21.6221 9.15332 21.7178 9.64779 21.7861 10.1855V10.5C21.7178 11.015 21.6152 11.4935 21.4785 11.9355C21.3418 12.3776 21.1618 12.765 20.9385 13.0977C20.7152 13.4258 20.4372 13.681 20.1045 13.8633C19.7764 14.0456 19.3844 14.1367 18.9287 14.1367C18.473 14.1367 18.0605 14.0433 17.6914 13.8564C17.3268 13.6696 17.0146 13.4076 16.7549 13.0703C16.4951 12.7331 16.2946 12.3366 16.1533 11.8809C16.0166 11.4251 15.9482 10.9284 15.9482 10.3906ZM17.917 10.2471V10.3906C17.917 10.696 17.9466 10.9808 18.0059 11.2451C18.0651 11.5094 18.1562 11.7441 18.2793 11.9492C18.4069 12.1497 18.5641 12.307 18.751 12.4209C18.9424 12.5303 19.168 12.585 19.4277 12.585C19.7878 12.585 20.0817 12.5098 20.3096 12.3594C20.5374 12.2044 20.7083 11.9925 20.8223 11.7236C20.9362 11.4548 21.0023 11.1449 21.0205 10.7939V9.89844C21.0114 9.61133 20.9727 9.35384 20.9043 9.12598C20.8359 8.89355 20.7402 8.69531 20.6172 8.53125C20.4941 8.36719 20.3346 8.23958 20.1387 8.14844C19.9427 8.05729 19.7103 8.01172 19.4414 8.01172C19.1816 8.01172 18.9561 8.07096 18.7646 8.18945C18.5778 8.30339 18.4206 8.46061 18.293 8.66113C18.1699 8.86165 18.0765 9.09863 18.0127 9.37207C17.9489 9.64095 17.917 9.93262 17.917 10.2471ZM26.3184 6.60352V14H24.3428V6.60352H26.3184ZM24.2197 4.67578C24.2197 4.38867 24.32 4.15169 24.5205 3.96484C24.721 3.77799 24.9899 3.68457 25.3271 3.68457C25.6598 3.68457 25.9264 3.77799 26.127 3.96484C26.332 4.15169 26.4346 4.38867 26.4346 4.67578C26.4346 4.96289 26.332 5.19987 26.127 5.38672C25.9264 5.57357 25.6598 5.66699 25.3271 5.66699C24.9899 5.66699 24.721 5.57357 24.5205 5.38672C24.32 5.19987 24.2197 4.96289 24.2197 4.67578ZM29.873 8.18262V14H27.9043V6.60352H29.75L29.873 8.18262ZM29.5859 10.042H29.0527C29.0527 9.49512 29.1234 9.00293 29.2646 8.56543C29.4059 8.12337 29.6042 7.7474 29.8594 7.4375C30.1146 7.12305 30.4176 6.88379 30.7686 6.71973C31.124 6.55111 31.5205 6.4668 31.958 6.4668C32.3044 6.4668 32.6211 6.51693 32.9082 6.61719C33.1953 6.71745 33.4414 6.87695 33.6465 7.0957C33.8561 7.31445 34.0156 7.60384 34.125 7.96387C34.2389 8.32389 34.2959 8.76367 34.2959 9.2832V14H32.3135V9.27637C32.3135 8.94824 32.2679 8.69303 32.1768 8.51074C32.0856 8.32845 31.9512 8.20085 31.7734 8.12793C31.6003 8.05046 31.3861 8.01172 31.1309 8.01172C30.8665 8.01172 30.6364 8.06413 30.4404 8.16895C30.249 8.27376 30.0895 8.4196 29.9619 8.60645C29.8389 8.78874 29.7454 9.00293 29.6816 9.24902C29.6178 9.49512 29.5859 9.75944 29.5859 10.042Z" fill="#DC143C"/>
</g>
</svg>
