<svg width="12" height="12" viewBox="0 0 12 12" fill="none" xmlns="http://www.w3.org/2000/svg">
<g clip-path="url(#clip0_2_974)">
<path d="M11.25 2.97891C11.25 4.24219 10.2422 5.22891 9 5.22891C8.39297 5.22891 7.84219 5.01094 7.43906 4.61953L5.23359 5.72109C5.24531 5.8125 5.22891 5.88516 5.22891 6C5.22891 6.09375 5.24531 6.16641 5.23359 6.27891L7.43906 7.38047C7.84219 6.98906 8.39297 6.75 9 6.75C10.2422 6.75 11.25 7.73672 11.25 9C11.25 10.2422 10.2422 11.25 9 11.25C7.73672 11.25 6.75 10.2422 6.75 9C6.75 8.88516 6.75469 8.8125 6.76641 8.72109L4.56094 7.61953C4.15781 8.01094 3.60703 8.25 3 8.25C1.75734 8.25 0.75 7.24219 0.75 6C0.75 4.73672 1.75734 3.75 3 3.75C3.60703 3.75 4.15781 3.98906 4.56094 4.38047L6.76641 3.27891C6.75469 3.16641 6.75 3.09375 6.75 3C6.75 1.75734 7.73672 0.75 9 0.75C10.2422 0.75 11.25 1.75734 11.25 3V2.97891ZM2.97891 6.72891C3.41484 6.72891 3.72891 6.41484 3.72891 5.97891C3.72891 5.58516 3.41484 5.22891 2.97891 5.22891C2.58586 5.22891 2.22891 5.58516 2.22891 5.97891C2.22891 6.41484 2.58586 6.72891 2.97891 6.72891ZM9 2.22891C8.58516 2.22891 8.25 2.58516 8.25 2.97891C8.25 3.41484 8.58516 3.72891 9 3.72891C9.41484 3.72891 9.75 3.41484 9.75 2.97891C9.75 2.58516 9.41484 2.22891 9 2.22891ZM9 9.75C9.41484 9.75 9.75 9.41484 9.75 9C9.75 8.58516 9.41484 8.25 9 8.25C8.58516 8.25 8.25 8.58516 8.25 9C8.25 9.41484 8.58516 9.75 9 9.75Z" fill="white"/>
</g>
<defs>
<clipPath id="clip0_2_974">
<rect width="12" height="12" fill="white"/>
</clipPath>
</defs>
</svg>
