<svg width="24" height="24" viewBox="0 0 24 24" fill="none" xmlns="http://www.w3.org/2000/svg">
<path d="M13.5 1.5V2.4C16.9219 3.09516 19.5 6.12187 19.5 9.75V10.6313C19.5 12.8391 20.3109 14.9625 21.7734 16.6125L22.1203 17.0016C22.5141 17.4469 22.6125 18.075 22.3687 18.6141C22.125 19.1531 21.5906 19.5 21 19.5H2.99999C2.40936 19.5 1.87363 19.1531 1.63166 18.6141C1.38969 18.075 1.48647 17.4469 1.87893 17.0016L2.22655 16.6125C3.69093 14.9625 4.49999 12.8391 4.49999 10.6313V9.75C4.49999 6.12187 7.03593 3.09516 10.5 2.4V1.5C10.5 0.671719 11.1703 0 12 0C12.8297 0 13.5 0.671719 13.5 1.5ZM12 24C11.2031 24 10.4391 23.6859 9.87655 23.1234C9.31405 22.5609 8.99999 21.7547 8.99999 21H15C15 21.7547 14.6859 22.5609 14.1234 23.1234C13.5609 23.6859 12.7547 24 12 24Z" fill="#DC143C"/>
</svg>
