<svg width="21" height="21" viewBox="0 0 21 21" fill="none" xmlns="http://www.w3.org/2000/svg">
<path d="M7.83963 3.75702L4.59594 6.99999H0.875C0.391562 6.99999 0 7.39155 0 7.87499V13.125C0 13.6081 0.391562 14 0.875 14H4.59594L7.83963 17.243C8.3876 17.7909 9.33333 17.4059 9.33333 16.6243V4.37571C9.33333 3.59332 8.38688 3.20978 7.83963 3.75702ZM16.3461 1.89473C15.9389 1.62749 15.3916 1.74014 15.1244 2.14811C14.8568 2.55535 14.9705 3.10259 15.3778 3.36983C17.7939 4.9554 19.2358 7.62087 19.2358 10.5004C19.2358 13.3798 17.7939 16.0453 15.3778 17.6309C14.9705 17.8977 14.8568 18.4454 15.1244 18.8522C15.381 19.2427 15.9239 19.3831 16.3461 19.1056C19.2598 17.193 21 13.9756 21 10.5C21 7.02441 19.2598 3.80733 16.3461 1.89473ZM17.5 10.5C17.5 8.18379 16.3311 6.05426 14.373 4.80374C13.965 4.54342 13.424 4.66446 13.1655 5.07571C12.907 5.48696 13.0277 6.03129 13.4356 6.29197C14.8848 7.21764 15.75 8.79045 15.75 10.5C15.75 12.2095 14.8848 13.7823 13.4356 14.708C13.0277 14.9683 12.907 15.5126 13.1655 15.9243C13.4028 16.302 13.9355 16.4762 14.373 16.1962C16.3311 14.9457 17.5 12.8165 17.5 10.5ZM12.3313 7.69743C11.9091 7.46665 11.3765 7.61868 11.1424 8.04197C10.9094 8.46525 11.0636 8.99717 11.4869 9.23087C11.9576 9.48936 12.25 9.97608 12.25 10.5C12.25 11.0243 11.9576 11.5106 11.4873 11.7691C11.064 12.0028 10.9098 12.5347 11.1428 12.958C11.3772 13.3831 11.9102 13.534 12.3317 13.3025C13.3609 12.7356 14.0004 11.6619 14.0004 10.4996C14.0004 9.33733 13.3609 8.264 12.3313 7.69743Z" fill="white"/>
</svg>
