<svg width="16" height="16" viewBox="0 0 16 16" fill="none" xmlns="http://www.w3.org/2000/svg">
<path d="M9.04697 13.9094L8.35322 14.6031C8.05947 14.8969 7.58447 14.8969 7.29385 14.6031L1.21885 8.53126C0.925098 8.23751 0.925098 7.76251 1.21885 7.47189L7.29385 1.39689C7.5876 1.10314 8.0626 1.10314 8.35322 1.39689L9.04697 2.09064C9.34385 2.38751 9.3376 2.87189 9.03447 3.16251L5.26885 6.75001H14.2501C14.6657 6.75001 15.0001 7.08439 15.0001 7.50001V8.50001C15.0001 8.91564 14.6657 9.25001 14.2501 9.25001H5.26885L9.03447 12.8375C9.34072 13.1281 9.34697 13.6125 9.04697 13.9094Z" fill="white"/>
</svg>
