<svg width="37" height="20" viewBox="0 0 37 20" fill="none" xmlns="http://www.w3.org/2000/svg">
<mask id="mask0_2_952" style="mask-type:luminance" maskUnits="userSpaceOnUse" x="0" y="0" width="37" height="20">
<path d="M37 0H0V20H37V0Z" fill="white"/>
</mask>
<g mask="url(#mask0_2_952)">
<path d="M3.234 15V6.656H0.49V5.2H7.574V6.656H4.746V15H3.234ZM11.1099 15.14C10.3539 15.14 9.68188 14.9813 9.09388 14.664C8.51521 14.3373 8.05788 13.894 7.72188 13.334C7.39521 12.774 7.23188 12.13 7.23188 11.402C7.23188 10.8233 7.32521 10.296 7.51188 9.82C7.69854 9.344 7.95521 8.93333 8.28188 8.588C8.61788 8.23333 9.01454 7.96267 9.47188 7.776C9.93854 7.58 10.4425 7.482 10.9839 7.482C11.4599 7.482 11.9032 7.57533 12.3139 7.762C12.7245 7.93933 13.0792 8.18667 13.3779 8.504C13.6859 8.82133 13.9192 9.19933 14.0779 9.638C14.2459 10.0673 14.3252 10.5387 14.3159 11.052L14.3019 11.668H8.29588L7.97388 10.52H13.0559L12.8459 10.758V10.422C12.8179 10.114 12.7152 9.83867 12.5379 9.596C12.3605 9.35333 12.1365 9.162 11.8659 9.022C11.5952 8.882 11.3012 8.812 10.9839 8.812C10.4799 8.812 10.0552 8.91 9.70988 9.106C9.36454 9.29267 9.10321 9.57267 8.92588 9.946C8.74854 10.31 8.65988 10.7627 8.65988 11.304C8.65988 11.8173 8.76721 12.2653 8.98188 12.648C9.19654 13.0213 9.49988 13.3107 9.89188 13.516C10.2839 13.7213 10.7365 13.824 11.2499 13.824C11.6139 13.824 11.9499 13.7633 12.2579 13.642C12.5752 13.5207 12.9159 13.3013 13.2799 12.984L14.0079 14.006C13.7839 14.23 13.5085 14.426 13.1819 14.594C12.8645 14.762 12.5239 14.8973 12.1599 15C11.8052 15.0933 11.4552 15.14 11.1099 15.14ZM19.005 15.14C18.3237 15.14 17.7123 14.972 17.171 14.636C16.639 14.3 16.2143 13.8427 15.897 13.264C15.589 12.6853 15.435 12.0367 15.435 11.318C15.435 10.5993 15.589 9.95067 15.897 9.372C16.2143 8.79333 16.639 8.336 17.171 8C17.7123 7.664 18.3237 7.496 19.005 7.496C19.6583 7.496 20.251 7.63133 20.783 7.902C21.3243 8.16333 21.735 8.52267 22.015 8.98L21.217 9.96C21.0677 9.74533 20.8763 9.54933 20.643 9.372C20.4097 9.19467 20.1623 9.05467 19.901 8.952C19.6397 8.84933 19.3877 8.798 19.145 8.798C18.697 8.798 18.2957 8.91 17.941 9.134C17.5957 9.34867 17.3203 9.64733 17.115 10.03C16.9097 10.4127 16.807 10.842 16.807 11.318C16.807 11.794 16.9143 12.2233 17.129 12.606C17.3437 12.9793 17.6283 13.278 17.983 13.502C18.3377 13.726 18.7297 13.838 19.159 13.838C19.411 13.838 19.6537 13.796 19.887 13.712C20.1297 13.628 20.363 13.502 20.587 13.334C20.811 13.166 21.021 12.9607 21.217 12.718L22.015 13.698C21.7163 14.118 21.287 14.4633 20.727 14.734C20.1763 15.0047 19.6023 15.14 19.005 15.14ZM23.3752 15V4.64H24.8172V9.162L24.5652 9.33C24.6585 9.00333 24.8405 8.70467 25.1112 8.434C25.3819 8.154 25.7039 7.93 26.0772 7.762C26.4505 7.58467 26.8332 7.496 27.2252 7.496C27.7852 7.496 28.2519 7.608 28.6252 7.832C28.9985 8.04667 29.2785 8.378 29.4652 8.826C29.6519 9.274 29.7452 9.83867 29.7452 10.52V15H28.3032V10.618C28.3032 10.198 28.2472 9.85267 28.1352 9.582C28.0232 9.302 27.8505 9.10133 27.6172 8.98C27.3839 8.84933 27.0945 8.79333 26.7492 8.812C26.4692 8.812 26.2125 8.85867 25.9792 8.952C25.7459 9.036 25.5405 9.15733 25.3632 9.316C25.1952 9.47467 25.0599 9.66133 24.9572 9.876C24.8639 10.0813 24.8172 10.3053 24.8172 10.548V15H24.1032C23.9819 15 23.8605 15 23.7392 15C23.6179 15 23.4965 15 23.3752 15Z" fill="black"/>
</g>
</svg>
