<svg width="133" height="23" viewBox="0 0 133 23" fill="none" xmlns="http://www.w3.org/2000/svg">
<mask id="mask0_1_915" style="mask-type:luminance" maskUnits="userSpaceOnUse" x="0" y="0" width="133" height="23">
<path d="M133 0H0V23H133V0Z" fill="white"/>
</mask>
<g mask="url(#mask0_1_915)">
<path d="M23.6484 14.6719V16.5H17.5938V14.6719H23.6484ZM18.3594 5.125V16.5H16.0156V5.125H18.3594ZM22.8594 9.75781V11.5391H17.5938V9.75781H22.8594ZM23.6406 5.125V6.96094H17.5938V5.125H23.6406ZM27.0781 9.85156V16.5H24.8281V8.04688H26.9375L27.0781 9.85156ZM26.75 11.9766H26.1406C26.1406 11.3516 26.2214 10.7891 26.3828 10.2891C26.5443 9.78385 26.7708 9.35417 27.0625 9C27.3542 8.64062 27.7005 8.36719 28.1016 8.17969C28.5078 7.98698 28.9609 7.89062 29.4609 7.89062C29.8568 7.89062 30.2188 7.94792 30.5469 8.0625C30.875 8.17708 31.1562 8.35938 31.3906 8.60938C31.6302 8.85938 31.8125 9.1901 31.9375 9.60156C32.0677 10.013 32.1328 10.5156 32.1328 11.1094V16.5H29.8672V11.1016C29.8672 10.7266 29.8151 10.4349 29.7109 10.2266C29.6068 10.0182 29.4531 9.8724 29.25 9.78906C29.0521 9.70052 28.8073 9.65625 28.5156 9.65625C28.2135 9.65625 27.9505 9.71615 27.7266 9.83594C27.5078 9.95573 27.3255 10.1224 27.1797 10.3359C27.0391 10.5443 26.9323 10.7891 26.8594 11.0703C26.7865 11.3516 26.75 11.6536 26.75 11.9766ZM37.9844 8.04688V9.64062H33.0625V8.04688H37.9844ZM34.2812 5.96094H36.5312V13.9531C36.5312 14.1979 36.5625 14.3854 36.625 14.5156C36.6927 14.6458 36.7917 14.737 36.9219 14.7891C37.0521 14.8359 37.2161 14.8594 37.4141 14.8594C37.5547 14.8594 37.6797 14.8542 37.7891 14.8438C37.9036 14.8281 38 14.8125 38.0781 14.7969L38.0859 16.4531C37.8932 16.5156 37.6849 16.5651 37.4609 16.6016C37.237 16.638 36.9896 16.6562 36.7188 16.6562C36.224 16.6562 35.7917 16.5755 35.4219 16.4141C35.0573 16.2474 34.776 15.9818 34.5781 15.6172C34.3802 15.2526 34.2812 14.7734 34.2812 14.1797V5.96094ZM43.1562 16.6562C42.5 16.6562 41.9115 16.5521 41.3906 16.3438C40.8698 16.1302 40.4271 15.8359 40.0625 15.4609C39.7031 15.0859 39.4271 14.651 39.2344 14.1562C39.0417 13.6562 38.9453 13.125 38.9453 12.5625V12.25C38.9453 11.6094 39.0365 11.0234 39.2188 10.4922C39.401 9.96094 39.6615 9.5 40 9.10938C40.3438 8.71875 40.7604 8.41927 41.25 8.21094C41.7396 7.9974 42.2917 7.89062 42.9062 7.89062C43.5052 7.89062 44.0365 7.98958 44.5 8.1875C44.9635 8.38542 45.3516 8.66667 45.6641 9.03125C45.9818 9.39583 46.2214 9.83333 46.3828 10.3438C46.5443 10.849 46.625 11.4115 46.625 12.0312V12.9688H39.9062V11.4688H44.4141V11.2969C44.4141 10.9844 44.3568 10.7057 44.2422 10.4609C44.1328 10.2109 43.9661 10.013 43.7422 9.86719C43.5182 9.72135 43.2318 9.64844 42.8828 9.64844C42.5859 9.64844 42.3307 9.71354 42.1172 9.84375C41.9036 9.97396 41.7292 10.1562 41.5938 10.3906C41.4635 10.625 41.3646 10.901 41.2969 11.2188C41.2344 11.5312 41.2031 11.875 41.2031 12.25V12.5625C41.2031 12.901 41.25 13.2135 41.3438 13.5C41.4427 13.7865 41.5807 14.0339 41.7578 14.2422C41.9401 14.4505 42.1589 14.612 42.4141 14.7266C42.6745 14.8411 42.9688 14.8984 43.2969 14.8984C43.7031 14.8984 44.0807 14.8203 44.4297 14.6641C44.7839 14.5026 45.0885 14.2604 45.3438 13.9375L46.4375 15.125C46.2604 15.3802 46.0182 15.625 45.7109 15.8594C45.4089 16.0938 45.0443 16.2865 44.6172 16.4375C44.1901 16.5833 43.7031 16.6562 43.1562 16.6562ZM50.1562 9.89062V16.5H47.9062V8.04688H50.0234L50.1562 9.89062ZM52.7031 7.99219L52.6641 10.0781C52.5547 10.0625 52.4219 10.0495 52.2656 10.0391C52.1146 10.0234 51.9766 10.0156 51.8516 10.0156C51.5339 10.0156 51.2578 10.0573 51.0234 10.1406C50.7943 10.2188 50.6016 10.3359 50.4453 10.4922C50.2943 10.6484 50.1797 10.8385 50.1016 11.0625C50.0286 11.2865 49.987 11.5417 49.9766 11.8281L49.5234 11.6875C49.5234 11.1406 49.5781 10.638 49.6875 10.1797C49.7969 9.71615 49.9557 9.3125 50.1641 8.96875C50.3776 8.625 50.638 8.35938 50.9453 8.17188C51.2526 7.98438 51.6042 7.89062 52 7.89062C52.125 7.89062 52.2526 7.90104 52.3828 7.92188C52.513 7.9375 52.6198 7.96094 52.7031 7.99219ZM58.2969 8.04688V9.64062H53.375V8.04688H58.2969ZM54.5938 5.96094H56.8438V13.9531C56.8438 14.1979 56.875 14.3854 56.9375 14.5156C57.0052 14.6458 57.1042 14.737 57.2344 14.7891C57.3646 14.8359 57.5286 14.8594 57.7266 14.8594C57.8672 14.8594 57.9922 14.8542 58.1016 14.8438C58.2161 14.8281 58.3125 14.8125 58.3906 14.7969L58.3984 16.4531C58.2057 16.5156 57.9974 16.5651 57.7734 16.6016C57.5495 16.638 57.3021 16.6562 57.0312 16.6562C56.5365 16.6562 56.1042 16.5755 55.7344 16.4141C55.3698 16.2474 55.0885 15.9818 54.8906 15.6172C54.6927 15.2526 54.5938 14.7734 54.5938 14.1797V5.96094ZM64.1406 14.5938V10.8281C64.1406 10.5573 64.0964 10.3255 64.0078 10.1328C63.9193 9.9349 63.7812 9.78125 63.5938 9.67188C63.4115 9.5625 63.1745 9.50781 62.8828 9.50781C62.6328 9.50781 62.4167 9.55208 62.2344 9.64062C62.0521 9.72396 61.9115 9.84635 61.8125 10.0078C61.7135 10.1641 61.6641 10.349 61.6641 10.5625H59.4141C59.4141 10.2031 59.4974 9.86198 59.6641 9.53906C59.8307 9.21615 60.0729 8.93229 60.3906 8.6875C60.7083 8.4375 61.0859 8.24219 61.5234 8.10156C61.9661 7.96094 62.4609 7.89062 63.0078 7.89062C63.6641 7.89062 64.2474 8 64.7578 8.21875C65.2682 8.4375 65.6693 8.76562 65.9609 9.20312C66.2578 9.64062 66.4062 10.1875 66.4062 10.8438V14.4609C66.4062 14.9245 66.4349 15.3047 66.4922 15.6016C66.5495 15.8932 66.6328 16.1484 66.7422 16.3672V16.5H64.4688C64.3594 16.2708 64.276 15.9844 64.2188 15.6406C64.1667 15.2917 64.1406 14.9427 64.1406 14.5938ZM64.4375 11.3516L64.4531 12.625H63.1953C62.8984 12.625 62.6406 12.6589 62.4219 12.7266C62.2031 12.7943 62.0234 12.8906 61.8828 13.0156C61.7422 13.1354 61.638 13.276 61.5703 13.4375C61.5078 13.599 61.4766 13.776 61.4766 13.9688C61.4766 14.1615 61.5208 14.3359 61.6094 14.4922C61.6979 14.6432 61.8255 14.763 61.9922 14.8516C62.1589 14.9349 62.3542 14.9766 62.5781 14.9766C62.9167 14.9766 63.2109 14.9089 63.4609 14.7734C63.7109 14.638 63.9036 14.4714 64.0391 14.2734C64.1797 14.0755 64.2526 13.888 64.2578 13.7109L64.8516 14.6641C64.7682 14.8776 64.6536 15.099 64.5078 15.3281C64.3672 15.5573 64.1875 15.7734 63.9688 15.9766C63.75 16.1745 63.487 16.3385 63.1797 16.4688C62.8724 16.5938 62.5078 16.6562 62.0859 16.6562C61.5495 16.6562 61.0625 16.5495 60.625 16.3359C60.1927 16.1172 59.849 15.8177 59.5938 15.4375C59.3438 15.0521 59.2188 14.6146 59.2188 14.125C59.2188 13.6823 59.3021 13.2891 59.4688 12.9453C59.6354 12.6016 59.8802 12.3125 60.2031 12.0781C60.5312 11.8385 60.9401 11.6589 61.4297 11.5391C61.9193 11.4141 62.487 11.3516 63.1328 11.3516H64.4375ZM70.5156 8.04688V16.5H68.2578V8.04688H70.5156ZM68.1172 5.84375C68.1172 5.51562 68.2318 5.24479 68.4609 5.03125C68.6901 4.81771 68.9974 4.71094 69.3828 4.71094C69.763 4.71094 70.0677 4.81771 70.2969 5.03125C70.5312 5.24479 70.6484 5.51562 70.6484 5.84375C70.6484 6.17188 70.5312 6.44271 70.2969 6.65625C70.0677 6.86979 69.763 6.97656 69.3828 6.97656C68.9974 6.97656 68.6901 6.86979 68.4609 6.65625C68.2318 6.44271 68.1172 6.17188 68.1172 5.84375ZM74.5781 9.85156V16.5H72.3281V8.04688H74.4375L74.5781 9.85156ZM74.25 11.9766H73.6406C73.6406 11.3516 73.7214 10.7891 73.8828 10.2891C74.0443 9.78385 74.2708 9.35417 74.5625 9C74.8542 8.64062 75.2005 8.36719 75.6016 8.17969C76.0078 7.98698 76.4609 7.89062 76.9609 7.89062C77.3568 7.89062 77.7188 7.94792 78.0469 8.0625C78.375 8.17708 78.6562 8.35938 78.8906 8.60938C79.1302 8.85938 79.3125 9.1901 79.4375 9.60156C79.5677 10.013 79.6328 10.5156 79.6328 11.1094V16.5H77.3672V11.1016C77.3672 10.7266 77.3151 10.4349 77.2109 10.2266C77.1068 10.0182 76.9531 9.8724 76.75 9.78906C76.5521 9.70052 76.3073 9.65625 76.0156 9.65625C75.7135 9.65625 75.4505 9.71615 75.2266 9.83594C75.0078 9.95573 74.8255 10.1224 74.6797 10.3359C74.5391 10.5443 74.4323 10.7891 74.3594 11.0703C74.2865 11.3516 74.25 11.6536 74.25 11.9766ZM83.5938 9.79688V16.5H81.3359V8.04688H83.4531L83.5938 9.79688ZM83.2812 11.9766H82.6562C82.6562 11.388 82.7266 10.8464 82.8672 10.3516C83.013 9.85156 83.224 9.41927 83.5 9.05469C83.7812 8.6849 84.1276 8.39844 84.5391 8.19531C84.9505 7.99219 85.4271 7.89062 85.9688 7.89062C86.3438 7.89062 86.6875 7.94792 87 8.0625C87.3125 8.17188 87.5807 8.34635 87.8047 8.58594C88.0339 8.82031 88.2109 9.1276 88.3359 9.50781C88.4609 9.88281 88.5234 10.3333 88.5234 10.8594V16.5H86.2734V11.1094C86.2734 10.724 86.2214 10.4271 86.1172 10.2188C86.013 10.0104 85.8646 9.86458 85.6719 9.78125C85.4844 9.69792 85.2578 9.65625 84.9922 9.65625C84.7005 9.65625 84.4453 9.71615 84.2266 9.83594C84.013 9.95573 83.8359 10.1224 83.6953 10.3359C83.5547 10.5443 83.4505 10.7891 83.3828 11.0703C83.3151 11.3516 83.2812 11.6536 83.2812 11.9766ZM88.3125 11.7188L87.5078 11.8203C87.5078 11.2682 87.5755 10.7552 87.7109 10.2812C87.8516 9.80729 88.0573 9.39062 88.3281 9.03125C88.6042 8.67188 88.9453 8.39323 89.3516 8.19531C89.7578 7.99219 90.2266 7.89062 90.7578 7.89062C91.1641 7.89062 91.5339 7.95052 91.8672 8.07031C92.2005 8.1849 92.4844 8.36979 92.7188 8.625C92.9583 8.875 93.1406 9.20312 93.2656 9.60938C93.3958 10.0156 93.4609 10.513 93.4609 11.1016V16.5H91.2031V11.1016C91.2031 10.7109 91.151 10.4141 91.0469 10.2109C90.9479 10.0026 90.8021 9.85938 90.6094 9.78125C90.4219 9.69792 90.1979 9.65625 89.9375 9.65625C89.6667 9.65625 89.4297 9.71094 89.2266 9.82031C89.0234 9.92448 88.8542 10.0703 88.7188 10.2578C88.5833 10.4453 88.4818 10.6641 88.4141 10.9141C88.3464 11.1589 88.3125 11.4271 88.3125 11.7188ZM99.0938 16.6562C98.4375 16.6562 97.849 16.5521 97.3281 16.3438C96.8073 16.1302 96.3646 15.8359 96 15.4609C95.6406 15.0859 95.3646 14.651 95.1719 14.1562C94.9792 13.6562 94.8828 13.125 94.8828 12.5625V12.25C94.8828 11.6094 94.974 11.0234 95.1562 10.4922C95.3385 9.96094 95.599 9.5 95.9375 9.10938C96.2812 8.71875 96.6979 8.41927 97.1875 8.21094C97.6771 7.9974 98.2292 7.89062 98.8438 7.89062C99.4427 7.89062 99.974 7.98958 100.438 8.1875C100.901 8.38542 101.289 8.66667 101.602 9.03125C101.919 9.39583 102.159 9.83333 102.32 10.3438C102.482 10.849 102.562 11.4115 102.562 12.0312V12.9688H95.8438V11.4688H100.352V11.2969C100.352 10.9844 100.294 10.7057 100.18 10.4609C100.07 10.2109 99.9036 10.013 99.6797 9.86719C99.4557 9.72135 99.1693 9.64844 98.8203 9.64844C98.5234 9.64844 98.2682 9.71354 98.0547 9.84375C97.8411 9.97396 97.6667 10.1562 97.5312 10.3906C97.401 10.625 97.3021 10.901 97.2344 11.2188C97.1719 11.5312 97.1406 11.875 97.1406 12.25V12.5625C97.1406 12.901 97.1875 13.2135 97.2812 13.5C97.3802 13.7865 97.5182 14.0339 97.6953 14.2422C97.8776 14.4505 98.0964 14.612 98.3516 14.7266C98.612 14.8411 98.9062 14.8984 99.2344 14.8984C99.6406 14.8984 100.018 14.8203 100.367 14.6641C100.721 14.5026 101.026 14.2604 101.281 13.9375L102.375 15.125C102.198 15.3802 101.956 15.625 101.648 15.8594C101.346 16.0938 100.982 16.2865 100.555 16.4375C100.128 16.5833 99.6406 16.6562 99.0938 16.6562ZM106.047 9.85156V16.5H103.797V8.04688H105.906L106.047 9.85156ZM105.719 11.9766H105.109C105.109 11.3516 105.19 10.7891 105.352 10.2891C105.513 9.78385 105.74 9.35417 106.031 9C106.323 8.64062 106.669 8.36719 107.07 8.17969C107.477 7.98698 107.93 7.89062 108.43 7.89062C108.826 7.89062 109.188 7.94792 109.516 8.0625C109.844 8.17708 110.125 8.35938 110.359 8.60938C110.599 8.85938 110.781 9.1901 110.906 9.60156C111.036 10.013 111.102 10.5156 111.102 11.1094V16.5H108.836V11.1016C108.836 10.7266 108.784 10.4349 108.68 10.2266C108.576 10.0182 108.422 9.8724 108.219 9.78906C108.021 9.70052 107.776 9.65625 107.484 9.65625C107.182 9.65625 106.919 9.71615 106.695 9.83594C106.477 9.95573 106.294 10.1224 106.148 10.3359C106.008 10.5443 105.901 10.7891 105.828 11.0703C105.755 11.3516 105.719 11.6536 105.719 11.9766ZM116.953 8.04688V9.64062H112.031V8.04688H116.953ZM113.25 5.96094H115.5V13.9531C115.5 14.1979 115.531 14.3854 115.594 14.5156C115.661 14.6458 115.76 14.737 115.891 14.7891C116.021 14.8359 116.185 14.8594 116.383 14.8594C116.523 14.8594 116.648 14.8542 116.758 14.8438C116.872 14.8281 116.969 14.8125 117.047 14.7969L117.055 16.4531C116.862 16.5156 116.654 16.5651 116.43 16.6016C116.206 16.638 115.958 16.6562 115.688 16.6562C115.193 16.6562 114.76 16.5755 114.391 16.4141C114.026 16.2474 113.745 15.9818 113.547 15.6172C113.349 15.2526 113.25 14.7734 113.25 14.1797V5.96094Z" fill="white"/>
</g>
</svg>
