<svg width="63" height="20" viewBox="0 0 63 20" fill="none" xmlns="http://www.w3.org/2000/svg">
<mask id="mask0_2_946" style="mask-type:luminance" maskUnits="userSpaceOnUse" x="0" y="0" width="63" height="20">
<path d="M63 0H0V20H63V0Z" fill="white"/>
</mask>
<g mask="url(#mask0_2_946)">
<path d="M1.372 15V5.2H5.46C6.08533 5.2 6.61267 5.29333 7.042 5.48C7.47133 5.66667 7.79333 5.94667 8.008 6.32C8.232 6.684 8.344 7.132 8.344 7.664C8.344 8.196 8.19467 8.64867 7.896 9.022C7.60667 9.39533 7.20067 9.652 6.678 9.792V9.512C7.11667 9.60533 7.49933 9.77333 7.826 10.016C8.15267 10.2493 8.40467 10.5433 8.582 10.898C8.76867 11.2527 8.862 11.6587 8.862 12.116C8.862 12.5827 8.78733 12.998 8.638 13.362C8.498 13.7167 8.28333 14.0153 7.994 14.258C7.714 14.5007 7.37333 14.6873 6.972 14.818C6.57067 14.9393 6.11333 15 5.6 15H1.372ZM2.884 13.544H5.516C5.89867 13.544 6.22067 13.488 6.482 13.376C6.75267 13.264 6.958 13.1007 7.098 12.886C7.24733 12.662 7.322 12.396 7.322 12.088C7.322 11.7987 7.24267 11.5513 7.084 11.346C6.93467 11.1407 6.72 10.9867 6.44 10.884C6.16 10.772 5.82867 10.716 5.446 10.716H2.884V13.544ZM2.884 9.26H5.376C5.656 9.26 5.90333 9.204 6.118 9.092C6.342 8.98 6.51467 8.826 6.636 8.63C6.76667 8.434 6.832 8.21 6.832 7.958C6.832 7.538 6.692 7.216 6.412 6.992C6.132 6.768 5.73067 6.656 5.208 6.656H2.884V9.26ZM13.1133 15.14C12.5906 15.14 12.1333 15.0187 11.7413 14.776C11.3586 14.5333 11.06 14.1927 10.8453 13.754C10.64 13.3153 10.5373 12.7927 10.5373 12.186V7.65H11.9793V11.794C11.9793 12.2233 12.0446 12.5967 12.1753 12.914C12.3153 13.222 12.5113 13.46 12.7633 13.628C13.0246 13.796 13.3373 13.88 13.7013 13.88C13.972 13.88 14.2193 13.838 14.4433 13.754C14.6673 13.6607 14.8586 13.5347 15.0173 13.376C15.1853 13.2173 15.316 13.026 15.4093 12.802C15.5026 12.578 15.5493 12.3353 15.5493 12.074V7.65H16.9913V15H15.5493V13.46L15.8013 13.292C15.6893 13.6373 15.498 13.95 15.2273 14.23C14.966 14.51 14.6533 14.734 14.2893 14.902C13.9253 15.0607 13.5333 15.14 13.1133 15.14ZM21.4639 15.14C20.8479 15.14 20.2925 15.0327 19.7979 14.818C19.3032 14.6033 18.8925 14.286 18.5659 13.866L19.5459 13.026C19.8259 13.3527 20.1292 13.5907 20.4559 13.74C20.7919 13.88 21.1699 13.95 21.5899 13.95C21.7579 13.95 21.9119 13.9313 22.0519 13.894C22.2012 13.8473 22.3272 13.782 22.4299 13.698C22.5419 13.614 22.6259 13.516 22.6819 13.404C22.7379 13.2827 22.7659 13.152 22.7659 13.012C22.7659 12.7693 22.6772 12.5733 22.4999 12.424C22.4065 12.3587 22.2572 12.2887 22.0519 12.214C21.8559 12.13 21.5992 12.046 21.2819 11.962C20.7405 11.822 20.2972 11.6633 19.9519 11.486C19.6065 11.3087 19.3405 11.108 19.1539 10.884C19.0139 10.7067 18.9112 10.5153 18.8459 10.31C18.7805 10.0953 18.7479 9.862 18.7479 9.61C18.7479 9.302 18.8132 9.022 18.9439 8.77C19.0839 8.50867 19.2705 8.28467 19.5039 8.098C19.7465 7.902 20.0265 7.75267 20.3439 7.65C20.6705 7.54733 21.0159 7.496 21.3799 7.496C21.7252 7.496 22.0659 7.54267 22.4019 7.636C22.7472 7.72933 23.0645 7.86467 23.3539 8.042C23.6432 8.21933 23.8859 8.42933 24.0819 8.672L23.2559 9.582C23.0785 9.40467 22.8825 9.25067 22.6679 9.12C22.4625 8.98 22.2525 8.87267 22.0379 8.798C21.8232 8.72333 21.6272 8.686 21.4499 8.686C21.2539 8.686 21.0765 8.70467 20.9179 8.742C20.7592 8.77933 20.6239 8.83533 20.5119 8.91C20.4092 8.98467 20.3299 9.078 20.2739 9.19C20.2179 9.302 20.1899 9.428 20.1899 9.568C20.1992 9.68933 20.2272 9.806 20.2739 9.918C20.3299 10.0207 20.4045 10.1093 20.4979 10.184C20.6005 10.2587 20.7545 10.338 20.9599 10.422C21.1652 10.506 21.4265 10.5853 21.7439 10.66C22.2105 10.7813 22.5932 10.9167 22.8919 11.066C23.1999 11.206 23.4425 11.3693 23.6199 11.556C23.8065 11.7333 23.9372 11.9387 24.0119 12.172C24.0865 12.4053 24.1239 12.6667 24.1239 12.956C24.1239 13.376 24.0025 13.754 23.7599 14.09C23.5265 14.4167 23.2092 14.6733 22.8079 14.86C22.4065 15.0467 21.9585 15.14 21.4639 15.14ZM25.9511 15V7.65H27.3931V15H25.9511ZM26.6511 6.026C26.3431 6.026 26.1051 5.94667 25.9371 5.788C25.7691 5.62933 25.6851 5.40533 25.6851 5.116C25.6851 4.84533 25.7691 4.626 25.9371 4.458C26.1144 4.29 26.3524 4.206 26.6511 4.206C26.9591 4.206 27.1971 4.28533 27.3651 4.444C27.5331 4.60267 27.6171 4.82667 27.6171 5.116C27.6171 5.38667 27.5284 5.606 27.3511 5.774C27.1831 5.942 26.9497 6.026 26.6511 6.026ZM29.6096 15V7.65H31.0516V9.162L30.7996 9.33C30.8929 9.00333 31.0749 8.70467 31.3456 8.434C31.6162 8.154 31.9382 7.93 32.3116 7.762C32.6849 7.58467 33.0676 7.496 33.4596 7.496C34.0196 7.496 34.4862 7.608 34.8596 7.832C35.2329 8.04667 35.5129 8.378 35.6996 8.826C35.8862 9.274 35.9796 9.83867 35.9796 10.52V15H34.5376V10.618C34.5376 10.198 34.4816 9.85267 34.3696 9.582C34.2576 9.302 34.0849 9.10133 33.8516 8.98C33.6182 8.84933 33.3289 8.79333 32.9836 8.812C32.7036 8.812 32.4469 8.85867 32.2136 8.952C31.9802 9.036 31.7749 9.15733 31.5976 9.316C31.4296 9.47467 31.2942 9.66133 31.1916 9.876C31.0982 10.0813 31.0516 10.3053 31.0516 10.548V15H30.3376C30.2162 15 30.0949 15 29.9736 15C29.8522 15 29.7309 15 29.6096 15ZM41.3657 15.14C40.6097 15.14 39.9377 14.9813 39.3497 14.664C38.7711 14.3373 38.3137 13.894 37.9777 13.334C37.6511 12.774 37.4877 12.13 37.4877 11.402C37.4877 10.8233 37.5811 10.296 37.7677 9.82C37.9544 9.344 38.2111 8.93333 38.5377 8.588C38.8737 8.23333 39.2704 7.96267 39.7277 7.776C40.1944 7.58 40.6984 7.482 41.2397 7.482C41.7157 7.482 42.1591 7.57533 42.5697 7.762C42.9804 7.93933 43.3351 8.18667 43.6337 8.504C43.9417 8.82133 44.1751 9.19933 44.3337 9.638C44.5017 10.0673 44.5811 10.5387 44.5717 11.052L44.5577 11.668H38.5517L38.2297 10.52H43.3117L43.1017 10.758V10.422C43.0737 10.114 42.9711 9.83867 42.7937 9.596C42.6164 9.35333 42.3924 9.162 42.1217 9.022C41.8511 8.882 41.5571 8.812 41.2397 8.812C40.7357 8.812 40.3111 8.91 39.9657 9.106C39.6204 9.29267 39.3591 9.57267 39.1817 9.946C39.0044 10.31 38.9157 10.7627 38.9157 11.304C38.9157 11.8173 39.0231 12.2653 39.2377 12.648C39.4524 13.0213 39.7557 13.3107 40.1477 13.516C40.5397 13.7213 40.9924 13.824 41.5057 13.824C41.8697 13.824 42.2057 13.7633 42.5137 13.642C42.8311 13.5207 43.1717 13.3013 43.5357 12.984L44.2637 14.006C44.0397 14.23 43.7644 14.426 43.4377 14.594C43.1204 14.762 42.7797 14.8973 42.4157 15C42.0611 15.0933 41.7111 15.14 41.3657 15.14ZM48.5889 15.14C47.9729 15.14 47.4175 15.0327 46.9229 14.818C46.4282 14.6033 46.0175 14.286 45.6909 13.866L46.6709 13.026C46.9509 13.3527 47.2542 13.5907 47.5809 13.74C47.9169 13.88 48.2949 13.95 48.7149 13.95C48.8829 13.95 49.0369 13.9313 49.1769 13.894C49.3262 13.8473 49.4522 13.782 49.5549 13.698C49.6669 13.614 49.7509 13.516 49.8069 13.404C49.8629 13.2827 49.8909 13.152 49.8909 13.012C49.8909 12.7693 49.8022 12.5733 49.6249 12.424C49.5315 12.3587 49.3822 12.2887 49.1769 12.214C48.9809 12.13 48.7242 12.046 48.4069 11.962C47.8655 11.822 47.4222 11.6633 47.0769 11.486C46.7315 11.3087 46.4655 11.108 46.2789 10.884C46.1389 10.7067 46.0362 10.5153 45.9709 10.31C45.9055 10.0953 45.8729 9.862 45.8729 9.61C45.8729 9.302 45.9382 9.022 46.0689 8.77C46.2089 8.50867 46.3955 8.28467 46.6289 8.098C46.8715 7.902 47.1515 7.75267 47.4689 7.65C47.7955 7.54733 48.1409 7.496 48.5049 7.496C48.8502 7.496 49.1909 7.54267 49.5269 7.636C49.8722 7.72933 50.1895 7.86467 50.4789 8.042C50.7682 8.21933 51.0109 8.42933 51.2069 8.672L50.3809 9.582C50.2035 9.40467 50.0075 9.25067 49.7929 9.12C49.5875 8.98 49.3775 8.87267 49.1629 8.798C48.9482 8.72333 48.7522 8.686 48.5749 8.686C48.3789 8.686 48.2015 8.70467 48.0429 8.742C47.8842 8.77933 47.7489 8.83533 47.6369 8.91C47.5342 8.98467 47.4549 9.078 47.3989 9.19C47.3429 9.302 47.3149 9.428 47.3149 9.568C47.3242 9.68933 47.3522 9.806 47.3989 9.918C47.4549 10.0207 47.5295 10.1093 47.6229 10.184C47.7255 10.2587 47.8795 10.338 48.0849 10.422C48.2902 10.506 48.5515 10.5853 48.8689 10.66C49.3355 10.7813 49.7182 10.9167 50.0169 11.066C50.3249 11.206 50.5675 11.3693 50.7449 11.556C50.9315 11.7333 51.0622 11.9387 51.1369 12.172C51.2115 12.4053 51.2489 12.6667 51.2489 12.956C51.2489 13.376 51.1275 13.754 50.8849 14.09C50.6515 14.4167 50.3342 14.6733 49.9329 14.86C49.5315 15.0467 49.0835 15.14 48.5889 15.14ZM55.2881 15.14C54.6721 15.14 54.1167 15.0327 53.6221 14.818C53.1274 14.6033 52.7167 14.286 52.3901 13.866L53.3701 13.026C53.6501 13.3527 53.9534 13.5907 54.2801 13.74C54.6161 13.88 54.9941 13.95 55.4141 13.95C55.5821 13.95 55.7361 13.9313 55.8761 13.894C56.0254 13.8473 56.1514 13.782 56.2541 13.698C56.3661 13.614 56.4501 13.516 56.5061 13.404C56.5621 13.2827 56.5901 13.152 56.5901 13.012C56.5901 12.7693 56.5014 12.5733 56.3241 12.424C56.2307 12.3587 56.0814 12.2887 55.8761 12.214C55.6801 12.13 55.4234 12.046 55.1061 11.962C54.5647 11.822 54.1214 11.6633 53.7761 11.486C53.4307 11.3087 53.1647 11.108 52.9781 10.884C52.8381 10.7067 52.7354 10.5153 52.6701 10.31C52.6047 10.0953 52.5721 9.862 52.5721 9.61C52.5721 9.302 52.6374 9.022 52.7681 8.77C52.9081 8.50867 53.0947 8.28467 53.3281 8.098C53.5707 7.902 53.8507 7.75267 54.1681 7.65C54.4947 7.54733 54.8401 7.496 55.2041 7.496C55.5494 7.496 55.8901 7.54267 56.2261 7.636C56.5714 7.72933 56.8887 7.86467 57.1781 8.042C57.4674 8.21933 57.7101 8.42933 57.9061 8.672L57.0801 9.582C56.9027 9.40467 56.7067 9.25067 56.4921 9.12C56.2867 8.98 56.0767 8.87267 55.8621 8.798C55.6474 8.72333 55.4514 8.686 55.2741 8.686C55.0781 8.686 54.9007 8.70467 54.7421 8.742C54.5834 8.77933 54.4481 8.83533 54.3361 8.91C54.2334 8.98467 54.1541 9.078 54.0981 9.19C54.0421 9.302 54.0141 9.428 54.0141 9.568C54.0234 9.68933 54.0514 9.806 54.0981 9.918C54.1541 10.0207 54.2287 10.1093 54.3221 10.184C54.4247 10.2587 54.5787 10.338 54.7841 10.422C54.9894 10.506 55.2507 10.5853 55.5681 10.66C56.0347 10.7813 56.4174 10.9167 56.7161 11.066C57.0241 11.206 57.2667 11.3693 57.4441 11.556C57.6307 11.7333 57.7614 11.9387 57.8361 12.172C57.9107 12.4053 57.9481 12.6667 57.9481 12.956C57.9481 13.376 57.8267 13.754 57.5841 14.09C57.3507 14.4167 57.0334 14.6733 56.6321 14.86C56.2307 15.0467 55.7827 15.14 55.2881 15.14Z" fill="black"/>
</g>
</svg>
