<svg width="21" height="21" viewBox="0 0 21 21" fill="none" xmlns="http://www.w3.org/2000/svg">
<path d="M20.9927 10.4818C20.9927 11.138 20.4458 11.6521 19.826 11.6521H18.6594L18.6849 17.4891C18.6849 17.5912 18.6776 17.6859 18.6667 17.7844V18.375C18.6667 19.1807 18.0141 19.8333 17.2083 19.8333H16.625C16.5849 19.8333 16.5448 19.8005 16.5047 19.8297C16.4536 19.8005 16.4026 19.8333 16.3516 19.8333H14.2917C13.4859 19.8333 12.8333 19.1807 12.8333 18.375V15.1667C12.8333 14.5214 12.312 14 11.6667 14H9.33333C8.68802 14 8.16667 14.5214 8.16667 15.1667V18.375C8.16667 19.1807 7.51406 19.8333 6.70833 19.8333H4.67031C4.61562 19.8333 4.56094 19.8297 4.50625 19.826C4.4625 19.8297 4.41875 19.8333 4.375 19.8333H3.79167C2.9863 19.8333 2.33333 19.1807 2.33333 18.375V14.2917C2.33333 14.2589 2.33443 14.2224 2.33661 14.1896V11.6521H1.16849C0.511146 11.6521 0 11.138 0 10.4818C0 10.1537 0.109521 9.86198 0.364948 9.60678L9.7125 1.45892C9.96771 1.2032 10.2594 1.16667 10.5146 1.16667C10.7698 1.16667 11.0615 1.23973 11.2839 1.42239L20.5917 9.60678C20.8833 9.86198 21.0328 10.1537 20.9927 10.4818Z" fill="#424242"/>
</svg>
