<svg width="16" height="16" viewBox="0 0 16 16" fill="none" xmlns="http://www.w3.org/2000/svg">
<path d="M15.9033 7.59446C14.3969 4.6553 11.4147 2.66669 7.99998 2.66669C4.58526 2.66669 1.60221 4.65669 0.0966515 7.59474C0.0331076 7.72044 0 7.85931 0 8.00016C0 8.14101 0.0331076 8.27988 0.0966515 8.40558C1.60304 11.3447 4.58526 13.3334 7.99998 13.3334C11.4147 13.3334 14.3978 11.3434 15.9033 8.4053C15.9669 8.2796 16 8.14073 16 7.99988C16 7.85904 15.9669 7.72016 15.9033 7.59446ZM7.99998 12C7.20886 12 6.4355 11.7654 5.7777 11.3259C5.11991 10.8864 4.60722 10.2617 4.30447 9.53075C4.00172 8.79985 3.9225 7.99558 4.07684 7.21966C4.23118 6.44374 4.61215 5.731 5.17156 5.17159C5.73097 4.61218 6.4437 4.23122 7.21962 4.07688C7.99555 3.92254 8.79981 4.00175 9.53072 4.3045C10.2616 4.60725 10.8863 5.11994 11.3259 5.77774C11.7654 6.43554 12 7.2089 12 8.00002C12.0002 8.52538 11.897 9.04564 11.696 9.53106C11.4951 10.0165 11.2005 10.4575 10.829 10.829C10.4575 11.2005 10.0164 11.4951 9.53102 11.6961C9.0456 11.897 8.52534 12.0003 7.99998 12ZM7.99998 5.33335C7.76197 5.33668 7.52548 5.37209 7.29693 5.43863C7.48532 5.69465 7.57573 6.00971 7.55175 6.32667C7.52777 6.64363 7.391 6.9415 7.16623 7.16627C6.94147 7.39104 6.6436 7.52781 6.32664 7.55179C6.00968 7.57577 5.69462 7.48536 5.4386 7.29697C5.29281 7.83407 5.31913 8.40338 5.51384 8.92474C5.70856 9.44611 6.06187 9.89329 6.52404 10.2033C6.98622 10.5134 7.53399 10.6707 8.09025 10.6531C8.64652 10.6356 9.18327 10.444 9.62495 10.1054C10.0666 9.76678 10.391 9.29819 10.5524 8.76557C10.7139 8.23295 10.7042 7.66313 10.5248 7.13629C10.3454 6.60946 10.0053 6.15214 9.55238 5.82872C9.09946 5.50529 8.55653 5.33204 7.99998 5.33335Z" fill="black"/>
</svg>
