<svg width="16" height="16" viewBox="0 0 16 16" fill="none" xmlns="http://www.w3.org/2000/svg">
<g clip-path="url(#clip0_1_908)">
<path d="M8.00016 4.66668C6.16016 4.66668 4.66683 6.16001 4.66683 8.00001C4.66683 9.84001 6.16016 11.3333 8.00016 11.3333C9.84016 11.3333 11.3335 9.84001 11.3335 8.00001C11.3335 6.16001 9.84016 4.66668 8.00016 4.66668ZM8.00016 1.33334C4.32016 1.33334 1.3335 4.32001 1.3335 8.00001C1.3335 11.68 4.32016 14.6667 8.00016 14.6667C11.6802 14.6667 14.6668 11.68 14.6668 8.00001C14.6668 4.32001 11.6802 1.33334 8.00016 1.33334ZM8.00016 13.3333C5.0535 13.3333 2.66683 10.9467 2.66683 8.00001C2.66683 5.05334 5.0535 2.66668 8.00016 2.66668C10.9468 2.66668 13.3335 5.05334 13.3335 8.00001C13.3335 10.9467 10.9468 13.3333 8.00016 13.3333Z" fill="white"/>
</g>
<defs>
<clipPath id="clip0_1_908">
<rect width="16" height="16" fill="white"/>
</clipPath>
</defs>
</svg>
