<svg width="21" height="21" viewBox="0 0 21 21" fill="none" xmlns="http://www.w3.org/2000/svg">
<g clip-path="url(#clip0_2_1000)">
<path d="M15.4438 5.55625C14.7962 4.90424 14.0259 4.38687 13.1775 4.03395C12.329 3.68104 11.419 3.49957 10.5 3.5C6.63254 3.5 3.50879 6.6325 3.50879 10.5C3.50879 14.3675 6.63254 17.5 10.5 17.5C13.7638 17.5 16.485 15.2688 17.2638 12.25H15.4438C15.0833 13.2733 14.4142 14.1596 13.5287 14.7865C12.6432 15.4134 11.585 15.75 10.5 15.75C7.60379 15.75 5.25004 13.3963 5.25004 10.5C5.25004 7.60375 7.60379 5.25 10.5 5.25C11.9525 5.25 13.2475 5.85375 14.1925 6.8075L11.375 9.625H17.5V3.5L15.4438 5.55625Z" fill="white"/>
</g>
<defs>
<clipPath id="clip0_2_1000">
<rect width="21" height="21" fill="white"/>
</clipPath>
</defs>
</svg>
