<svg width="63" height="20" viewBox="0 0 63 20" fill="none" xmlns="http://www.w3.org/2000/svg">
<mask id="mask0_2_934" style="mask-type:luminance" maskUnits="userSpaceOnUse" x="0" y="0" width="63" height="20">
<path d="M63 0H0V20H63V0Z" fill="white"/>
</mask>
<g mask="url(#mask0_2_934)">
<path d="M1.372 15V5.2H2.856L6.426 11.01L5.712 10.996L9.324 5.2H10.724V15H9.212V10.982C9.212 10.142 9.23067 9.386 9.268 8.714C9.31467 8.042 9.38933 7.37467 9.492 6.712L9.688 7.23L6.482 12.186H5.558L2.45 7.286L2.604 6.712C2.70667 7.33733 2.77667 7.98133 2.814 8.644C2.86067 9.29733 2.884 10.0767 2.884 10.982V15H1.372ZM14.3396 18.22L15.8236 14.79L15.8376 15.938L12.1696 7.65H13.8496L16.1456 13.054C16.1923 13.1473 16.2483 13.292 16.3136 13.488C16.3789 13.6747 16.4349 13.8613 16.4816 14.048L16.1176 14.132C16.1923 13.936 16.2623 13.74 16.3276 13.544C16.4023 13.348 16.4723 13.152 16.5376 12.956L18.4556 7.65H20.1636L17.1396 15L15.8936 18.22H14.3396ZM25.5302 15V5.2H27.0422V15H25.5302ZM26.2022 10.828V9.372H31.2562V10.828H26.2022ZM26.2022 6.656V5.2H31.8862V6.656H26.2022ZM36.813 15.14C36.057 15.14 35.385 14.9813 34.797 14.664C34.2183 14.3373 33.761 13.894 33.425 13.334C33.0983 12.774 32.935 12.13 32.935 11.402C32.935 10.8233 33.0283 10.296 33.215 9.82C33.4017 9.344 33.6583 8.93333 33.985 8.588C34.321 8.23333 34.7177 7.96267 35.175 7.776C35.6417 7.58 36.1457 7.482 36.687 7.482C37.163 7.482 37.6063 7.57533 38.017 7.762C38.4277 7.93933 38.7823 8.18667 39.081 8.504C39.389 8.82133 39.6223 9.19933 39.781 9.638C39.949 10.0673 40.0283 10.5387 40.019 11.052L40.005 11.668H33.999L33.677 10.52H38.759L38.549 10.758V10.422C38.521 10.114 38.4183 9.83867 38.241 9.596C38.0637 9.35333 37.8397 9.162 37.569 9.022C37.2983 8.882 37.0043 8.812 36.687 8.812C36.183 8.812 35.7583 8.91 35.413 9.106C35.0677 9.29267 34.8063 9.57267 34.629 9.946C34.4517 10.31 34.363 10.7627 34.363 11.304C34.363 11.8173 34.4703 12.2653 34.685 12.648C34.8997 13.0213 35.203 13.3107 35.595 13.516C35.987 13.7213 36.4397 13.824 36.953 13.824C37.317 13.824 37.653 13.7633 37.961 13.642C38.2783 13.5207 38.619 13.3013 38.983 12.984L39.711 14.006C39.487 14.23 39.2117 14.426 38.885 14.594C38.5677 14.762 38.227 14.8973 37.863 15C37.5083 15.0933 37.1583 15.14 36.813 15.14ZM45.0161 15.14C44.2601 15.14 43.5881 14.9813 43.0001 14.664C42.4215 14.3373 41.9641 13.894 41.6281 13.334C41.3015 12.774 41.1381 12.13 41.1381 11.402C41.1381 10.8233 41.2315 10.296 41.4181 9.82C41.6048 9.344 41.8615 8.93333 42.1881 8.588C42.5241 8.23333 42.9208 7.96267 43.3781 7.776C43.8448 7.58 44.3488 7.482 44.8901 7.482C45.3661 7.482 45.8095 7.57533 46.2201 7.762C46.6308 7.93933 46.9855 8.18667 47.2841 8.504C47.5921 8.82133 47.8255 9.19933 47.9841 9.638C48.1521 10.0673 48.2315 10.5387 48.2221 11.052L48.2081 11.668H42.2021L41.8801 10.52H46.9621L46.7521 10.758V10.422C46.7241 10.114 46.6215 9.83867 46.4441 9.596C46.2668 9.35333 46.0428 9.162 45.7721 9.022C45.5015 8.882 45.2075 8.812 44.8901 8.812C44.3861 8.812 43.9615 8.91 43.6161 9.106C43.2708 9.29267 43.0095 9.57267 42.8321 9.946C42.6548 10.31 42.5661 10.7627 42.5661 11.304C42.5661 11.8173 42.6735 12.2653 42.8881 12.648C43.1028 13.0213 43.4061 13.3107 43.7981 13.516C44.1901 13.7213 44.6428 13.824 45.1561 13.824C45.5201 13.824 45.8561 13.7633 46.1641 13.642C46.4815 13.5207 46.8221 13.3013 47.1861 12.984L47.9141 14.006C47.6901 14.23 47.4148 14.426 47.0881 14.594C46.7708 14.762 46.4301 14.8973 46.0661 15C45.7115 15.0933 45.3615 15.14 45.0161 15.14ZM52.8553 15.14C52.1833 15.14 51.5813 14.9767 51.0493 14.65C50.5266 14.314 50.1113 13.8613 49.8033 13.292C49.4953 12.7133 49.3413 12.0553 49.3413 11.318C49.3413 10.5807 49.4906 9.92733 49.7893 9.358C50.0973 8.77933 50.5126 8.32667 51.0353 8C51.5579 7.664 52.1506 7.496 52.8133 7.496C53.1773 7.496 53.5273 7.55667 53.8633 7.678C54.2086 7.79 54.5166 7.94867 54.7873 8.154C55.0579 8.35 55.2679 8.56933 55.4173 8.812C55.5759 9.04533 55.6553 9.28333 55.6553 9.526L55.2353 9.554V4.64H56.6773V15H55.2353V13.25H55.5153C55.5153 13.474 55.4406 13.698 55.2913 13.922C55.1419 14.1367 54.9413 14.3373 54.6893 14.524C54.4466 14.7107 54.1619 14.86 53.8353 14.972C53.5179 15.084 53.1913 15.14 52.8553 15.14ZM53.0513 13.894C53.4899 13.894 53.8773 13.782 54.2133 13.558C54.5493 13.334 54.8106 13.0307 54.9973 12.648C55.1933 12.256 55.2913 11.8127 55.2913 11.318C55.2913 10.8233 55.1933 10.3847 54.9973 10.002C54.8106 9.61 54.5493 9.302 54.2133 9.078C53.8773 8.854 53.4899 8.742 53.0513 8.742C52.6126 8.742 52.2253 8.854 51.8893 9.078C51.5533 9.302 51.2873 9.61 51.0913 10.002C50.9046 10.3847 50.8113 10.8233 50.8113 11.318C50.8113 11.8127 50.9046 12.256 51.0913 12.648C51.2873 13.0307 51.5533 13.334 51.8893 13.558C52.2253 13.782 52.6126 13.894 53.0513 13.894Z" fill="#DC143C"/>
</g>
</svg>
