<svg width="28" height="15" viewBox="0 0 28 15" fill="none" xmlns="http://www.w3.org/2000/svg">
<mask id="mask0_45_195" style="mask-type:luminance" maskUnits="userSpaceOnUse" x="0" y="0" width="28" height="15">
<path d="M28 0H0V15H28V0Z" fill="white"/>
</mask>
<g mask="url(#mask0_45_195)">
<path d="M2.772 12.5V5.348H0.42V4.1H6.492V5.348H4.068V12.5H2.772ZM9.52275 12.62C8.87475 12.62 8.29875 12.484 7.79475 12.212C7.29875 11.932 6.90675 11.552 6.61875 11.072C6.33875 10.592 6.19875 10.04 6.19875 9.416C6.19875 8.92 6.27875 8.468 6.43875 8.06C6.59875 7.652 6.81875 7.3 7.09875 7.004C7.38675 6.7 7.72675 6.468 8.11875 6.308C8.51875 6.14 8.95075 6.056 9.41475 6.056C9.82275 6.056 10.2028 6.136 10.5548 6.296C10.9068 6.448 11.2108 6.66 11.4668 6.932C11.7308 7.204 11.9308 7.528 12.0668 7.904C12.2108 8.272 12.2788 8.676 12.2708 9.116L12.2588 9.644H7.11075L6.83475 8.66H11.1908L11.0108 8.864V8.576C10.9868 8.312 10.8988 8.076 10.7468 7.868C10.5948 7.66 10.4028 7.496 10.1708 7.376C9.93875 7.256 9.68675 7.196 9.41475 7.196C8.98275 7.196 8.61875 7.28 8.32275 7.448C8.02675 7.608 7.80275 7.848 7.65075 8.168C7.49875 8.48 7.42275 8.868 7.42275 9.332C7.42275 9.772 7.51475 10.156 7.69875 10.484C7.88275 10.804 8.14275 11.052 8.47875 11.228C8.81475 11.404 9.20275 11.492 9.64275 11.492C9.95475 11.492 10.2428 11.44 10.5068 11.336C10.7788 11.232 11.0708 11.044 11.3828 10.772L12.0068 11.648C11.8148 11.84 11.5788 12.008 11.2988 12.152C11.0268 12.296 10.7348 12.412 10.4228 12.5C10.1188 12.58 9.81875 12.62 9.52275 12.62ZM16.29 12.62C15.706 12.62 15.182 12.476 14.718 12.188C14.262 11.9 13.898 11.508 13.626 11.012C13.362 10.516 13.23 9.96 13.23 9.344C13.23 8.728 13.362 8.172 13.626 7.676C13.898 7.18 14.262 6.788 14.718 6.5C15.182 6.212 15.706 6.068 16.29 6.068C16.85 6.068 17.358 6.184 17.814 6.416C18.278 6.64 18.63 6.948 18.87 7.34L18.186 8.18C18.058 7.996 17.894 7.828 17.694 7.676C17.494 7.524 17.282 7.404 17.058 7.316C16.834 7.228 16.618 7.184 16.41 7.184C16.026 7.184 15.682 7.28 15.378 7.472C15.082 7.656 14.846 7.912 14.67 8.24C14.494 8.568 14.406 8.936 14.406 9.344C14.406 9.752 14.498 10.12 14.682 10.448C14.866 10.768 15.11 11.024 15.414 11.216C15.718 11.408 16.054 11.504 16.422 11.504C16.638 11.504 16.846 11.468 17.046 11.396C17.254 11.324 17.454 11.216 17.646 11.072C17.838 10.928 18.018 10.752 18.186 10.544L18.87 11.384C18.614 11.744 18.246 12.04 17.766 12.272C17.294 12.504 16.802 12.62 16.29 12.62ZM20.0359 12.5V3.62H21.2719V7.496L21.0559 7.64C21.1359 7.36 21.2919 7.104 21.5239 6.872C21.7559 6.632 22.0319 6.44 22.3519 6.296C22.6719 6.144 22.9999 6.068 23.3359 6.068C23.8159 6.068 24.2159 6.164 24.5359 6.356C24.8559 6.54 25.0959 6.824 25.2559 7.208C25.4159 7.592 25.4959 8.076 25.4959 8.66V12.5H24.2599V8.744C24.2599 8.384 24.2119 8.088 24.1159 7.856C24.0199 7.616 23.8719 7.444 23.6719 7.34C23.4719 7.228 23.2239 7.18 22.9279 7.196C22.6879 7.196 22.4679 7.236 22.2679 7.316C22.0679 7.388 21.8919 7.492 21.7399 7.628C21.5959 7.764 21.4799 7.924 21.3919 8.108C21.3119 8.284 21.2719 8.476 21.2719 8.684V12.5H20.6599C20.5559 12.5 20.4519 12.5 20.3479 12.5C20.2439 12.5 20.1399 12.5 20.0359 12.5Z" fill="white"/>
</g>
</svg>
