<svg width="14" height="14" viewBox="0 0 14 14" fill="none" xmlns="http://www.w3.org/2000/svg">
<g clip-path="url(#clip0_5_285)">
<path d="M7.00002 14C7.9658 14 8.7492 13.2166 8.7492 12.25H5.25084C5.25084 13.2166 6.03424 14 7.00002 14ZM12.8896 9.90637C12.3613 9.33871 11.3728 8.48477 11.3728 5.6875C11.3728 3.56289 9.88314 1.86211 7.87447 1.44484V0.875C7.87447 0.391836 7.48291 0 7.00002 0C6.51713 0 6.12557 0.391836 6.12557 0.875V1.44484C4.11689 1.86211 2.62721 3.56289 2.62721 5.6875C2.62721 8.48477 1.63873 9.33871 1.11045 9.90637C0.946386 10.0827 0.873652 10.2936 0.875019 10.5C0.878027 10.9484 1.22994 11.375 1.75275 11.375H12.2473C12.7701 11.375 13.1223 10.9484 13.125 10.5C13.1264 10.2936 13.0537 10.0825 12.8896 9.90637Z" fill="black"/>
</g>
<defs>
<clipPath id="clip0_5_285">
<rect width="14" height="14" fill="white"/>
</clipPath>
</defs>
</svg>
