<svg width="14" height="14" viewBox="0 0 14 14" fill="none" xmlns="http://www.w3.org/2000/svg">
<path d="M7.91641 12.1708L7.30938 12.7778C7.05234 13.0348 6.63672 13.0348 6.38242 12.7778L1.0668 7.46489C0.809766 7.20786 0.809766 6.79224 1.0668 6.53794L6.38242 1.22231C6.63945 0.965283 7.05508 0.965283 7.30938 1.22231L7.91641 1.82935C8.17617 2.08911 8.1707 2.51294 7.90547 2.76724L4.61055 5.9063H12.4691C12.8328 5.9063 13.1254 6.19888 13.1254 6.56255V7.43755C13.1254 7.80122 12.8328 8.0938 12.4691 8.0938H4.61055L7.90547 11.2329C8.17344 11.4872 8.17891 11.911 7.91641 12.1708Z" fill="black"/>
</svg>
