<svg width="46" height="46" viewBox="0 0 46 46" fill="none" xmlns="http://www.w3.org/2000/svg">
<path d="M2.875 40.25C2.875 41.8402 4.15977 43.125 5.75 43.125H20.125V28.75H2.875V40.25ZM25.875 43.125H40.25C41.8402 43.125 43.125 41.8402 43.125 40.25V28.75H25.875V43.125ZM43.125 14.375H39.3426C39.8996 13.2879 40.25 12.084 40.25 10.7812C40.25 6.42383 36.7012 2.875 32.3438 2.875C28.6063 2.875 26.1895 4.78867 23.0898 9.01133C19.9902 4.78867 17.5734 2.875 13.8359 2.875C9.47852 2.875 5.92969 6.42383 5.92969 10.7812C5.92969 12.084 6.27109 13.2879 6.83711 14.375H2.875C1.28477 14.375 0 15.6598 0 17.25V24.4375C0 25.2281 0.646875 25.875 1.4375 25.875H44.5625C45.3531 25.875 46 25.2281 46 24.4375V17.25C46 15.6598 44.7152 14.375 43.125 14.375ZM13.827 14.375C11.8414 14.375 10.2332 12.7668 10.2332 10.7812C10.2332 8.7957 11.8414 7.1875 13.827 7.1875C15.6148 7.1875 16.9355 7.48398 21.5625 14.375H13.827ZM32.3438 14.375H24.6082C29.2262 7.50195 30.5109 7.1875 32.3438 7.1875C34.3293 7.1875 35.9375 8.7957 35.9375 10.7812C35.9375 12.7668 34.3293 14.375 32.3438 14.375Z" fill="white"/>
</svg>
