<svg width="48" height="17" viewBox="0 0 48 17" fill="none" xmlns="http://www.w3.org/2000/svg">
<mask id="mask0_5_85" style="mask-type:luminance" maskUnits="userSpaceOnUse" x="0" y="0" width="48" height="17">
<path d="M48 0H0V17H48V0Z" fill="white"/>
</mask>
<g mask="url(#mask0_5_85)">
<path d="M2.42676 9.2627L1.41504 9.00293L1.91406 4.04688H7.02051V5.21582H2.9873L2.68652 7.92285C2.86882 7.81803 3.09896 7.72005 3.37695 7.62891C3.65951 7.53776 3.98307 7.49219 4.34766 7.49219C4.80794 7.49219 5.22038 7.57194 5.58496 7.73145C5.94954 7.88639 6.25944 8.1097 6.51465 8.40137C6.77441 8.69303 6.97266 9.04395 7.10938 9.4541C7.24609 9.86426 7.31445 10.3223 7.31445 10.8281C7.31445 11.3066 7.24837 11.7464 7.11621 12.1475C6.98861 12.5485 6.79492 12.8994 6.53516 13.2002C6.27539 13.4964 5.94727 13.7266 5.55078 13.8906C5.15885 14.0547 4.69629 14.1367 4.16309 14.1367C3.76204 14.1367 3.38151 14.082 3.02148 13.9727C2.66602 13.8587 2.34701 13.6878 2.06445 13.46C1.78646 13.2275 1.55859 12.9404 1.38086 12.5986C1.20768 12.2523 1.09831 11.8467 1.05273 11.3818H2.25586C2.31055 11.7555 2.41992 12.07 2.58398 12.3252C2.74805 12.5804 2.96224 12.7741 3.22656 12.9062C3.49544 13.0339 3.80762 13.0977 4.16309 13.0977C4.46387 13.0977 4.73047 13.0452 4.96289 12.9404C5.19531 12.8356 5.39128 12.6852 5.55078 12.4893C5.71029 12.2933 5.83105 12.0563 5.91309 11.7783C5.99967 11.5003 6.04297 11.1882 6.04297 10.8418C6.04297 10.5273 5.99967 10.2357 5.91309 9.9668C5.8265 9.69792 5.69661 9.46322 5.52344 9.2627C5.35482 9.06217 5.14746 8.90723 4.90137 8.79785C4.65527 8.68392 4.37272 8.62695 4.05371 8.62695C3.62988 8.62695 3.30859 8.68392 3.08984 8.79785C2.87565 8.91178 2.65462 9.06673 2.42676 9.2627ZM10.0967 8.07324V14H8.8252V6.60352H10.0283L10.0967 8.07324ZM9.83691 10.0215L9.24902 10.001C9.25358 9.49512 9.31966 9.02799 9.44727 8.59961C9.57487 8.16667 9.764 7.79069 10.0146 7.47168C10.2653 7.15267 10.5775 6.90658 10.9512 6.7334C11.3249 6.55566 11.7578 6.4668 12.25 6.4668C12.5964 6.4668 12.9154 6.51693 13.207 6.61719C13.4987 6.71289 13.7516 6.86556 13.9658 7.0752C14.18 7.28483 14.3464 7.55371 14.4648 7.88184C14.5833 8.20996 14.6426 8.60645 14.6426 9.07129V14H13.3779V9.13281C13.3779 8.74544 13.3118 8.43555 13.1797 8.20312C13.0521 7.9707 12.8698 7.80208 12.6328 7.69727C12.3958 7.58789 12.1178 7.5332 11.7988 7.5332C11.4251 7.5332 11.113 7.59928 10.8623 7.73145C10.6117 7.86361 10.4111 8.0459 10.2607 8.27832C10.1104 8.51074 10.001 8.77734 9.93262 9.07812C9.86882 9.37435 9.83691 9.6888 9.83691 10.0215ZM14.6289 9.32422L13.7812 9.58398C13.7858 9.17839 13.8519 8.78874 13.9795 8.41504C14.1117 8.04134 14.3008 7.70866 14.5469 7.41699C14.7975 7.12533 15.1051 6.89518 15.4697 6.72656C15.8343 6.55339 16.2513 6.4668 16.7207 6.4668C17.1172 6.4668 17.4681 6.51921 17.7734 6.62402C18.0833 6.72884 18.3431 6.89062 18.5527 7.10938C18.7669 7.32357 18.9287 7.59928 19.0381 7.93652C19.1475 8.27376 19.2021 8.6748 19.2021 9.13965V14H17.9307V9.12598C17.9307 8.71126 17.8646 8.38997 17.7324 8.16211C17.6048 7.92969 17.4225 7.7679 17.1855 7.67676C16.9531 7.58105 16.6751 7.5332 16.3516 7.5332C16.0736 7.5332 15.8275 7.58105 15.6133 7.67676C15.3991 7.77246 15.2191 7.90462 15.0732 8.07324C14.9274 8.2373 14.8158 8.42643 14.7383 8.64062C14.6654 8.85482 14.6289 9.08268 14.6289 9.32422ZM28.9502 12.7354V8.92773C28.9502 8.63607 28.891 8.38314 28.7725 8.16895C28.6585 7.9502 28.4854 7.78158 28.2529 7.66309C28.0205 7.5446 27.7334 7.48535 27.3916 7.48535C27.0726 7.48535 26.7923 7.54004 26.5508 7.64941C26.3138 7.75879 26.127 7.90234 25.9902 8.08008C25.8581 8.25781 25.792 8.44922 25.792 8.6543H24.5273C24.5273 8.38997 24.5957 8.12793 24.7324 7.86816C24.8691 7.6084 25.0651 7.3737 25.3203 7.16406C25.5801 6.94987 25.89 6.78125 26.25 6.6582C26.6146 6.5306 27.0202 6.4668 27.4668 6.4668C28.0046 6.4668 28.4785 6.55794 28.8887 6.74023C29.3034 6.92253 29.627 7.19824 29.8594 7.56738C30.0964 7.93197 30.2148 8.38997 30.2148 8.94141V12.3867C30.2148 12.6328 30.2354 12.8949 30.2764 13.1729C30.3219 13.4508 30.388 13.6901 30.4746 13.8906V14H29.1553C29.0915 13.8542 29.0413 13.6605 29.0049 13.4189C28.9684 13.1729 28.9502 12.945 28.9502 12.7354ZM29.1689 9.51562L29.1826 10.4043H27.9043C27.5443 10.4043 27.223 10.4339 26.9404 10.4932C26.6579 10.5479 26.4209 10.6322 26.2295 10.7461C26.0381 10.86 25.8923 11.0036 25.792 11.1768C25.6917 11.3454 25.6416 11.5436 25.6416 11.7715C25.6416 12.0039 25.694 12.2158 25.7988 12.4072C25.9036 12.5986 26.0609 12.7513 26.2705 12.8652C26.4847 12.9746 26.7467 13.0293 27.0566 13.0293C27.444 13.0293 27.7858 12.9473 28.082 12.7832C28.3783 12.6191 28.613 12.4186 28.7861 12.1816C28.9639 11.9447 29.0596 11.7145 29.0732 11.4912L29.6133 12.0996C29.5814 12.291 29.4948 12.5029 29.3535 12.7354C29.2122 12.9678 29.0231 13.1911 28.7861 13.4053C28.5537 13.6149 28.2757 13.7904 27.9521 13.9316C27.6331 14.0684 27.2731 14.1367 26.8721 14.1367C26.3708 14.1367 25.931 14.0387 25.5527 13.8428C25.179 13.6468 24.8874 13.3848 24.6777 13.0566C24.4727 12.724 24.3701 12.3525 24.3701 11.9424C24.3701 11.5459 24.4476 11.1973 24.6025 10.8965C24.7575 10.5911 24.9808 10.3382 25.2725 10.1377C25.5641 9.93262 25.915 9.77767 26.3252 9.67285C26.7354 9.56803 27.1934 9.51562 27.6992 9.51562H29.1689ZM36.9961 6.60352H38.1445V13.8428C38.1445 14.4945 38.0124 15.0505 37.748 15.5107C37.4837 15.971 37.1146 16.3197 36.6406 16.5566C36.1712 16.7982 35.6289 16.9189 35.0137 16.9189C34.7585 16.9189 34.4577 16.8779 34.1113 16.7959C33.7695 16.7184 33.4323 16.584 33.0996 16.3926C32.7715 16.2057 32.4958 15.9528 32.2725 15.6338L32.9355 14.8818C33.2454 15.2555 33.569 15.5153 33.9062 15.6611C34.248 15.807 34.5853 15.8799 34.918 15.8799C35.319 15.8799 35.6654 15.8047 35.957 15.6543C36.2487 15.5039 36.4743 15.2806 36.6338 14.9844C36.7979 14.6927 36.8799 14.3327 36.8799 13.9043V8.23047L36.9961 6.60352ZM31.9033 10.3838V10.2402C31.9033 9.67513 31.9694 9.16243 32.1016 8.70215C32.2383 8.2373 32.432 7.83854 32.6826 7.50586C32.9378 7.17318 33.2454 6.91797 33.6055 6.74023C33.9655 6.55794 34.3711 6.4668 34.8223 6.4668C35.2871 6.4668 35.6927 6.54883 36.0391 6.71289C36.39 6.8724 36.6862 7.1071 36.9277 7.41699C37.1738 7.72233 37.3675 8.09147 37.5088 8.52441C37.6501 8.95736 37.748 9.44727 37.8027 9.99414V10.623C37.7526 11.1654 37.6546 11.653 37.5088 12.0859C37.3675 12.5189 37.1738 12.888 36.9277 13.1934C36.6862 13.4987 36.39 13.7334 36.0391 13.8975C35.6882 14.057 35.278 14.1367 34.8086 14.1367C34.3665 14.1367 33.9655 14.0433 33.6055 13.8564C33.25 13.6696 32.9447 13.4076 32.6895 13.0703C32.4342 12.7331 32.2383 12.3366 32.1016 11.8809C31.9694 11.4206 31.9033 10.9215 31.9033 10.3838ZM33.168 10.2402V10.3838C33.168 10.7529 33.2044 11.0993 33.2773 11.4229C33.3548 11.7464 33.471 12.0312 33.626 12.2773C33.7855 12.5234 33.9883 12.7171 34.2344 12.8584C34.4805 12.9951 34.7744 13.0635 35.1162 13.0635C35.5355 13.0635 35.8818 12.9746 36.1553 12.7969C36.4287 12.6191 36.6452 12.3844 36.8047 12.0928C36.9688 11.8011 37.0964 11.4844 37.1875 11.1426V9.49512C37.1374 9.24447 37.0599 9.00293 36.9551 8.77051C36.8548 8.53353 36.7227 8.32389 36.5586 8.1416C36.3991 7.95475 36.2008 7.80664 35.9639 7.69727C35.7269 7.58789 35.4489 7.5332 35.1299 7.5332C34.7835 7.5332 34.485 7.60612 34.2344 7.75195C33.9883 7.89323 33.7855 8.08919 33.626 8.33984C33.471 8.58594 33.3548 8.87305 33.2773 9.20117C33.2044 9.52474 33.168 9.87109 33.168 10.2402ZM39.7305 10.3838V10.2266C39.7305 9.69336 39.8079 9.19889 39.9629 8.74316C40.1178 8.28288 40.3411 7.88411 40.6328 7.54688C40.9245 7.20508 41.2777 6.94076 41.6924 6.75391C42.1071 6.5625 42.5719 6.4668 43.0869 6.4668C43.6064 6.4668 44.0736 6.5625 44.4883 6.75391C44.9076 6.94076 45.263 7.20508 45.5547 7.54688C45.8509 7.88411 46.0765 8.28288 46.2314 8.74316C46.3864 9.19889 46.4639 9.69336 46.4639 10.2266V10.3838C46.4639 10.917 46.3864 11.4115 46.2314 11.8672C46.0765 12.3229 45.8509 12.7217 45.5547 13.0635C45.263 13.4007 44.9098 13.665 44.4951 13.8564C44.085 14.0433 43.6201 14.1367 43.1006 14.1367C42.5811 14.1367 42.1139 14.0433 41.6992 13.8564C41.2845 13.665 40.929 13.4007 40.6328 13.0635C40.3411 12.7217 40.1178 12.3229 39.9629 11.8672C39.8079 11.4115 39.7305 10.917 39.7305 10.3838ZM40.9951 10.2266V10.3838C40.9951 10.7529 41.0384 11.1016 41.125 11.4297C41.2116 11.7533 41.3415 12.0404 41.5146 12.291C41.6924 12.5417 41.9134 12.7399 42.1777 12.8857C42.4421 13.027 42.7497 13.0977 43.1006 13.0977C43.4469 13.0977 43.75 13.027 44.0098 12.8857C44.2741 12.7399 44.4928 12.5417 44.666 12.291C44.8392 12.0404 44.9691 11.7533 45.0557 11.4297C45.1468 11.1016 45.1924 10.7529 45.1924 10.3838V10.2266C45.1924 9.86198 45.1468 9.5179 45.0557 9.19434C44.9691 8.86621 44.8369 8.57682 44.6592 8.32617C44.486 8.07096 44.2673 7.87044 44.0029 7.72461C43.7432 7.57878 43.4378 7.50586 43.0869 7.50586C42.7406 7.50586 42.4352 7.57878 42.1709 7.72461C41.9111 7.87044 41.6924 8.07096 41.5146 8.32617C41.3415 8.57682 41.2116 8.86621 41.125 9.19434C41.0384 9.5179 40.9951 9.86198 40.9951 10.2266Z" fill="#6B7280"/>
</g>
</svg>
