<svg width="21" height="21" viewBox="0 0 21 21" fill="none" xmlns="http://www.w3.org/2000/svg">
<g clip-path="url(#clip0_42_53)">
<path d="M15.75 13.125C14.8227 13.125 13.9705 13.4457 13.2977 13.982L9.09415 11.3548C9.21863 10.7917 9.21863 10.2082 9.09415 9.64515L13.2977 7.01794C13.9705 7.5543 14.8227 7.875 15.75 7.875C17.9246 7.875 19.6875 6.11211 19.6875 3.9375C19.6875 1.76289 17.9246 0 15.75 0C13.5754 0 11.8125 1.76289 11.8125 3.9375C11.8125 4.23109 11.8449 4.51705 11.9059 4.79231L7.70232 7.41952C7.02954 6.8832 6.17728 6.5625 5.25 6.5625C3.07539 6.5625 1.3125 8.32539 1.3125 10.5C1.3125 12.6746 3.07539 14.4375 5.25 14.4375C6.17728 14.4375 7.02954 14.1168 7.70232 13.5805L11.9059 16.2077C11.8437 16.4884 11.8124 16.775 11.8125 17.0625C11.8125 19.2371 13.5754 21 15.75 21C17.9246 21 19.6875 19.2371 19.6875 17.0625C19.6875 14.8879 17.9246 13.125 15.75 13.125Z" fill="black"/>
</g>
<defs>
<clipPath id="clip0_42_53">
<rect width="21" height="21" fill="white"/>
</clipPath>
</defs>
</svg>
