<svg width="43" height="17" viewBox="0 0 43 17" fill="none" xmlns="http://www.w3.org/2000/svg">
<mask id="mask0_5_108" style="mask-type:luminance" maskUnits="userSpaceOnUse" x="0" y="0" width="43" height="17">
<path d="M43 0H0V17H43V0Z" fill="white"/>
</mask>
<g mask="url(#mask0_5_108)">
<path d="M7.34863 12.9609V14H0.833984V13.0908L4.09473 9.46094C4.49577 9.01432 4.80566 8.63607 5.02441 8.32617C5.24772 8.01172 5.40267 7.73145 5.48926 7.48535C5.5804 7.2347 5.62598 6.97949 5.62598 6.71973C5.62598 6.3916 5.55762 6.09538 5.4209 5.83105C5.28874 5.56217 5.09277 5.34798 4.83301 5.18848C4.57324 5.02897 4.25879 4.94922 3.88965 4.94922C3.44759 4.94922 3.07845 5.03581 2.78223 5.20898C2.49056 5.3776 2.27181 5.61458 2.12598 5.91992C1.98014 6.22526 1.90723 6.57617 1.90723 6.97266H0.642578C0.642578 6.41211 0.765625 5.89941 1.01172 5.43457C1.25781 4.96973 1.6224 4.60059 2.10547 4.32715C2.58854 4.04915 3.18327 3.91016 3.88965 3.91016C4.51855 3.91016 5.05632 4.02181 5.50293 4.24512C5.94954 4.46387 6.29134 4.77376 6.52832 5.1748C6.76986 5.57129 6.89062 6.03613 6.89062 6.56934C6.89062 6.861 6.84049 7.15723 6.74023 7.45801C6.64453 7.75423 6.51009 8.05046 6.33691 8.34668C6.16829 8.6429 5.97005 8.93457 5.74219 9.22168C5.51888 9.50879 5.27962 9.79134 5.02441 10.0693L2.3584 12.9609H7.34863ZM10.1035 3.5V14H8.83887V3.5H10.1035ZM9.80273 10.0215L9.27637 10.001C9.28092 9.49512 9.35612 9.02799 9.50195 8.59961C9.64779 8.16667 9.85286 7.79069 10.1172 7.47168C10.3815 7.15267 10.696 6.90658 11.0605 6.7334C11.4297 6.55566 11.8376 6.4668 12.2842 6.4668C12.6488 6.4668 12.9769 6.51693 13.2686 6.61719C13.5602 6.71289 13.8086 6.86784 14.0137 7.08203C14.2233 7.29622 14.3828 7.57422 14.4922 7.91602C14.6016 8.25326 14.6562 8.66569 14.6562 9.15332V14H13.3848V9.13965C13.3848 8.75228 13.3278 8.44238 13.2139 8.20996C13.0999 7.97298 12.9336 7.80208 12.7148 7.69727C12.4961 7.58789 12.2272 7.5332 11.9082 7.5332C11.5938 7.5332 11.3066 7.59928 11.0469 7.73145C10.7917 7.86361 10.5706 8.0459 10.3838 8.27832C10.2015 8.51074 10.0579 8.77734 9.95312 9.07812C9.85286 9.37435 9.80273 9.6888 9.80273 10.0215ZM24.3838 12.7354V8.92773C24.3838 8.63607 24.3245 8.38314 24.2061 8.16895C24.0921 7.9502 23.9189 7.78158 23.6865 7.66309C23.4541 7.5446 23.167 7.48535 22.8252 7.48535C22.5062 7.48535 22.2259 7.54004 21.9844 7.64941C21.7474 7.75879 21.5605 7.90234 21.4238 8.08008C21.2917 8.25781 21.2256 8.44922 21.2256 8.6543H19.9609C19.9609 8.38997 20.0293 8.12793 20.166 7.86816C20.3027 7.6084 20.4987 7.3737 20.7539 7.16406C21.0137 6.94987 21.3236 6.78125 21.6836 6.6582C22.0482 6.5306 22.4538 6.4668 22.9004 6.4668C23.4382 6.4668 23.9121 6.55794 24.3223 6.74023C24.737 6.92253 25.0605 7.19824 25.293 7.56738C25.5299 7.93197 25.6484 8.38997 25.6484 8.94141V12.3867C25.6484 12.6328 25.6689 12.8949 25.71 13.1729C25.7555 13.4508 25.8216 13.6901 25.9082 13.8906V14H24.5889C24.5251 13.8542 24.4749 13.6605 24.4385 13.4189C24.402 13.1729 24.3838 12.945 24.3838 12.7354ZM24.6025 9.51562L24.6162 10.4043H23.3379C22.9779 10.4043 22.6566 10.4339 22.374 10.4932C22.0915 10.5479 21.8545 10.6322 21.6631 10.7461C21.4717 10.86 21.3258 11.0036 21.2256 11.1768C21.1253 11.3454 21.0752 11.5436 21.0752 11.7715C21.0752 12.0039 21.1276 12.2158 21.2324 12.4072C21.3372 12.5986 21.4945 12.7513 21.7041 12.8652C21.9183 12.9746 22.1803 13.0293 22.4902 13.0293C22.8776 13.0293 23.2194 12.9473 23.5156 12.7832C23.8118 12.6191 24.0465 12.4186 24.2197 12.1816C24.3975 11.9447 24.4932 11.7145 24.5068 11.4912L25.0469 12.0996C25.015 12.291 24.9284 12.5029 24.7871 12.7354C24.6458 12.9678 24.4567 13.1911 24.2197 13.4053C23.9873 13.6149 23.7093 13.7904 23.3857 13.9316C23.0667 14.0684 22.7067 14.1367 22.3057 14.1367C21.8044 14.1367 21.3646 14.0387 20.9863 13.8428C20.6126 13.6468 20.321 13.3848 20.1113 13.0566C19.9062 12.724 19.8037 12.3525 19.8037 11.9424C19.8037 11.5459 19.8812 11.1973 20.0361 10.8965C20.1911 10.5911 20.4144 10.3382 20.7061 10.1377C20.9977 9.93262 21.3486 9.77767 21.7588 9.67285C22.1689 9.56803 22.627 9.51562 23.1328 9.51562H24.6025ZM32.4297 6.60352H33.5781V13.8428C33.5781 14.4945 33.446 15.0505 33.1816 15.5107C32.9173 15.971 32.5482 16.3197 32.0742 16.5566C31.6048 16.7982 31.0625 16.9189 30.4473 16.9189C30.1921 16.9189 29.8913 16.8779 29.5449 16.7959C29.2031 16.7184 28.8659 16.584 28.5332 16.3926C28.2051 16.2057 27.9294 15.9528 27.7061 15.6338L28.3691 14.8818C28.679 15.2555 29.0026 15.5153 29.3398 15.6611C29.6816 15.807 30.0189 15.8799 30.3516 15.8799C30.7526 15.8799 31.099 15.8047 31.3906 15.6543C31.6823 15.5039 31.9079 15.2806 32.0674 14.9844C32.2314 14.6927 32.3135 14.3327 32.3135 13.9043V8.23047L32.4297 6.60352ZM27.3369 10.3838V10.2402C27.3369 9.67513 27.403 9.16243 27.5352 8.70215C27.6719 8.2373 27.8656 7.83854 28.1162 7.50586C28.3714 7.17318 28.679 6.91797 29.0391 6.74023C29.3991 6.55794 29.8047 6.4668 30.2559 6.4668C30.7207 6.4668 31.1263 6.54883 31.4727 6.71289C31.8236 6.8724 32.1198 7.1071 32.3613 7.41699C32.6074 7.72233 32.8011 8.09147 32.9424 8.52441C33.0837 8.95736 33.1816 9.44727 33.2363 9.99414V10.623C33.1862 11.1654 33.0882 11.653 32.9424 12.0859C32.8011 12.5189 32.6074 12.888 32.3613 13.1934C32.1198 13.4987 31.8236 13.7334 31.4727 13.8975C31.1217 14.057 30.7116 14.1367 30.2422 14.1367C29.8001 14.1367 29.3991 14.0433 29.0391 13.8564C28.6836 13.6696 28.3783 13.4076 28.123 13.0703C27.8678 12.7331 27.6719 12.3366 27.5352 11.8809C27.403 11.4206 27.3369 10.9215 27.3369 10.3838ZM28.6016 10.2402V10.3838C28.6016 10.7529 28.638 11.0993 28.7109 11.4229C28.7884 11.7464 28.9046 12.0312 29.0596 12.2773C29.2191 12.5234 29.4219 12.7171 29.668 12.8584C29.9141 12.9951 30.208 13.0635 30.5498 13.0635C30.9691 13.0635 31.3154 12.9746 31.5889 12.7969C31.8623 12.6191 32.0788 12.3844 32.2383 12.0928C32.4023 11.8011 32.5299 11.4844 32.6211 11.1426V9.49512C32.571 9.24447 32.4935 9.00293 32.3887 8.77051C32.2884 8.53353 32.1562 8.32389 31.9922 8.1416C31.8327 7.95475 31.6344 7.80664 31.3975 7.69727C31.1605 7.58789 30.8825 7.5332 30.5635 7.5332C30.2171 7.5332 29.9186 7.60612 29.668 7.75195C29.4219 7.89323 29.2191 8.08919 29.0596 8.33984C28.9046 8.58594 28.7884 8.87305 28.7109 9.20117C28.638 9.52474 28.6016 9.87109 28.6016 10.2402ZM35.1641 10.3838V10.2266C35.1641 9.69336 35.2415 9.19889 35.3965 8.74316C35.5514 8.28288 35.7747 7.88411 36.0664 7.54688C36.3581 7.20508 36.7113 6.94076 37.126 6.75391C37.5407 6.5625 38.0055 6.4668 38.5205 6.4668C39.04 6.4668 39.5072 6.5625 39.9219 6.75391C40.3411 6.94076 40.6966 7.20508 40.9883 7.54688C41.2845 7.88411 41.5101 8.28288 41.665 8.74316C41.82 9.19889 41.8975 9.69336 41.8975 10.2266V10.3838C41.8975 10.917 41.82 11.4115 41.665 11.8672C41.5101 12.3229 41.2845 12.7217 40.9883 13.0635C40.6966 13.4007 40.3434 13.665 39.9287 13.8564C39.5186 14.0433 39.0537 14.1367 38.5342 14.1367C38.0146 14.1367 37.5475 14.0433 37.1328 13.8564C36.7181 13.665 36.3626 13.4007 36.0664 13.0635C35.7747 12.7217 35.5514 12.3229 35.3965 11.8672C35.2415 11.4115 35.1641 10.917 35.1641 10.3838ZM36.4287 10.2266V10.3838C36.4287 10.7529 36.472 11.1016 36.5586 11.4297C36.6452 11.7533 36.7751 12.0404 36.9482 12.291C37.126 12.5417 37.347 12.7399 37.6113 12.8857C37.8757 13.027 38.1833 13.0977 38.5342 13.0977C38.8805 13.0977 39.1836 13.027 39.4434 12.8857C39.7077 12.7399 39.9264 12.5417 40.0996 12.291C40.2728 12.0404 40.4027 11.7533 40.4893 11.4297C40.5804 11.1016 40.626 10.7529 40.626 10.3838V10.2266C40.626 9.86198 40.5804 9.5179 40.4893 9.19434C40.4027 8.86621 40.2705 8.57682 40.0928 8.32617C39.9196 8.07096 39.7008 7.87044 39.4365 7.72461C39.1768 7.57878 38.8714 7.50586 38.5205 7.50586C38.1742 7.50586 37.8688 7.57878 37.6045 7.72461C37.3447 7.87044 37.126 8.07096 36.9482 8.32617C36.7751 8.57682 36.6452 8.86621 36.5586 9.19434C36.472 9.5179 36.4287 9.86198 36.4287 10.2266Z" fill="#6B7280"/>
</g>
</svg>
