<svg width="12" height="12" viewBox="0 0 12 12" fill="none" xmlns="http://www.w3.org/2000/svg">
<path d="M6.75 3.1875V0H2.0625C1.75078 0 1.5 0.250781 1.5 0.5625V11.4375C1.5 11.7492 1.75078 12 2.0625 12H9.9375C10.2492 12 10.5 11.7492 10.5 11.4375V3.75H7.3125C7.00313 3.75 6.75 3.49688 6.75 3.1875ZM8.25 8.71875C8.25 8.87344 8.12344 9 7.96875 9H4.03125C3.87656 9 3.75 8.87344 3.75 8.71875V8.53125C3.75 8.37656 3.87656 8.25 4.03125 8.25H7.96875C8.12344 8.25 8.25 8.37656 8.25 8.53125V8.71875ZM8.25 7.21875C8.25 7.37344 8.12344 7.5 7.96875 7.5H4.03125C3.87656 7.5 3.75 7.37344 3.75 7.21875V7.03125C3.75 6.87656 3.87656 6.75 4.03125 6.75H7.96875C8.12344 6.75 8.25 6.87656 8.25 7.03125V7.21875ZM8.25 5.53125V5.71875C8.25 5.87344 8.12344 6 7.96875 6H4.03125C3.87656 6 3.75 5.87344 3.75 5.71875V5.53125C3.75 5.37656 3.87656 5.25 4.03125 5.25H7.96875C8.12344 5.25 8.25 5.37656 8.25 5.53125ZM10.5 2.85703V3H7.5V0H7.64297C7.79297 0 7.93594 0.0585938 8.04141 0.164062L10.3359 2.46094C10.4414 2.56641 10.5 2.70938 10.5 2.85703Z" fill="black"/>
</svg>
