<svg width="14" height="14" viewBox="0 0 14 14" fill="none" xmlns="http://www.w3.org/2000/svg">
<path d="M7.91641 12.1707L7.30938 12.7777C7.05234 13.0348 6.63672 13.0348 6.38242 12.7777L1.0668 7.46483C0.809766 7.2078 0.809766 6.79218 1.0668 6.53788L6.38242 1.22225C6.63945 0.965222 7.05508 0.965222 7.30938 1.22225L7.91641 1.82928C8.17617 2.08905 8.1707 2.51288 7.90547 2.76718L4.61055 5.90624H12.4691C12.8328 5.90624 13.1254 6.19882 13.1254 6.56249V7.43749C13.1254 7.80116 12.8328 8.09374 12.4691 8.09374H4.61055L7.90547 11.2328C8.17344 11.4871 8.17891 11.9109 7.91641 12.1707Z" fill="black"/>
</svg>
