<svg width="16" height="16" viewBox="0 0 16 16" fill="none" xmlns="http://www.w3.org/2000/svg">
<g clip-path="url(#clip0_46_237)">
<path d="M15.2316 9.86564L13.9004 9.09689C14.0348 8.37189 14.0348 7.62814 13.9004 6.90314L15.2316 6.13439C15.3848 6.04689 15.4535 5.86564 15.4035 5.69689C15.0566 4.58439 14.466 3.57814 13.6941 2.74064C13.5754 2.61252 13.3816 2.58127 13.2316 2.66877L11.9004 3.43752C11.341 2.95627 10.6973 2.58439 10.0004 2.34064V0.806267C10.0004 0.631267 9.87851 0.478142 9.70664 0.440642C8.55976 0.184392 7.38476 0.196892 6.29414 0.440642C6.12226 0.478142 6.00039 0.631267 6.00039 0.806267V2.34377C5.30664 2.59064 4.66289 2.96252 4.10039 3.44064L2.77226 2.67189C2.61914 2.58439 2.42851 2.61252 2.30976 2.74377C1.53789 3.57814 0.947262 4.58439 0.600387 5.70002C0.547262 5.86877 0.619137 6.05002 0.772262 6.13752L2.10351 6.90627C1.96914 7.63127 1.96914 8.37502 2.10351 9.10002L0.772262 9.86877C0.619137 9.95627 0.550387 10.1375 0.600387 10.3063C0.947262 11.4188 1.53789 12.425 2.30976 13.2625C2.42851 13.3906 2.62226 13.4219 2.77226 13.3344L4.10351 12.5656C4.66289 13.0469 5.30664 13.4188 6.00351 13.6625V15.2C6.00351 15.375 6.12539 15.5281 6.29726 15.5656C7.44414 15.8219 8.61914 15.8094 9.70976 15.5656C9.88164 15.5281 10.0035 15.375 10.0035 15.2V13.6625C10.6973 13.4156 11.341 13.0438 11.9035 12.5656L13.2348 13.3344C13.3879 13.4219 13.5785 13.3938 13.6973 13.2625C14.4691 12.4281 15.0598 11.4219 15.4066 10.3063C15.4535 10.1344 15.3848 9.95314 15.2316 9.86564ZM8.00039 10.5C6.62226 10.5 5.50039 9.37814 5.50039 8.00002C5.50039 6.62189 6.62226 5.50002 8.00039 5.50002C9.37851 5.50002 10.5004 6.62189 10.5004 8.00002C10.5004 9.37814 9.37851 10.5 8.00039 10.5Z" fill="#DC143C"/>
</g>
<defs>
<clipPath id="clip0_46_237">
<rect width="16" height="16" fill="white"/>
</clipPath>
</defs>
</svg>
