<svg width="16" height="16" viewBox="0 0 16 16" fill="none" xmlns="http://www.w3.org/2000/svg">
<path d="M9.04648 13.9094L8.35273 14.6031C8.05898 14.8969 7.58398 14.8969 7.29336 14.6031L1.21836 8.53126C0.924609 8.23751 0.924609 7.76251 1.21836 7.47189L7.29336 1.39689C7.58711 1.10314 8.06211 1.10314 8.35273 1.39689L9.04648 2.09064C9.34336 2.38751 9.33711 2.87189 9.03398 3.16251L5.26836 6.75001H14.2496C14.6652 6.75001 14.9996 7.08439 14.9996 7.50001V8.50001C14.9996 8.91564 14.6652 9.25001 14.2496 9.25001H5.26836L9.03398 12.8375C9.34023 13.1281 9.34648 13.6125 9.04648 13.9094Z" fill="black"/>
</svg>
