<svg width="111" height="20" viewBox="0 0 111 20" fill="none" xmlns="http://www.w3.org/2000/svg">
<mask id="mask0_14_3608" style="mask-type:luminance" maskUnits="userSpaceOnUse" x="0" y="0" width="111" height="20">
<path d="M111 0H0V20H111V0Z" fill="white"/>
</mask>
<g mask="url(#mask0_14_3608)">
<path d="M4.112 16.612C3.376 16.612 2.70933 16.4467 2.112 16.116C1.51467 15.7747 1.01867 15.2893 0.624 14.66L1.584 13.588C2.08533 14.1427 2.52267 14.5213 2.896 14.724C3.26933 14.9267 3.67467 15.028 4.112 15.028C4.54933 15.028 4.944 14.932 5.296 14.74C5.648 14.548 5.92533 14.2867 6.128 13.956C6.34133 13.6253 6.448 13.2573 6.448 12.852C6.448 12.4253 6.34667 12.0467 6.144 11.716C5.952 11.3747 5.69067 11.108 5.36 10.916C5.02933 10.7133 4.656 10.612 4.24 10.612C4.03733 10.612 3.84533 10.628 3.664 10.66C3.48267 10.6813 3.264 10.74 3.008 10.836C2.752 10.932 2.416 11.0813 2 11.284L1.088 10.052L1.744 5.3H7.792V6.9H2.832L3.168 6.596L2.64 10.148L2.24 9.684C2.34667 9.57733 2.528 9.476 2.784 9.38C3.04 9.27333 3.32267 9.188 3.632 9.124C3.952 9.04933 4.256 9.012 4.544 9.012C5.22667 9.012 5.83467 9.172 6.368 9.492C6.912 9.80133 7.33867 10.2333 7.648 10.788C7.968 11.3427 8.128 11.9773 8.128 12.692C8.128 13.428 7.952 14.0947 7.6 14.692C7.248 15.2787 6.768 15.748 6.16 16.1C5.552 16.4413 4.86933 16.612 4.112 16.612ZM13.6218 16.5C13.0671 16.5 12.5498 16.404 12.0698 16.212C11.6004 16.0093 11.1898 15.732 10.8378 15.38C10.4964 15.028 10.2244 14.612 10.0218 14.132C9.82975 13.652 9.73375 13.124 9.73375 12.548C9.73375 12.26 9.77108 11.94 9.84575 11.588C9.93108 11.2253 10.0538 10.8307 10.2138 10.404C10.3844 9.97733 10.5871 9.52933 10.8218 9.06C11.0564 8.58 11.3284 8.084 11.6378 7.572L13.0938 5.108H14.7738L14.8378 5.268L13.0778 8.228C12.7578 8.772 12.4698 9.28933 12.2138 9.78C11.9684 10.2707 11.7604 10.7347 11.5898 11.172C11.4191 11.5987 11.2911 11.988 11.2057 12.34L10.8218 10.692C11.0244 10.3613 11.2431 10.0733 11.4778 9.828C11.7124 9.572 11.9631 9.35867 12.2298 9.188C12.5071 9.01733 12.7951 8.88933 13.0938 8.804C13.3924 8.71867 13.7018 8.676 14.0218 8.676C14.6404 8.676 15.2058 8.84667 15.7178 9.188C16.2404 9.51867 16.6564 9.96133 16.9658 10.516C17.2858 11.0707 17.4458 11.6787 17.4458 12.34C17.4458 13.14 17.2804 13.8547 16.9498 14.484C16.6298 15.1027 16.1818 15.5933 15.6058 15.956C15.0298 16.3187 14.3684 16.5 13.6218 16.5ZM13.6218 14.9C14.0378 14.9 14.4058 14.804 14.7258 14.612C15.0564 14.4093 15.3124 14.132 15.4938 13.78C15.6858 13.4173 15.7818 13.0067 15.7818 12.548C15.7818 12.1533 15.6858 11.7853 15.4938 11.444C15.3018 11.092 15.0458 10.8093 14.7258 10.596C14.4058 10.3827 14.0484 10.276 13.6538 10.276C13.2164 10.276 12.8271 10.3773 12.4858 10.58C12.1444 10.7827 11.8778 11.0547 11.6858 11.396C11.4938 11.7373 11.3978 12.116 11.3978 12.532C11.3978 12.98 11.4938 13.3853 11.6858 13.748C11.8778 14.1 12.1391 14.3827 12.4698 14.596C12.8004 14.7987 13.1844 14.9 13.6218 14.9ZM19.792 16.5L24.432 6.388L24.624 6.9H18.96V5.3H25.888L26.112 6.404L21.648 16.5H19.792Z" fill="black"/>
</g>
</svg>
