<svg width="125" height="18" viewBox="0 0 125 18" fill="none" xmlns="http://www.w3.org/2000/svg">
<mask id="mask0_14_5118" style="mask-type:luminance" maskUnits="userSpaceOnUse" x="0" y="0" width="125" height="18">
<path d="M125 0H0V18H125V0Z" fill="white"/>
</mask>
<g mask="url(#mask0_14_5118)">
<path d="M7.47852 12.9268V14H2.20801V12.9268H7.47852ZM2.47461 4.04688V14H1.15527V4.04688H2.47461ZM6.78125 8.32617V9.39941H2.20801V8.32617H6.78125ZM7.41016 4.04688V5.12695H2.20801V4.04688H7.41016ZM10.1787 8.07324V14H8.90723V6.60352H10.1104L10.1787 8.07324ZM9.91895 10.0215L9.33105 10.001C9.33561 9.49512 9.40169 9.02799 9.5293 8.59961C9.6569 8.16667 9.84603 7.79069 10.0967 7.47168C10.3473 7.15267 10.6595 6.90658 11.0332 6.7334C11.4069 6.55566 11.8398 6.4668 12.332 6.4668C12.6784 6.4668 12.9974 6.51693 13.2891 6.61719C13.5807 6.71289 13.8337 6.86556 14.0479 7.0752C14.262 7.28483 14.4284 7.55371 14.5469 7.88184C14.6654 8.20996 14.7246 8.60645 14.7246 9.07129V14H13.46V9.13281C13.46 8.74544 13.3939 8.43555 13.2617 8.20312C13.1341 7.9707 12.9518 7.80208 12.7148 7.69727C12.4779 7.58789 12.1999 7.5332 11.8809 7.5332C11.5072 7.5332 11.195 7.59928 10.9443 7.73145C10.6937 7.86361 10.4932 8.0459 10.3428 8.27832C10.1924 8.51074 10.083 8.77734 10.0146 9.07812C9.95085 9.37435 9.91895 9.6888 9.91895 10.0215ZM14.7109 9.32422L13.8633 9.58398C13.8678 9.17839 13.9339 8.78874 14.0615 8.41504C14.1937 8.04134 14.3828 7.70866 14.6289 7.41699C14.8796 7.12533 15.1872 6.89518 15.5518 6.72656C15.9163 6.55339 16.3333 6.4668 16.8027 6.4668C17.1992 6.4668 17.5501 6.51921 17.8555 6.62402C18.1654 6.72884 18.4251 6.89062 18.6348 7.10938C18.849 7.32357 19.0107 7.59928 19.1201 7.93652C19.2295 8.27376 19.2842 8.6748 19.2842 9.13965V14H18.0127V9.12598C18.0127 8.71126 17.9466 8.38997 17.8145 8.16211C17.6868 7.92969 17.5046 7.7679 17.2676 7.67676C17.0352 7.58105 16.7572 7.5332 16.4336 7.5332C16.1556 7.5332 15.9095 7.58105 15.6953 7.67676C15.4811 7.77246 15.3011 7.90462 15.1553 8.07324C15.0094 8.2373 14.8978 8.42643 14.8203 8.64062C14.7474 8.85482 14.7109 9.08268 14.7109 9.32422ZM22.5723 6.60352V14H21.3008V6.60352H22.5723ZM21.2051 4.6416C21.2051 4.43652 21.2666 4.26335 21.3896 4.12207C21.5173 3.98079 21.7041 3.91016 21.9502 3.91016C22.1917 3.91016 22.3763 3.98079 22.5039 4.12207C22.6361 4.26335 22.7021 4.43652 22.7021 4.6416C22.7021 4.83757 22.6361 5.00618 22.5039 5.14746C22.3763 5.28418 22.1917 5.35254 21.9502 5.35254C21.7041 5.35254 21.5173 5.28418 21.3896 5.14746C21.2666 5.00618 21.2051 4.83757 21.2051 4.6416ZM25.9766 3.5V14H24.7051V3.5H25.9766ZM30.085 13.2344L32.1426 6.60352H33.4961L30.5293 15.1416C30.4609 15.3239 30.3698 15.5199 30.2559 15.7295C30.1465 15.9437 30.0052 16.1465 29.832 16.3379C29.6589 16.5293 29.4492 16.6842 29.2031 16.8027C28.9616 16.9258 28.6722 16.9873 28.335 16.9873C28.2347 16.9873 28.1071 16.9736 27.9521 16.9463C27.7972 16.9189 27.6878 16.8962 27.624 16.8779L27.6172 15.8525C27.6536 15.8571 27.7106 15.8617 27.7881 15.8662C27.8701 15.8753 27.9271 15.8799 27.959 15.8799C28.2461 15.8799 28.4899 15.8411 28.6904 15.7637C28.891 15.6908 29.0596 15.5654 29.1963 15.3877C29.3376 15.2145 29.4583 14.9753 29.5586 14.6699L30.085 13.2344ZM28.5742 6.60352L30.4951 12.3457L30.8232 13.6787L29.9141 14.1436L27.1934 6.60352H28.5742ZM41.8496 9.34473H39.3271L39.3135 8.28516H41.6035C41.9818 8.28516 42.3122 8.22135 42.5947 8.09375C42.8773 7.96615 43.096 7.78385 43.251 7.54688C43.4105 7.30534 43.4902 7.01823 43.4902 6.68555C43.4902 6.32096 43.4196 6.02474 43.2783 5.79688C43.1416 5.56445 42.9297 5.39583 42.6426 5.29102C42.36 5.18164 42 5.12695 41.5625 5.12695H39.6211V14H38.3018V4.04688H41.5625C42.0729 4.04688 42.5286 4.09928 42.9297 4.2041C43.3307 4.30436 43.6702 4.46387 43.9482 4.68262C44.2308 4.89681 44.445 5.17025 44.5908 5.50293C44.7367 5.83561 44.8096 6.23438 44.8096 6.69922C44.8096 7.10938 44.7048 7.48079 44.4951 7.81348C44.2855 8.1416 43.9938 8.41048 43.6201 8.62012C43.251 8.82975 42.818 8.96419 42.3213 9.02344L41.8496 9.34473ZM41.7881 14H38.8076L39.5527 12.9268H41.7881C42.2074 12.9268 42.5628 12.8538 42.8545 12.708C43.1507 12.5622 43.3763 12.3571 43.5312 12.0928C43.6862 11.8239 43.7637 11.5072 43.7637 11.1426C43.7637 10.7734 43.6976 10.4544 43.5654 10.1855C43.4333 9.91667 43.2259 9.70931 42.9434 9.56348C42.6608 9.41764 42.2962 9.34473 41.8496 9.34473H39.9697L39.9834 8.28516H42.5537L42.834 8.66797C43.3125 8.70898 43.7181 8.8457 44.0508 9.07812C44.3835 9.30599 44.6364 9.59766 44.8096 9.95312C44.9873 10.3086 45.0762 10.7005 45.0762 11.1289C45.0762 11.7487 44.9395 12.2728 44.666 12.7012C44.3971 13.125 44.0166 13.4486 43.5244 13.6719C43.0322 13.8906 42.4535 14 41.7881 14ZM48.0977 7.76562V14H46.833V6.60352H48.0635L48.0977 7.76562ZM50.4082 6.5625L50.4014 7.73828C50.2965 7.71549 50.1963 7.70182 50.1006 7.69727C50.0094 7.68815 49.9046 7.68359 49.7861 7.68359C49.4945 7.68359 49.237 7.72917 49.0137 7.82031C48.7904 7.91146 48.6012 8.03906 48.4463 8.20312C48.2913 8.36719 48.1683 8.56315 48.0771 8.79102C47.9906 9.01432 47.9336 9.26042 47.9062 9.5293L47.5508 9.73438C47.5508 9.28776 47.5941 8.86849 47.6807 8.47656C47.7718 8.08464 47.9108 7.73828 48.0977 7.4375C48.2845 7.13216 48.5215 6.89518 48.8086 6.72656C49.1003 6.55339 49.4466 6.4668 49.8477 6.4668C49.9388 6.4668 50.0436 6.47819 50.1621 6.50098C50.2806 6.51921 50.3626 6.53971 50.4082 6.5625ZM51.1055 10.3838V10.2266C51.1055 9.69336 51.1829 9.19889 51.3379 8.74316C51.4928 8.28288 51.7161 7.88411 52.0078 7.54688C52.2995 7.20508 52.6527 6.94076 53.0674 6.75391C53.4821 6.5625 53.9469 6.4668 54.4619 6.4668C54.9814 6.4668 55.4486 6.5625 55.8633 6.75391C56.2826 6.94076 56.638 7.20508 56.9297 7.54688C57.2259 7.88411 57.4515 8.28288 57.6064 8.74316C57.7614 9.19889 57.8389 9.69336 57.8389 10.2266V10.3838C57.8389 10.917 57.7614 11.4115 57.6064 11.8672C57.4515 12.3229 57.2259 12.7217 56.9297 13.0635C56.638 13.4007 56.2848 13.665 55.8701 13.8564C55.46 14.0433 54.9951 14.1367 54.4756 14.1367C53.9561 14.1367 53.4889 14.0433 53.0742 13.8564C52.6595 13.665 52.304 13.4007 52.0078 13.0635C51.7161 12.7217 51.4928 12.3229 51.3379 11.8672C51.1829 11.4115 51.1055 10.917 51.1055 10.3838ZM52.3701 10.2266V10.3838C52.3701 10.7529 52.4134 11.1016 52.5 11.4297C52.5866 11.7533 52.7165 12.0404 52.8896 12.291C53.0674 12.5417 53.2884 12.7399 53.5527 12.8857C53.8171 13.027 54.1247 13.0977 54.4756 13.0977C54.8219 13.0977 55.125 13.027 55.3848 12.8857C55.6491 12.7399 55.8678 12.5417 56.041 12.291C56.2142 12.0404 56.3441 11.7533 56.4307 11.4297C56.5218 11.1016 56.5674 10.7529 56.5674 10.3838V10.2266C56.5674 9.86198 56.5218 9.5179 56.4307 9.19434C56.3441 8.86621 56.2119 8.57682 56.0342 8.32617C55.861 8.07096 55.6423 7.87044 55.3779 7.72461C55.1182 7.57878 54.8128 7.50586 54.4619 7.50586C54.1156 7.50586 53.8102 7.57878 53.5459 7.72461C53.2861 7.87044 53.0674 8.07096 52.8896 8.32617C52.7165 8.57682 52.5866 8.86621 52.5 9.19434C52.4134 9.5179 52.3701 9.86198 52.3701 10.2266ZM61.2979 12.6875L63.1982 6.60352H64.0322L63.8682 7.81348L61.9336 14H61.1201L61.2979 12.6875ZM60.0195 6.60352L61.6396 12.7559L61.7559 14H60.9014L58.7549 6.60352H60.0195ZM65.8506 12.708L67.3955 6.60352H68.6533L66.5068 14H65.6592L65.8506 12.708ZM64.2168 6.60352L66.0762 12.585L66.2881 14H65.4814L63.4922 7.7998L63.3281 6.60352H64.2168ZM71.2168 8.18262V14H69.9521V6.60352H71.1484L71.2168 8.18262ZM70.916 10.0215L70.3896 10.001C70.3942 9.49512 70.4694 9.02799 70.6152 8.59961C70.7611 8.16667 70.9661 7.79069 71.2305 7.47168C71.4948 7.15267 71.8092 6.90658 72.1738 6.7334C72.543 6.55566 72.9508 6.4668 73.3975 6.4668C73.762 6.4668 74.0902 6.51693 74.3818 6.61719C74.6735 6.71289 74.9219 6.86784 75.127 7.08203C75.3366 7.29622 75.4961 7.57422 75.6055 7.91602C75.7148 8.25326 75.7695 8.66569 75.7695 9.15332V14H74.498V9.13965C74.498 8.75228 74.4411 8.44238 74.3271 8.20996C74.2132 7.97298 74.0469 7.80208 73.8281 7.69727C73.6094 7.58789 73.3405 7.5332 73.0215 7.5332C72.707 7.5332 72.4199 7.59928 72.1602 7.73145C71.9049 7.86361 71.6839 8.0459 71.4971 8.27832C71.3148 8.51074 71.1712 8.77734 71.0664 9.07812C70.9661 9.37435 70.916 9.6888 70.916 10.0215Z" fill="black"/>
</g>
</svg>
