<svg width="36" height="18" viewBox="0 0 36 18" fill="none" xmlns="http://www.w3.org/2000/svg">
<mask id="mask0_11_820" style="mask-type:luminance" maskUnits="userSpaceOnUse" x="0" y="0" width="36" height="18">
<path d="M36 0H0V18H36V0Z" fill="white"/>
</mask>
<g mask="url(#mask0_11_820)">
<path d="M1.372 15V5.2H5.208C5.908 5.2 6.538 5.31667 7.098 5.55C7.66733 5.78333 8.15267 6.11933 8.554 6.558C8.95533 6.99667 9.26333 7.51467 9.478 8.112C9.69267 8.70933 9.8 9.372 9.8 10.1C9.8 10.828 9.69267 11.4953 9.478 12.102C9.26333 12.6993 8.95533 13.2173 8.554 13.656C8.162 14.0853 7.68133 14.4167 7.112 14.65C6.54267 14.8833 5.908 15 5.208 15H1.372ZM2.884 13.698L2.842 13.544H5.138C5.63267 13.544 6.07133 13.4647 6.454 13.306C6.846 13.1473 7.17267 12.9233 7.434 12.634C7.70467 12.3353 7.91 11.9713 8.05 11.542C8.19 11.1127 8.26 10.632 8.26 10.1C8.26 9.568 8.19 9.092 8.05 8.672C7.91 8.24267 7.70467 7.87867 7.434 7.58C7.16333 7.28133 6.83667 7.05267 6.454 6.894C6.07133 6.73533 5.63267 6.656 5.138 6.656H2.8L2.884 6.53V13.698ZM11.4807 15V7.65H12.9367V9.96L12.7967 9.4C12.8993 9.04533 13.072 8.72333 13.3147 8.434C13.5667 8.14467 13.8513 7.916 14.1687 7.748C14.4953 7.58 14.8313 7.496 15.1767 7.496C15.3353 7.496 15.4847 7.51 15.6247 7.538C15.774 7.566 15.8907 7.59867 15.9747 7.636L15.5967 9.204C15.4847 9.15733 15.3587 9.12 15.2187 9.092C15.088 9.05467 14.9573 9.036 14.8267 9.036C14.5747 9.036 14.332 9.08733 14.0987 9.19C13.8747 9.28333 13.674 9.41867 13.4967 9.596C13.3287 9.764 13.1933 9.96467 13.0907 10.198C12.988 10.422 12.9367 10.6693 12.9367 10.94V15H11.4807ZM19.6407 15.14C19.034 15.14 18.4787 14.972 17.9747 14.636C17.48 14.3 17.0834 13.8427 16.7847 13.264C16.486 12.6853 16.3367 12.032 16.3367 11.304C16.3367 10.5667 16.486 9.91333 16.7847 9.344C17.0927 8.76533 17.5034 8.31267 18.0167 7.986C18.5394 7.65933 19.1227 7.496 19.7667 7.496C20.1494 7.496 20.4994 7.552 20.8167 7.664C21.134 7.776 21.4094 7.93467 21.6427 8.14C21.8854 8.336 22.0814 8.56467 22.2307 8.826C22.3894 9.08733 22.4874 9.36733 22.5247 9.666L22.2027 9.554V7.65H23.6587V15H22.2027V13.25L22.5387 13.152C22.4827 13.404 22.366 13.6513 22.1887 13.894C22.0207 14.1273 21.8014 14.3373 21.5307 14.524C21.2694 14.7107 20.9754 14.86 20.6487 14.972C20.3314 15.084 19.9954 15.14 19.6407 15.14ZM20.0187 13.81C20.4574 13.81 20.8447 13.7027 21.1807 13.488C21.5167 13.2733 21.778 12.9793 21.9647 12.606C22.1607 12.2233 22.2587 11.7893 22.2587 11.304C22.2587 10.828 22.1607 10.4033 21.9647 10.03C21.778 9.65667 21.5167 9.36267 21.1807 9.148C20.8447 8.93333 20.4574 8.826 20.0187 8.826C19.5894 8.826 19.2067 8.93333 18.8707 9.148C18.544 9.36267 18.2827 9.65667 18.0867 10.03C17.9 10.4033 17.8067 10.828 17.8067 11.304C17.8067 11.7893 17.9 12.2233 18.0867 12.606C18.2827 12.9793 18.544 13.2733 18.8707 13.488C19.2067 13.7027 19.5894 13.81 20.0187 13.81ZM26.4701 15V6.824C26.4701 6.404 26.5634 6.03067 26.7501 5.704C26.9367 5.37733 27.1934 5.12067 27.5201 4.934C27.8467 4.74733 28.2247 4.654 28.6541 4.654C28.9527 4.654 29.2327 4.71 29.4941 4.822C29.7554 4.934 29.9654 5.08333 30.1241 5.27L29.6341 6.376C29.5127 6.264 29.3774 6.17533 29.2281 6.11C29.0881 6.03533 28.9527 5.998 28.8221 5.998C28.6261 5.998 28.4581 6.03067 28.3181 6.096C28.1874 6.152 28.0894 6.24533 28.0241 6.376C27.9587 6.49733 27.9261 6.64667 27.9261 6.824V15H27.1981C27.0767 15 26.9554 15 26.8341 15C26.7127 15 26.5914 15 26.4701 15ZM25.2941 9.106V7.776H29.6621V9.106H25.2941ZM32.1192 15V5.774H33.5612V15H32.1192ZM30.5932 9.05V7.65H35.2692V9.05H30.5932Z" fill="white"/>
</g>
</svg>
