<svg width="62" height="17" viewBox="0 0 62 17" fill="none" xmlns="http://www.w3.org/2000/svg">
<mask id="mask0_14_4244" style="mask-type:luminance" maskUnits="userSpaceOnUse" x="0" y="0" width="62" height="17">
<path d="M62 0H0V17H62V0Z" fill="white"/>
</mask>
<g mask="url(#mask0_14_4244)">
<path d="M1.46973 14L3.20605 4.04688H4.44336L2.70703 14H1.46973ZM4.0332 14L5.77637 4.04688H7.01367L5.27051 14H4.0332ZM8.03223 8.0459H0.916016V6.89062H8.03223V8.0459ZM7.5127 11.1973H0.40332V10.0488H7.5127V11.1973ZM11.2383 4.04688V14H9.1875V4.04688H11.2383ZM15.2031 8.29883V9.89844H10.6777V8.29883H15.2031ZM15.6816 4.04688V5.65332H10.6777V4.04688H15.6816ZM18.8262 6.60352V14H16.8506V6.60352H18.8262ZM16.7275 4.67578C16.7275 4.38867 16.8278 4.15169 17.0283 3.96484C17.2288 3.77799 17.4977 3.68457 17.835 3.68457C18.1676 3.68457 18.4342 3.77799 18.6348 3.96484C18.8398 4.15169 18.9424 4.38867 18.9424 4.67578C18.9424 4.96289 18.8398 5.19987 18.6348 5.38672C18.4342 5.57357 18.1676 5.66699 17.835 5.66699C17.4977 5.66699 17.2288 5.57357 17.0283 5.38672C16.8278 5.19987 16.7275 4.96289 16.7275 4.67578ZM22.3809 8.18262V14H20.4121V6.60352H22.2578L22.3809 8.18262ZM22.0938 10.042H21.5605C21.5605 9.49512 21.6312 9.00293 21.7725 8.56543C21.9137 8.12337 22.112 7.7474 22.3672 7.4375C22.6224 7.12305 22.9255 6.88379 23.2764 6.71973C23.6318 6.55111 24.0283 6.4668 24.4658 6.4668C24.8122 6.4668 25.1289 6.51693 25.416 6.61719C25.7031 6.71745 25.9492 6.87695 26.1543 7.0957C26.3639 7.31445 26.5234 7.60384 26.6328 7.96387C26.7467 8.32389 26.8037 8.76367 26.8037 9.2832V14H24.8213V9.27637C24.8213 8.94824 24.7757 8.69303 24.6846 8.51074C24.5934 8.32845 24.459 8.20085 24.2812 8.12793C24.1081 8.05046 23.8939 8.01172 23.6387 8.01172C23.3743 8.01172 23.1442 8.06413 22.9482 8.16895C22.7568 8.27376 22.5973 8.4196 22.4697 8.60645C22.3467 8.78874 22.2533 9.00293 22.1895 9.24902C22.1257 9.49512 22.0938 9.75944 22.0938 10.042ZM32.293 12.332V9.03711C32.293 8.80013 32.2542 8.59733 32.1768 8.42871C32.0993 8.25553 31.9785 8.12109 31.8145 8.02539C31.6549 7.92969 31.4476 7.88184 31.1924 7.88184C30.9736 7.88184 30.7845 7.92057 30.625 7.99805C30.4655 8.07096 30.3424 8.17806 30.2559 8.31934C30.1693 8.45605 30.126 8.61784 30.126 8.80469H28.1572C28.1572 8.49023 28.2301 8.19173 28.376 7.90918C28.5218 7.62663 28.7337 7.37826 29.0117 7.16406C29.2897 6.94531 29.6201 6.77441 30.0029 6.65137C30.3903 6.52832 30.8232 6.4668 31.3018 6.4668C31.876 6.4668 32.3864 6.5625 32.833 6.75391C33.2796 6.94531 33.6305 7.23242 33.8857 7.61523C34.1455 7.99805 34.2754 8.47656 34.2754 9.05078V12.2158C34.2754 12.6214 34.3005 12.9541 34.3506 13.2139C34.4007 13.4691 34.4736 13.6924 34.5693 13.8838V14H32.5801C32.4844 13.7995 32.4115 13.5488 32.3613 13.248C32.3158 12.9427 32.293 12.6374 32.293 12.332ZM32.5527 9.49512L32.5664 10.6094H31.4658C31.2061 10.6094 30.9805 10.639 30.7891 10.6982C30.5977 10.7575 30.4404 10.8418 30.3174 10.9512C30.1943 11.056 30.1032 11.179 30.0439 11.3203C29.9893 11.4616 29.9619 11.6165 29.9619 11.7852C29.9619 11.9538 30.0007 12.1064 30.0781 12.2432C30.1556 12.3753 30.2673 12.4801 30.4131 12.5576C30.5589 12.6305 30.7298 12.667 30.9258 12.667C31.222 12.667 31.4795 12.6077 31.6982 12.4893C31.917 12.3708 32.0856 12.2249 32.2041 12.0518C32.3271 11.8786 32.391 11.7145 32.3955 11.5596L32.915 12.3936C32.8421 12.5804 32.7419 12.7741 32.6143 12.9746C32.4912 13.1751 32.334 13.3643 32.1426 13.542C31.9512 13.7152 31.721 13.8587 31.4521 13.9727C31.1833 14.082 30.8643 14.1367 30.4951 14.1367C30.0257 14.1367 29.5996 14.0433 29.2168 13.8564C28.8385 13.665 28.5378 13.403 28.3145 13.0703C28.0957 12.7331 27.9863 12.3503 27.9863 11.9219C27.9863 11.5345 28.0592 11.1904 28.2051 10.8896C28.3509 10.5889 28.5651 10.3359 28.8477 10.1309C29.1348 9.92122 29.4925 9.764 29.9209 9.65918C30.3493 9.5498 30.846 9.49512 31.4111 9.49512H32.5527ZM37.7207 8.18262V14H35.752V6.60352H37.5977L37.7207 8.18262ZM37.4336 10.042H36.9004C36.9004 9.49512 36.971 9.00293 37.1123 8.56543C37.2536 8.12337 37.4518 7.7474 37.707 7.4375C37.9622 7.12305 38.2653 6.88379 38.6162 6.71973C38.9717 6.55111 39.3682 6.4668 39.8057 6.4668C40.152 6.4668 40.4688 6.51693 40.7559 6.61719C41.043 6.71745 41.2891 6.87695 41.4941 7.0957C41.7038 7.31445 41.8633 7.60384 41.9727 7.96387C42.0866 8.32389 42.1436 8.76367 42.1436 9.2832V14H40.1611V9.27637C40.1611 8.94824 40.1156 8.69303 40.0244 8.51074C39.9333 8.32845 39.7988 8.20085 39.6211 8.12793C39.4479 8.05046 39.2337 8.01172 38.9785 8.01172C38.7142 8.01172 38.484 8.06413 38.2881 8.16895C38.0967 8.27376 37.9372 8.4196 37.8096 8.60645C37.6865 8.78874 37.5931 9.00293 37.5293 9.24902C37.4655 9.49512 37.4336 9.75944 37.4336 10.042ZM46.6963 12.5986C46.9378 12.5986 47.152 12.5531 47.3389 12.4619C47.5257 12.3662 47.6715 12.234 47.7764 12.0654C47.8857 11.8923 47.9427 11.6895 47.9473 11.457H49.7998C49.7952 11.9766 49.6562 12.4391 49.3828 12.8447C49.1094 13.2458 48.7425 13.5625 48.2822 13.7949C47.8219 14.0228 47.307 14.1367 46.7373 14.1367C46.1631 14.1367 45.6618 14.041 45.2334 13.8496C44.8096 13.6582 44.4564 13.3939 44.1738 13.0566C43.8913 12.7148 43.6794 12.3184 43.5381 11.8672C43.3968 11.4115 43.3262 10.9238 43.3262 10.4043V10.2061C43.3262 9.68197 43.3968 9.19434 43.5381 8.74316C43.6794 8.28743 43.8913 7.89095 44.1738 7.55371C44.4564 7.21191 44.8096 6.94531 45.2334 6.75391C45.6572 6.5625 46.154 6.4668 46.7236 6.4668C47.3298 6.4668 47.8607 6.58301 48.3164 6.81543C48.7767 7.04785 49.1367 7.38053 49.3965 7.81348C49.6608 8.24186 49.7952 8.75 49.7998 9.33789H47.9473C47.9427 9.0918 47.8903 8.86849 47.79 8.66797C47.6943 8.46745 47.5531 8.30794 47.3662 8.18945C47.1839 8.06641 46.9583 8.00488 46.6895 8.00488C46.4023 8.00488 46.1676 8.06641 45.9854 8.18945C45.8031 8.30794 45.6618 8.47201 45.5615 8.68164C45.4613 8.88672 45.3906 9.12142 45.3496 9.38574C45.3132 9.64551 45.2949 9.91895 45.2949 10.2061V10.4043C45.2949 10.6914 45.3132 10.9671 45.3496 11.2314C45.3861 11.4958 45.4544 11.7305 45.5547 11.9355C45.6595 12.1406 45.8031 12.3024 45.9854 12.4209C46.1676 12.5394 46.4046 12.5986 46.6963 12.5986ZM54.3457 14.1367C53.7715 14.1367 53.2565 14.0456 52.8008 13.8633C52.3451 13.6764 51.9577 13.4189 51.6387 13.0908C51.3242 12.7627 51.0827 12.3822 50.9141 11.9492C50.7454 11.5117 50.6611 11.0469 50.6611 10.5547V10.2812C50.6611 9.7207 50.7409 9.20801 50.9004 8.74316C51.0599 8.27832 51.2878 7.875 51.584 7.5332C51.8848 7.19141 52.2493 6.92936 52.6777 6.74707C53.1061 6.56022 53.5892 6.4668 54.127 6.4668C54.651 6.4668 55.1159 6.55339 55.5215 6.72656C55.9271 6.89974 56.2666 7.14583 56.54 7.46484C56.818 7.78385 57.0277 8.16667 57.1689 8.61328C57.3102 9.05534 57.3809 9.54753 57.3809 10.0898V10.9102H51.502V9.59766H55.4463V9.44727C55.4463 9.17383 55.3962 8.93001 55.2959 8.71582C55.2002 8.49707 55.0544 8.32389 54.8584 8.19629C54.6624 8.06868 54.4118 8.00488 54.1064 8.00488C53.8467 8.00488 53.6234 8.06185 53.4365 8.17578C53.2497 8.28971 53.097 8.44922 52.9785 8.6543C52.8646 8.85938 52.778 9.10091 52.7188 9.37891C52.6641 9.65234 52.6367 9.95312 52.6367 10.2812V10.5547C52.6367 10.8509 52.6777 11.1243 52.7598 11.375C52.8464 11.6257 52.9671 11.8421 53.1221 12.0244C53.2816 12.2067 53.473 12.348 53.6963 12.4482C53.9242 12.5485 54.1816 12.5986 54.4688 12.5986C54.8242 12.5986 55.1546 12.5303 55.46 12.3936C55.7699 12.2523 56.0365 12.0404 56.2598 11.7578L57.2168 12.7969C57.0618 13.0202 56.8499 13.2344 56.5811 13.4395C56.3167 13.6445 55.9977 13.8132 55.624 13.9453C55.2503 14.0729 54.8242 14.1367 54.3457 14.1367Z" fill="#374151"/>
</g>
</svg>
