<svg width="216" height="23" viewBox="0 0 216 23" fill="none" xmlns="http://www.w3.org/2000/svg">
<mask id="mask0_14_4306" style="mask-type:luminance" maskUnits="userSpaceOnUse" x="0" y="0" width="216" height="23">
<path d="M216 0H0V23H216V0Z" fill="white"/>
</mask>
<g mask="url(#mask0_14_4306)">
<path d="M5.53125 6.13281L1.76562 16.5H0.226562L4.5625 5.125H5.55469L5.53125 6.13281ZM8.6875 16.5L4.91406 6.13281L4.89062 5.125H5.88281L10.2344 16.5H8.6875ZM8.49219 12.2891V13.5234H2.10156V12.2891H8.49219ZM16.8672 14.8594V4.5H18.3203V16.5H16.9922L16.8672 14.8594ZM11.1797 12.3672V12.2031C11.1797 11.5573 11.2578 10.9714 11.4141 10.4453C11.5755 9.91406 11.8021 9.45833 12.0938 9.07812C12.3906 8.69792 12.7422 8.40625 13.1484 8.20312C13.5599 7.99479 14.0182 7.89062 14.5234 7.89062C15.0547 7.89062 15.5182 7.98438 15.9141 8.17188C16.3151 8.35417 16.6536 8.6224 16.9297 8.97656C17.2109 9.32552 17.4323 9.7474 17.5938 10.2422C17.7552 10.737 17.8672 11.2969 17.9297 11.9219V12.6406C17.8724 13.2604 17.7604 13.8177 17.5938 14.3125C17.4323 14.8073 17.2109 15.2292 16.9297 15.5781C16.6536 15.9271 16.3151 16.1953 15.9141 16.3828C15.513 16.5651 15.0443 16.6562 14.5078 16.6562C14.013 16.6562 13.5599 16.5495 13.1484 16.3359C12.7422 16.1224 12.3906 15.8229 12.0938 15.4375C11.8021 15.0521 11.5755 14.599 11.4141 14.0781C11.2578 13.5521 11.1797 12.9818 11.1797 12.3672ZM12.6328 12.2031V12.3672C12.6328 12.7891 12.6745 13.1849 12.7578 13.5547C12.8464 13.9245 12.9818 14.25 13.1641 14.5312C13.3464 14.8125 13.5781 15.0339 13.8594 15.1953C14.1406 15.3516 14.4766 15.4297 14.8672 15.4297C15.3464 15.4297 15.7396 15.3281 16.0469 15.125C16.3594 14.9219 16.6094 14.6536 16.7969 14.3203C16.9844 13.987 17.1302 13.625 17.2344 13.2344V11.3516C17.1719 11.0651 17.0807 10.7891 16.9609 10.5234C16.8464 10.2526 16.6953 10.013 16.5078 9.80469C16.3255 9.59115 16.099 9.42188 15.8281 9.29688C15.5625 9.17188 15.2474 9.10938 14.8828 9.10938C14.487 9.10938 14.1458 9.19271 13.8594 9.35938C13.5781 9.52083 13.3464 9.74479 13.1641 10.0312C12.9818 10.3125 12.8464 10.6406 12.7578 11.0156C12.6745 11.3854 12.6328 11.7812 12.6328 12.2031ZM25.8984 14.8594V4.5H27.3516V16.5H26.0234L25.8984 14.8594ZM20.2109 12.3672V12.2031C20.2109 11.5573 20.2891 10.9714 20.4453 10.4453C20.6068 9.91406 20.8333 9.45833 21.125 9.07812C21.4219 8.69792 21.7734 8.40625 22.1797 8.20312C22.5911 7.99479 23.0495 7.89062 23.5547 7.89062C24.0859 7.89062 24.5495 7.98438 24.9453 8.17188C25.3464 8.35417 25.6849 8.6224 25.9609 8.97656C26.2422 9.32552 26.4635 9.7474 26.625 10.2422C26.7865 10.737 26.8984 11.2969 26.9609 11.9219V12.6406C26.9036 13.2604 26.7917 13.8177 26.625 14.3125C26.4635 14.8073 26.2422 15.2292 25.9609 15.5781C25.6849 15.9271 25.3464 16.1953 24.9453 16.3828C24.5443 16.5651 24.0755 16.6562 23.5391 16.6562C23.0443 16.6562 22.5911 16.5495 22.1797 16.3359C21.7734 16.1224 21.4219 15.8229 21.125 15.4375C20.8333 15.0521 20.6068 14.599 20.4453 14.0781C20.2891 13.5521 20.2109 12.9818 20.2109 12.3672ZM21.6641 12.2031V12.3672C21.6641 12.7891 21.7057 13.1849 21.7891 13.5547C21.8776 13.9245 22.013 14.25 22.1953 14.5312C22.3776 14.8125 22.6094 15.0339 22.8906 15.1953C23.1719 15.3516 23.5078 15.4297 23.8984 15.4297C24.3776 15.4297 24.7708 15.3281 25.0781 15.125C25.3906 14.9219 25.6406 14.6536 25.8281 14.3203C26.0156 13.987 26.1615 13.625 26.2656 13.2344V11.3516C26.2031 11.0651 26.112 10.7891 25.9922 10.5234C25.8776 10.2526 25.7266 10.013 25.5391 9.80469C25.3568 9.59115 25.1302 9.42188 24.8594 9.29688C24.5938 9.17188 24.2786 9.10938 23.9141 9.10938C23.5182 9.10938 23.1771 9.19271 22.8906 9.35938C22.6094 9.52083 22.3776 9.74479 22.1953 10.0312C22.013 10.3125 21.8776 10.6406 21.7891 11.0156C21.7057 11.3854 21.6641 11.7812 21.6641 12.2031ZM42.5391 5.125V16.5H41.0234L35.2969 7.72656V16.5H33.7891V5.125H35.2969L41.0469 13.9219V5.125H42.5391ZM48.5 16.6562C47.9115 16.6562 47.3776 16.5573 46.8984 16.3594C46.4245 16.1562 46.0156 15.8724 45.6719 15.5078C45.3333 15.1432 45.0729 14.7109 44.8906 14.2109C44.7083 13.7109 44.6172 13.1641 44.6172 12.5703V12.2422C44.6172 11.5547 44.7188 10.9427 44.9219 10.4062C45.125 9.86458 45.401 9.40625 45.75 9.03125C46.099 8.65625 46.4948 8.3724 46.9375 8.17969C47.3802 7.98698 47.8385 7.89062 48.3125 7.89062C48.9167 7.89062 49.4375 7.99479 49.875 8.20312C50.3177 8.41146 50.6797 8.70312 50.9609 9.07812C51.2422 9.44792 51.4505 9.88542 51.5859 10.3906C51.7214 10.8906 51.7891 11.4375 51.7891 12.0312V12.6797H45.4766V11.5H50.3438V11.3906C50.3229 11.0156 50.2448 10.651 50.1094 10.2969C49.9792 9.94271 49.7708 9.65104 49.4844 9.42188C49.1979 9.19271 48.8073 9.07812 48.3125 9.07812C47.9844 9.07812 47.6823 9.14844 47.4062 9.28906C47.1302 9.42448 46.8932 9.6276 46.6953 9.89844C46.4974 10.1693 46.3438 10.5 46.2344 10.8906C46.125 11.2812 46.0703 11.7318 46.0703 12.2422V12.5703C46.0703 12.9714 46.125 13.349 46.2344 13.7031C46.349 14.0521 46.513 14.3594 46.7266 14.625C46.9453 14.8906 47.2083 15.099 47.5156 15.25C47.8281 15.401 48.1823 15.4766 48.5781 15.4766C49.0885 15.4766 49.5208 15.3724 49.875 15.1641C50.2292 14.9557 50.5391 14.6771 50.8047 14.3281L51.6797 15.0234C51.4974 15.2995 51.2656 15.5625 50.9844 15.8125C50.7031 16.0625 50.3568 16.2656 49.9453 16.4219C49.5391 16.5781 49.0573 16.6562 48.5 16.6562ZM55.6172 15L57.7891 8.04688H58.7422L58.5547 9.42969L56.3438 16.5H55.4141L55.6172 15ZM54.1562 8.04688L56.0078 15.0781L56.1406 16.5H55.1641L52.7109 8.04688H54.1562ZM60.8203 15.0234L62.5859 8.04688H64.0234L61.5703 16.5H60.6016L60.8203 15.0234ZM58.9531 8.04688L61.0781 14.8828L61.3203 16.5H60.3984L58.125 9.41406L57.9375 8.04688H58.9531ZM70.4297 14.2578C70.4297 14.0495 70.3828 13.8568 70.2891 13.6797C70.2005 13.4974 70.0156 13.3333 69.7344 13.1875C69.4583 13.0365 69.0417 12.9062 68.4844 12.7969C68.0156 12.6979 67.5911 12.5807 67.2109 12.4453C66.8359 12.3099 66.5156 12.1458 66.25 11.9531C65.9896 11.7604 65.7891 11.5339 65.6484 11.2734C65.5078 11.013 65.4375 10.7083 65.4375 10.3594C65.4375 10.026 65.5104 9.71094 65.6562 9.41406C65.8073 9.11719 66.0182 8.85417 66.2891 8.625C66.5651 8.39583 66.8958 8.21615 67.2812 8.08594C67.6667 7.95573 68.0964 7.89062 68.5703 7.89062C69.2474 7.89062 69.8255 8.01042 70.3047 8.25C70.7839 8.48958 71.151 8.8099 71.4062 9.21094C71.6615 9.60677 71.7891 10.0469 71.7891 10.5312H70.3438C70.3438 10.2969 70.2734 10.0703 70.1328 9.85156C69.9974 9.6276 69.7969 9.44271 69.5312 9.29688C69.2708 9.15104 68.9505 9.07812 68.5703 9.07812C68.1693 9.07812 67.8438 9.14062 67.5938 9.26562C67.349 9.38542 67.1693 9.53906 67.0547 9.72656C66.9453 9.91406 66.8906 10.112 66.8906 10.3203C66.8906 10.4766 66.9167 10.6172 66.9688 10.7422C67.026 10.862 67.125 10.974 67.2656 11.0781C67.4062 11.1771 67.6042 11.2708 67.8594 11.3594C68.1146 11.4479 68.4401 11.5365 68.8359 11.625C69.5286 11.7812 70.099 11.9688 70.5469 12.1875C70.9948 12.4062 71.3281 12.6745 71.5469 12.9922C71.7656 13.3099 71.875 13.6953 71.875 14.1484C71.875 14.5182 71.7969 14.8568 71.6406 15.1641C71.4896 15.4714 71.2682 15.737 70.9766 15.9609C70.6901 16.1797 70.3464 16.3516 69.9453 16.4766C69.5495 16.5964 69.1042 16.6562 68.6094 16.6562C67.8646 16.6562 67.2344 16.5234 66.7188 16.2578C66.2031 15.9922 65.8125 15.6484 65.5469 15.2266C65.2812 14.8047 65.1484 14.3594 65.1484 13.8906H66.6016C66.6224 14.2865 66.737 14.6016 66.9453 14.8359C67.1536 15.0651 67.4089 15.2292 67.7109 15.3281C68.013 15.4219 68.3125 15.4688 68.6094 15.4688C69.0052 15.4688 69.3359 15.4167 69.6016 15.3125C69.8724 15.2083 70.0781 15.0651 70.2188 14.8828C70.3594 14.7005 70.4297 14.4922 70.4297 14.2578Z" fill="white"/>
</g>
</svg>
