<svg width="34" height="14" viewBox="0 0 34 14" fill="none" xmlns="http://www.w3.org/2000/svg">
<mask id="mask0_14_3211" style="mask-type:luminance" maskUnits="userSpaceOnUse" x="0" y="0" width="34" height="14">
<path d="M34 0H0V14H34V0Z" fill="white"/>
</mask>
<g mask="url(#mask0_14_3211)">
<path d="M4.14844 3.22461L1.32422 11H0.169922L3.42188 2.46875H4.16602L4.14844 3.22461ZM6.51562 11L3.68555 3.22461L3.66797 2.46875H4.41211L7.67578 11H6.51562ZM6.36914 7.8418V8.76758H1.57617V7.8418H6.36914ZM11.1914 10.2266C11.4492 10.2266 11.6875 10.1738 11.9062 10.0684C12.125 9.96289 12.3047 9.81836 12.4453 9.63477C12.5859 9.44727 12.666 9.23438 12.6855 8.99609H13.7168C13.6973 9.37109 13.5703 9.7207 13.3359 10.0449C13.1055 10.3652 12.8027 10.625 12.4277 10.8242C12.0527 11.0195 11.6406 11.1172 11.1914 11.1172C10.7148 11.1172 10.2988 11.0332 9.94336 10.8652C9.5918 10.6973 9.29883 10.4668 9.06445 10.1738C8.83398 9.88086 8.66016 9.54492 8.54297 9.16602C8.42969 8.7832 8.37305 8.37891 8.37305 7.95312V7.70703C8.37305 7.28125 8.42969 6.87891 8.54297 6.5C8.66016 6.11719 8.83398 5.7793 9.06445 5.48633C9.29883 5.19336 9.5918 4.96289 9.94336 4.79492C10.2988 4.62695 10.7148 4.54297 11.1914 4.54297C11.6875 4.54297 12.1211 4.64453 12.4922 4.84766C12.8633 5.04688 13.1543 5.32031 13.3652 5.66797C13.5801 6.01172 13.6973 6.40234 13.7168 6.83984H12.6855C12.666 6.57812 12.5918 6.3418 12.4629 6.13086C12.3379 5.91992 12.166 5.75195 11.9473 5.62695C11.7324 5.49805 11.4805 5.43359 11.1914 5.43359C10.8594 5.43359 10.5801 5.5 10.3535 5.63281C10.1309 5.76172 9.95312 5.9375 9.82031 6.16016C9.69141 6.37891 9.59766 6.62305 9.53906 6.89258C9.48438 7.1582 9.45703 7.42969 9.45703 7.70703V7.95312C9.45703 8.23047 9.48438 8.50391 9.53906 8.77344C9.59375 9.04297 9.68555 9.28711 9.81445 9.50586C9.94727 9.72461 10.125 9.90039 10.3477 10.0332C10.5742 10.1621 10.8555 10.2266 11.1914 10.2266ZM17.5898 4.66016V5.49219H14.1621V4.66016H17.5898ZM15.3223 3.11914H16.4062V9.42969C16.4062 9.64453 16.4395 9.80664 16.5059 9.91602C16.5723 10.0254 16.6582 10.0977 16.7637 10.1328C16.8691 10.168 16.9824 10.1855 17.1035 10.1855C17.1934 10.1855 17.2871 10.1777 17.3848 10.1621C17.4863 10.1426 17.5625 10.127 17.6133 10.1152L17.6191 11C17.5332 11.0273 17.4199 11.0527 17.2793 11.0762C17.1426 11.1035 16.9766 11.1172 16.7812 11.1172C16.5156 11.1172 16.2715 11.0645 16.0488 10.959C15.8262 10.8535 15.6484 10.6777 15.5156 10.4316C15.3867 10.1816 15.3223 9.8457 15.3223 9.42383V3.11914ZM20.0391 4.66016V11H18.9492V4.66016H20.0391ZM18.8672 2.97852C18.8672 2.80273 18.9199 2.6543 19.0254 2.5332C19.1348 2.41211 19.2949 2.35156 19.5059 2.35156C19.7129 2.35156 19.8711 2.41211 19.9805 2.5332C20.0938 2.6543 20.1504 2.80273 20.1504 2.97852C20.1504 3.14648 20.0938 3.29102 19.9805 3.41211C19.8711 3.5293 19.7129 3.58789 19.5059 3.58789C19.2949 3.58789 19.1348 3.5293 19.0254 3.41211C18.9199 3.29102 18.8672 3.14648 18.8672 2.97852ZM23.707 10.0215L25.4414 4.66016H26.5488L24.2695 11H23.543L23.707 10.0215ZM22.2598 4.66016L24.0469 10.0508L24.1699 11H23.4434L21.1465 4.66016H22.2598ZM30.1406 11.1172C29.6992 11.1172 29.2988 11.043 28.9395 10.8945C28.584 10.7422 28.2773 10.5293 28.0195 10.2559C27.7656 9.98242 27.5703 9.6582 27.4336 9.2832C27.2969 8.9082 27.2285 8.49805 27.2285 8.05273V7.80664C27.2285 7.29102 27.3047 6.83203 27.457 6.42969C27.6094 6.02344 27.8164 5.67969 28.0781 5.39844C28.3398 5.11719 28.6367 4.9043 28.9688 4.75977C29.3008 4.61523 29.6445 4.54297 30 4.54297C30.4531 4.54297 30.8438 4.62109 31.1719 4.77734C31.5039 4.93359 31.7754 5.15234 31.9863 5.43359C32.1973 5.71094 32.3535 6.03906 32.4551 6.41797C32.5566 6.79297 32.6074 7.20312 32.6074 7.64844V8.13477H27.873V7.25H31.5234V7.16797C31.5078 6.88672 31.4492 6.61328 31.3477 6.34766C31.25 6.08203 31.0938 5.86328 30.8789 5.69141C30.6641 5.51953 30.3711 5.43359 30 5.43359C29.7539 5.43359 29.5273 5.48633 29.3203 5.5918C29.1133 5.69336 28.9355 5.8457 28.7871 6.04883C28.6387 6.25195 28.5234 6.5 28.4414 6.79297C28.3594 7.08594 28.3184 7.42383 28.3184 7.80664V8.05273C28.3184 8.35352 28.3594 8.63672 28.4414 8.90234C28.5273 9.16406 28.6504 9.39453 28.8105 9.59375C28.9746 9.79297 29.1719 9.94922 29.4023 10.0625C29.6367 10.1758 29.9023 10.2324 30.1992 10.2324C30.582 10.2324 30.9062 10.1543 31.1719 9.99805C31.4375 9.8418 31.6699 9.63281 31.8691 9.37109L32.5254 9.89258C32.3887 10.0996 32.2148 10.2969 32.0039 10.4844C31.793 10.6719 31.5332 10.8242 31.2246 10.9414C30.9199 11.0586 30.5586 11.1172 30.1406 11.1172Z" fill="white"/>
</g>
</svg>
