<svg width="41" height="17" viewBox="0 0 41 17" fill="none" xmlns="http://www.w3.org/2000/svg">
<mask id="mask0_14_5006" style="mask-type:luminance" maskUnits="userSpaceOnUse" x="0" y="0" width="41" height="17">
<path d="M41 0H0V17H41V0Z" fill="white"/>
</mask>
<g mask="url(#mask0_14_5006)">
<path d="M4.83984 4.92871L1.54492 14H0.198242L3.99219 4.04688H4.86035L4.83984 4.92871ZM7.60156 14L4.2998 4.92871L4.2793 4.04688H5.14746L8.95508 14H7.60156ZM7.43066 10.3154V11.3955H1.83887V10.3154H7.43066ZM14.7588 12.5645V3.5H16.0303V14H14.8682L14.7588 12.5645ZM9.78223 10.3838V10.2402C9.78223 9.67513 9.85059 9.16243 9.9873 8.70215C10.1286 8.2373 10.3268 7.83854 10.582 7.50586C10.8418 7.17318 11.1494 6.91797 11.5049 6.74023C11.8649 6.55794 12.266 6.4668 12.708 6.4668C13.1729 6.4668 13.5785 6.54883 13.9248 6.71289C14.2757 6.8724 14.5719 7.1071 14.8135 7.41699C15.0596 7.72233 15.2533 8.09147 15.3945 8.52441C15.5358 8.95736 15.6338 9.44727 15.6885 9.99414V10.623C15.6383 11.1654 15.5404 11.653 15.3945 12.0859C15.2533 12.5189 15.0596 12.888 14.8135 13.1934C14.5719 13.4987 14.2757 13.7334 13.9248 13.8975C13.5739 14.057 13.1637 14.1367 12.6943 14.1367C12.2614 14.1367 11.8649 14.0433 11.5049 13.8564C11.1494 13.6696 10.8418 13.4076 10.582 13.0703C10.3268 12.7331 10.1286 12.3366 9.9873 11.8809C9.85059 11.4206 9.78223 10.9215 9.78223 10.3838ZM11.0537 10.2402V10.3838C11.0537 10.7529 11.0902 11.0993 11.1631 11.4229C11.2406 11.7464 11.359 12.0312 11.5186 12.2773C11.6781 12.5234 11.8809 12.7171 12.127 12.8584C12.373 12.9951 12.667 13.0635 13.0088 13.0635C13.4281 13.0635 13.7721 12.9746 14.041 12.7969C14.3145 12.6191 14.5332 12.3844 14.6973 12.0928C14.8613 11.8011 14.9889 11.4844 15.0801 11.1426V9.49512C15.0254 9.24447 14.9456 9.00293 14.8408 8.77051C14.7406 8.53353 14.6084 8.32389 14.4443 8.1416C14.2848 7.95475 14.0866 7.80664 13.8496 7.69727C13.6172 7.58789 13.3415 7.5332 13.0225 7.5332C12.6761 7.5332 12.3776 7.60612 12.127 7.75195C11.8809 7.89323 11.6781 8.08919 11.5186 8.33984C11.359 8.58594 11.2406 8.87305 11.1631 9.20117C11.0902 9.52474 11.0537 9.87109 11.0537 10.2402ZM19.2568 8.07324V14H17.9854V6.60352H19.1885L19.2568 8.07324ZM18.9971 10.0215L18.4092 10.001C18.4137 9.49512 18.4798 9.02799 18.6074 8.59961C18.735 8.16667 18.9242 7.79069 19.1748 7.47168C19.4255 7.15267 19.7376 6.90658 20.1113 6.7334C20.485 6.55566 20.918 6.4668 21.4102 6.4668C21.7565 6.4668 22.0755 6.51693 22.3672 6.61719C22.6589 6.71289 22.9118 6.86556 23.126 7.0752C23.3402 7.28483 23.5065 7.55371 23.625 7.88184C23.7435 8.20996 23.8027 8.60645 23.8027 9.07129V14H22.5381V9.13281C22.5381 8.74544 22.472 8.43555 22.3398 8.20312C22.2122 7.9707 22.0299 7.80208 21.793 7.69727C21.556 7.58789 21.278 7.5332 20.959 7.5332C20.5853 7.5332 20.2731 7.59928 20.0225 7.73145C19.7718 7.86361 19.5713 8.0459 19.4209 8.27832C19.2705 8.51074 19.1611 8.77734 19.0928 9.07812C19.029 9.37435 18.9971 9.6888 18.9971 10.0215ZM23.7891 9.32422L22.9414 9.58398C22.946 9.17839 23.012 8.78874 23.1396 8.41504C23.2718 8.04134 23.4609 7.70866 23.707 7.41699C23.9577 7.12533 24.2653 6.89518 24.6299 6.72656C24.9945 6.55339 25.4115 6.4668 25.8809 6.4668C26.2773 6.4668 26.6283 6.51921 26.9336 6.62402C27.2435 6.72884 27.5033 6.89062 27.7129 7.10938C27.9271 7.32357 28.0889 7.59928 28.1982 7.93652C28.3076 8.27376 28.3623 8.6748 28.3623 9.13965V14H27.0908V9.12598C27.0908 8.71126 27.0247 8.38997 26.8926 8.16211C26.765 7.92969 26.5827 7.7679 26.3457 7.67676C26.1133 7.58105 25.8353 7.5332 25.5117 7.5332C25.2337 7.5332 24.9876 7.58105 24.7734 7.67676C24.5592 7.77246 24.3792 7.90462 24.2334 8.07324C24.0876 8.2373 23.9759 8.42643 23.8984 8.64062C23.8255 8.85482 23.7891 9.08268 23.7891 9.32422ZM31.6504 6.60352V14H30.3789V6.60352H31.6504ZM30.2832 4.6416C30.2832 4.43652 30.3447 4.26335 30.4678 4.12207C30.5954 3.98079 30.7822 3.91016 31.0283 3.91016C31.2699 3.91016 31.4544 3.98079 31.582 4.12207C31.7142 4.26335 31.7803 4.43652 31.7803 4.6416C31.7803 4.83757 31.7142 5.00618 31.582 5.14746C31.4544 5.28418 31.2699 5.35254 31.0283 5.35254C30.7822 5.35254 30.5954 5.28418 30.4678 5.14746C30.3447 5.00618 30.2832 4.83757 30.2832 4.6416ZM34.9453 8.18262V14H33.6807V6.60352H34.877L34.9453 8.18262ZM34.6445 10.0215L34.1182 10.001C34.1227 9.49512 34.1979 9.02799 34.3438 8.59961C34.4896 8.16667 34.6947 7.79069 34.959 7.47168C35.2233 7.15267 35.5378 6.90658 35.9023 6.7334C36.2715 6.55566 36.6794 6.4668 37.126 6.4668C37.4906 6.4668 37.8187 6.51693 38.1104 6.61719C38.402 6.71289 38.6504 6.86784 38.8555 7.08203C39.0651 7.29622 39.2246 7.57422 39.334 7.91602C39.4434 8.25326 39.498 8.66569 39.498 9.15332V14H38.2266V9.13965C38.2266 8.75228 38.1696 8.44238 38.0557 8.20996C37.9417 7.97298 37.7754 7.80208 37.5566 7.69727C37.3379 7.58789 37.069 7.5332 36.75 7.5332C36.4355 7.5332 36.1484 7.59928 35.8887 7.73145C35.6335 7.86361 35.4124 8.0459 35.2256 8.27832C35.0433 8.51074 34.8997 8.77734 34.7949 9.07812C34.6947 9.37435 34.6445 9.6888 34.6445 10.0215Z" fill="white"/>
</g>
</svg>
