<svg width="133" height="40" viewBox="0 0 133 40" fill="none" xmlns="http://www.w3.org/2000/svg">
<g filter="url(#filter0_d_87_3)">
<path d="M111.548 0H21.4516C9.60421 0 0 8.9543 0 20C0 31.0457 9.60421 40 21.4516 40H111.548C123.396 40 133 31.0457 133 20C133 8.9543 123.396 0 111.548 0Z" fill="#22C55E"/>
<path d="M111.548 0H21.4516C9.60421 0 0 8.9543 0 20C0 31.0457 9.60421 40 21.4516 40H111.548C123.396 40 133 31.0457 133 20C133 8.9543 123.396 0 111.548 0Z" stroke="#E5E7EB"/>
</g>
<defs>
<filter id="filter0_d_87_3" x="0" y="0" width="133" height="40" filterUnits="userSpaceOnUse" color-interpolation-filters="sRGB">
<feFlood flood-opacity="0" result="BackgroundImageFix"/>
<feColorMatrix in="SourceAlpha" type="matrix" values="0 0 0 0 0 0 0 0 0 0 0 0 0 0 0 0 0 0 127 0" result="hardAlpha"/>
<feOffset/>
<feComposite in2="hardAlpha" operator="out"/>
<feColorMatrix type="matrix" values="0 0 0 0 0 0 0 0 0 0 0 0 0 0 0 0 0 0 0.08 0"/>
<feBlend mode="normal" in2="BackgroundImageFix" result="effect1_dropShadow_87_3"/>
<feBlend mode="normal" in="SourceGraphic" in2="effect1_dropShadow_87_3" result="shape"/>
</filter>
</defs>
</svg>
