<svg width="41" height="23" viewBox="0 0 41 23" fill="none" xmlns="http://www.w3.org/2000/svg">
<mask id="mask0_14_3666" style="mask-type:luminance" maskUnits="userSpaceOnUse" x="0" y="0" width="41" height="23">
<path d="M41 0H0V23H41V0Z" fill="white"/>
</mask>
<g mask="url(#mask0_14_3666)">
<path d="M1.568 18V6.8H5.952C6.752 6.8 7.472 6.93333 8.112 7.2C8.76267 7.46667 9.31733 7.85067 9.776 8.352C10.2347 8.85333 10.5867 9.44533 10.832 10.128C11.0773 10.8107 11.2 11.568 11.2 12.4C11.2 13.232 11.0773 13.9947 10.832 14.688C10.5867 15.3707 10.2347 15.9627 9.776 16.464C9.328 16.9547 8.77867 17.3333 8.128 17.6C7.47733 17.8667 6.752 18 5.952 18H1.568ZM3.296 16.512L3.248 16.336H5.872C6.43733 16.336 6.93867 16.2453 7.376 16.064C7.824 15.8827 8.19733 15.6267 8.496 15.296C8.80533 14.9547 9.04 14.5387 9.2 14.048C9.36 13.5573 9.44 13.008 9.44 12.4C9.44 11.792 9.36 11.248 9.2 10.768C9.04 10.2773 8.80533 9.86133 8.496 9.52C8.18667 9.17867 7.81333 8.91733 7.376 8.736C6.93867 8.55467 6.43733 8.464 5.872 8.464H3.2L3.296 8.32V16.512ZM13.1208 18V9.6H14.7848V12.24L14.6248 11.6C14.7421 11.1947 14.9394 10.8267 15.2168 10.496C15.5048 10.1653 15.8301 9.904 16.1927 9.712C16.5661 9.52 16.9501 9.424 17.3448 9.424C17.5261 9.424 17.6968 9.44 17.8568 9.472C18.0274 9.504 18.1608 9.54133 18.2568 9.584L17.8248 11.376C17.6968 11.3227 17.5528 11.28 17.3928 11.248C17.2434 11.2053 17.0941 11.184 16.9448 11.184C16.6568 11.184 16.3794 11.2427 16.1128 11.36C15.8568 11.4667 15.6274 11.6213 15.4248 11.824C15.2328 12.016 15.0781 12.2453 14.9608 12.512C14.8434 12.768 14.7848 13.0507 14.7848 13.36V18H13.1208ZM22.4465 18.16C21.7532 18.16 21.1185 17.968 20.5425 17.584C19.9772 17.2 19.5238 16.6773 19.1825 16.016C18.8412 15.3547 18.6705 14.608 18.6705 13.776C18.6705 12.9333 18.8412 12.1867 19.1825 11.536C19.5345 10.8747 20.0038 10.3573 20.5905 9.984C21.1878 9.61067 21.8545 9.424 22.5905 9.424C23.0278 9.424 23.4278 9.488 23.7905 9.616C24.1532 9.744 24.4678 9.92533 24.7345 10.16C25.0118 10.384 25.2358 10.6453 25.4065 10.944C25.5878 11.2427 25.6998 11.5627 25.7425 11.904L25.3745 11.776V9.6H27.0385V18H25.3745V16L25.7585 15.888C25.6945 16.176 25.5612 16.4587 25.3585 16.736C25.1665 17.0027 24.9158 17.2427 24.6065 17.456C24.3078 17.6693 23.9718 17.84 23.5985 17.968C23.2358 18.096 22.8518 18.16 22.4465 18.16ZM22.8785 16.64C23.3798 16.64 23.8225 16.5173 24.2065 16.272C24.5905 16.0267 24.8892 15.6907 25.1025 15.264C25.3265 14.8267 25.4385 14.3307 25.4385 13.776C25.4385 13.232 25.3265 12.7467 25.1025 12.32C24.8892 11.8933 24.5905 11.5573 24.2065 11.312C23.8225 11.0667 23.3798 10.944 22.8785 10.944C22.3878 10.944 21.9505 11.0667 21.5665 11.312C21.1932 11.5573 20.8945 11.8933 20.6705 12.32C20.4572 12.7467 20.3505 13.232 20.3505 13.776C20.3505 14.3307 20.4572 14.8267 20.6705 15.264C20.8945 15.6907 21.1932 16.0267 21.5665 16.272C21.9505 16.5173 22.3878 16.64 22.8785 16.64ZM30.2515 18V8.656C30.2515 8.176 30.3582 7.74933 30.5715 7.376C30.7848 7.00267 31.0782 6.70933 31.4515 6.496C31.8248 6.28267 32.2568 6.176 32.7475 6.176C33.0888 6.176 33.4088 6.24 33.7075 6.368C34.0062 6.496 34.2462 6.66667 34.4275 6.88L33.8675 8.144C33.7288 8.016 33.5742 7.91467 33.4035 7.84C33.2435 7.75467 33.0888 7.712 32.9395 7.712C32.7155 7.712 32.5235 7.74933 32.3635 7.824C32.2142 7.888 32.1022 7.99467 32.0275 8.144C31.9528 8.28267 31.9155 8.45333 31.9155 8.656V18H31.0835C30.9448 18 30.8062 18 30.6675 18C30.5288 18 30.3902 18 30.2515 18ZM28.9075 11.264V9.744H33.8995V11.264H28.9075ZM36.7076 18V7.456H38.3556V18H36.7076ZM34.9636 11.2V9.6H40.3076V11.2H34.9636Z" fill="white"/>
</g>
</svg>
