<svg width="59" height="24" viewBox="0 0 59 24" fill="none" xmlns="http://www.w3.org/2000/svg">
<mask id="mask0_14_3131" style="mask-type:luminance" maskUnits="userSpaceOnUse" x="0" y="0" width="59" height="24">
<path d="M59 0H0V24H59V0Z" fill="white"/>
</mask>
<g mask="url(#mask0_14_3131)">
<path d="M7.38281 13.625C7.38281 13.3594 7.34115 13.125 7.25781 12.9219C7.17969 12.7135 7.03906 12.526 6.83594 12.3594C6.63802 12.1927 6.36198 12.0339 6.00781 11.8828C5.65885 11.7318 5.21615 11.5781 4.67969 11.4219C4.11719 11.2552 3.60938 11.0703 3.15625 10.8672C2.70312 10.6589 2.3151 10.4219 1.99219 10.1562C1.66927 9.89062 1.42188 9.58594 1.25 9.24219C1.07812 8.89844 0.992188 8.50521 0.992188 8.0625C0.992188 7.61979 1.08333 7.21094 1.26562 6.83594C1.44792 6.46094 1.70833 6.13542 2.04688 5.85938C2.39062 5.57812 2.79948 5.35938 3.27344 5.20312C3.7474 5.04688 4.27604 4.96875 4.85938 4.96875C5.71354 4.96875 6.4375 5.13281 7.03125 5.46094C7.63021 5.78385 8.08594 6.20833 8.39844 6.73438C8.71094 7.25521 8.86719 7.8125 8.86719 8.40625H7.36719C7.36719 7.97917 7.27604 7.60156 7.09375 7.27344C6.91146 6.9401 6.63542 6.67969 6.26562 6.49219C5.89583 6.29948 5.42708 6.20312 4.85938 6.20312C4.32292 6.20312 3.88021 6.28385 3.53125 6.44531C3.18229 6.60677 2.92188 6.82552 2.75 7.10156C2.58333 7.3776 2.5 7.69271 2.5 8.04688C2.5 8.28646 2.54948 8.50521 2.64844 8.70312C2.7526 8.89583 2.91146 9.07552 3.125 9.24219C3.34375 9.40885 3.61979 9.5625 3.95312 9.70312C4.29167 9.84375 4.69531 9.97917 5.16406 10.1094C5.8099 10.2917 6.36719 10.4948 6.83594 10.7188C7.30469 10.9427 7.6901 11.1953 7.99219 11.4766C8.29948 11.7526 8.52604 12.0677 8.67188 12.4219C8.82292 12.7708 8.89844 13.1667 8.89844 13.6094C8.89844 14.0729 8.80469 14.4922 8.61719 14.8672C8.42969 15.2422 8.16146 15.5625 7.8125 15.8281C7.46354 16.0938 7.04427 16.2995 6.55469 16.4453C6.07031 16.5859 5.52865 16.6562 4.92969 16.6562C4.40365 16.6562 3.88542 16.5833 3.375 16.4375C2.86979 16.2917 2.40885 16.0729 1.99219 15.7812C1.58073 15.4896 1.25 15.1302 1 14.7031C0.755208 14.2708 0.632812 13.7708 0.632812 13.2031H2.13281C2.13281 13.5938 2.20833 13.9297 2.35938 14.2109C2.51042 14.487 2.71615 14.7161 2.97656 14.8984C3.24219 15.0807 3.54167 15.2161 3.875 15.3047C4.21354 15.388 4.5651 15.4297 4.92969 15.4297C5.45573 15.4297 5.90104 15.3568 6.26562 15.2109C6.63021 15.0651 6.90625 14.8568 7.09375 14.5859C7.28646 14.3151 7.38281 13.9948 7.38281 13.625ZM14.1094 16.6562C13.5208 16.6562 12.987 16.5573 12.5078 16.3594C12.0339 16.1562 11.625 15.8724 11.2812 15.5078C10.9427 15.1432 10.6823 14.7109 10.5 14.2109C10.3177 13.7109 10.2266 13.1641 10.2266 12.5703V12.2422C10.2266 11.5547 10.3281 10.9427 10.5312 10.4062C10.7344 9.86458 11.0104 9.40625 11.3594 9.03125C11.7083 8.65625 12.1042 8.3724 12.5469 8.17969C12.9896 7.98698 13.4479 7.89062 13.9219 7.89062C14.526 7.89062 15.0469 7.99479 15.4844 8.20312C15.9271 8.41146 16.2891 8.70312 16.5703 9.07812C16.8516 9.44792 17.0599 9.88542 17.1953 10.3906C17.3307 10.8906 17.3984 11.4375 17.3984 12.0312V12.6797H11.0859V11.5H15.9531V11.3906C15.9323 11.0156 15.8542 10.651 15.7188 10.2969C15.5885 9.94271 15.3802 9.65104 15.0938 9.42188C14.8073 9.19271 14.4167 9.07812 13.9219 9.07812C13.5938 9.07812 13.2917 9.14844 13.0156 9.28906C12.7396 9.42448 12.5026 9.6276 12.3047 9.89844C12.1068 10.1693 11.9531 10.5 11.8438 10.8906C11.7344 11.2812 11.6797 11.7318 11.6797 12.2422V12.5703C11.6797 12.9714 11.7344 13.349 11.8438 13.7031C11.9583 14.0521 12.1224 14.3594 12.3359 14.625C12.5547 14.8906 12.8177 15.099 13.125 15.25C13.4375 15.401 13.7917 15.4766 14.1875 15.4766C14.6979 15.4766 15.1302 15.3724 15.4844 15.1641C15.8385 14.9557 16.1484 14.6771 16.4141 14.3281L17.2891 15.0234C17.1068 15.2995 16.875 15.5625 16.5938 15.8125C16.3125 16.0625 15.9661 16.2656 15.5547 16.4219C15.1484 16.5781 14.6667 16.6562 14.1094 16.6562ZM22.625 8.04688V9.15625H18.0547V8.04688H22.625ZM19.6016 5.99219H21.0469V14.4062C21.0469 14.6927 21.0911 14.9089 21.1797 15.0547C21.2682 15.2005 21.3828 15.2969 21.5234 15.3438C21.6641 15.3906 21.8151 15.4141 21.9766 15.4141C22.0964 15.4141 22.2214 15.4036 22.3516 15.3828C22.487 15.3568 22.5885 15.3359 22.6562 15.3203L22.6641 16.5C22.5495 16.5365 22.3984 16.5703 22.2109 16.6016C22.0286 16.638 21.8073 16.6562 21.5469 16.6562C21.1927 16.6562 20.8672 16.5859 20.5703 16.4453C20.2734 16.3047 20.0365 16.0703 19.8594 15.7422C19.6875 15.4089 19.6016 14.9609 19.6016 14.3984V5.99219ZM27.8594 8.04688V9.15625H23.2891V8.04688H27.8594ZM24.8359 5.99219H26.2812V14.4062C26.2812 14.6927 26.3255 14.9089 26.4141 15.0547C26.5026 15.2005 26.6172 15.2969 26.7578 15.3438C26.8984 15.3906 27.0495 15.4141 27.2109 15.4141C27.3307 15.4141 27.4557 15.4036 27.5859 15.3828C27.7214 15.3568 27.8229 15.3359 27.8906 15.3203L27.8984 16.5C27.7839 16.5365 27.6328 16.5703 27.4453 16.6016C27.263 16.638 27.0417 16.6562 26.7812 16.6562C26.4271 16.6562 26.1016 16.5859 25.8047 16.4453C25.5078 16.3047 25.2708 16.0703 25.0938 15.7422C24.9219 15.4089 24.8359 14.9609 24.8359 14.3984V5.99219ZM31.125 8.04688V16.5H29.6719V8.04688H31.125ZM29.5625 5.80469C29.5625 5.57031 29.6328 5.3724 29.7734 5.21094C29.9193 5.04948 30.1328 4.96875 30.4141 4.96875C30.6901 4.96875 30.901 5.04948 31.0469 5.21094C31.1979 5.3724 31.2734 5.57031 31.2734 5.80469C31.2734 6.02865 31.1979 6.22135 31.0469 6.38281C30.901 6.53906 30.6901 6.61719 30.4141 6.61719C30.1328 6.61719 29.9193 6.53906 29.7734 6.38281C29.6328 6.22135 29.5625 6.02865 29.5625 5.80469ZM34.8906 9.85156V16.5H33.4453V8.04688H34.8125L34.8906 9.85156ZM34.5469 11.9531L33.9453 11.9297C33.9505 11.3516 34.0365 10.8177 34.2031 10.3281C34.3698 9.83333 34.6042 9.40365 34.9062 9.03906C35.2083 8.67448 35.5677 8.39323 35.9844 8.19531C36.4062 7.99219 36.8724 7.89062 37.3828 7.89062C37.7995 7.89062 38.1745 7.94792 38.5078 8.0625C38.8411 8.17188 39.125 8.34896 39.3594 8.59375C39.599 8.83854 39.7812 9.15625 39.9062 9.54688C40.0312 9.93229 40.0938 10.4036 40.0938 10.9609V16.5H38.6406V10.9453C38.6406 10.5026 38.5755 10.1484 38.4453 9.88281C38.3151 9.61198 38.125 9.41667 37.875 9.29688C37.625 9.17188 37.3177 9.10938 36.9531 9.10938C36.5938 9.10938 36.2656 9.1849 35.9688 9.33594C35.6771 9.48698 35.4245 9.69531 35.2109 9.96094C35.0026 10.2266 34.8385 10.5312 34.7188 10.875C34.6042 11.2135 34.5469 11.5729 34.5469 11.9531ZM47.7656 8.04688H49.0781V16.3203C49.0781 17.0651 48.9271 17.7005 48.625 18.2266C48.3229 18.7526 47.901 19.151 47.3594 19.4219C46.8229 19.6979 46.2031 19.8359 45.5 19.8359C45.2083 19.8359 44.8646 19.7891 44.4688 19.6953C44.0781 19.6068 43.6927 19.4531 43.3125 19.2344C42.9375 19.0208 42.6224 18.7318 42.3672 18.3672L43.125 17.5078C43.4792 17.9349 43.849 18.2318 44.2344 18.3984C44.625 18.5651 45.0104 18.6484 45.3906 18.6484C45.849 18.6484 46.2448 18.5625 46.5781 18.3906C46.9115 18.2188 47.1693 17.9635 47.3516 17.625C47.5391 17.2917 47.6328 16.8802 47.6328 16.3906V9.90625L47.7656 8.04688ZM41.9453 12.3672V12.2031C41.9453 11.5573 42.0208 10.9714 42.1719 10.4453C42.3281 9.91406 42.5495 9.45833 42.8359 9.07812C43.1276 8.69792 43.4792 8.40625 43.8906 8.20312C44.3021 7.99479 44.7656 7.89062 45.2812 7.89062C45.8125 7.89062 46.276 7.98438 46.6719 8.17188C47.0729 8.35417 47.4115 8.6224 47.6875 8.97656C47.9688 9.32552 48.1901 9.7474 48.3516 10.2422C48.513 10.737 48.625 11.2969 48.6875 11.9219V12.6406C48.6302 13.2604 48.5182 13.8177 48.3516 14.3125C48.1901 14.8073 47.9688 15.2292 47.6875 15.5781C47.4115 15.9271 47.0729 16.1953 46.6719 16.3828C46.2708 16.5651 45.8021 16.6562 45.2656 16.6562C44.7604 16.6562 44.3021 16.5495 43.8906 16.3359C43.4844 16.1224 43.1354 15.8229 42.8438 15.4375C42.5521 15.0521 42.3281 14.599 42.1719 14.0781C42.0208 13.5521 41.9453 12.9818 41.9453 12.3672ZM43.3906 12.2031V12.3672C43.3906 12.7891 43.4323 13.1849 43.5156 13.5547C43.6042 13.9245 43.737 14.25 43.9141 14.5312C44.0964 14.8125 44.3281 15.0339 44.6094 15.1953C44.8906 15.3516 45.2266 15.4297 45.6172 15.4297C46.0964 15.4297 46.4922 15.3281 46.8047 15.125C47.1172 14.9219 47.3646 14.6536 47.5469 14.3203C47.7344 13.987 47.8802 13.625 47.9844 13.2344V11.3516C47.9271 11.0651 47.8385 10.7891 47.7188 10.5234C47.6042 10.2526 47.4531 10.013 47.2656 9.80469C47.0833 9.59115 46.8568 9.42188 46.5859 9.29688C46.3151 9.17188 45.9974 9.10938 45.6328 9.10938C45.237 9.10938 44.8958 9.19271 44.6094 9.35938C44.3281 9.52083 44.0964 9.74479 43.9141 10.0312C43.737 10.3125 43.6042 10.6406 43.5156 11.0156C43.4323 11.3854 43.3906 11.7812 43.3906 12.2031Z" fill="white"/>
</g>
</svg>
