<svg width="141" height="20" viewBox="0 0 141 20" fill="none" xmlns="http://www.w3.org/2000/svg">
<mask id="mask0_14_4278" style="mask-type:luminance" maskUnits="userSpaceOnUse" x="0" y="0" width="141" height="20">
<path d="M141 0H0V20H141V0Z" fill="white"/>
</mask>
<g mask="url(#mask0_14_4278)">
<path d="M1.568 18V6.8H8.624V8.464H3.296V16.336H8.624V18H1.568ZM2.352 13.088V11.424H7.744V13.088H2.352ZM10.9801 18V9.6H12.6281V11.328L12.3401 11.52C12.4468 11.1467 12.6548 10.8053 12.9641 10.496C13.2735 10.176 13.6415 9.92 14.0681 9.728C14.4948 9.52533 14.9321 9.424 15.3801 9.424C16.0201 9.424 16.5535 9.552 16.9801 9.808C17.4068 10.0533 17.7268 10.432 17.9401 10.944C18.1535 11.456 18.2601 12.1013 18.2601 12.88V18H16.6121V12.992C16.6121 12.512 16.5481 12.1173 16.4201 11.808C16.2921 11.488 16.0948 11.2587 15.8281 11.12C15.5615 10.9707 15.2308 10.9067 14.8361 10.928C14.5161 10.928 14.2228 10.9813 13.9561 11.088C13.6895 11.184 13.4548 11.3227 13.2521 11.504C13.0601 11.6853 12.9055 11.8987 12.7881 12.144C12.6815 12.3787 12.6281 12.6347 12.6281 12.912V18H11.8121C11.6735 18 11.5348 18 11.3961 18C11.2575 18 11.1188 18 10.9801 18ZM23.7278 18.16C23.0344 18.16 22.3998 17.968 21.8238 17.584C21.2584 17.2 20.8051 16.6773 20.4638 16.016C20.1224 15.3547 19.9518 14.608 19.9518 13.776C19.9518 12.9333 20.1224 12.1867 20.4638 11.536C20.8158 10.8747 21.2851 10.3573 21.8718 9.984C22.4691 9.61067 23.1358 9.424 23.8718 9.424C24.3091 9.424 24.7091 9.488 25.0718 9.616C25.4344 9.744 25.7491 9.92533 26.0158 10.16C26.2931 10.384 26.5171 10.6453 26.6878 10.944C26.8691 11.2427 26.9811 11.5627 27.0238 11.904L26.6558 11.776V9.6H28.3198V18H26.6558V16L27.0398 15.888C26.9758 16.176 26.8424 16.4587 26.6398 16.736C26.4478 17.0027 26.1971 17.2427 25.8878 17.456C25.5891 17.6693 25.2531 17.84 24.8798 17.968C24.5171 18.096 24.1331 18.16 23.7278 18.16ZM24.1598 16.64C24.6611 16.64 25.1038 16.5173 25.4878 16.272C25.8718 16.0267 26.1704 15.6907 26.3838 15.264C26.6078 14.8267 26.7198 14.3307 26.7198 13.776C26.7198 13.232 26.6078 12.7467 26.3838 12.32C26.1704 11.8933 25.8718 11.5573 25.4878 11.312C25.1038 11.0667 24.6611 10.944 24.1598 10.944C23.6691 10.944 23.2318 11.0667 22.8478 11.312C22.4744 11.5573 22.1758 11.8933 21.9518 12.32C21.7384 12.7467 21.6318 13.232 21.6318 13.776C21.6318 14.3307 21.7384 14.8267 21.9518 15.264C22.1758 15.6907 22.4744 16.0267 22.8478 16.272C23.2318 16.5173 23.6691 16.64 24.1598 16.64ZM35.0368 18.16C34.6741 18.16 34.3114 18.1013 33.9488 17.984C33.5968 17.8667 33.2714 17.712 32.9728 17.52C32.6848 17.3173 32.4394 17.0987 32.2368 16.864C32.0448 16.6187 31.9168 16.3733 31.8528 16.128L32.2688 15.904V17.952H30.6208V6.16H32.2688V11.52L32.0128 11.376C32.0661 11.1307 32.1834 10.896 32.3648 10.672C32.5461 10.4373 32.7754 10.2293 33.0528 10.048C33.3408 9.856 33.6501 9.70667 33.9808 9.6C34.3114 9.48267 34.6474 9.424 34.9888 9.424C35.7461 9.424 36.4181 9.61067 37.0048 9.984C37.5914 10.3573 38.0554 10.8747 38.3968 11.536C38.7381 12.1867 38.9088 12.9333 38.9088 13.776C38.9088 14.6187 38.7381 15.3707 38.3968 16.032C38.0661 16.6933 37.6074 17.216 37.0208 17.6C36.4341 17.9733 35.7728 18.16 35.0368 18.16ZM34.7648 16.656C35.2554 16.656 35.6928 16.5333 36.0768 16.288C36.4608 16.032 36.7648 15.6907 36.9888 15.264C37.2128 14.8267 37.3248 14.3307 37.3248 13.776C37.3248 13.232 37.2128 12.7467 36.9888 12.32C36.7754 11.8827 36.4768 11.5413 36.0928 11.296C35.7088 11.0507 35.2661 10.928 34.7648 10.928C34.2634 10.928 33.8208 11.0507 33.4368 11.296C33.0528 11.5413 32.7488 11.8827 32.5248 12.32C32.3008 12.7467 32.1888 13.232 32.1888 13.776C32.1888 14.3307 32.3008 14.8267 32.5248 15.264C32.7488 15.6907 33.0528 16.032 33.4368 16.288C33.8208 16.5333 34.2634 16.656 34.7648 16.656ZM40.7309 18V6.16H42.3789V18H40.7309ZM48.4783 18.16C47.6143 18.16 46.8463 17.9787 46.1743 17.616C45.5129 17.2427 44.9903 16.736 44.6063 16.096C44.2329 15.456 44.0463 14.72 44.0463 13.888C44.0463 13.2267 44.1529 12.624 44.3663 12.08C44.5796 11.536 44.8729 11.0667 45.2463 10.672C45.6303 10.2667 46.0836 9.95733 46.6063 9.744C47.1396 9.52 47.7156 9.408 48.3343 9.408C48.8783 9.408 49.3849 9.51467 49.8543 9.728C50.3236 9.93067 50.7289 10.2133 51.0703 10.576C51.4223 10.9387 51.6889 11.3707 51.8703 11.872C52.0623 12.3627 52.1529 12.9013 52.1423 13.488L52.1263 14.192H45.2623L44.8943 12.88H50.7023L50.4623 13.152V12.768C50.4303 12.416 50.3129 12.1013 50.1103 11.824C49.9076 11.5467 49.6516 11.328 49.3423 11.168C49.0329 11.008 48.6969 10.928 48.3343 10.928C47.7583 10.928 47.2729 11.04 46.8783 11.264C46.4836 11.4773 46.1849 11.7973 45.9823 12.224C45.7796 12.64 45.6783 13.1573 45.6783 13.776C45.6783 14.3627 45.8009 14.8747 46.0463 15.312C46.2916 15.7387 46.6383 16.0693 47.0863 16.304C47.5343 16.5387 48.0516 16.656 48.6383 16.656C49.0543 16.656 49.4383 16.5867 49.7903 16.448C50.1529 16.3093 50.5423 16.0587 50.9583 15.696L51.7903 16.864C51.5343 17.12 51.2196 17.344 50.8463 17.536C50.4836 17.728 50.0943 17.8827 49.6783 18C49.2729 18.1067 48.8729 18.16 48.4783 18.16ZM63.3776 18.16C62.599 18.16 61.8843 18.0213 61.2336 17.744C60.583 17.4667 60.0176 17.072 59.5376 16.56C59.0576 16.0373 58.6843 15.424 58.4176 14.72C58.1616 14.016 58.0336 13.2427 58.0336 12.4C58.0336 11.6 58.1723 10.8587 58.4496 10.176C58.7376 9.48267 59.1323 8.87467 59.6336 8.352C60.135 7.82933 60.7163 7.424 61.3776 7.136C62.039 6.848 62.7536 6.704 63.5216 6.704C64.0656 6.704 64.5936 6.78933 65.1056 6.96C65.6283 7.12 66.0976 7.34933 66.5136 7.648C66.9403 7.936 67.287 8.26667 67.5536 8.64L66.4016 9.84C66.0923 9.53067 65.7776 9.27467 65.4576 9.072C65.1483 8.85867 64.8283 8.69867 64.4976 8.592C64.1776 8.48533 63.8523 8.432 63.5216 8.432C62.999 8.432 62.5083 8.53333 62.0496 8.736C61.6016 8.928 61.207 9.2 60.8656 9.552C60.535 9.904 60.2736 10.3253 60.0816 10.816C59.8896 11.296 59.7936 11.824 59.7936 12.4C59.7936 13.008 59.8843 13.5627 60.0656 14.064C60.2576 14.5547 60.5243 14.976 60.8656 15.328C61.207 15.68 61.6123 15.952 62.0816 16.144C62.5616 16.3253 63.0896 16.416 63.6656 16.416C64.0176 16.416 64.3643 16.368 64.7056 16.272C65.047 16.176 65.367 16.0373 65.6656 15.856C65.9643 15.6747 66.2363 15.4613 66.4816 15.216L67.3456 16.624C67.1003 16.912 66.7643 17.1733 66.3376 17.408C65.9216 17.6427 65.4523 17.8293 64.9296 17.968C64.4176 18.096 63.9003 18.16 63.3776 18.16ZM73.053 18.16C72.2317 18.16 71.4957 17.9733 70.845 17.6C70.205 17.216 69.6983 16.6987 69.325 16.048C68.9517 15.3867 68.765 14.6347 68.765 13.792C68.765 12.9493 68.9517 12.2027 69.325 11.552C69.6983 10.8907 70.205 10.3733 70.845 10C71.4957 9.616 72.2317 9.424 73.053 9.424C73.8637 9.424 74.589 9.616 75.229 10C75.8797 10.3733 76.3917 10.8907 76.765 11.552C77.1383 12.2027 77.325 12.9493 77.325 13.792C77.325 14.6347 77.1383 15.3867 76.765 16.048C76.3917 16.6987 75.8797 17.216 75.229 17.6C74.589 17.9733 73.8637 18.16 73.053 18.16ZM73.053 16.656C73.5543 16.656 74.0023 16.5333 74.397 16.288C74.7917 16.032 75.101 15.6907 75.325 15.264C75.549 14.8267 75.6557 14.336 75.645 13.792C75.6557 13.2373 75.549 12.7467 75.325 12.32C75.101 11.8827 74.7917 11.5413 74.397 11.296C74.0023 11.0507 73.5543 10.928 73.053 10.928C72.5517 10.928 72.0983 11.056 71.693 11.312C71.2983 11.5573 70.989 11.8987 70.765 12.336C70.541 12.7627 70.4343 13.248 70.445 13.792C70.4343 14.336 70.541 14.8267 70.765 15.264C70.989 15.6907 71.2983 16.032 71.693 16.288C72.0983 16.5333 72.5517 16.656 73.053 16.656ZM79.0888 18V9.6H80.7528V11.392L80.4488 11.584C80.5341 11.3067 80.6674 11.04 80.8488 10.784C81.0408 10.528 81.2701 10.304 81.5368 10.112C81.8141 9.90933 82.1074 9.74933 82.4168 9.632C82.7368 9.51467 83.0621 9.456 83.3928 9.456C83.8728 9.456 84.2941 9.536 84.6568 9.696C85.0194 9.856 85.3181 10.096 85.5528 10.416C85.7874 10.736 85.9581 11.136 86.0648 11.616L85.8088 11.552L85.9208 11.28C86.0381 11.0347 86.1981 10.8053 86.4008 10.592C86.6141 10.368 86.8541 10.1707 87.1208 10C87.3874 9.82933 87.6701 9.696 87.9688 9.6C88.2674 9.504 88.5608 9.456 88.8488 9.456C89.4781 9.456 89.9954 9.584 90.4008 9.84C90.8168 10.096 91.1261 10.4853 91.3288 11.008C91.5421 11.5307 91.6488 12.1813 91.6488 12.96V18H89.9848V13.056C89.9848 12.576 89.9208 12.1867 89.7928 11.888C89.6754 11.5787 89.4941 11.3493 89.2488 11.2C89.0034 11.0507 88.6888 10.976 88.3048 10.976C88.0061 10.976 87.7234 11.0293 87.4568 11.136C87.2008 11.232 86.9768 11.3707 86.7847 11.552C86.5928 11.7333 86.4434 11.9467 86.3368 12.192C86.2301 12.4267 86.1768 12.688 86.1768 12.976V18H84.5128V13.024C84.5128 12.5867 84.4488 12.2187 84.3208 11.92C84.1928 11.6107 84.0061 11.376 83.7608 11.216C83.5154 11.056 83.2168 10.976 82.8648 10.976C82.5661 10.976 82.2888 11.0293 82.0328 11.136C81.7768 11.232 81.5528 11.3707 81.3608 11.552C81.1688 11.7227 81.0194 11.9307 80.9128 12.176C80.8061 12.4107 80.7528 12.6667 80.7528 12.944V18H79.0888ZM93.8231 18V9.6H95.4871V11.392L95.1831 11.584C95.2685 11.3067 95.4018 11.04 95.5831 10.784C95.7751 10.528 96.0045 10.304 96.2711 10.112C96.5485 9.90933 96.8418 9.74933 97.1511 9.632C97.4711 9.51467 97.7965 9.456 98.1271 9.456C98.6071 9.456 99.0285 9.536 99.3911 9.696C99.7538 9.856 100.052 10.096 100.287 10.416C100.522 10.736 100.692 11.136 100.799 11.616L100.543 11.552L100.655 11.28C100.772 11.0347 100.932 10.8053 101.135 10.592C101.348 10.368 101.588 10.1707 101.855 10C102.122 9.82933 102.404 9.696 102.703 9.6C103.002 9.504 103.295 9.456 103.583 9.456C104.212 9.456 104.73 9.584 105.135 9.84C105.551 10.096 105.86 10.4853 106.063 11.008C106.276 11.5307 106.383 12.1813 106.383 12.96V18H104.719V13.056C104.719 12.576 104.655 12.1867 104.527 11.888C104.41 11.5787 104.228 11.3493 103.983 11.2C103.738 11.0507 103.423 10.976 103.039 10.976C102.74 10.976 102.458 11.0293 102.191 11.136C101.935 11.232 101.711 11.3707 101.519 11.552C101.327 11.7333 101.178 11.9467 101.071 12.192C100.964 12.4267 100.911 12.688 100.911 12.976V18H99.2471V13.024C99.2471 12.5867 99.1831 12.2187 99.0551 11.92C98.9271 11.6107 98.7405 11.376 98.4951 11.216C98.2498 11.056 97.9511 10.976 97.5991 10.976C97.3005 10.976 97.0231 11.0293 96.7671 11.136C96.5111 11.232 96.2871 11.3707 96.0951 11.552C95.9031 11.7227 95.7538 11.9307 95.6471 12.176C95.5405 12.4107 95.4871 12.6667 95.4871 12.944V18H93.8231ZM112.51 18.16C111.646 18.16 110.878 17.9787 110.206 17.616C109.544 17.2427 109.022 16.736 108.638 16.096C108.264 15.456 108.078 14.72 108.078 13.888C108.078 13.2267 108.184 12.624 108.398 12.08C108.611 11.536 108.904 11.0667 109.278 10.672C109.662 10.2667 110.115 9.95733 110.638 9.744C111.171 9.52 111.747 9.408 112.366 9.408C112.91 9.408 113.416 9.51467 113.886 9.728C114.355 9.93067 114.76 10.2133 115.102 10.576C115.454 10.9387 115.72 11.3707 115.902 11.872C116.094 12.3627 116.184 12.9013 116.174 13.488L116.158 14.192H109.294L108.926 12.88H114.734L114.494 13.152V12.768C114.462 12.416 114.344 12.1013 114.142 11.824C113.939 11.5467 113.683 11.328 113.374 11.168C113.064 11.008 112.728 10.928 112.366 10.928C111.79 10.928 111.304 11.04 110.91 11.264C110.515 11.4773 110.216 11.7973 110.014 12.224C109.811 12.64 109.71 13.1573 109.71 13.776C109.71 14.3627 109.832 14.8747 110.078 15.312C110.323 15.7387 110.67 16.0693 111.118 16.304C111.566 16.5387 112.083 16.656 112.67 16.656C113.086 16.656 113.47 16.5867 113.822 16.448C114.184 16.3093 114.574 16.0587 114.99 15.696L115.822 16.864C115.566 17.12 115.251 17.344 114.878 17.536C114.515 17.728 114.126 17.8827 113.71 18C113.304 18.1067 112.904 18.16 112.51 18.16ZM117.965 18V9.6H119.613V11.328L119.325 11.52C119.431 11.1467 119.639 10.8053 119.949 10.496C120.258 10.176 120.626 9.92 121.053 9.728C121.479 9.52533 121.917 9.424 122.365 9.424C123.005 9.424 123.538 9.552 123.965 9.808C124.391 10.0533 124.711 10.432 124.925 10.944C125.138 11.456 125.245 12.1013 125.245 12.88V18H123.597V12.992C123.597 12.512 123.533 12.1173 123.405 11.808C123.277 11.488 123.079 11.2587 122.813 11.12C122.546 10.9707 122.215 10.9067 121.821 10.928C121.501 10.928 121.207 10.9813 120.941 11.088C120.674 11.184 120.439 11.3227 120.237 11.504C120.045 11.6853 119.89 11.8987 119.773 12.144C119.666 12.3787 119.613 12.6347 119.613 12.912V18H118.797C118.658 18 118.519 18 118.381 18C118.242 18 118.103 18 117.965 18ZM128.52 18V7.456H130.168V18H128.52ZM126.776 11.2V9.6H132.12V11.2H126.776ZM136.733 18.16C136.029 18.16 135.395 18.0373 134.829 17.792C134.264 17.5467 133.795 17.184 133.421 16.704L134.541 15.744C134.861 16.1173 135.208 16.3893 135.581 16.56C135.965 16.72 136.397 16.8 136.877 16.8C137.069 16.8 137.245 16.7787 137.405 16.736C137.576 16.6827 137.72 16.608 137.837 16.512C137.965 16.416 138.061 16.304 138.125 16.176C138.189 16.0373 138.221 15.888 138.221 15.728C138.221 15.4507 138.12 15.2267 137.917 15.056C137.811 14.9813 137.64 14.9013 137.405 14.816C137.181 14.72 136.888 14.624 136.525 14.528C135.907 14.368 135.4 14.1867 135.005 13.984C134.611 13.7813 134.307 13.552 134.093 13.296C133.933 13.0933 133.816 12.8747 133.741 12.64C133.667 12.3947 133.629 12.128 133.629 11.84C133.629 11.488 133.704 11.168 133.853 10.88C134.013 10.5813 134.227 10.3253 134.493 10.112C134.771 9.888 135.091 9.71733 135.453 9.6C135.827 9.48267 136.221 9.424 136.637 9.424C137.032 9.424 137.421 9.47733 137.805 9.584C138.2 9.69067 138.563 9.84533 138.893 10.048C139.224 10.2507 139.501 10.4907 139.725 10.768L138.781 11.808C138.579 11.6053 138.355 11.4293 138.109 11.28C137.875 11.12 137.635 10.9973 137.389 10.912C137.144 10.8267 136.92 10.784 136.717 10.784C136.493 10.784 136.291 10.8053 136.109 10.848C135.928 10.8907 135.773 10.9547 135.645 11.04C135.528 11.1253 135.437 11.232 135.373 11.36C135.309 11.488 135.277 11.632 135.277 11.792C135.288 11.9307 135.32 12.064 135.373 12.192C135.437 12.3093 135.523 12.4107 135.629 12.496C135.747 12.5813 135.923 12.672 136.157 12.768C136.392 12.864 136.691 12.9547 137.053 13.04C137.587 13.1787 138.024 13.3333 138.365 13.504C138.717 13.664 138.995 13.8507 139.197 14.064C139.411 14.2667 139.56 14.5013 139.645 14.768C139.731 15.0347 139.773 15.3333 139.773 15.664C139.773 16.144 139.635 16.576 139.357 16.96C139.091 17.3333 138.728 17.6267 138.269 17.84C137.811 18.0533 137.299 18.16 136.733 18.16Z" fill="black"/>
</g>
</svg>
