<svg width="13" height="13" viewBox="0 0 13 13" fill="none" xmlns="http://www.w3.org/2000/svg">
<g clip-path="url(#clip0_14_5052)">
<path d="M11.7812 0.812504H8.73438L8.4957 0.3377C8.44514 0.236192 8.36726 0.150805 8.27082 0.0911463C8.17438 0.0314874 8.06321 -7.68819e-05 7.9498 4.45167e-06H5.04766C4.93451 -0.000430503 4.82353 0.0310161 4.72743 0.0907413C4.63133 0.150467 4.554 0.236055 4.5043 0.3377L4.26562 0.812504H1.21875C1.11101 0.812504 1.00767 0.855306 0.931488 0.931492C0.855301 1.00768 0.8125 1.11101 0.8125 1.21875L0.8125 2.03125C0.8125 2.139 0.855301 2.24233 0.931488 2.31852C1.00767 2.3947 1.11101 2.4375 1.21875 2.4375H11.7812C11.889 2.4375 11.9923 2.3947 12.0685 2.31852C12.1447 2.24233 12.1875 2.139 12.1875 2.03125V1.21875C12.1875 1.11101 12.1447 1.00768 12.0685 0.931492C11.9923 0.855306 11.889 0.812504 11.7812 0.812504ZM2.16328 11.8574C2.18266 12.1668 2.31922 12.4572 2.54517 12.6695C2.77112 12.8818 3.06947 13 3.37949 13H9.62051C9.93053 13 10.2289 12.8818 10.4548 12.6695C10.6808 12.4572 10.8173 12.1668 10.8367 11.8574L11.375 3.25H1.625L2.16328 11.8574Z" fill="#DC143C"/>
</g>
<defs>
<clipPath id="clip0_14_5052">
<rect width="13" height="13" fill="white"/>
</clipPath>
</defs>
</svg>
