<svg width="88" height="18" viewBox="0 0 88 18" fill="none" xmlns="http://www.w3.org/2000/svg">
<mask id="mask0_14_5081" style="mask-type:luminance" maskUnits="userSpaceOnUse" x="0" y="0" width="88" height="18">
<path d="M88 0H0V18H88V0Z" fill="white"/>
</mask>
<g mask="url(#mask0_14_5081)">
<path d="M7.34863 12.9609V14H0.833984V13.0908L4.09473 9.46094C4.49577 9.01432 4.80566 8.63607 5.02441 8.32617C5.24772 8.01172 5.40267 7.73145 5.48926 7.48535C5.5804 7.2347 5.62598 6.97949 5.62598 6.71973C5.62598 6.3916 5.55762 6.09538 5.4209 5.83105C5.28874 5.56217 5.09277 5.34798 4.83301 5.18848C4.57324 5.02897 4.25879 4.94922 3.88965 4.94922C3.44759 4.94922 3.07845 5.03581 2.78223 5.20898C2.49056 5.3776 2.27181 5.61458 2.12598 5.91992C1.98014 6.22526 1.90723 6.57617 1.90723 6.97266H0.642578C0.642578 6.41211 0.765625 5.89941 1.01172 5.43457C1.25781 4.96973 1.6224 4.60059 2.10547 4.32715C2.58854 4.04915 3.18327 3.91016 3.88965 3.91016C4.51855 3.91016 5.05632 4.02181 5.50293 4.24512C5.94954 4.46387 6.29134 4.77376 6.52832 5.1748C6.76986 5.57129 6.89062 6.03613 6.89062 6.56934C6.89062 6.861 6.84049 7.15723 6.74023 7.45801C6.64453 7.75423 6.51009 8.05046 6.33691 8.34668C6.16829 8.6429 5.97005 8.93457 5.74219 9.22168C5.51888 9.50879 5.27962 9.79134 5.02441 10.0693L2.3584 12.9609H7.34863ZM14.9502 8.23047V9.74805C14.9502 10.5638 14.8773 11.252 14.7314 11.8125C14.5856 12.373 14.376 12.8242 14.1025 13.166C13.8291 13.5078 13.4987 13.7562 13.1113 13.9111C12.7285 14.0615 12.2956 14.1367 11.8125 14.1367C11.4297 14.1367 11.0765 14.0889 10.7529 13.9932C10.4294 13.8975 10.1377 13.7448 9.87793 13.5352C9.62272 13.321 9.40397 13.043 9.22168 12.7012C9.03939 12.3594 8.90039 11.9447 8.80469 11.457C8.70898 10.9694 8.66113 10.3997 8.66113 9.74805V8.23047C8.66113 7.41471 8.73405 6.73112 8.87988 6.17969C9.03027 5.62826 9.24219 5.1862 9.51562 4.85352C9.78906 4.51628 10.1172 4.27474 10.5 4.12891C10.8874 3.98307 11.3203 3.91016 11.7988 3.91016C12.1862 3.91016 12.5417 3.95801 12.8652 4.05371C13.1934 4.14486 13.485 4.29297 13.7402 4.49805C13.9954 4.69857 14.2119 4.96745 14.3896 5.30469C14.5719 5.63737 14.7109 6.04525 14.8066 6.52832C14.9023 7.01139 14.9502 7.57878 14.9502 8.23047ZM13.6787 9.95312V8.01855C13.6787 7.57194 13.6514 7.18001 13.5967 6.84277C13.5465 6.50098 13.4714 6.20931 13.3711 5.96777C13.2708 5.72624 13.1432 5.53027 12.9883 5.37988C12.8379 5.22949 12.6624 5.12012 12.4619 5.05176C12.266 4.97884 12.0449 4.94238 11.7988 4.94238C11.498 4.94238 11.2314 4.99935 10.999 5.11328C10.7666 5.22266 10.5706 5.39811 10.4111 5.63965C10.2562 5.88118 10.1377 6.19792 10.0557 6.58984C9.97363 6.98177 9.93262 7.45801 9.93262 8.01855V9.95312C9.93262 10.3997 9.95768 10.7939 10.0078 11.1357C10.0625 11.4775 10.1423 11.7738 10.2471 12.0244C10.3519 12.2705 10.4795 12.4733 10.6299 12.6328C10.7803 12.7923 10.9535 12.9108 11.1494 12.9883C11.3499 13.0612 11.571 13.0977 11.8125 13.0977C12.1224 13.0977 12.3936 13.0384 12.626 12.9199C12.8584 12.8014 13.0521 12.6169 13.207 12.3662C13.3665 12.111 13.485 11.7852 13.5625 11.3887C13.64 10.9876 13.6787 10.5091 13.6787 9.95312ZM23.0986 12.9609V14H16.584V13.0908L19.8447 9.46094C20.2458 9.01432 20.5557 8.63607 20.7744 8.32617C20.9977 8.01172 21.1527 7.73145 21.2393 7.48535C21.3304 7.2347 21.376 6.97949 21.376 6.71973C21.376 6.3916 21.3076 6.09538 21.1709 5.83105C21.0387 5.56217 20.8428 5.34798 20.583 5.18848C20.3232 5.02897 20.0088 4.94922 19.6396 4.94922C19.1976 4.94922 18.8285 5.03581 18.5322 5.20898C18.2406 5.3776 18.0218 5.61458 17.876 5.91992C17.7301 6.22526 17.6572 6.57617 17.6572 6.97266H16.3926C16.3926 6.41211 16.5156 5.89941 16.7617 5.43457C17.0078 4.96973 17.3724 4.60059 17.8555 4.32715C18.3385 4.04915 18.9333 3.91016 19.6396 3.91016C20.2686 3.91016 20.8063 4.02181 21.2529 4.24512C21.6995 4.46387 22.0413 4.77376 22.2783 5.1748C22.5199 5.57129 22.6406 6.03613 22.6406 6.56934C22.6406 6.861 22.5905 7.15723 22.4902 7.45801C22.3945 7.75423 22.2601 8.05046 22.0869 8.34668C21.9183 8.6429 21.7201 8.93457 21.4922 9.22168C21.2689 9.50879 21.0296 9.79134 20.7744 10.0693L18.1084 12.9609H23.0986ZM26.2979 8.40137H27.2002C27.6423 8.40137 28.0068 8.32845 28.2939 8.18262C28.5856 8.03223 28.8021 7.82943 28.9434 7.57422C29.0892 7.31445 29.1621 7.02279 29.1621 6.69922C29.1621 6.31641 29.0983 5.99512 28.9707 5.73535C28.8431 5.47559 28.6517 5.27962 28.3965 5.14746C28.1413 5.0153 27.8177 4.94922 27.4258 4.94922C27.0703 4.94922 26.7559 5.01986 26.4824 5.16113C26.2135 5.29785 26.0016 5.49382 25.8467 5.74902C25.6963 6.00423 25.6211 6.30501 25.6211 6.65137H24.3564C24.3564 6.14551 24.484 5.68522 24.7393 5.27051C24.9945 4.85579 25.3522 4.52539 25.8125 4.2793C26.2773 4.0332 26.8151 3.91016 27.4258 3.91016C28.0273 3.91016 28.5537 4.01725 29.0049 4.23145C29.4561 4.44108 29.807 4.75553 30.0576 5.1748C30.3083 5.58952 30.4336 6.10677 30.4336 6.72656C30.4336 6.97721 30.3743 7.24609 30.2559 7.5332C30.1419 7.81576 29.9619 8.08008 29.7158 8.32617C29.4743 8.57227 29.1598 8.77507 28.7725 8.93457C28.3851 9.08952 27.9202 9.16699 27.3779 9.16699H26.2979V8.40137ZM26.2979 9.44043V8.68164H27.3779C28.0114 8.68164 28.5355 8.75684 28.9502 8.90723C29.3649 9.05762 29.6908 9.25814 29.9277 9.50879C30.1693 9.75944 30.3379 10.0352 30.4336 10.3359C30.5339 10.6322 30.584 10.9284 30.584 11.2246C30.584 11.6895 30.5042 12.1019 30.3447 12.4619C30.1898 12.8219 29.9688 13.1273 29.6816 13.3779C29.3991 13.6286 29.0664 13.8177 28.6836 13.9453C28.3008 14.0729 27.8838 14.1367 27.4326 14.1367C26.9997 14.1367 26.5918 14.0752 26.209 13.9521C25.8307 13.8291 25.4958 13.6514 25.2041 13.4189C24.9124 13.182 24.6846 12.8926 24.5205 12.5508C24.3564 12.2044 24.2744 11.8102 24.2744 11.3682H25.5391C25.5391 11.7145 25.6143 12.0176 25.7646 12.2773C25.9196 12.5371 26.1383 12.7399 26.4209 12.8857C26.708 13.027 27.0452 13.0977 27.4326 13.0977C27.82 13.0977 28.1527 13.0316 28.4307 12.8994C28.7132 12.7627 28.9297 12.5576 29.0801 12.2842C29.235 12.0107 29.3125 11.6667 29.3125 11.252C29.3125 10.8372 29.2259 10.4977 29.0527 10.2334C28.8796 9.96452 28.6335 9.76628 28.3145 9.63867C28 9.50651 27.6286 9.44043 27.2002 9.44043H26.2979ZM35.0957 9.24902V10.2881H31.7598V9.24902H35.0957ZM42.4443 8.23047V9.74805C42.4443 10.5638 42.3714 11.252 42.2256 11.8125C42.0798 12.373 41.8701 12.8242 41.5967 13.166C41.3232 13.5078 40.9928 13.7562 40.6055 13.9111C40.2227 14.0615 39.7897 14.1367 39.3066 14.1367C38.9238 14.1367 38.5706 14.0889 38.2471 13.9932C37.9235 13.8975 37.6318 13.7448 37.3721 13.5352C37.1169 13.321 36.8981 13.043 36.7158 12.7012C36.5335 12.3594 36.3945 11.9447 36.2988 11.457C36.2031 10.9694 36.1553 10.3997 36.1553 9.74805V8.23047C36.1553 7.41471 36.2282 6.73112 36.374 6.17969C36.5244 5.62826 36.7363 5.1862 37.0098 4.85352C37.2832 4.51628 37.6113 4.27474 37.9941 4.12891C38.3815 3.98307 38.8145 3.91016 39.293 3.91016C39.6803 3.91016 40.0358 3.95801 40.3594 4.05371C40.6875 4.14486 40.9792 4.29297 41.2344 4.49805C41.4896 4.69857 41.7061 4.96745 41.8838 5.30469C42.0661 5.63737 42.2051 6.04525 42.3008 6.52832C42.3965 7.01139 42.4443 7.57878 42.4443 8.23047ZM41.1729 9.95312V8.01855C41.1729 7.57194 41.1455 7.18001 41.0908 6.84277C41.0407 6.50098 40.9655 6.20931 40.8652 5.96777C40.765 5.72624 40.6374 5.53027 40.4824 5.37988C40.332 5.22949 40.1566 5.12012 39.9561 5.05176C39.7601 4.97884 39.5391 4.94238 39.293 4.94238C38.9922 4.94238 38.7256 4.99935 38.4932 5.11328C38.2607 5.22266 38.0648 5.39811 37.9053 5.63965C37.7503 5.88118 37.6318 6.19792 37.5498 6.58984C37.4678 6.98177 37.4268 7.45801 37.4268 8.01855V9.95312C37.4268 10.3997 37.4518 10.7939 37.502 11.1357C37.5566 11.4775 37.6364 11.7738 37.7412 12.0244C37.846 12.2705 37.9736 12.4733 38.124 12.6328C38.2744 12.7923 38.4476 12.9108 38.6436 12.9883C38.8441 13.0612 39.0651 13.0977 39.3066 13.0977C39.6165 13.0977 39.8877 13.0384 40.1201 12.9199C40.3525 12.8014 40.5462 12.6169 40.7012 12.3662C40.8607 12.111 40.9792 11.7852 41.0566 11.3887C41.1341 10.9876 41.1729 10.5091 41.1729 9.95312ZM50.7979 10.6504V11.6895H43.6064V10.9443L48.0635 4.04688H49.0957L47.9883 6.04297L45.042 10.6504H50.7979ZM49.4102 4.04688V14H48.1455V4.04688H49.4102ZM54.7148 9.24902V10.2881H51.3789V9.24902H54.7148ZM62.3369 12.9609V14H55.8223V13.0908L59.083 9.46094C59.484 9.01432 59.7939 8.63607 60.0127 8.32617C60.236 8.01172 60.391 7.73145 60.4775 7.48535C60.5687 7.2347 60.6143 6.97949 60.6143 6.71973C60.6143 6.3916 60.5459 6.09538 60.4092 5.83105C60.277 5.56217 60.0811 5.34798 59.8213 5.18848C59.5615 5.02897 59.2471 4.94922 58.8779 4.94922C58.4359 4.94922 58.0667 5.03581 57.7705 5.20898C57.4788 5.3776 57.2601 5.61458 57.1143 5.91992C56.9684 6.22526 56.8955 6.57617 56.8955 6.97266H55.6309C55.6309 6.41211 55.7539 5.89941 56 5.43457C56.2461 4.96973 56.6107 4.60059 57.0938 4.32715C57.5768 4.04915 58.1715 3.91016 58.8779 3.91016C59.5068 3.91016 60.0446 4.02181 60.4912 4.24512C60.9378 4.46387 61.2796 4.77376 61.5166 5.1748C61.7581 5.57129 61.8789 6.03613 61.8789 6.56934C61.8789 6.861 61.8288 7.15723 61.7285 7.45801C61.6328 7.75423 61.4984 8.05046 61.3252 8.34668C61.1566 8.6429 60.9583 8.93457 60.7305 9.22168C60.5072 9.50879 60.2679 9.79134 60.0127 10.0693L57.3467 12.9609H62.3369ZM65.29 9.2627L64.2783 9.00293L64.7773 4.04688H69.8838V5.21582H65.8506L65.5498 7.92285C65.7321 7.81803 65.9622 7.72005 66.2402 7.62891C66.5228 7.53776 66.8464 7.49219 67.2109 7.49219C67.6712 7.49219 68.0837 7.57194 68.4482 7.73145C68.8128 7.88639 69.1227 8.1097 69.3779 8.40137C69.6377 8.69303 69.8359 9.04395 69.9727 9.4541C70.1094 9.86426 70.1777 10.3223 70.1777 10.8281C70.1777 11.3066 70.1117 11.7464 69.9795 12.1475C69.8519 12.5485 69.6582 12.8994 69.3984 13.2002C69.1387 13.4964 68.8105 13.7266 68.4141 13.8906C68.0221 14.0547 67.5596 14.1367 67.0264 14.1367C66.6253 14.1367 66.2448 14.082 65.8848 13.9727C65.5293 13.8587 65.2103 13.6878 64.9277 13.46C64.6497 13.2275 64.4219 12.9404 64.2441 12.5986C64.071 12.2523 63.9616 11.8467 63.916 11.3818H65.1191C65.1738 11.7555 65.2832 12.07 65.4473 12.3252C65.6113 12.5804 65.8255 12.7741 66.0898 12.9062C66.3587 13.0339 66.6709 13.0977 67.0264 13.0977C67.3271 13.0977 67.5938 13.0452 67.8262 12.9404C68.0586 12.8356 68.2546 12.6852 68.4141 12.4893C68.5736 12.2933 68.6943 12.0563 68.7764 11.7783C68.863 11.5003 68.9062 11.1882 68.9062 10.8418C68.9062 10.5273 68.863 10.2357 68.7764 9.9668C68.6898 9.69792 68.5599 9.46322 68.3867 9.2627C68.2181 9.06217 68.0107 8.90723 67.7646 8.79785C67.5186 8.68392 67.236 8.62695 66.917 8.62695C66.4932 8.62695 66.1719 8.68392 65.9531 8.79785C65.7389 8.91178 65.5179 9.06673 65.29 9.2627Z" fill="black"/>
</g>
</svg>
