<svg width="66" height="18" viewBox="0 0 66 18" fill="none" xmlns="http://www.w3.org/2000/svg">
<mask id="mask0_11_781" style="mask-type:luminance" maskUnits="userSpaceOnUse" x="0" y="0" width="66" height="18">
<path d="M66 0H0V18H66V0Z" fill="white"/>
</mask>
<g mask="url(#mask0_11_781)">
<path d="M1.372 15V5.2H5.362C5.894 5.2 6.37467 5.33533 6.804 5.606C7.24267 5.86733 7.59267 6.22667 7.854 6.684C8.11533 7.14133 8.246 7.65 8.246 8.21C8.246 8.77 8.11533 9.27867 7.854 9.736C7.59267 10.1933 7.24267 10.562 6.804 10.842C6.37467 11.1127 5.894 11.248 5.362 11.248H2.884V15H1.372ZM2.884 9.792H5.334C5.586 9.792 5.81467 9.722 6.02 9.582C6.22533 9.43267 6.38867 9.24133 6.51 9.008C6.64067 8.76533 6.706 8.49933 6.706 8.21C6.706 7.92067 6.64067 7.65933 6.51 7.426C6.38867 7.19267 6.22533 7.006 6.02 6.866C5.81467 6.726 5.586 6.656 5.334 6.656H2.884V9.792ZM12.3887 15.14C11.866 15.14 11.4087 15.0187 11.0167 14.776C10.634 14.5333 10.3354 14.1927 10.1207 13.754C9.91535 13.3153 9.81269 12.7927 9.81269 12.186V7.65H11.2547V11.794C11.2547 12.2233 11.32 12.5967 11.4507 12.914C11.5907 13.222 11.7867 13.46 12.0387 13.628C12.3 13.796 12.6127 13.88 12.9767 13.88C13.2474 13.88 13.4947 13.838 13.7187 13.754C13.9427 13.6607 14.134 13.5347 14.2927 13.376C14.4607 13.2173 14.5914 13.026 14.6847 12.802C14.778 12.578 14.8247 12.3353 14.8247 12.074V7.65H16.2667V15H14.8247V13.46L15.0767 13.292C14.9647 13.6373 14.7734 13.95 14.5027 14.23C14.2414 14.51 13.9287 14.734 13.5647 14.902C13.2007 15.0607 12.8087 15.14 12.3887 15.14ZM22.1533 15.14C21.8359 15.14 21.5186 15.0887 21.2013 14.986C20.8933 14.8833 20.6086 14.748 20.3473 14.58C20.0953 14.4027 19.8806 14.2113 19.7033 14.006C19.5353 13.7913 19.4233 13.5767 19.3673 13.362L19.7313 13.166V14.958H18.2893V4.64H19.7313V9.33L19.5073 9.204C19.5539 8.98933 19.6566 8.784 19.8153 8.588C19.9739 8.38267 20.1746 8.20067 20.4173 8.042C20.6693 7.874 20.9399 7.74333 21.2293 7.65C21.5186 7.54733 21.8126 7.496 22.1113 7.496C22.7739 7.496 23.3619 7.65933 23.8753 7.986C24.3886 8.31267 24.7946 8.76533 25.0933 9.344C25.3919 9.91333 25.5413 10.5667 25.5413 11.304C25.5413 12.0413 25.3919 12.6993 25.0933 13.278C24.8039 13.8567 24.4026 14.314 23.8893 14.65C23.3759 14.9767 22.7973 15.14 22.1533 15.14ZM21.9153 13.824C22.3446 13.824 22.7273 13.7167 23.0633 13.502C23.3993 13.278 23.6653 12.9793 23.8613 12.606C24.0573 12.2233 24.1553 11.7893 24.1553 11.304C24.1553 10.828 24.0573 10.4033 23.8613 10.03C23.6746 9.64733 23.4133 9.34867 23.0773 9.134C22.7413 8.91933 22.3539 8.812 21.9153 8.812C21.4766 8.812 21.0893 8.91933 20.7533 9.134C20.4173 9.34867 20.1513 9.64733 19.9553 10.03C19.7593 10.4033 19.6613 10.828 19.6613 11.304C19.6613 11.7893 19.7593 12.2233 19.9553 12.606C20.1513 12.9793 20.4173 13.278 20.7533 13.502C21.0893 13.7167 21.4766 13.824 21.9153 13.824ZM27.1356 15V4.64H28.5776V15H27.1356ZM30.8593 15V7.65H32.3013V15H30.8593ZM31.5593 6.026C31.2513 6.026 31.0133 5.94667 30.8453 5.788C30.6773 5.62933 30.5933 5.40533 30.5933 5.116C30.5933 4.84533 30.6773 4.626 30.8453 4.458C31.0226 4.29 31.2606 4.206 31.5593 4.206C31.8673 4.206 32.1053 4.28533 32.2733 4.444C32.4413 4.60267 32.5253 4.82667 32.5253 5.116C32.5253 5.38667 32.4366 5.606 32.2593 5.774C32.0913 5.942 31.8579 6.026 31.5593 6.026ZM36.9678 15.14C36.3518 15.14 35.7964 15.0327 35.3018 14.818C34.8071 14.6033 34.3964 14.286 34.0698 13.866L35.0498 13.026C35.3298 13.3527 35.6331 13.5907 35.9598 13.74C36.2958 13.88 36.6738 13.95 37.0938 13.95C37.2618 13.95 37.4158 13.9313 37.5558 13.894C37.7051 13.8473 37.8311 13.782 37.9338 13.698C38.0458 13.614 38.1298 13.516 38.1858 13.404C38.2418 13.2827 38.2698 13.152 38.2698 13.012C38.2698 12.7693 38.1811 12.5733 38.0038 12.424C37.9104 12.3587 37.7611 12.2887 37.5558 12.214C37.3598 12.13 37.1031 12.046 36.7858 11.962C36.2444 11.822 35.8011 11.6633 35.4558 11.486C35.1104 11.3087 34.8444 11.108 34.6578 10.884C34.5178 10.7067 34.4151 10.5153 34.3498 10.31C34.2844 10.0953 34.2518 9.862 34.2518 9.61C34.2518 9.302 34.3171 9.022 34.4478 8.77C34.5878 8.50867 34.7744 8.28467 35.0078 8.098C35.2504 7.902 35.5304 7.75267 35.8478 7.65C36.1744 7.54733 36.5198 7.496 36.8838 7.496C37.2291 7.496 37.5698 7.54267 37.9058 7.636C38.2511 7.72933 38.5684 7.86467 38.8578 8.042C39.1471 8.21933 39.3898 8.42933 39.5858 8.672L38.7598 9.582C38.5824 9.40467 38.3864 9.25067 38.1718 9.12C37.9664 8.98 37.7564 8.87267 37.5418 8.798C37.3271 8.72333 37.1311 8.686 36.9538 8.686C36.7578 8.686 36.5804 8.70467 36.4218 8.742C36.2631 8.77933 36.1278 8.83533 36.0158 8.91C35.9131 8.98467 35.8338 9.078 35.7778 9.19C35.7218 9.302 35.6938 9.428 35.6938 9.568C35.7031 9.68933 35.7311 9.806 35.7778 9.918C35.8338 10.0207 35.9084 10.1093 36.0018 10.184C36.1044 10.2587 36.2584 10.338 36.4638 10.422C36.6691 10.506 36.9304 10.5853 37.2478 10.66C37.7144 10.7813 38.0971 10.9167 38.3958 11.066C38.7038 11.206 38.9464 11.3693 39.1238 11.556C39.3104 11.7333 39.4411 11.9387 39.5158 12.172C39.5904 12.4053 39.6278 12.6667 39.6278 12.956C39.6278 13.376 39.5064 13.754 39.2638 14.09C39.0304 14.4167 38.7131 14.6733 38.3118 14.86C37.9104 15.0467 37.4624 15.14 36.9678 15.14ZM41.217 15V4.64H42.659V9.162L42.407 9.33C42.5003 9.00333 42.6823 8.70467 42.953 8.434C43.2237 8.154 43.5457 7.93 43.919 7.762C44.2923 7.58467 44.675 7.496 45.067 7.496C45.627 7.496 46.0937 7.608 46.467 7.832C46.8403 8.04667 47.1203 8.378 47.307 8.826C47.4937 9.274 47.587 9.83867 47.587 10.52V15H46.145V10.618C46.145 10.198 46.089 9.85267 45.977 9.582C45.865 9.302 45.6923 9.10133 45.459 8.98C45.2257 8.84933 44.9363 8.79333 44.591 8.812C44.311 8.812 44.0543 8.85867 43.821 8.952C43.5877 9.036 43.3823 9.15733 43.205 9.316C43.037 9.47467 42.9017 9.66133 42.799 9.876C42.7057 10.0813 42.659 10.3053 42.659 10.548V15H41.945C41.8237 15 41.7023 15 41.581 15C41.4597 15 41.3383 15 41.217 15ZM52.9732 15.14C52.2172 15.14 51.5452 14.9813 50.9572 14.664C50.3785 14.3373 49.9212 13.894 49.5852 13.334C49.2585 12.774 49.0952 12.13 49.0952 11.402C49.0952 10.8233 49.1885 10.296 49.3752 9.82C49.5618 9.344 49.8185 8.93333 50.1452 8.588C50.4812 8.23333 50.8778 7.96267 51.3352 7.776C51.8018 7.58 52.3058 7.482 52.8472 7.482C53.3232 7.482 53.7665 7.57533 54.1772 7.762C54.5878 7.93933 54.9425 8.18667 55.2412 8.504C55.5492 8.82133 55.7825 9.19933 55.9412 9.638C56.1092 10.0673 56.1885 10.5387 56.1792 11.052L56.1652 11.668H50.1592L49.8372 10.52H54.9192L54.7092 10.758V10.422C54.6812 10.114 54.5785 9.83867 54.4012 9.596C54.2238 9.35333 53.9998 9.162 53.7292 9.022C53.4585 8.882 53.1645 8.812 52.8472 8.812C52.3432 8.812 51.9185 8.91 51.5732 9.106C51.2278 9.29267 50.9665 9.57267 50.7892 9.946C50.6118 10.31 50.5232 10.7627 50.5232 11.304C50.5232 11.8173 50.6305 12.2653 50.8452 12.648C51.0598 13.0213 51.3632 13.3107 51.7552 13.516C52.1472 13.7213 52.5998 13.824 53.1132 13.824C53.4772 13.824 53.8132 13.7633 54.1212 13.642C54.4385 13.5207 54.7792 13.3013 55.1432 12.984L55.8712 14.006C55.6472 14.23 55.3718 14.426 55.0452 14.594C54.7278 14.762 54.3872 14.8973 54.0232 15C53.6685 15.0933 53.3185 15.14 52.9732 15.14ZM60.8123 15.14C60.1403 15.14 59.5383 14.9767 59.0063 14.65C58.4836 14.314 58.0683 13.8613 57.7603 13.292C57.4523 12.7133 57.2983 12.0553 57.2983 11.318C57.2983 10.5807 57.4476 9.92733 57.7463 9.358C58.0543 8.77933 58.4696 8.32667 58.9923 8C59.5149 7.664 60.1076 7.496 60.7703 7.496C61.1343 7.496 61.4843 7.55667 61.8203 7.678C62.1656 7.79 62.4736 7.94867 62.7443 8.154C63.0149 8.35 63.2249 8.56933 63.3743 8.812C63.5329 9.04533 63.6123 9.28333 63.6123 9.526L63.1923 9.554V4.64H64.6343V15H63.1923V13.25H63.4723C63.4723 13.474 63.3976 13.698 63.2483 13.922C63.0989 14.1367 62.8983 14.3373 62.6463 14.524C62.4036 14.7107 62.1189 14.86 61.7923 14.972C61.4749 15.084 61.1483 15.14 60.8123 15.14ZM61.0083 13.894C61.4469 13.894 61.8343 13.782 62.1703 13.558C62.5063 13.334 62.7676 13.0307 62.9543 12.648C63.1503 12.256 63.2483 11.8127 63.2483 11.318C63.2483 10.8233 63.1503 10.3847 62.9543 10.002C62.7676 9.61 62.5063 9.302 62.1703 9.078C61.8343 8.854 61.4469 8.742 61.0083 8.742C60.5696 8.742 60.1823 8.854 59.8463 9.078C59.5103 9.302 59.2443 9.61 59.0483 10.002C58.8616 10.3847 58.7683 10.8233 58.7683 11.318C58.7683 11.8127 58.8616 12.256 59.0483 12.648C59.2443 13.0307 59.5103 13.334 59.8463 13.558C60.1823 13.782 60.5696 13.894 61.0083 13.894Z" fill="white"/>
</g>
</svg>
