<svg width="70" height="20" viewBox="0 0 70 20" fill="none" xmlns="http://www.w3.org/2000/svg">
<mask id="mask0_14_3657" style="mask-type:luminance" maskUnits="userSpaceOnUse" x="0" y="0" width="70" height="20">
<path d="M70 0H0V20H70V0Z" fill="white"/>
</mask>
<g mask="url(#mask0_14_3657)">
<path d="M1.568 18V6.8H3.296V18H1.568ZM2.336 13.232V11.568H8.112V13.232H2.336ZM2.336 8.464V6.8H8.832V8.464H2.336ZM11.049 18V9.6H12.697V18H11.049ZM11.849 7.744C11.497 7.744 11.225 7.65333 11.033 7.472C10.841 7.29067 10.745 7.03467 10.745 6.704C10.745 6.39467 10.841 6.144 11.033 5.952C11.2357 5.76 11.5077 5.664 11.849 5.664C12.201 5.664 12.473 5.75467 12.665 5.936C12.857 6.11733 12.953 6.37333 12.953 6.704C12.953 7.01333 12.8517 7.264 12.649 7.456C12.457 7.648 12.1903 7.744 11.849 7.744ZM15.2301 18V9.6H16.8781V11.328L16.5901 11.52C16.6968 11.1467 16.9048 10.8053 17.2141 10.496C17.5235 10.176 17.8915 9.92 18.3181 9.728C18.7448 9.52533 19.1821 9.424 19.6301 9.424C20.2701 9.424 20.8035 9.552 21.2301 9.808C21.6568 10.0533 21.9768 10.432 22.1901 10.944C22.4035 11.456 22.5101 12.1013 22.5101 12.88V18H20.8621V12.992C20.8621 12.512 20.7981 12.1173 20.6701 11.808C20.5421 11.488 20.3448 11.2587 20.0781 11.12C19.8115 10.9707 19.4808 10.9067 19.0861 10.928C18.7661 10.928 18.4728 10.9813 18.2061 11.088C17.9395 11.184 17.7048 11.3227 17.5021 11.504C17.3101 11.6853 17.1555 11.8987 17.0381 12.144C16.9315 12.3787 16.8781 12.6347 16.8781 12.912V18H16.0621C15.9235 18 15.7848 18 15.6461 18C15.5075 18 15.3688 18 15.2301 18ZM27.9778 18.16C27.2844 18.16 26.6498 17.968 26.0738 17.584C25.5084 17.2 25.0551 16.6773 24.7138 16.016C24.3724 15.3547 24.2018 14.608 24.2018 13.776C24.2018 12.9333 24.3724 12.1867 24.7138 11.536C25.0658 10.8747 25.5351 10.3573 26.1218 9.984C26.7191 9.61067 27.3858 9.424 28.1218 9.424C28.5591 9.424 28.9591 9.488 29.3218 9.616C29.6844 9.744 29.9991 9.92533 30.2658 10.16C30.5431 10.384 30.7671 10.6453 30.9378 10.944C31.1191 11.2427 31.2311 11.5627 31.2738 11.904L30.9058 11.776V9.6H32.5698V18H30.9058V16L31.2898 15.888C31.2258 16.176 31.0924 16.4587 30.8898 16.736C30.6978 17.0027 30.4471 17.2427 30.1378 17.456C29.8391 17.6693 29.5031 17.84 29.1298 17.968C28.7671 18.096 28.3831 18.16 27.9778 18.16ZM28.4098 16.64C28.9111 16.64 29.3538 16.5173 29.7378 16.272C30.1218 16.0267 30.4204 15.6907 30.6338 15.264C30.8578 14.8267 30.9698 14.3307 30.9698 13.776C30.9698 13.232 30.8578 12.7467 30.6338 12.32C30.4204 11.8933 30.1218 11.5573 29.7378 11.312C29.3538 11.0667 28.9111 10.944 28.4098 10.944C27.9191 10.944 27.4818 11.0667 27.0978 11.312C26.7244 11.5573 26.4258 11.8933 26.2018 12.32C25.9884 12.7467 25.8818 13.232 25.8818 13.776C25.8818 14.3307 25.9884 14.8267 26.2018 15.264C26.4258 15.6907 26.7244 16.0267 27.0978 16.272C27.4818 16.5173 27.9191 16.64 28.4098 16.64ZM34.8708 18V9.6H36.5188V11.328L36.2308 11.52C36.3374 11.1467 36.5454 10.8053 36.8548 10.496C37.1641 10.176 37.5321 9.92 37.9588 9.728C38.3854 9.52533 38.8228 9.424 39.2708 9.424C39.9108 9.424 40.4441 9.552 40.8708 9.808C41.2974 10.0533 41.6174 10.432 41.8308 10.944C42.0441 11.456 42.1508 12.1013 42.1508 12.88V18H40.5028V12.992C40.5028 12.512 40.4388 12.1173 40.3108 11.808C40.1828 11.488 39.9854 11.2587 39.7188 11.12C39.4521 10.9707 39.1214 10.9067 38.7268 10.928C38.4068 10.928 38.1134 10.9813 37.8468 11.088C37.5801 11.184 37.3454 11.3227 37.1428 11.504C36.9508 11.6853 36.7961 11.8987 36.6788 12.144C36.5721 12.3787 36.5188 12.6347 36.5188 12.912V18H35.7028C35.5641 18 35.4254 18 35.2868 18C35.1481 18 35.0094 18 34.8708 18ZM47.9544 18.16C47.1757 18.16 46.477 17.968 45.8584 17.584C45.2504 17.2 44.765 16.6773 44.4024 16.016C44.0504 15.3547 43.8744 14.6133 43.8744 13.792C43.8744 12.9707 44.0504 12.2293 44.4024 11.568C44.765 10.9067 45.2504 10.384 45.8584 10C46.477 9.616 47.1757 9.424 47.9544 9.424C48.701 9.424 49.3784 9.57867 49.9864 9.888C50.605 10.1867 51.0744 10.5973 51.3944 11.12L50.4824 12.24C50.3117 11.9947 50.093 11.7707 49.8264 11.568C49.5597 11.3653 49.277 11.2053 48.9784 11.088C48.6797 10.9707 48.3917 10.912 48.1144 10.912C47.6024 10.912 47.1437 11.04 46.7384 11.296C46.3437 11.5413 46.029 11.8827 45.7944 12.32C45.5597 12.7573 45.4424 13.248 45.4424 13.792C45.4424 14.336 45.565 14.8267 45.8104 15.264C46.0557 15.6907 46.381 16.032 46.7864 16.288C47.1917 16.544 47.6397 16.672 48.1304 16.672C48.4184 16.672 48.6957 16.624 48.9624 16.528C49.2397 16.432 49.5064 16.288 49.7624 16.096C50.0184 15.904 50.2584 15.6693 50.4824 15.392L51.3944 16.512C51.053 16.992 50.5624 17.3867 49.9224 17.696C49.293 18.0053 48.637 18.16 47.9544 18.16ZM56.8689 18.16C56.0049 18.16 55.2369 17.9787 54.5649 17.616C53.9035 17.2427 53.3809 16.736 52.9969 16.096C52.6235 15.456 52.4369 14.72 52.4369 13.888C52.4369 13.2267 52.5435 12.624 52.7569 12.08C52.9702 11.536 53.2635 11.0667 53.6369 10.672C54.0209 10.2667 54.4742 9.95733 54.9969 9.744C55.5302 9.52 56.1062 9.408 56.7249 9.408C57.2689 9.408 57.7755 9.51467 58.2449 9.728C58.7142 9.93067 59.1195 10.2133 59.4609 10.576C59.8129 10.9387 60.0795 11.3707 60.2609 11.872C60.4529 12.3627 60.5435 12.9013 60.5329 13.488L60.5169 14.192H53.6529L53.2849 12.88H59.0929L58.8529 13.152V12.768C58.8209 12.416 58.7035 12.1013 58.5009 11.824C58.2982 11.5467 58.0422 11.328 57.7329 11.168C57.4235 11.008 57.0875 10.928 56.7249 10.928C56.1489 10.928 55.6635 11.04 55.2689 11.264C54.8742 11.4773 54.5755 11.7973 54.3729 12.224C54.1702 12.64 54.0689 13.1573 54.0689 13.776C54.0689 14.3627 54.1915 14.8747 54.4369 15.312C54.6822 15.7387 55.0289 16.0693 55.4769 16.304C55.9249 16.5387 56.4422 16.656 57.0289 16.656C57.4449 16.656 57.8289 16.5867 58.1809 16.448C58.5435 16.3093 58.9329 16.0587 59.3489 15.696L60.1809 16.864C59.9249 17.12 59.6102 17.344 59.2369 17.536C58.8742 17.728 58.4849 17.8827 58.0689 18C57.6635 18.1067 57.2635 18.16 56.8689 18.16Z" fill="black"/>
</g>
</svg>
