<svg width="536" height="24" viewBox="0 0 536 24" fill="none" xmlns="http://www.w3.org/2000/svg">
<g filter="url(#filter0_d_14_3827)">
<path d="M528 0H8C3.58172 0 0 3.58172 0 8V16C0 20.4183 3.58172 24 8 24H528C532.418 24 536 20.4183 536 16V8C536 3.58172 532.418 0 528 0Z" fill="white"/>
<path d="M528 0H8C3.58172 0 0 3.58172 0 8V16C0 20.4183 3.58172 24 8 24H528C532.418 24 536 20.4183 536 16V8C536 3.58172 532.418 0 528 0Z" stroke="#D1D5DB"/>
</g>
<mask id="mask0_14_3827" style="mask-type:luminance" maskUnits="userSpaceOnUse" x="0" y="0" width="536" height="24">
<path d="M536 0H0V24H536V0Z" fill="white"/>
</mask>
<g mask="url(#mask0_14_3827)">
<path d="M14.9443 14.5034V15.5H10.0503V14.5034H14.9443ZM10.2979 6.25781V15.5H9.07275V6.25781H10.2979ZM14.2969 10.2314V11.228H10.0503V10.2314H14.2969ZM14.8809 6.25781V7.26074H10.0503V6.25781H14.8809ZM23.5708 6.25781V15.5H22.3394L17.6865 8.37158V15.5H16.4614V6.25781H17.6865L22.3584 13.4053V6.25781H23.5708Z" fill="#94A3B8"/>
</g>
<mask id="mask1_14_3827" style="mask-type:luminance" maskUnits="userSpaceOnUse" x="0" y="0" width="536" height="24">
<path d="M536 0H0V24H536V0Z" fill="white"/>
</mask>
<g mask="url(#mask1_14_3827)">
<g clip-path="url(#clip0_14_3827)">
<path d="M523.677 10.0107L521 12.6824L518.322 10.0107L517.5 10.8332L521 14.3332L524.5 10.8332L523.677 10.0107Z" fill="#94A3B8"/>
</g>
</g>
<defs>
<filter id="filter0_d_14_3827" x="-0.5" y="-0.5" width="537" height="25" filterUnits="userSpaceOnUse" color-interpolation-filters="sRGB">
<feFlood flood-opacity="0" result="BackgroundImageFix"/>
<feColorMatrix in="SourceAlpha" type="matrix" values="0 0 0 0 0 0 0 0 0 0 0 0 0 0 0 0 0 0 127 0" result="hardAlpha"/>
<feOffset/>
<feComposite in2="hardAlpha" operator="out"/>
<feColorMatrix type="matrix" values="0 0 0 0 0 0 0 0 0 0 0 0 0 0 0 0 0 0 0.08 0"/>
<feBlend mode="normal" in2="BackgroundImageFix" result="effect1_dropShadow_14_3827"/>
<feBlend mode="normal" in="SourceGraphic" in2="effect1_dropShadow_14_3827" result="shape"/>
</filter>
<clipPath id="clip0_14_3827">
<rect width="14" height="14" fill="white" transform="translate(514 5)"/>
</clipPath>
</defs>
</svg>
