<svg width="92" height="15" viewBox="0 0 92 15" fill="none" xmlns="http://www.w3.org/2000/svg">
<mask id="mask0_11_1587" style="mask-type:luminance" maskUnits="userSpaceOnUse" x="0" y="0" width="92" height="15">
<path d="M92 0H0V15H92V0Z" fill="white"/>
</mask>
<g mask="url(#mask0_11_1587)">
<path d="M3.48 14.732C2.504 14.124 1.76 13.364 1.248 12.452C0.736 11.54 0.48 10.524 0.48 9.404C0.48 8.292 0.736 7.28 1.248 6.368C1.768 5.448 2.516 4.684 3.492 4.076L4.152 4.82C3.336 5.388 2.712 6.068 2.28 6.86C1.856 7.644 1.644 8.492 1.644 9.404C1.644 10.316 1.856 11.168 2.28 11.96C2.712 12.744 3.336 13.42 4.152 13.988L3.48 14.732ZM7.79053 12.5C7.37453 12.5 6.98653 12.428 6.62653 12.284C6.27453 12.132 5.96653 11.924 5.70253 11.66C5.44653 11.396 5.24253 11.084 5.09053 10.724C4.94653 10.364 4.87453 9.968 4.87453 9.536C4.87453 9.32 4.90253 9.08 4.95853 8.816C5.02253 8.544 5.11453 8.248 5.23453 7.928C5.36253 7.608 5.51453 7.272 5.69053 6.92C5.86653 6.56 6.07053 6.188 6.30253 5.804L7.39453 3.956H8.65453L8.70253 4.076L7.38253 6.296C7.14253 6.704 6.92653 7.092 6.73453 7.46C6.55053 7.828 6.39453 8.176 6.26653 8.504C6.13853 8.824 6.04253 9.116 5.97853 9.38L5.69053 8.144C5.84253 7.896 6.00653 7.68 6.18253 7.496C6.35853 7.304 6.54653 7.144 6.74653 7.016C6.95453 6.888 7.17053 6.792 7.39453 6.728C7.61853 6.664 7.85053 6.632 8.09053 6.632C8.55453 6.632 8.97853 6.76 9.36253 7.016C9.75453 7.264 10.0665 7.596 10.2985 8.012C10.5385 8.428 10.6585 8.884 10.6585 9.38C10.6585 9.98 10.5345 10.516 10.2865 10.988C10.0465 11.452 9.71053 11.82 9.27853 12.092C8.84653 12.364 8.35053 12.5 7.79053 12.5ZM7.79053 11.3C8.10253 11.3 8.37853 11.228 8.61853 11.084C8.86653 10.932 9.05853 10.724 9.19453 10.46C9.33853 10.188 9.41053 9.88 9.41053 9.536C9.41053 9.24 9.33853 8.964 9.19453 8.708C9.05053 8.444 8.85853 8.232 8.61853 8.072C8.37853 7.912 8.11053 7.832 7.81453 7.832C7.48653 7.832 7.19453 7.908 6.93853 8.06C6.68253 8.212 6.48253 8.416 6.33853 8.672C6.19453 8.928 6.12253 9.212 6.12253 9.524C6.12253 9.86 6.19453 10.164 6.33853 10.436C6.48253 10.7 6.67853 10.912 6.92653 11.072C7.17453 11.224 7.46253 11.3 7.79053 11.3ZM14.7102 12.62C14.0702 12.62 13.5182 12.444 13.0542 12.092C12.5982 11.74 12.2462 11.244 11.9982 10.604C11.7502 9.956 11.6262 9.188 11.6262 8.3C11.6262 7.412 11.7502 6.648 11.9982 6.008C12.2462 5.36 12.5982 4.86 13.0542 4.508C13.5182 4.156 14.0702 3.98 14.7102 3.98C15.3502 3.98 15.9022 4.156 16.3662 4.508C16.8302 4.86 17.1862 5.36 17.4342 6.008C17.6822 6.648 17.8062 7.412 17.8062 8.3C17.8062 9.188 17.6822 9.956 17.4342 10.604C17.1862 11.244 16.8302 11.74 16.3662 12.092C15.9022 12.444 15.3502 12.62 14.7102 12.62ZM14.7102 11.444C15.2942 11.444 15.7462 11.172 16.0662 10.628C16.3862 10.076 16.5462 9.3 16.5462 8.3C16.5462 7.3 16.3862 6.528 16.0662 5.984C15.7462 5.432 15.2942 5.156 14.7102 5.156C14.1262 5.156 13.6742 5.432 13.3542 5.984C13.0342 6.528 12.8742 7.3 12.8742 8.3C12.8742 9.3 13.0342 10.076 13.3542 10.628C13.6742 11.172 14.1262 11.444 14.7102 11.444ZM24.1386 12.5L21.9906 6.2L23.2386 6.188L24.7746 10.904L24.4986 10.88L26.1666 7.196H26.9106L28.5906 10.892L28.2666 10.916L29.8146 6.2H31.0626L28.9386 12.5H28.0866L26.3346 8.492L26.6106 8.528L24.9786 12.5H24.1386ZM34.8444 12.62C34.2284 12.62 33.6764 12.48 33.1884 12.2C32.7084 11.912 32.3284 11.524 32.0484 11.036C31.7684 10.54 31.6284 9.976 31.6284 9.344C31.6284 8.712 31.7684 8.152 32.0484 7.664C32.3284 7.168 32.7084 6.78 33.1884 6.5C33.6764 6.212 34.2284 6.068 34.8444 6.068C35.4524 6.068 35.9964 6.212 36.4764 6.5C36.9644 6.78 37.3484 7.168 37.6284 7.664C37.9084 8.152 38.0484 8.712 38.0484 9.344C38.0484 9.976 37.9084 10.54 37.6284 11.036C37.3484 11.524 36.9644 11.912 36.4764 12.2C35.9964 12.48 35.4524 12.62 34.8444 12.62ZM34.8444 11.492C35.2204 11.492 35.5564 11.4 35.8524 11.216C36.1484 11.024 36.3804 10.768 36.5484 10.448C36.7164 10.12 36.7964 9.752 36.7884 9.344C36.7964 8.928 36.7164 8.56 36.5484 8.24C36.3804 7.912 36.1484 7.656 35.8524 7.472C35.5564 7.288 35.2204 7.196 34.8444 7.196C34.4684 7.196 34.1284 7.292 33.8244 7.484C33.5284 7.668 33.2964 7.924 33.1284 8.252C32.9604 8.572 32.8804 8.936 32.8884 9.344C32.8804 9.752 32.9604 10.12 33.1284 10.448C33.2964 10.768 33.5284 11.024 33.8244 11.216C34.1284 11.4 34.4684 11.492 34.8444 11.492ZM39.3953 12.5V6.2H40.6433V8.18L40.5233 7.7C40.6113 7.396 40.7593 7.12 40.9673 6.872C41.1833 6.624 41.4273 6.428 41.6992 6.284C41.9793 6.14 42.2673 6.068 42.5633 6.068C42.6993 6.068 42.8273 6.08 42.9473 6.104C43.0753 6.128 43.1753 6.156 43.2473 6.188L42.9233 7.532C42.8273 7.492 42.7193 7.46 42.5993 7.436C42.4873 7.404 42.3753 7.388 42.2633 7.388C42.0473 7.388 41.8393 7.432 41.6393 7.52C41.4473 7.6 41.2753 7.716 41.1233 7.868C40.9793 8.012 40.8633 8.184 40.7753 8.384C40.6873 8.576 40.6433 8.788 40.6433 9.02V12.5H39.3953ZM46.5936 12.62C46.0176 12.62 45.5016 12.48 45.0456 12.2C44.5976 11.912 44.2416 11.524 43.9776 11.036C43.7136 10.54 43.5816 9.976 43.5816 9.344C43.5816 8.712 43.7096 8.152 43.9656 7.664C44.2296 7.168 44.5856 6.78 45.0336 6.5C45.4816 6.212 45.9896 6.068 46.5576 6.068C46.8696 6.068 47.1696 6.12 47.4576 6.224C47.7536 6.32 48.0176 6.456 48.2496 6.632C48.4816 6.8 48.6616 6.988 48.7896 7.196C48.9256 7.396 48.9936 7.6 48.9936 7.808L48.6336 7.832V3.62H49.8696V12.5H48.6336V11H48.8736C48.8736 11.192 48.8096 11.384 48.6816 11.576C48.5536 11.76 48.3816 11.932 48.1656 12.092C47.9576 12.252 47.7136 12.38 47.4336 12.476C47.1616 12.572 46.8816 12.62 46.5936 12.62ZM46.7616 11.552C47.1376 11.552 47.4696 11.456 47.7576 11.264C48.0456 11.072 48.2696 10.812 48.4296 10.484C48.5976 10.148 48.6816 9.768 48.6816 9.344C48.6816 8.92 48.5976 8.544 48.4296 8.216C48.2696 7.88 48.0456 7.616 47.7576 7.424C47.4696 7.232 47.1376 7.136 46.7616 7.136C46.3856 7.136 46.0536 7.232 45.7656 7.424C45.4776 7.616 45.2496 7.88 45.0816 8.216C44.9216 8.544 44.8416 8.92 44.8416 9.344C44.8416 9.768 44.9216 10.148 45.0816 10.484C45.2496 10.812 45.4776 11.072 45.7656 11.264C46.0536 11.456 46.3856 11.552 46.7616 11.552ZM53.671 12.62C53.143 12.62 52.667 12.528 52.243 12.344C51.819 12.16 51.467 11.888 51.187 11.528L52.027 10.808C52.267 11.088 52.527 11.292 52.807 11.42C53.095 11.54 53.419 11.6 53.779 11.6C53.923 11.6 54.055 11.584 54.175 11.552C54.303 11.512 54.411 11.456 54.499 11.384C54.595 11.312 54.667 11.228 54.715 11.132C54.763 11.028 54.787 10.916 54.787 10.796C54.787 10.588 54.711 10.42 54.559 10.292C54.479 10.236 54.351 10.176 54.175 10.112C54.007 10.04 53.787 9.968 53.515 9.896C53.051 9.776 52.671 9.64 52.375 9.488C52.079 9.336 51.851 9.164 51.691 8.972C51.571 8.82 51.483 8.656 51.427 8.48C51.371 8.296 51.343 8.096 51.343 7.88C51.343 7.616 51.399 7.376 51.511 7.16C51.631 6.936 51.791 6.744 51.991 6.584C52.199 6.416 52.439 6.288 52.711 6.2C52.991 6.112 53.287 6.068 53.599 6.068C53.895 6.068 54.187 6.108 54.475 6.188C54.771 6.268 55.043 6.384 55.291 6.536C55.539 6.688 55.747 6.868 55.915 7.076L55.207 7.856C55.055 7.704 54.887 7.572 54.703 7.46C54.527 7.34 54.347 7.248 54.163 7.184C53.979 7.12 53.811 7.088 53.659 7.088C53.491 7.088 53.339 7.104 53.203 7.136C53.067 7.168 52.951 7.216 52.855 7.28C52.767 7.344 52.699 7.424 52.651 7.52C52.603 7.616 52.579 7.724 52.579 7.844C52.587 7.948 52.611 8.048 52.651 8.144C52.699 8.232 52.763 8.308 52.843 8.372C52.931 8.436 53.063 8.504 53.239 8.576C53.415 8.648 53.639 8.716 53.911 8.78C54.311 8.884 54.639 9 54.895 9.128C55.159 9.248 55.367 9.388 55.519 9.548C55.679 9.7 55.791 9.876 55.855 10.076C55.919 10.276 55.951 10.5 55.951 10.748C55.951 11.108 55.847 11.432 55.639 11.72C55.439 12 55.167 12.22 54.823 12.38C54.479 12.54 54.095 12.62 53.671 12.62ZM60.6525 12.5V6.2H61.9005V7.544L61.6725 7.688C61.7365 7.48 61.8365 7.28 61.9725 7.088C62.1165 6.896 62.2885 6.728 62.4885 6.584C62.6965 6.432 62.9165 6.312 63.1485 6.224C63.3885 6.136 63.6325 6.092 63.8805 6.092C64.2405 6.092 64.5565 6.152 64.8285 6.272C65.1005 6.392 65.3245 6.572 65.5005 6.812C65.6765 7.052 65.8045 7.352 65.8845 7.712L65.6925 7.664L65.7765 7.46C65.8645 7.276 65.9845 7.104 66.1365 6.944C66.2965 6.776 66.4765 6.628 66.6765 6.5C66.8765 6.372 67.0885 6.272 67.3125 6.2C67.5365 6.128 67.7565 6.092 67.9725 6.092C68.4445 6.092 68.8325 6.188 69.1365 6.38C69.4485 6.572 69.6805 6.864 69.8325 7.256C69.9925 7.648 70.0725 8.136 70.0725 8.72V12.5H68.8245V8.792C68.8245 8.432 68.7765 8.14 68.6805 7.916C68.5925 7.684 68.4565 7.512 68.2725 7.4C68.0885 7.288 67.8525 7.232 67.5645 7.232C67.3405 7.232 67.1285 7.272 66.9285 7.352C66.7365 7.424 66.5685 7.528 66.4245 7.664C66.2805 7.8 66.1685 7.96 66.0885 8.144C66.0085 8.32 65.9685 8.516 65.9685 8.732V12.5H64.7205V8.768C64.7205 8.44 64.6725 8.164 64.5765 7.94C64.4805 7.708 64.3405 7.532 64.1565 7.412C63.9725 7.292 63.7485 7.232 63.4845 7.232C63.2605 7.232 63.0525 7.272 62.8605 7.352C62.6685 7.424 62.5005 7.528 62.3565 7.664C62.2125 7.792 62.1005 7.948 62.0205 8.132C61.9405 8.308 61.9005 8.5 61.9005 8.708V12.5H60.6525ZM74.1513 12.62C73.6313 12.62 73.1553 12.476 72.7233 12.188C72.2993 11.9 71.9593 11.508 71.7033 11.012C71.4473 10.516 71.3193 9.956 71.3193 9.332C71.3193 8.7 71.4473 8.14 71.7033 7.652C71.9673 7.156 72.3193 6.768 72.7593 6.488C73.2073 6.208 73.7073 6.068 74.2593 6.068C74.5873 6.068 74.8873 6.116 75.1593 6.212C75.4313 6.308 75.6673 6.444 75.8673 6.62C76.0753 6.788 76.2433 6.984 76.3713 7.208C76.5073 7.432 76.5913 7.672 76.6233 7.928L76.3473 7.832V6.2H77.5953V12.5H76.3473V11L76.6353 10.916C76.5873 11.132 76.4873 11.344 76.3353 11.552C76.1913 11.752 76.0033 11.932 75.7713 12.092C75.5473 12.252 75.2953 12.38 75.0153 12.476C74.7433 12.572 74.4553 12.62 74.1513 12.62ZM74.4753 11.48C74.8513 11.48 75.1833 11.388 75.4713 11.204C75.7593 11.02 75.9833 10.768 76.1433 10.448C76.3113 10.12 76.3953 9.748 76.3953 9.332C76.3953 8.924 76.3113 8.56 76.1433 8.24C75.9833 7.92 75.7593 7.668 75.4713 7.484C75.1833 7.3 74.8513 7.208 74.4753 7.208C74.1073 7.208 73.7793 7.3 73.4913 7.484C73.2113 7.668 72.9873 7.92 72.8193 8.24C72.6593 8.56 72.5793 8.924 72.5793 9.332C72.5793 9.748 72.6593 10.12 72.8193 10.448C72.9873 10.768 73.2113 11.02 73.4913 11.204C73.7793 11.388 74.1073 11.48 74.4753 11.48ZM83.509 12.5L81.469 9.848L81.289 9.62L78.637 6.2H80.197L82.201 8.816L82.405 9.08L85.021 12.5H83.509ZM78.649 12.5L81.133 9.26L81.865 10.136L80.113 12.5H78.649ZM82.477 9.452L81.793 8.588L83.341 6.2H84.805L82.477 9.452ZM86.0953 14.732L85.4353 13.988C86.2513 13.42 86.8713 12.744 87.2953 11.96C87.7273 11.168 87.9433 10.316 87.9433 9.404C87.9433 8.492 87.7273 7.644 87.2953 6.86C86.8713 6.068 86.2513 5.388 85.4353 4.82L86.1073 4.076C87.0833 4.684 87.8273 5.444 88.3393 6.356C88.8513 7.268 89.1073 8.284 89.1073 9.404C89.1073 10.516 88.8473 11.532 88.3273 12.452C87.8153 13.364 87.0713 14.124 86.0953 14.732Z" fill="#6B7280"/>
</g>
</svg>
