<svg width="61" height="18" viewBox="0 0 61 18" fill="none" xmlns="http://www.w3.org/2000/svg">
<mask id="mask0_14_4237" style="mask-type:luminance" maskUnits="userSpaceOnUse" x="0" y="0" width="61" height="18">
<path d="M61 0H0V18H61V0Z" fill="white"/>
</mask>
<g mask="url(#mask0_14_4237)">
<path d="M1.46973 14L3.20605 4.04688H4.44336L2.70703 14H1.46973ZM4.0332 14L5.77637 4.04688H7.01367L5.27051 14H4.0332ZM8.03223 8.0459H0.916016V6.89062H8.03223V8.0459ZM7.5127 11.1973H0.40332V10.0488H7.5127V11.1973ZM13.0635 10.4521H10.5273V8.85254H13.0635C13.4554 8.85254 13.7744 8.78874 14.0205 8.66113C14.2666 8.52897 14.4466 8.34668 14.5605 8.11426C14.6745 7.88184 14.7314 7.61979 14.7314 7.32812C14.7314 7.0319 14.6745 6.75618 14.5605 6.50098C14.4466 6.24577 14.2666 6.04069 14.0205 5.88574C13.7744 5.73079 13.4554 5.65332 13.0635 5.65332H11.2383V14H9.1875V4.04688H13.0635C13.8428 4.04688 14.5104 4.18815 15.0664 4.4707C15.627 4.7487 16.0553 5.13379 16.3516 5.62598C16.6478 6.11816 16.7959 6.68099 16.7959 7.31445C16.7959 7.95703 16.6478 8.51302 16.3516 8.98242C16.0553 9.45182 15.627 9.81413 15.0664 10.0693C14.5104 10.3245 13.8428 10.4521 13.0635 10.4521ZM17.6777 10.377V10.2334C17.6777 9.69108 17.7552 9.19206 17.9102 8.73633C18.0651 8.27604 18.2907 7.87728 18.5869 7.54004C18.8831 7.2028 19.2477 6.94076 19.6807 6.75391C20.1136 6.5625 20.6104 6.4668 21.1709 6.4668C21.7314 6.4668 22.2305 6.5625 22.668 6.75391C23.1055 6.94076 23.4723 7.2028 23.7686 7.54004C24.0693 7.87728 24.2972 8.27604 24.4521 8.73633C24.6071 9.19206 24.6846 9.69108 24.6846 10.2334V10.377C24.6846 10.9147 24.6071 11.4137 24.4521 11.874C24.2972 12.3298 24.0693 12.7285 23.7686 13.0703C23.4723 13.4076 23.1077 13.6696 22.6748 13.8564C22.2419 14.0433 21.7451 14.1367 21.1846 14.1367C20.624 14.1367 20.125 14.0433 19.6875 13.8564C19.2546 13.6696 18.8877 13.4076 18.5869 13.0703C18.2907 12.7285 18.0651 12.3298 17.9102 11.874C17.7552 11.4137 17.6777 10.9147 17.6777 10.377ZM19.6465 10.2334V10.377C19.6465 10.6868 19.6738 10.9762 19.7285 11.2451C19.7832 11.514 19.8698 11.751 19.9883 11.9561C20.1113 12.1566 20.2708 12.3138 20.4668 12.4277C20.6628 12.5417 20.902 12.5986 21.1846 12.5986C21.458 12.5986 21.6927 12.5417 21.8887 12.4277C22.0846 12.3138 22.2419 12.1566 22.3604 11.9561C22.4788 11.751 22.5654 11.514 22.6201 11.2451C22.6794 10.9762 22.709 10.6868 22.709 10.377V10.2334C22.709 9.93262 22.6794 9.65007 22.6201 9.38574C22.5654 9.11686 22.4766 8.87988 22.3535 8.6748C22.235 8.46517 22.0778 8.30111 21.8818 8.18262C21.6859 8.06413 21.4489 8.00488 21.1709 8.00488C20.8929 8.00488 20.6559 8.06413 20.46 8.18262C20.2686 8.30111 20.1113 8.46517 19.9883 8.6748C19.8698 8.87988 19.7832 9.11686 19.7285 9.38574C19.6738 9.65007 19.6465 9.93262 19.6465 10.2334ZM27.9727 3.5V14H25.9971V3.5H27.9727ZM31.6777 6.60352V14H29.7021V6.60352H31.6777ZM29.5791 4.67578C29.5791 4.38867 29.6794 4.15169 29.8799 3.96484C30.0804 3.77799 30.3493 3.68457 30.6865 3.68457C31.0192 3.68457 31.2858 3.77799 31.4863 3.96484C31.6914 4.15169 31.7939 4.38867 31.7939 4.67578C31.7939 4.96289 31.6914 5.19987 31.4863 5.38672C31.2858 5.57357 31.0192 5.66699 30.6865 5.66699C30.3493 5.66699 30.0804 5.57357 29.8799 5.38672C29.6794 5.19987 29.5791 4.96289 29.5791 4.67578ZM36.9277 6.60352V7.99805H32.6211V6.60352H36.9277ZM33.6875 4.77832H35.6562V11.7715C35.6562 11.9857 35.6836 12.1497 35.7383 12.2637C35.7975 12.3776 35.8841 12.4574 35.998 12.5029C36.112 12.5439 36.2555 12.5645 36.4287 12.5645C36.5518 12.5645 36.6611 12.5599 36.7568 12.5508C36.8571 12.5371 36.9414 12.5234 37.0098 12.5098L37.0166 13.959C36.848 14.0137 36.6657 14.057 36.4697 14.0889C36.2738 14.1208 36.0573 14.1367 35.8203 14.1367C35.3874 14.1367 35.0091 14.0661 34.6855 13.9248C34.3665 13.779 34.1204 13.5465 33.9473 13.2275C33.7741 12.9085 33.6875 12.4893 33.6875 11.9697V4.77832ZM40.127 6.60352V14H38.1514V6.60352H40.127ZM38.0283 4.67578C38.0283 4.38867 38.1286 4.15169 38.3291 3.96484C38.5296 3.77799 38.7985 3.68457 39.1357 3.68457C39.4684 3.68457 39.735 3.77799 39.9355 3.96484C40.1406 4.15169 40.2432 4.38867 40.2432 4.67578C40.2432 4.96289 40.1406 5.19987 39.9355 5.38672C39.735 5.57357 39.4684 5.66699 39.1357 5.66699C38.7985 5.66699 38.5296 5.57357 38.3291 5.38672C38.1286 5.19987 38.0283 4.96289 38.0283 4.67578ZM44.8096 12.5986C45.0511 12.5986 45.2653 12.5531 45.4521 12.4619C45.639 12.3662 45.7848 12.234 45.8896 12.0654C45.999 11.8923 46.056 11.6895 46.0605 11.457H47.9131C47.9085 11.9766 47.7695 12.4391 47.4961 12.8447C47.2227 13.2458 46.8558 13.5625 46.3955 13.7949C45.9352 14.0228 45.4202 14.1367 44.8506 14.1367C44.2764 14.1367 43.7751 14.041 43.3467 13.8496C42.9229 13.6582 42.5697 13.3939 42.2871 13.0566C42.0046 12.7148 41.7926 12.3184 41.6514 11.8672C41.5101 11.4115 41.4395 10.9238 41.4395 10.4043V10.2061C41.4395 9.68197 41.5101 9.19434 41.6514 8.74316C41.7926 8.28743 42.0046 7.89095 42.2871 7.55371C42.5697 7.21191 42.9229 6.94531 43.3467 6.75391C43.7705 6.5625 44.2673 6.4668 44.8369 6.4668C45.443 6.4668 45.974 6.58301 46.4297 6.81543C46.89 7.04785 47.25 7.38053 47.5098 7.81348C47.7741 8.24186 47.9085 8.75 47.9131 9.33789H46.0605C46.056 9.0918 46.0036 8.86849 45.9033 8.66797C45.8076 8.46745 45.6663 8.30794 45.4795 8.18945C45.2972 8.06641 45.0716 8.00488 44.8027 8.00488C44.5156 8.00488 44.2809 8.06641 44.0986 8.18945C43.9163 8.30794 43.7751 8.47201 43.6748 8.68164C43.5745 8.88672 43.5039 9.12142 43.4629 9.38574C43.4264 9.64551 43.4082 9.91895 43.4082 10.2061V10.4043C43.4082 10.6914 43.4264 10.9671 43.4629 11.2314C43.4993 11.4958 43.5677 11.7305 43.668 11.9355C43.7728 12.1406 43.9163 12.3024 44.0986 12.4209C44.2809 12.5394 44.5179 12.5986 44.8096 12.5986ZM53.0537 11.9561C53.0537 11.8148 53.0127 11.6872 52.9307 11.5732C52.8486 11.4593 52.696 11.3545 52.4727 11.2588C52.2539 11.1585 51.9372 11.0674 51.5225 10.9854C51.1488 10.9033 50.8001 10.8008 50.4766 10.6777C50.1576 10.5501 49.8796 10.3975 49.6426 10.2197C49.4102 10.042 49.2279 9.83236 49.0957 9.59082C48.9635 9.34473 48.8975 9.06445 48.8975 8.75C48.8975 8.4401 48.9635 8.14844 49.0957 7.875C49.2324 7.60156 49.4261 7.36003 49.6768 7.15039C49.932 6.9362 50.2419 6.76986 50.6064 6.65137C50.9756 6.52832 51.3903 6.4668 51.8506 6.4668C52.4932 6.4668 53.0446 6.56934 53.5049 6.77441C53.9697 6.97949 54.3252 7.26204 54.5713 7.62207C54.8219 7.97754 54.9473 8.38314 54.9473 8.83887H52.9785C52.9785 8.64746 52.9375 8.47656 52.8555 8.32617C52.778 8.17122 52.6549 8.05046 52.4863 7.96387C52.3223 7.87272 52.1081 7.82715 51.8438 7.82715C51.625 7.82715 51.4359 7.86589 51.2764 7.94336C51.1169 8.01628 50.9938 8.11654 50.9072 8.24414C50.8252 8.36719 50.7842 8.50391 50.7842 8.6543C50.7842 8.76823 50.807 8.87077 50.8525 8.96191C50.9027 9.0485 50.9824 9.12826 51.0918 9.20117C51.2012 9.27409 51.3424 9.34245 51.5156 9.40625C51.6934 9.46549 51.9121 9.52018 52.1719 9.57031C52.7051 9.67969 53.1813 9.82324 53.6006 10.001C54.0199 10.1742 54.3525 10.4111 54.5986 10.7119C54.8447 11.0081 54.9678 11.3978 54.9678 11.8809C54.9678 12.209 54.8949 12.5098 54.749 12.7832C54.6032 13.0566 54.3936 13.2959 54.1201 13.501C53.8467 13.7015 53.5186 13.8587 53.1357 13.9727C52.7575 14.082 52.3314 14.1367 51.8574 14.1367C51.1693 14.1367 50.5859 14.0137 50.1074 13.7676C49.6335 13.5215 49.2734 13.2093 49.0273 12.8311C48.7858 12.4482 48.665 12.0563 48.665 11.6553H50.5312C50.5404 11.9242 50.6087 12.1406 50.7363 12.3047C50.8685 12.4688 51.0348 12.5872 51.2354 12.6602C51.4404 12.7331 51.6615 12.7695 51.8984 12.7695C52.1536 12.7695 52.3656 12.7354 52.5342 12.667C52.7028 12.5941 52.8304 12.4984 52.917 12.3799C53.0081 12.2568 53.0537 12.1156 53.0537 11.9561Z" fill="#374151"/>
</g>
</svg>
