<svg width="14" height="14" viewBox="0 0 14 14" fill="none" xmlns="http://www.w3.org/2000/svg">
<g clip-path="url(#clip0_11_2848)">
<path d="M13.6148 3.88557L12.3542 5.14612C12.2257 5.27463 12.0179 5.27463 11.8894 5.14612L8.85423 2.11096C8.72572 1.98245 8.72572 1.77463 8.85423 1.64612L10.1148 0.385571C10.6261 -0.125757 11.4574 -0.125757 11.9714 0.385571L13.6148 2.02893C14.1288 2.54026 14.1288 3.37151 13.6148 3.88557ZM7.77142 2.72893L0.590954 9.9094L0.0112661 13.2317C-0.0680307 13.6801 0.322985 14.0684 0.771422 13.9918L4.09369 13.4094L11.2742 6.22893C11.4027 6.10042 11.4027 5.8926 11.2742 5.76409L8.239 2.72893C8.10775 2.60042 7.89994 2.60042 7.77142 2.72893ZM3.39369 9.29416C3.2433 9.14377 3.2433 8.90315 3.39369 8.75276L7.60463 4.54182C7.75502 4.39143 7.99564 4.39143 8.14603 4.54182C8.29642 4.69221 8.29642 4.93284 8.14603 5.08323L3.93509 9.29416C3.7847 9.44456 3.54408 9.44456 3.39369 9.29416ZM2.40658 11.5938H3.71908V12.5864L1.95541 12.8953L1.10502 12.0449L1.414 10.2813H2.40658V11.5938Z" fill="black"/>
</g>
<defs>
<clipPath id="clip0_11_2848">
<rect width="14" height="14" fill="white"/>
</clipPath>
</defs>
</svg>
