<svg width="111" height="20" viewBox="0 0 111 20" fill="none" xmlns="http://www.w3.org/2000/svg">
<mask id="mask0_14_3591" style="mask-type:luminance" maskUnits="userSpaceOnUse" x="0" y="0" width="111" height="20">
<path d="M111 0H0V20H111V0Z" fill="white"/>
</mask>
<g mask="url(#mask0_14_3591)">
<path d="M1.568 16.5V5.3H8.624V6.964H3.296V14.836H8.624V16.5H1.568ZM2.352 11.588V9.924H7.744V11.588H2.352ZM11.3961 16.5V5.3H12.9481L19.7961 14.468L19.5401 14.612C19.4975 14.3453 19.4601 14.0573 19.4281 13.748C19.3961 13.428 19.3641 13.092 19.3321 12.74C19.3108 12.3773 19.2895 11.9987 19.2681 11.604C19.2575 11.1987 19.2468 10.7773 19.2361 10.34C19.2255 9.90267 19.2201 9.44933 19.2201 8.98V5.3H20.9481V16.5H19.3641L12.6281 7.668L12.8041 7.444C12.8575 8.09467 12.9001 8.64933 12.9321 9.108C12.9748 9.556 13.0068 9.94 13.0281 10.26C13.0601 10.5693 13.0815 10.8253 13.0921 11.028C13.1028 11.22 13.1081 11.38 13.1081 11.508C13.1188 11.636 13.1241 11.748 13.1241 11.844V16.5H11.3961Z" fill="black"/>
</g>
</svg>
