<svg width="14" height="14" viewBox="0 0 14 14" fill="none" xmlns="http://www.w3.org/2000/svg">
<g clip-path="url(#clip0_14_3407)">
<path d="M1.75 12.6875C1.75 13.0356 1.88828 13.3694 2.13442 13.6156C2.38056 13.8617 2.7144 14 3.0625 14H10.9375C11.2856 14 11.6194 13.8617 11.8656 13.6156C12.1117 13.3694 12.25 13.0356 12.25 12.6875V3.5H1.75V12.6875ZM9.1875 5.6875C9.1875 5.57147 9.23359 5.46019 9.31564 5.37815C9.39769 5.2961 9.50897 5.25 9.625 5.25C9.74103 5.25 9.85231 5.2961 9.93436 5.37815C10.0164 5.46019 10.0625 5.57147 10.0625 5.6875V11.8125C10.0625 11.9285 10.0164 12.0398 9.93436 12.1219C9.85231 12.2039 9.74103 12.25 9.625 12.25C9.50897 12.25 9.39769 12.2039 9.31564 12.1219C9.23359 12.0398 9.1875 11.9285 9.1875 11.8125V5.6875ZM6.5625 5.6875C6.5625 5.57147 6.60859 5.46019 6.69064 5.37815C6.77269 5.2961 6.88397 5.25 7 5.25C7.11603 5.25 7.22731 5.2961 7.30936 5.37815C7.39141 5.46019 7.4375 5.57147 7.4375 5.6875V11.8125C7.4375 11.9285 7.39141 12.0398 7.30936 12.1219C7.22731 12.2039 7.11603 12.25 7 12.25C6.88397 12.25 6.77269 12.2039 6.69064 12.1219C6.60859 12.0398 6.5625 11.9285 6.5625 11.8125V5.6875ZM3.9375 5.6875C3.9375 5.57147 3.98359 5.46019 4.06564 5.37815C4.14769 5.2961 4.25897 5.25 4.375 5.25C4.49103 5.25 4.60231 5.2961 4.68436 5.37815C4.76641 5.46019 4.8125 5.57147 4.8125 5.6875V11.8125C4.8125 11.9285 4.76641 12.0398 4.68436 12.1219C4.60231 12.2039 4.49103 12.25 4.375 12.25C4.25897 12.25 4.14769 12.2039 4.06564 12.1219C3.98359 12.0398 3.9375 11.9285 3.9375 11.8125V5.6875ZM12.6875 0.875005H9.40625L9.14922 0.363677C9.09477 0.25436 9.0109 0.162406 8.90704 0.0981575C8.80318 0.0339095 8.68345 -8.27959e-05 8.56133 4.7941e-06H5.43594C5.31409 -0.000463619 5.19457 0.0334019 5.09108 0.0977214C4.98759 0.162041 4.90431 0.254213 4.85078 0.363677L4.59375 0.875005H1.3125C1.19647 0.875005 1.08519 0.921098 1.00314 1.00315C0.921094 1.08519 0.875 1.19647 0.875 1.3125L0.875 2.1875C0.875 2.30354 0.921094 2.41482 1.00314 2.49686C1.08519 2.57891 1.19647 2.625 1.3125 2.625H12.6875C12.8035 2.625 12.9148 2.57891 12.9969 2.49686C13.0789 2.41482 13.125 2.30354 13.125 2.1875V1.3125C13.125 1.19647 13.0789 1.08519 12.9969 1.00315C12.9148 0.921098 12.8035 0.875005 12.6875 0.875005Z" fill="#DC143C"/>
</g>
<defs>
<clipPath id="clip0_14_3407">
<rect width="14" height="14" fill="white"/>
</clipPath>
</defs>
</svg>
