<svg width="34" height="17" viewBox="0 0 34 17" fill="none" xmlns="http://www.w3.org/2000/svg">
<mask id="mask0_14_3848" style="mask-type:luminance" maskUnits="userSpaceOnUse" x="0" y="0" width="34" height="17">
<path d="M34 0H0V17H34V0Z" fill="white"/>
</mask>
<g mask="url(#mask0_14_3848)">
<path d="M4.83301 4.04688V14H3.53418V4.04688H4.83301ZM8.03223 4.04688V5.12695H0.341797V4.04688H8.03223ZM12.8994 12.7354V8.92773C12.8994 8.63607 12.8402 8.38314 12.7217 8.16895C12.6077 7.9502 12.4346 7.78158 12.2021 7.66309C11.9697 7.5446 11.6826 7.48535 11.3408 7.48535C11.0218 7.48535 10.7415 7.54004 10.5 7.64941C10.263 7.75879 10.0762 7.90234 9.93945 8.08008C9.80729 8.25781 9.74121 8.44922 9.74121 8.6543H8.47656C8.47656 8.38997 8.54492 8.12793 8.68164 7.86816C8.81836 7.6084 9.01432 7.3737 9.26953 7.16406C9.5293 6.94987 9.83919 6.78125 10.1992 6.6582C10.5638 6.5306 10.9694 6.4668 11.416 6.4668C11.9538 6.4668 12.4277 6.55794 12.8379 6.74023C13.2526 6.92253 13.5762 7.19824 13.8086 7.56738C14.0456 7.93197 14.1641 8.38997 14.1641 8.94141V12.3867C14.1641 12.6328 14.1846 12.8949 14.2256 13.1729C14.2712 13.4508 14.3372 13.6901 14.4238 13.8906V14H13.1045C13.0407 13.8542 12.9906 13.6605 12.9541 13.4189C12.9176 13.1729 12.8994 12.945 12.8994 12.7354ZM13.1182 9.51562L13.1318 10.4043H11.8535C11.4935 10.4043 11.1722 10.4339 10.8896 10.4932C10.6071 10.5479 10.3701 10.6322 10.1787 10.7461C9.9873 10.86 9.84147 11.0036 9.74121 11.1768C9.64095 11.3454 9.59082 11.5436 9.59082 11.7715C9.59082 12.0039 9.64323 12.2158 9.74805 12.4072C9.85286 12.5986 10.0101 12.7513 10.2197 12.8652C10.4339 12.9746 10.696 13.0293 11.0059 13.0293C11.3932 13.0293 11.735 12.9473 12.0312 12.7832C12.3275 12.6191 12.5622 12.4186 12.7354 12.1816C12.9131 11.9447 13.0088 11.7145 13.0225 11.4912L13.5625 12.0996C13.5306 12.291 13.444 12.5029 13.3027 12.7354C13.1615 12.9678 12.9723 13.1911 12.7354 13.4053C12.5029 13.6149 12.2249 13.7904 11.9014 13.9316C11.5824 14.0684 11.2223 14.1367 10.8213 14.1367C10.32 14.1367 9.88021 14.0387 9.50195 13.8428C9.12826 13.6468 8.83659 13.3848 8.62695 13.0566C8.42188 12.724 8.31934 12.3525 8.31934 11.9424C8.31934 11.5459 8.39681 11.1973 8.55176 10.8965C8.70671 10.5911 8.93001 10.3382 9.22168 10.1377C9.51335 9.93262 9.86426 9.77767 10.2744 9.67285C10.6846 9.56803 11.1426 9.51562 11.6484 9.51562H13.1182ZM20.9453 6.60352H22.0938V13.8428C22.0938 14.4945 21.9616 15.0505 21.6973 15.5107C21.4329 15.971 21.0638 16.3197 20.5898 16.5566C20.1204 16.7982 19.5781 16.9189 18.9629 16.9189C18.7077 16.9189 18.4069 16.8779 18.0605 16.7959C17.7188 16.7184 17.3815 16.584 17.0488 16.3926C16.7207 16.2057 16.445 15.9528 16.2217 15.6338L16.8848 14.8818C17.1947 15.2555 17.5182 15.5153 17.8555 15.6611C18.1973 15.807 18.5345 15.8799 18.8672 15.8799C19.2682 15.8799 19.6146 15.8047 19.9062 15.6543C20.1979 15.5039 20.4235 15.2806 20.583 14.9844C20.7471 14.6927 20.8291 14.3327 20.8291 13.9043V8.23047L20.9453 6.60352ZM15.8525 10.3838V10.2402C15.8525 9.67513 15.9186 9.16243 16.0508 8.70215C16.1875 8.2373 16.3812 7.83854 16.6318 7.50586C16.887 7.17318 17.1947 6.91797 17.5547 6.74023C17.9147 6.55794 18.3203 6.4668 18.7715 6.4668C19.2363 6.4668 19.6419 6.54883 19.9883 6.71289C20.3392 6.8724 20.6354 7.1071 20.877 7.41699C21.123 7.72233 21.3167 8.09147 21.458 8.52441C21.5993 8.95736 21.6973 9.44727 21.752 9.99414V10.623C21.7018 11.1654 21.6038 11.653 21.458 12.0859C21.3167 12.5189 21.123 12.888 20.877 13.1934C20.6354 13.4987 20.3392 13.7334 19.9883 13.8975C19.6374 14.057 19.2272 14.1367 18.7578 14.1367C18.3158 14.1367 17.9147 14.0433 17.5547 13.8564C17.1992 13.6696 16.8939 13.4076 16.6387 13.0703C16.3835 12.7331 16.1875 12.3366 16.0508 11.8809C15.9186 11.4206 15.8525 10.9215 15.8525 10.3838ZM17.1172 10.2402V10.3838C17.1172 10.7529 17.1536 11.0993 17.2266 11.4229C17.304 11.7464 17.4202 12.0312 17.5752 12.2773C17.7347 12.5234 17.9375 12.7171 18.1836 12.8584C18.4297 12.9951 18.7236 13.0635 19.0654 13.0635C19.4847 13.0635 19.8311 12.9746 20.1045 12.7969C20.3779 12.6191 20.5944 12.3844 20.7539 12.0928C20.918 11.8011 21.0456 11.4844 21.1367 11.1426V9.49512C21.0866 9.24447 21.0091 9.00293 20.9043 8.77051C20.804 8.53353 20.6719 8.32389 20.5078 8.1416C20.3483 7.95475 20.1501 7.80664 19.9131 7.69727C19.6761 7.58789 19.3981 7.5332 19.0791 7.5332C18.7327 7.5332 18.4342 7.60612 18.1836 7.75195C17.9375 7.89323 17.7347 8.08919 17.5752 8.33984C17.4202 8.58594 17.304 8.87305 17.2266 9.20117C17.1536 9.52474 17.1172 9.87109 17.1172 10.2402ZM28.0342 3.99219V14H26.7695V5.57129L24.2197 6.50098V5.35938L27.8359 3.99219H28.0342Z" fill="black"/>
</g>
</svg>
