<svg width="14" height="14" viewBox="0 0 14 14" fill="none" xmlns="http://www.w3.org/2000/svg">
<g clip-path="url(#clip0_11_1914)">
<path d="M10.5 8.75C9.88181 8.75 9.31364 8.9638 8.86512 9.32135L6.06277 7.56987C6.14575 7.19448 6.14575 6.80549 6.06277 6.4301L8.86512 4.67863C9.31364 5.0362 9.88181 5.25 10.5 5.25C11.9497 5.25 13.125 4.07474 13.125 2.625C13.125 1.17526 11.9497 0 10.5 0C9.05026 0 7.875 1.17526 7.875 2.625C7.875 2.82073 7.8966 3.01137 7.93723 3.19487L5.13488 4.94635C4.68636 4.5888 4.11819 4.375 3.5 4.375C2.05026 4.375 0.875 5.55026 0.875 7C0.875 8.44974 2.05026 9.625 3.5 9.625C4.11819 9.625 4.68636 9.4112 5.13488 9.05365L7.93723 10.8051C7.89581 10.9923 7.87494 11.1833 7.875 11.375C7.875 12.8247 9.05026 14 10.5 14C11.9497 14 13.125 12.8247 13.125 11.375C13.125 9.92526 11.9497 8.75 10.5 8.75Z" fill="#6B7280"/>
</g>
<defs>
<clipPath id="clip0_11_1914">
<rect width="14" height="14" fill="white"/>
</clipPath>
</defs>
</svg>
