<svg width="14" height="14" viewBox="0 0 14 14" fill="none" xmlns="http://www.w3.org/2000/svg">
<g clip-path="url(#clip0_14_3726)">
<path d="M12.6875 0.875005H9.40625L9.14922 0.363677C9.09477 0.25436 9.0109 0.162406 8.90704 0.0981575C8.80318 0.0339095 8.68345 -8.27959e-05 8.56133 4.7941e-06H5.43594C5.31409 -0.000463619 5.19457 0.0334019 5.09108 0.0977214C4.98759 0.162041 4.90431 0.254213 4.85078 0.363677L4.59375 0.875005H1.3125C1.19647 0.875005 1.08519 0.921098 1.00314 1.00315C0.921094 1.08519 0.875 1.19647 0.875 1.3125L0.875 2.1875C0.875 2.30354 0.921094 2.41482 1.00314 2.49686C1.08519 2.57891 1.19647 2.625 1.3125 2.625H12.6875C12.8035 2.625 12.9148 2.57891 12.9969 2.49686C13.0789 2.41482 13.125 2.30354 13.125 2.1875V1.3125C13.125 1.19647 13.0789 1.08519 12.9969 1.00315C12.9148 0.921098 12.8035 0.875005 12.6875 0.875005ZM2.32969 12.7695C2.35055 13.1028 2.49762 13.4155 2.74095 13.6441C2.98428 13.8727 3.30559 14 3.63945 14H10.3605C10.6944 14 11.0157 13.8727 11.259 13.6441C11.5024 13.4155 11.6494 13.1028 11.6703 12.7695L12.25 3.5H1.75L2.32969 12.7695Z" fill="#DC143C"/>
</g>
<defs>
<clipPath id="clip0_14_3726">
<rect width="14" height="14" fill="white"/>
</clipPath>
</defs>
</svg>
