<svg width="125" height="18" viewBox="0 0 125 18" fill="none" xmlns="http://www.w3.org/2000/svg">
<mask id="mask0_14_5060" style="mask-type:luminance" maskUnits="userSpaceOnUse" x="0" y="0" width="125" height="18">
<path d="M125 0H0V18H125V0Z" fill="white"/>
</mask>
<g mask="url(#mask0_14_5060)">
<path d="M5.33203 11.0947V4.04688H6.64453V11.0947C6.64453 11.751 6.51009 12.3047 6.24121 12.7559C5.97233 13.207 5.60091 13.5511 5.12695 13.7881C4.65755 14.0205 4.11751 14.1367 3.50684 14.1367C2.89616 14.1367 2.35384 14.0319 1.87988 13.8223C1.40592 13.6126 1.03451 13.2936 0.765625 12.8652C0.496745 12.4368 0.362305 11.8968 0.362305 11.2451H1.68164C1.68164 11.6644 1.75911 12.0085 1.91406 12.2773C2.06901 12.5462 2.2832 12.7445 2.55664 12.8721C2.83464 12.9997 3.15137 13.0635 3.50684 13.0635C3.85319 13.0635 4.16309 12.9906 4.43652 12.8447C4.71452 12.6943 4.93327 12.4733 5.09277 12.1816C5.25228 11.8854 5.33203 11.5231 5.33203 11.0947ZM8.35352 10.3838V10.2266C8.35352 9.69336 8.43099 9.19889 8.58594 8.74316C8.74089 8.28288 8.96419 7.88411 9.25586 7.54688C9.54753 7.20508 9.90072 6.94076 10.3154 6.75391C10.7301 6.5625 11.195 6.4668 11.71 6.4668C12.2295 6.4668 12.6966 6.5625 13.1113 6.75391C13.5306 6.94076 13.8861 7.20508 14.1777 7.54688C14.474 7.88411 14.6995 8.28288 14.8545 8.74316C15.0094 9.19889 15.0869 9.69336 15.0869 10.2266V10.3838C15.0869 10.917 15.0094 11.4115 14.8545 11.8672C14.6995 12.3229 14.474 12.7217 14.1777 13.0635C13.8861 13.4007 13.5329 13.665 13.1182 13.8564C12.708 14.0433 12.2432 14.1367 11.7236 14.1367C11.2041 14.1367 10.737 14.0433 10.3223 13.8564C9.90755 13.665 9.55208 13.4007 9.25586 13.0635C8.96419 12.7217 8.74089 12.3229 8.58594 11.8672C8.43099 11.4115 8.35352 10.917 8.35352 10.3838ZM9.61816 10.2266V10.3838C9.61816 10.7529 9.66146 11.1016 9.74805 11.4297C9.83464 11.7533 9.96452 12.0404 10.1377 12.291C10.3154 12.5417 10.5365 12.7399 10.8008 12.8857C11.0651 13.027 11.3727 13.0977 11.7236 13.0977C12.07 13.0977 12.373 13.027 12.6328 12.8857C12.8971 12.7399 13.1159 12.5417 13.2891 12.291C13.4622 12.0404 13.5921 11.7533 13.6787 11.4297C13.7699 11.1016 13.8154 10.7529 13.8154 10.3838V10.2266C13.8154 9.86198 13.7699 9.5179 13.6787 9.19434C13.5921 8.86621 13.46 8.57682 13.2822 8.32617C13.109 8.07096 12.8903 7.87044 12.626 7.72461C12.3662 7.57878 12.0609 7.50586 11.71 7.50586C11.3636 7.50586 11.0583 7.57878 10.7939 7.72461C10.5342 7.87044 10.3154 8.07096 10.1377 8.32617C9.96452 8.57682 9.83464 8.86621 9.74805 9.19434C9.66146 9.5179 9.61816 9.86198 9.61816 10.2266ZM17.9375 3.5V14H16.6729V3.5H17.9375ZM17.6367 10.0215L17.1104 10.001C17.1149 9.49512 17.1901 9.02799 17.3359 8.59961C17.4818 8.16667 17.6868 7.79069 17.9512 7.47168C18.2155 7.15267 18.5299 6.90658 18.8945 6.7334C19.2637 6.55566 19.6715 6.4668 20.1182 6.4668C20.4827 6.4668 20.8109 6.51693 21.1025 6.61719C21.3942 6.71289 21.6426 6.86784 21.8477 7.08203C22.0573 7.29622 22.2168 7.57422 22.3262 7.91602C22.4355 8.25326 22.4902 8.66569 22.4902 9.15332V14H21.2188V9.13965C21.2188 8.75228 21.1618 8.44238 21.0479 8.20996C20.9339 7.97298 20.7676 7.80208 20.5488 7.69727C20.3301 7.58789 20.0612 7.5332 19.7422 7.5332C19.4277 7.5332 19.1406 7.59928 18.8809 7.73145C18.6257 7.86361 18.4046 8.0459 18.2178 8.27832C18.0355 8.51074 17.8919 8.77734 17.7871 9.07812C17.6868 9.37435 17.6367 9.6888 17.6367 10.0215ZM25.6484 8.18262V14H24.3838V6.60352H25.5801L25.6484 8.18262ZM25.3477 10.0215L24.8213 10.001C24.8258 9.49512 24.901 9.02799 25.0469 8.59961C25.1927 8.16667 25.3978 7.79069 25.6621 7.47168C25.9264 7.15267 26.2409 6.90658 26.6055 6.7334C26.9746 6.55566 27.3825 6.4668 27.8291 6.4668C28.1937 6.4668 28.5218 6.51693 28.8135 6.61719C29.1051 6.71289 29.3535 6.86784 29.5586 7.08203C29.7682 7.29622 29.9277 7.57422 30.0371 7.91602C30.1465 8.25326 30.2012 8.66569 30.2012 9.15332V14H28.9297V9.13965C28.9297 8.75228 28.8727 8.44238 28.7588 8.20996C28.6449 7.97298 28.4785 7.80208 28.2598 7.69727C28.041 7.58789 27.7721 7.5332 27.4531 7.5332C27.1387 7.5332 26.8516 7.59928 26.5918 7.73145C26.3366 7.86361 26.1156 8.0459 25.9287 8.27832C25.7464 8.51074 25.6029 8.77734 25.498 9.07812C25.3978 9.37435 25.3477 9.6888 25.3477 10.0215ZM41.0908 11.4844C41.0908 11.252 41.0544 11.0469 40.9814 10.8691C40.9131 10.6868 40.79 10.5228 40.6123 10.377C40.4391 10.2311 40.1976 10.0921 39.8877 9.95996C39.5824 9.8278 39.195 9.69336 38.7256 9.55664C38.2334 9.41081 37.7891 9.24902 37.3926 9.07129C36.9961 8.889 36.6566 8.68164 36.374 8.44922C36.0915 8.2168 35.875 7.9502 35.7246 7.64941C35.5742 7.34863 35.499 7.00456 35.499 6.61719C35.499 6.22982 35.5788 5.87207 35.7383 5.54395C35.8978 5.21582 36.1257 4.93099 36.4219 4.68945C36.7227 4.44336 37.0804 4.25195 37.4951 4.11523C37.9098 3.97852 38.3724 3.91016 38.8828 3.91016C39.6302 3.91016 40.2637 4.05371 40.7832 4.34082C41.3073 4.62337 41.7061 4.99479 41.9795 5.45508C42.2529 5.91081 42.3896 6.39844 42.3896 6.91797H41.0771C41.0771 6.54427 40.9974 6.21387 40.8379 5.92676C40.6784 5.63509 40.4368 5.40723 40.1133 5.24316C39.7897 5.07454 39.3796 4.99023 38.8828 4.99023C38.4134 4.99023 38.026 5.06087 37.7207 5.20215C37.4154 5.34342 37.1875 5.53483 37.0371 5.77637C36.8913 6.0179 36.8184 6.29362 36.8184 6.60352C36.8184 6.81315 36.8617 7.00456 36.9482 7.17773C37.0394 7.34635 37.1784 7.50358 37.3652 7.64941C37.5566 7.79525 37.7982 7.92969 38.0898 8.05273C38.3861 8.17578 38.7393 8.29427 39.1494 8.4082C39.7145 8.56771 40.2021 8.74544 40.6123 8.94141C41.0225 9.13737 41.3597 9.3584 41.624 9.60449C41.8929 9.84603 42.0911 10.1217 42.2188 10.4316C42.3509 10.737 42.417 11.0833 42.417 11.4707C42.417 11.8763 42.335 12.2432 42.1709 12.5713C42.0068 12.8994 41.7721 13.1797 41.4668 13.4121C41.1615 13.6445 40.7946 13.8245 40.3662 13.9521C39.9424 14.0752 39.4684 14.1367 38.9443 14.1367C38.484 14.1367 38.0306 14.0729 37.584 13.9453C37.1419 13.8177 36.7386 13.6263 36.374 13.3711C36.014 13.1159 35.7246 12.8014 35.5059 12.4277C35.2917 12.0495 35.1846 11.612 35.1846 11.1152H36.4971C36.4971 11.457 36.5632 11.751 36.6953 11.9971C36.8275 12.2386 37.0075 12.4391 37.2354 12.5986C37.4678 12.7581 37.7298 12.8766 38.0215 12.9541C38.3177 13.027 38.6253 13.0635 38.9443 13.0635C39.4046 13.0635 39.7943 12.9997 40.1133 12.8721C40.4323 12.7445 40.6738 12.5622 40.8379 12.3252C41.0065 12.0882 41.0908 11.8079 41.0908 11.4844ZM45.165 8.07324V14H43.8936V6.60352H45.0967L45.165 8.07324ZM44.9053 10.0215L44.3174 10.001C44.3219 9.49512 44.388 9.02799 44.5156 8.59961C44.6432 8.16667 44.8324 7.79069 45.083 7.47168C45.3337 7.15267 45.6458 6.90658 46.0195 6.7334C46.3932 6.55566 46.8262 6.4668 47.3184 6.4668C47.6647 6.4668 47.9837 6.51693 48.2754 6.61719C48.5671 6.71289 48.82 6.86556 49.0342 7.0752C49.2484 7.28483 49.4147 7.55371 49.5332 7.88184C49.6517 8.20996 49.7109 8.60645 49.7109 9.07129V14H48.4463V9.13281C48.4463 8.74544 48.3802 8.43555 48.248 8.20312C48.1204 7.9707 47.9382 7.80208 47.7012 7.69727C47.4642 7.58789 47.1862 7.5332 46.8672 7.5332C46.4935 7.5332 46.1813 7.59928 45.9307 7.73145C45.68 7.86361 45.4795 8.0459 45.3291 8.27832C45.1787 8.51074 45.0693 8.77734 45.001 9.07812C44.9372 9.37435 44.9053 9.6888 44.9053 10.0215ZM49.6973 9.32422L48.8496 9.58398C48.8542 9.17839 48.9202 8.78874 49.0479 8.41504C49.18 8.04134 49.3691 7.70866 49.6152 7.41699C49.8659 7.12533 50.1735 6.89518 50.5381 6.72656C50.9027 6.55339 51.3197 6.4668 51.7891 6.4668C52.1855 6.4668 52.5365 6.51921 52.8418 6.62402C53.1517 6.72884 53.4115 6.89062 53.6211 7.10938C53.8353 7.32357 53.9971 7.59928 54.1064 7.93652C54.2158 8.27376 54.2705 8.6748 54.2705 9.13965V14H52.999V9.12598C52.999 8.71126 52.9329 8.38997 52.8008 8.16211C52.6732 7.92969 52.4909 7.7679 52.2539 7.67676C52.0215 7.58105 51.7435 7.5332 51.4199 7.5332C51.1419 7.5332 50.8958 7.58105 50.6816 7.67676C50.4674 7.77246 50.2874 7.90462 50.1416 8.07324C49.9958 8.2373 49.8841 8.42643 49.8066 8.64062C49.7337 8.85482 49.6973 9.08268 49.6973 9.32422ZM57.5586 6.60352V14H56.2871V6.60352H57.5586ZM56.1914 4.6416C56.1914 4.43652 56.2529 4.26335 56.376 4.12207C56.5036 3.98079 56.6904 3.91016 56.9365 3.91016C57.1781 3.91016 57.3626 3.98079 57.4902 4.12207C57.6224 4.26335 57.6885 4.43652 57.6885 4.6416C57.6885 4.83757 57.6224 5.00618 57.4902 5.14746C57.3626 5.28418 57.1781 5.35254 56.9365 5.35254C56.6904 5.35254 56.5036 5.28418 56.376 5.14746C56.2529 5.00618 56.1914 4.83757 56.1914 4.6416ZM62.6855 6.60352V7.57422H58.6865V6.60352H62.6855ZM60.04 4.80566H61.3047V12.168C61.3047 12.4186 61.3434 12.6077 61.4209 12.7354C61.4984 12.863 61.5986 12.9473 61.7217 12.9883C61.8447 13.0293 61.9769 13.0498 62.1182 13.0498C62.223 13.0498 62.3324 13.0407 62.4463 13.0225C62.5648 12.9997 62.6536 12.9814 62.7129 12.9678L62.7197 14C62.6195 14.0319 62.4873 14.0615 62.3232 14.0889C62.1637 14.1208 61.9701 14.1367 61.7422 14.1367C61.4323 14.1367 61.1475 14.0752 60.8877 13.9521C60.6279 13.8291 60.4206 13.624 60.2656 13.3369C60.1152 13.0452 60.04 12.6533 60.04 12.1611V4.80566ZM65.4336 3.5V14H64.1689V3.5H65.4336ZM65.1328 10.0215L64.6064 10.001C64.611 9.49512 64.6862 9.02799 64.832 8.59961C64.9779 8.16667 65.1829 7.79069 65.4473 7.47168C65.7116 7.15267 66.026 6.90658 66.3906 6.7334C66.7598 6.55566 67.1676 6.4668 67.6143 6.4668C67.9788 6.4668 68.307 6.51693 68.5986 6.61719C68.8903 6.71289 69.1387 6.86784 69.3438 7.08203C69.5534 7.29622 69.7129 7.57422 69.8223 7.91602C69.9316 8.25326 69.9863 8.66569 69.9863 9.15332V14H68.7148V9.13965C68.7148 8.75228 68.6579 8.44238 68.5439 8.20996C68.43 7.97298 68.2637 7.80208 68.0449 7.69727C67.8262 7.58789 67.5573 7.5332 67.2383 7.5332C66.9238 7.5332 66.6367 7.59928 66.377 7.73145C66.1217 7.86361 65.9007 8.0459 65.7139 8.27832C65.5316 8.51074 65.388 8.77734 65.2832 9.07812C65.1829 9.37435 65.1328 9.6888 65.1328 10.0215Z" fill="black"/>
</g>
</svg>
