<svg width="103" height="17" viewBox="0 0 103 17" fill="none" xmlns="http://www.w3.org/2000/svg">
<mask id="mask0_14_4251" style="mask-type:luminance" maskUnits="userSpaceOnUse" x="0" y="0" width="103" height="17">
<path d="M103 0H0V17H103V0Z" fill="white"/>
</mask>
<g mask="url(#mask0_14_4251)">
<path d="M1.46973 14L3.20605 4.04688H4.44336L2.70703 14H1.46973ZM4.0332 14L5.77637 4.04688H7.01367L5.27051 14H4.0332ZM8.03223 8.0459H0.916016V6.89062H8.03223V8.0459ZM7.5127 11.1973H0.40332V10.0488H7.5127V11.1973ZM15.8662 12.4004V14H10.5684V12.4004H15.8662ZM11.2383 4.04688V14H9.1875V4.04688H11.2383ZM15.1758 8.10059V9.65918H10.5684V8.10059H15.1758ZM15.8594 4.04688V5.65332H10.5684V4.04688H15.8594ZM18.8672 8.18262V14H16.8984V6.60352H18.7441L18.8672 8.18262ZM18.5801 10.042H18.0469C18.0469 9.49512 18.1175 9.00293 18.2588 8.56543C18.4001 8.12337 18.5983 7.7474 18.8535 7.4375C19.1087 7.12305 19.4118 6.88379 19.7627 6.71973C20.1182 6.55111 20.5146 6.4668 20.9521 6.4668C21.2985 6.4668 21.6152 6.51693 21.9023 6.61719C22.1895 6.71745 22.4355 6.87695 22.6406 7.0957C22.8503 7.31445 23.0098 7.60384 23.1191 7.96387C23.2331 8.32389 23.29 8.76367 23.29 9.2832V14H21.3076V9.27637C21.3076 8.94824 21.262 8.69303 21.1709 8.51074C21.0798 8.32845 20.9453 8.20085 20.7676 8.12793C20.5944 8.05046 20.3802 8.01172 20.125 8.01172C19.8607 8.01172 19.6305 8.06413 19.4346 8.16895C19.2432 8.27376 19.0837 8.4196 18.9561 8.60645C18.833 8.78874 18.7396 9.00293 18.6758 9.24902C18.612 9.49512 18.5801 9.75944 18.5801 10.042ZM28.4102 6.60352V7.99805H24.1035V6.60352H28.4102ZM25.1699 4.77832H27.1387V11.7715C27.1387 11.9857 27.166 12.1497 27.2207 12.2637C27.2799 12.3776 27.3665 12.4574 27.4805 12.5029C27.5944 12.5439 27.738 12.5645 27.9111 12.5645C28.0342 12.5645 28.1436 12.5599 28.2393 12.5508C28.3395 12.5371 28.4238 12.5234 28.4922 12.5098L28.499 13.959C28.3304 14.0137 28.1481 14.057 27.9521 14.0889C27.7562 14.1208 27.5397 14.1367 27.3027 14.1367C26.8698 14.1367 26.4915 14.0661 26.168 13.9248C25.849 13.779 25.6029 13.5465 25.4297 13.2275C25.2565 12.9085 25.1699 12.4893 25.1699 11.9697V4.77832ZM32.9355 14.1367C32.3613 14.1367 31.8464 14.0456 31.3906 13.8633C30.9349 13.6764 30.5475 13.4189 30.2285 13.0908C29.9141 12.7627 29.6725 12.3822 29.5039 11.9492C29.3353 11.5117 29.251 11.0469 29.251 10.5547V10.2812C29.251 9.7207 29.3307 9.20801 29.4902 8.74316C29.6497 8.27832 29.8776 7.875 30.1738 7.5332C30.4746 7.19141 30.8392 6.92936 31.2676 6.74707C31.696 6.56022 32.179 6.4668 32.7168 6.4668C33.2409 6.4668 33.7057 6.55339 34.1113 6.72656C34.5169 6.89974 34.8564 7.14583 35.1299 7.46484C35.4079 7.78385 35.6175 8.16667 35.7588 8.61328C35.9001 9.05534 35.9707 9.54753 35.9707 10.0898V10.9102H30.0918V9.59766H34.0361V9.44727C34.0361 9.17383 33.986 8.93001 33.8857 8.71582C33.79 8.49707 33.6442 8.32389 33.4482 8.19629C33.2523 8.06868 33.0016 8.00488 32.6963 8.00488C32.4365 8.00488 32.2132 8.06185 32.0264 8.17578C31.8395 8.28971 31.6868 8.44922 31.5684 8.6543C31.4544 8.85938 31.3678 9.10091 31.3086 9.37891C31.2539 9.65234 31.2266 9.95312 31.2266 10.2812V10.5547C31.2266 10.8509 31.2676 11.1243 31.3496 11.375C31.4362 11.6257 31.557 11.8421 31.7119 12.0244C31.8714 12.2067 32.0628 12.348 32.2861 12.4482C32.514 12.5485 32.7715 12.5986 33.0586 12.5986C33.4141 12.5986 33.7445 12.5303 34.0498 12.3936C34.3597 12.2523 34.6263 12.0404 34.8496 11.7578L35.8066 12.7969C35.6517 13.0202 35.4398 13.2344 35.1709 13.4395C34.9066 13.6445 34.5876 13.8132 34.2139 13.9453C33.8402 14.0729 33.4141 14.1367 32.9355 14.1367ZM39.0605 8.2168V14H37.0918V6.60352H38.9443L39.0605 8.2168ZM41.2891 6.55566L41.2549 8.38086C41.1592 8.36719 41.043 8.35579 40.9062 8.34668C40.7741 8.33301 40.6533 8.32617 40.5439 8.32617C40.266 8.32617 40.0244 8.36263 39.8193 8.43555C39.6188 8.50391 39.4502 8.60645 39.3135 8.74316C39.1813 8.87988 39.0811 9.04622 39.0127 9.24219C38.9489 9.43815 38.9124 9.66146 38.9033 9.91211L38.5068 9.78906C38.5068 9.31055 38.5547 8.87077 38.6504 8.46973C38.7461 8.06413 38.8851 7.71094 39.0674 7.41016C39.2542 7.10938 39.4821 6.87695 39.751 6.71289C40.0199 6.54883 40.3275 6.4668 40.6738 6.4668C40.7832 6.4668 40.8949 6.47591 41.0088 6.49414C41.1227 6.50781 41.2161 6.52832 41.2891 6.55566ZM46.1836 6.60352V7.99805H41.877V6.60352H46.1836ZM42.9434 4.77832H44.9121V11.7715C44.9121 11.9857 44.9395 12.1497 44.9941 12.2637C45.0534 12.3776 45.14 12.4574 45.2539 12.5029C45.3678 12.5439 45.5114 12.5645 45.6846 12.5645C45.8076 12.5645 45.917 12.5599 46.0127 12.5508C46.113 12.5371 46.1973 12.5234 46.2656 12.5098L46.2725 13.959C46.1038 14.0137 45.9215 14.057 45.7256 14.0889C45.5296 14.1208 45.3132 14.1367 45.0762 14.1367C44.6432 14.1367 44.265 14.0661 43.9414 13.9248C43.6224 13.779 43.3763 13.5465 43.2031 13.2275C43.0299 12.9085 42.9434 12.4893 42.9434 11.9697V4.77832ZM51.2969 12.332V9.03711C51.2969 8.80013 51.2581 8.59733 51.1807 8.42871C51.1032 8.25553 50.9824 8.12109 50.8184 8.02539C50.6589 7.92969 50.4515 7.88184 50.1963 7.88184C49.9775 7.88184 49.7884 7.92057 49.6289 7.99805C49.4694 8.07096 49.3464 8.17806 49.2598 8.31934C49.1732 8.45605 49.1299 8.61784 49.1299 8.80469H47.1611C47.1611 8.49023 47.234 8.19173 47.3799 7.90918C47.5257 7.62663 47.7376 7.37826 48.0156 7.16406C48.2936 6.94531 48.624 6.77441 49.0068 6.65137C49.3942 6.52832 49.8271 6.4668 50.3057 6.4668C50.8799 6.4668 51.3903 6.5625 51.8369 6.75391C52.2835 6.94531 52.6344 7.23242 52.8896 7.61523C53.1494 7.99805 53.2793 8.47656 53.2793 9.05078V12.2158C53.2793 12.6214 53.3044 12.9541 53.3545 13.2139C53.4046 13.4691 53.4775 13.6924 53.5732 13.8838V14H51.584C51.4883 13.7995 51.4154 13.5488 51.3652 13.248C51.3197 12.9427 51.2969 12.6374 51.2969 12.332ZM51.5566 9.49512L51.5703 10.6094H50.4697C50.21 10.6094 49.9844 10.639 49.793 10.6982C49.6016 10.7575 49.4443 10.8418 49.3213 10.9512C49.1982 11.056 49.1071 11.179 49.0479 11.3203C48.9932 11.4616 48.9658 11.6165 48.9658 11.7852C48.9658 11.9538 49.0046 12.1064 49.082 12.2432C49.1595 12.3753 49.2712 12.4801 49.417 12.5576C49.5628 12.6305 49.7337 12.667 49.9297 12.667C50.2259 12.667 50.4834 12.6077 50.7021 12.4893C50.9209 12.3708 51.0895 12.2249 51.208 12.0518C51.3311 11.8786 51.3949 11.7145 51.3994 11.5596L51.9189 12.3936C51.846 12.5804 51.7458 12.7741 51.6182 12.9746C51.4951 13.1751 51.3379 13.3643 51.1465 13.542C50.9551 13.7152 50.7249 13.8587 50.4561 13.9727C50.1872 14.082 49.8682 14.1367 49.499 14.1367C49.0296 14.1367 48.6035 14.0433 48.2207 13.8564C47.8424 13.665 47.5417 13.403 47.3184 13.0703C47.0996 12.7331 46.9902 12.3503 46.9902 11.9219C46.9902 11.5345 47.0632 11.1904 47.209 10.8896C47.3548 10.5889 47.569 10.3359 47.8516 10.1309C48.1387 9.92122 48.4964 9.764 48.9248 9.65918C49.3532 9.5498 49.8499 9.49512 50.415 9.49512H51.5566ZM56.875 6.60352V14H54.8994V6.60352H56.875ZM54.7764 4.67578C54.7764 4.38867 54.8766 4.15169 55.0771 3.96484C55.2777 3.77799 55.5465 3.68457 55.8838 3.68457C56.2165 3.68457 56.4831 3.77799 56.6836 3.96484C56.8887 4.15169 56.9912 4.38867 56.9912 4.67578C56.9912 4.96289 56.8887 5.19987 56.6836 5.38672C56.4831 5.57357 56.2165 5.66699 55.8838 5.66699C55.5465 5.66699 55.2777 5.57357 55.0771 5.38672C54.8766 5.19987 54.7764 4.96289 54.7764 4.67578ZM60.4297 8.18262V14H58.4609V6.60352H60.3066L60.4297 8.18262ZM60.1426 10.042H59.6094C59.6094 9.49512 59.68 9.00293 59.8213 8.56543C59.9626 8.12337 60.1608 7.7474 60.416 7.4375C60.6712 7.12305 60.9743 6.88379 61.3252 6.71973C61.6807 6.55111 62.0771 6.4668 62.5146 6.4668C62.861 6.4668 63.1777 6.51693 63.4648 6.61719C63.752 6.71745 63.998 6.87695 64.2031 7.0957C64.4128 7.31445 64.5723 7.60384 64.6816 7.96387C64.7956 8.32389 64.8525 8.76367 64.8525 9.2832V14H62.8701V9.27637C62.8701 8.94824 62.8245 8.69303 62.7334 8.51074C62.6423 8.32845 62.5078 8.20085 62.3301 8.12793C62.1569 8.05046 61.9427 8.01172 61.6875 8.01172C61.4232 8.01172 61.193 8.06413 60.9971 8.16895C60.8057 8.27376 60.6462 8.4196 60.5186 8.60645C60.3955 8.78874 60.3021 9.00293 60.2383 9.24902C60.1745 9.49512 60.1426 9.75944 60.1426 10.042ZM68.3184 8.13477V14H66.3428V6.60352H68.1953L68.3184 8.13477ZM68.0449 10.042H67.498C67.498 9.52702 67.5596 9.05306 67.6826 8.62012C67.8102 8.18262 67.9948 7.80436 68.2363 7.48535C68.4824 7.16178 68.7855 6.91113 69.1455 6.7334C69.5055 6.55566 69.9225 6.4668 70.3965 6.4668C70.7246 6.4668 71.0254 6.51693 71.2988 6.61719C71.5723 6.71289 71.807 6.86556 72.0029 7.0752C72.2035 7.28027 72.3584 7.54915 72.4678 7.88184C72.5771 8.20996 72.6318 8.60417 72.6318 9.06445V14H70.6631V9.2832C70.6631 8.94596 70.6175 8.6862 70.5264 8.50391C70.4352 8.32161 70.3053 8.19401 70.1367 8.12109C69.9727 8.04818 69.7744 8.01172 69.542 8.01172C69.2868 8.01172 69.0635 8.06413 68.8721 8.16895C68.6852 8.27376 68.5303 8.4196 68.4072 8.60645C68.2842 8.78874 68.193 9.00293 68.1338 9.24902C68.0745 9.49512 68.0449 9.75944 68.0449 10.042ZM72.4473 9.81641L71.7432 9.90527C71.7432 9.4222 71.8024 8.97331 71.9209 8.55859C72.0439 8.14388 72.224 7.7793 72.4609 7.46484C72.7025 7.15039 73.001 6.90658 73.3564 6.7334C73.7119 6.55566 74.1221 6.4668 74.5869 6.4668C74.9424 6.4668 75.266 6.51921 75.5576 6.62402C75.8493 6.72428 76.0977 6.88607 76.3027 7.10938C76.5124 7.32812 76.6719 7.61523 76.7812 7.9707C76.8952 8.32617 76.9521 8.76139 76.9521 9.27637V14H74.9766V9.27637C74.9766 8.93457 74.931 8.6748 74.8398 8.49707C74.7533 8.31478 74.6257 8.18945 74.457 8.12109C74.293 8.04818 74.097 8.01172 73.8691 8.01172C73.6322 8.01172 73.4248 8.05957 73.2471 8.15527C73.0693 8.24642 72.9212 8.37402 72.8027 8.53809C72.6842 8.70215 72.5954 8.89355 72.5361 9.1123C72.4769 9.3265 72.4473 9.5612 72.4473 9.81641ZM81.8809 14.1367C81.3066 14.1367 80.7917 14.0456 80.3359 13.8633C79.8802 13.6764 79.4928 13.4189 79.1738 13.0908C78.8594 12.7627 78.6178 12.3822 78.4492 11.9492C78.2806 11.5117 78.1963 11.0469 78.1963 10.5547V10.2812C78.1963 9.7207 78.276 9.20801 78.4355 8.74316C78.5951 8.27832 78.8229 7.875 79.1191 7.5332C79.4199 7.19141 79.7845 6.92936 80.2129 6.74707C80.6413 6.56022 81.1243 6.4668 81.6621 6.4668C82.1862 6.4668 82.651 6.55339 83.0566 6.72656C83.4622 6.89974 83.8018 7.14583 84.0752 7.46484C84.3532 7.78385 84.5628 8.16667 84.7041 8.61328C84.8454 9.05534 84.916 9.54753 84.916 10.0898V10.9102H79.0371V9.59766H82.9814V9.44727C82.9814 9.17383 82.9313 8.93001 82.8311 8.71582C82.7354 8.49707 82.5895 8.32389 82.3936 8.19629C82.1976 8.06868 81.9469 8.00488 81.6416 8.00488C81.3818 8.00488 81.1585 8.06185 80.9717 8.17578C80.7848 8.28971 80.6322 8.44922 80.5137 8.6543C80.3997 8.85938 80.3132 9.10091 80.2539 9.37891C80.1992 9.65234 80.1719 9.95312 80.1719 10.2812V10.5547C80.1719 10.8509 80.2129 11.1243 80.2949 11.375C80.3815 11.6257 80.5023 11.8421 80.6572 12.0244C80.8167 12.2067 81.0081 12.348 81.2314 12.4482C81.4593 12.5485 81.7168 12.5986 82.0039 12.5986C82.3594 12.5986 82.6898 12.5303 82.9951 12.3936C83.305 12.2523 83.5716 12.0404 83.7949 11.7578L84.752 12.7969C84.597 13.0202 84.3851 13.2344 84.1162 13.4395C83.8519 13.6445 83.5329 13.8132 83.1592 13.9453C82.7855 14.0729 82.3594 14.1367 81.8809 14.1367ZM87.9648 8.18262V14H85.9961V6.60352H87.8418L87.9648 8.18262ZM87.6777 10.042H87.1445C87.1445 9.49512 87.2152 9.00293 87.3564 8.56543C87.4977 8.12337 87.696 7.7474 87.9512 7.4375C88.2064 7.12305 88.5094 6.88379 88.8604 6.71973C89.2158 6.55111 89.6123 6.4668 90.0498 6.4668C90.3962 6.4668 90.7129 6.51693 91 6.61719C91.2871 6.71745 91.5332 6.87695 91.7383 7.0957C91.9479 7.31445 92.1074 7.60384 92.2168 7.96387C92.3307 8.32389 92.3877 8.76367 92.3877 9.2832V14H90.4053V9.27637C90.4053 8.94824 90.3597 8.69303 90.2686 8.51074C90.1774 8.32845 90.043 8.20085 89.8652 8.12793C89.6921 8.05046 89.4779 8.01172 89.2227 8.01172C88.9583 8.01172 88.7282 8.06413 88.5322 8.16895C88.3408 8.27376 88.1813 8.4196 88.0537 8.60645C87.9307 8.78874 87.8372 9.00293 87.7734 9.24902C87.7096 9.49512 87.6777 9.75944 87.6777 10.042ZM97.5078 6.60352V7.99805H93.2012V6.60352H97.5078ZM94.2676 4.77832H96.2363V11.7715C96.2363 11.9857 96.2637 12.1497 96.3184 12.2637C96.3776 12.3776 96.4642 12.4574 96.5781 12.5029C96.6921 12.5439 96.8356 12.5645 97.0088 12.5645C97.1318 12.5645 97.2412 12.5599 97.3369 12.5508C97.4372 12.5371 97.5215 12.5234 97.5898 12.5098L97.5967 13.959C97.4281 14.0137 97.2458 14.057 97.0498 14.0889C96.8538 14.1208 96.6374 14.1367 96.4004 14.1367C95.9674 14.1367 95.5892 14.0661 95.2656 13.9248C94.9466 13.779 94.7005 13.5465 94.5273 13.2275C94.3542 12.9085 94.2676 12.4893 94.2676 11.9697V4.77832Z" fill="#374151"/>
</g>
</svg>
