<svg width="817" height="20" viewBox="0 0 817 20" fill="none" xmlns="http://www.w3.org/2000/svg">
<g filter="url(#filter0_d_11_1600)">
<path d="M809 0H8C3.58172 0 0 3.58172 0 8V12C0 16.4183 3.58172 20 8 20H809C813.418 20 817 16.4183 817 12V8C817 3.58172 813.418 0 809 0Z" fill="white"/>
<path d="M809 0H8C3.58172 0 0 3.58172 0 8V12C0 16.4183 3.58172 20 8 20H809C813.418 20 817 16.4183 817 12V8C817 3.58172 813.418 0 809 0Z" stroke="#D1D5DB"/>
</g>
<mask id="mask0_11_1600" style="mask-type:luminance" maskUnits="userSpaceOnUse" x="0" y="0" width="817" height="20">
<path d="M817 0H0V20H817V0Z" fill="white"/>
</mask>
<g mask="url(#mask0_11_1600)">
<path d="M9.274 15V5.9H12.979C13.473 5.9 13.9193 6.02567 14.318 6.277C14.7253 6.51967 15.0503 6.85333 15.293 7.278C15.5357 7.70267 15.657 8.175 15.657 8.695C15.657 9.215 15.5357 9.68733 15.293 10.112C15.0503 10.5367 14.7253 10.879 14.318 11.139C13.9193 11.3903 13.473 11.516 12.979 11.516H10.678V15H9.274ZM10.678 10.164H12.953C13.187 10.164 13.3993 10.099 13.59 9.969C13.7807 9.83033 13.9323 9.65267 14.045 9.436C14.1663 9.21067 14.227 8.96367 14.227 8.695C14.227 8.42633 14.1663 8.18367 14.045 7.967C13.9323 7.75033 13.7807 7.577 13.59 7.447C13.3993 7.317 13.187 7.252 12.953 7.252H10.678V10.164ZM20.1163 15.13C19.449 15.13 18.851 14.9783 18.3223 14.675C17.8023 14.363 17.3906 13.9427 17.0873 13.414C16.784 12.8767 16.6323 12.2657 16.6323 11.581C16.6323 10.8963 16.784 10.2897 17.0873 9.761C17.3906 9.22367 17.8023 8.80333 18.3223 8.5C18.851 8.188 19.449 8.032 20.1163 8.032C20.775 8.032 21.3643 8.188 21.8843 8.5C22.413 8.80333 22.829 9.22367 23.1323 9.761C23.4356 10.2897 23.5873 10.8963 23.5873 11.581C23.5873 12.2657 23.4356 12.8767 23.1323 13.414C22.829 13.9427 22.413 14.363 21.8843 14.675C21.3643 14.9783 20.775 15.13 20.1163 15.13ZM20.1163 13.908C20.5236 13.908 20.8876 13.8083 21.2083 13.609C21.529 13.401 21.7803 13.1237 21.9623 12.777C22.1443 12.4217 22.231 12.023 22.2223 11.581C22.231 11.1303 22.1443 10.7317 21.9623 10.385C21.7803 10.0297 21.529 9.75233 21.2083 9.553C20.8876 9.35367 20.5236 9.254 20.1163 9.254C19.709 9.254 19.3406 9.358 19.0113 9.566C18.6906 9.76533 18.4393 10.0427 18.2573 10.398C18.0753 10.7447 17.9886 11.139 17.9973 11.581C17.9886 12.023 18.0753 12.4217 18.2573 12.777C18.4393 13.1237 18.6906 13.401 19.0113 13.609C19.3406 13.8083 19.709 13.908 20.1163 13.908ZM25.0724 15V5.38H26.4114V15H25.0724ZM28.53 15V8.175H29.869V15H28.53ZM29.18 6.667C28.894 6.667 28.673 6.59333 28.517 6.446C28.361 6.29867 28.283 6.09067 28.283 5.822C28.283 5.57067 28.361 5.367 28.517 5.211C28.6817 5.055 28.9027 4.977 29.18 4.977C29.466 4.977 29.687 5.05067 29.843 5.198C29.999 5.34533 30.077 5.55333 30.077 5.822C30.077 6.07333 29.9947 6.277 29.83 6.433C29.674 6.589 29.4574 6.667 29.18 6.667ZM32.7722 15V6.433H34.1112V15H32.7722ZM31.3552 9.475V8.175H35.6972V9.475H31.3552ZM37.1375 15V8.175H38.4765V15H37.1375ZM37.7875 6.667C37.5015 6.667 37.2805 6.59333 37.1245 6.446C36.9685 6.29867 36.8905 6.09067 36.8905 5.822C36.8905 5.57067 36.9685 5.367 37.1245 5.211C37.2891 5.055 37.5101 4.977 37.7875 4.977C38.0735 4.977 38.2945 5.05067 38.4505 5.198C38.6065 5.34533 38.6845 5.55333 38.6845 5.822C38.6845 6.07333 38.6021 6.277 38.4375 6.433C38.2815 6.589 38.0648 6.667 37.7875 6.667ZM43.4336 15.13C42.801 15.13 42.2333 14.974 41.7306 14.662C41.2366 14.35 40.8423 13.9253 40.5476 13.388C40.2616 12.8507 40.1186 12.2483 40.1186 11.581C40.1186 10.9137 40.2616 10.3113 40.5476 9.774C40.8423 9.23667 41.2366 8.812 41.7306 8.5C42.2333 8.188 42.801 8.032 43.4336 8.032C44.0403 8.032 44.5906 8.15767 45.0846 8.409C45.5873 8.65167 45.9686 8.98533 46.2286 9.41L45.4876 10.32C45.349 10.1207 45.1713 9.93867 44.9546 9.774C44.738 9.60933 44.5083 9.47933 44.2656 9.384C44.023 9.28867 43.789 9.241 43.5636 9.241C43.1476 9.241 42.775 9.345 42.4456 9.553C42.125 9.75233 41.8693 10.0297 41.6786 10.385C41.488 10.7403 41.3926 11.139 41.3926 11.581C41.3926 12.023 41.4923 12.4217 41.6916 12.777C41.891 13.1237 42.1553 13.401 42.4846 13.609C42.814 13.817 43.178 13.921 43.5766 13.921C43.8106 13.921 44.036 13.882 44.2526 13.804C44.478 13.726 44.6946 13.609 44.9026 13.453C45.1106 13.297 45.3056 13.1063 45.4876 12.881L46.2286 13.791C45.9513 14.181 45.5526 14.5017 45.0326 14.753C44.5213 15.0043 43.9883 15.13 43.4336 15.13ZM49.7667 15.13C49.1947 15.13 48.679 15.0303 48.2197 14.831C47.7603 14.6317 47.379 14.337 47.0757 13.947L47.9857 13.167C48.2457 13.4703 48.5273 13.6913 48.8307 13.83C49.1427 13.96 49.4937 14.025 49.8837 14.025C50.0397 14.025 50.1827 14.0077 50.3127 13.973C50.4513 13.9297 50.5683 13.869 50.6637 13.791C50.7677 13.713 50.8457 13.622 50.8977 13.518C50.9497 13.4053 50.9757 13.284 50.9757 13.154C50.9757 12.9287 50.8933 12.7467 50.7287 12.608C50.642 12.5473 50.5033 12.4823 50.3127 12.413C50.1307 12.335 49.8923 12.257 49.5977 12.179C49.095 12.049 48.6833 11.9017 48.3627 11.737C48.042 11.5723 47.795 11.386 47.6217 11.178C47.4917 11.0133 47.3963 10.8357 47.3357 10.645C47.275 10.4457 47.2447 10.229 47.2447 9.995C47.2447 9.709 47.3053 9.449 47.4267 9.215C47.5567 8.97233 47.73 8.76433 47.9467 8.591C48.172 8.409 48.432 8.27033 48.7267 8.175C49.03 8.07967 49.3507 8.032 49.6887 8.032C50.0093 8.032 50.3257 8.07533 50.6377 8.162C50.9583 8.24867 51.253 8.37433 51.5217 8.539C51.7903 8.70367 52.0157 8.89867 52.1977 9.124L51.4307 9.969C51.266 9.80433 51.084 9.66133 50.8847 9.54C50.694 9.41 50.499 9.31033 50.2997 9.241C50.1003 9.17167 49.9183 9.137 49.7537 9.137C49.5717 9.137 49.407 9.15433 49.2597 9.189C49.1123 9.22367 48.9867 9.27567 48.8827 9.345C48.7873 9.41433 48.7137 9.501 48.6617 9.605C48.6097 9.709 48.5837 9.826 48.5837 9.956C48.5923 10.0687 48.6183 10.177 48.6617 10.281C48.7137 10.3763 48.783 10.4587 48.8697 10.528C48.965 10.5973 49.108 10.671 49.2987 10.749C49.4893 10.827 49.732 10.9007 50.0267 10.97C50.46 11.0827 50.8153 11.2083 51.0927 11.347C51.3787 11.477 51.604 11.6287 51.7687 11.802C51.942 11.9667 52.0633 12.1573 52.1327 12.374C52.202 12.5907 52.2367 12.8333 52.2367 13.102C52.2367 13.492 52.124 13.843 51.8987 14.155C51.682 14.4583 51.3873 14.6967 51.0147 14.87C50.642 15.0433 50.226 15.13 49.7667 15.13Z" fill="#94A3B8"/>
</g>
<mask id="mask1_11_1600" style="mask-type:luminance" maskUnits="userSpaceOnUse" x="0" y="0" width="817" height="20">
<path d="M817 0H0V20H817V0Z" fill="white"/>
</mask>
<g mask="url(#mask1_11_1600)">
<g clip-path="url(#clip0_11_1600)">
<path d="M804.677 8.01074L802 10.6824L799.322 8.01074L798.5 8.83324L802 12.3332L805.5 8.83324L804.677 8.01074Z" fill="#94A3B8"/>
</g>
</g>
<defs>
<filter id="filter0_d_11_1600" x="-0.5" y="-0.5" width="818" height="21" filterUnits="userSpaceOnUse" color-interpolation-filters="sRGB">
<feFlood flood-opacity="0" result="BackgroundImageFix"/>
<feColorMatrix in="SourceAlpha" type="matrix" values="0 0 0 0 0 0 0 0 0 0 0 0 0 0 0 0 0 0 127 0" result="hardAlpha"/>
<feOffset/>
<feComposite in2="hardAlpha" operator="out"/>
<feColorMatrix type="matrix" values="0 0 0 0 0 0 0 0 0 0 0 0 0 0 0 0 0 0 0.08 0"/>
<feBlend mode="normal" in2="BackgroundImageFix" result="effect1_dropShadow_11_1600"/>
<feBlend mode="normal" in="SourceGraphic" in2="effect1_dropShadow_11_1600" result="shape"/>
</filter>
<clipPath id="clip0_11_1600">
<rect width="14" height="14" fill="white" transform="translate(795 3)"/>
</clipPath>
</defs>
</svg>
