<svg width="16" height="16" viewBox="0 0 16 16" fill="none" xmlns="http://www.w3.org/2000/svg">
<g clip-path="url(#clip0_14_3214)">
<path d="M15.5596 4.44072L14.119 5.88135C13.9721 6.02822 13.7346 6.02822 13.5877 5.88135L10.119 2.4126C9.97211 2.26572 9.97211 2.02822 10.119 1.88135L11.5596 0.440723C12.144 -0.143652 13.094 -0.143652 13.6815 0.440723L15.5596 2.31885C16.1471 2.90322 16.1471 3.85322 15.5596 4.44072ZM8.88149 3.11885L0.675236 11.3251L0.0127361 15.122C-0.0778889 15.6345 0.368986 16.0782 0.881486 15.9907L4.67836 15.3251L12.8846 7.11885C13.0315 6.97197 13.0315 6.73447 12.8846 6.5876L9.41586 3.11885C9.26586 2.97197 9.02836 2.97197 8.88149 3.11885ZM3.87836 10.622C3.70649 10.4501 3.70649 10.1751 3.87836 10.0032L8.69086 5.19072C8.86274 5.01885 9.13774 5.01885 9.30961 5.19072C9.48149 5.3626 9.48149 5.6376 9.30961 5.80947L4.49711 10.622C4.32524 10.7938 4.05024 10.7938 3.87836 10.622ZM2.75024 13.2501H4.25024V14.3845L2.23461 14.7376L1.26274 13.7657L1.61586 11.7501H2.75024V13.2501Z" fill="#DC143C"/>
</g>
<defs>
<clipPath id="clip0_14_3214">
<rect width="16" height="16" fill="white"/>
</clipPath>
</defs>
</svg>
