<svg width="14" height="14" viewBox="0 0 14 14" fill="none" xmlns="http://www.w3.org/2000/svg">
<g clip-path="url(#clip0_11_2621)">
<path d="M13.6148 3.88545L12.3542 5.146C12.2257 5.27451 12.0179 5.27451 11.8894 5.146L8.85423 2.11084C8.72572 1.98232 8.72572 1.77451 8.85423 1.646L10.1148 0.385449C10.6261 -0.125879 11.4574 -0.125879 11.9714 0.385449L13.6148 2.02881C14.1288 2.54014 14.1288 3.37139 13.6148 3.88545ZM7.77142 2.72881L0.590954 9.90928L0.0112661 13.2315C-0.0680307 13.68 0.322985 14.0683 0.771422 13.9917L4.09369 13.4093L11.2742 6.22881C11.4027 6.10029 11.4027 5.89248 11.2742 5.76397L8.239 2.72881C8.10775 2.60029 7.89994 2.60029 7.77142 2.72881ZM3.39369 9.29404C3.2433 9.14365 3.2433 8.90303 3.39369 8.75264L7.60463 4.5417C7.75502 4.39131 7.99564 4.39131 8.14603 4.5417C8.29642 4.69209 8.29642 4.93271 8.14603 5.08311L3.93509 9.29404C3.7847 9.44443 3.54408 9.44443 3.39369 9.29404ZM2.40658 11.5937H3.71908V12.5862L1.95541 12.8952L1.10502 12.0448L1.414 10.2812H2.40658V11.5937Z" fill="black"/>
</g>
<defs>
<clipPath id="clip0_11_2621">
<rect width="14" height="14" fill="white"/>
</clipPath>
</defs>
</svg>
