<svg width="83" height="18" viewBox="0 0 83 18" fill="none" xmlns="http://www.w3.org/2000/svg">
<mask id="mask0_14_3598" style="mask-type:luminance" maskUnits="userSpaceOnUse" x="0" y="0" width="83" height="18">
<path d="M83 0H0V18H83V0Z" fill="white"/>
</mask>
<g mask="url(#mask0_14_3598)">
<path d="M1.568 16.5V5.3H6.128C6.736 5.3 7.28533 5.45467 7.776 5.764C8.27733 6.06267 8.67733 6.47333 8.976 6.996C9.27467 7.51867 9.424 8.1 9.424 8.74C9.424 9.38 9.27467 9.96133 8.976 10.484C8.67733 11.0067 8.27733 11.428 7.776 11.748C7.28533 12.0573 6.736 12.212 6.128 12.212H3.296V16.5H1.568ZM3.296 10.548H6.096C6.384 10.548 6.64533 10.468 6.88 10.308C7.11467 10.1373 7.30133 9.91867 7.44 9.652C7.58933 9.37467 7.664 9.07067 7.664 8.74C7.664 8.40933 7.58933 8.11067 7.44 7.844C7.30133 7.57733 7.11467 7.364 6.88 7.204C6.64533 7.044 6.384 6.964 6.096 6.964H3.296V10.548ZM14.1585 16.66C13.5612 16.66 13.0385 16.5213 12.5905 16.244C12.1532 15.9667 11.8118 15.5773 11.5665 15.076C11.3318 14.5747 11.2145 13.9773 11.2145 13.284V8.1H12.8625V12.836C12.8625 13.3267 12.9372 13.7533 13.0865 14.116C13.2465 14.468 13.4705 14.74 13.7585 14.932C14.0572 15.124 14.4145 15.22 14.8305 15.22C15.1398 15.22 15.4225 15.172 15.6785 15.076C15.9345 14.9693 16.1532 14.8253 16.3345 14.644C16.5265 14.4627 16.6758 14.244 16.7825 13.988C16.8892 13.732 16.9425 13.4547 16.9425 13.156V8.1H18.5905V16.5H16.9425V14.74L17.2305 14.548C17.1025 14.9427 16.8838 15.3 16.5745 15.62C16.2758 15.94 15.9185 16.196 15.5025 16.388C15.0865 16.5693 14.6385 16.66 14.1585 16.66ZM25.318 16.66C24.9553 16.66 24.5927 16.6013 24.23 16.484C23.878 16.3667 23.5527 16.212 23.254 16.02C22.966 15.8173 22.7207 15.5987 22.518 15.364C22.326 15.1187 22.198 14.8733 22.134 14.628L22.55 14.404V16.452H20.902V4.66H22.55V10.02L22.294 9.876C22.3473 9.63067 22.4647 9.396 22.646 9.172C22.8273 8.93733 23.0567 8.72933 23.334 8.548C23.622 8.356 23.9313 8.20667 24.262 8.1C24.5927 7.98267 24.9287 7.924 25.27 7.924C26.0273 7.924 26.6993 8.11067 27.286 8.484C27.8727 8.85733 28.3367 9.37467 28.678 10.036C29.0193 10.6867 29.19 11.4333 29.19 12.276C29.19 13.1187 29.0193 13.8707 28.678 14.532C28.3473 15.1933 27.8887 15.716 27.302 16.1C26.7153 16.4733 26.054 16.66 25.318 16.66ZM25.046 15.156C25.5367 15.156 25.974 15.0333 26.358 14.788C26.742 14.532 27.046 14.1907 27.27 13.764C27.494 13.3267 27.606 12.8307 27.606 12.276C27.606 11.732 27.494 11.2467 27.27 10.82C27.0567 10.3827 26.758 10.0413 26.374 9.796C25.99 9.55067 25.5473 9.428 25.046 9.428C24.5447 9.428 24.102 9.55067 23.718 9.796C23.334 10.0413 23.03 10.3827 22.806 10.82C22.582 11.2467 22.47 11.732 22.47 12.276C22.47 12.8307 22.582 13.3267 22.806 13.764C23.03 14.1907 23.334 14.532 23.718 14.788C24.102 15.0333 24.5447 15.156 25.046 15.156ZM31.0121 16.5V4.66H32.6601V16.5H31.0121ZM35.2678 16.5V8.1H36.9158V16.5H35.2678ZM36.0678 6.244C35.7158 6.244 35.4438 6.15333 35.2518 5.972C35.0598 5.79067 34.9638 5.53467 34.9638 5.204C34.9638 4.89467 35.0598 4.644 35.2518 4.452C35.4544 4.26 35.7264 4.164 36.0678 4.164C36.4198 4.164 36.6918 4.25467 36.8838 4.436C37.0758 4.61733 37.1718 4.87333 37.1718 5.204C37.1718 5.51333 37.0704 5.764 36.8678 5.956C36.6758 6.148 36.4091 6.244 36.0678 6.244ZM42.2489 16.66C41.5449 16.66 40.9102 16.5373 40.3449 16.292C39.7795 16.0467 39.3102 15.684 38.9369 15.204L40.0569 14.244C40.3769 14.6173 40.7235 14.8893 41.0969 15.06C41.4809 15.22 41.9129 15.3 42.3929 15.3C42.5849 15.3 42.7609 15.2787 42.9209 15.236C43.0915 15.1827 43.2355 15.108 43.3529 15.012C43.4809 14.916 43.5769 14.804 43.6409 14.676C43.7049 14.5373 43.7369 14.388 43.7369 14.228C43.7369 13.9507 43.6355 13.7267 43.4329 13.556C43.3262 13.4813 43.1555 13.4013 42.9209 13.316C42.6969 13.22 42.4035 13.124 42.0409 13.028C41.4222 12.868 40.9155 12.6867 40.5209 12.484C40.1262 12.2813 39.8222 12.052 39.6089 11.796C39.4489 11.5933 39.3315 11.3747 39.2569 11.14C39.1822 10.8947 39.1449 10.628 39.1449 10.34C39.1449 9.988 39.2195 9.668 39.3689 9.38C39.5289 9.08133 39.7422 8.82533 40.0089 8.612C40.2862 8.388 40.6062 8.21733 40.9689 8.1C41.3422 7.98267 41.7369 7.924 42.1529 7.924C42.5475 7.924 42.9369 7.97733 43.3209 8.084C43.7155 8.19067 44.0782 8.34533 44.4089 8.548C44.7395 8.75067 45.0169 8.99067 45.2409 9.268L44.2969 10.308C44.0942 10.1053 43.8702 9.92933 43.6249 9.78C43.3902 9.62 43.1502 9.49733 42.9049 9.412C42.6595 9.32667 42.4355 9.284 42.2329 9.284C42.0089 9.284 41.8062 9.30533 41.6249 9.348C41.4435 9.39067 41.2889 9.45467 41.1609 9.54C41.0435 9.62533 40.9529 9.732 40.8889 9.86C40.8249 9.988 40.7929 10.132 40.7929 10.292C40.8035 10.4307 40.8355 10.564 40.8889 10.692C40.9529 10.8093 41.0382 10.9107 41.1449 10.996C41.2622 11.0813 41.4382 11.172 41.6729 11.268C41.9075 11.364 42.2062 11.4547 42.5689 11.54C43.1022 11.6787 43.5395 11.8333 43.8809 12.004C44.2329 12.164 44.5102 12.3507 44.7129 12.564C44.9262 12.7667 45.0755 13.0013 45.1609 13.268C45.2462 13.5347 45.2889 13.8333 45.2889 14.164C45.2889 14.644 45.1502 15.076 44.8729 15.46C44.6062 15.8333 44.2435 16.1267 43.7849 16.34C43.3262 16.5533 42.8142 16.66 42.2489 16.66ZM47.1051 16.5V4.66H48.7531V9.828L48.4651 10.02C48.5718 9.64667 48.7798 9.30533 49.0891 8.996C49.3985 8.676 49.7665 8.42 50.1931 8.228C50.6198 8.02533 51.0571 7.924 51.5051 7.924C52.1451 7.924 52.6785 8.052 53.1051 8.308C53.5318 8.55333 53.8518 8.932 54.0651 9.444C54.2785 9.956 54.3851 10.6013 54.3851 11.38V16.5H52.7371V11.492C52.7371 11.012 52.6731 10.6173 52.5451 10.308C52.4171 9.988 52.2198 9.75867 51.9531 9.62C51.6865 9.47067 51.3558 9.40667 50.9611 9.428C50.6411 9.428 50.3478 9.48133 50.0811 9.588C49.8145 9.684 49.5798 9.82267 49.3771 10.004C49.1851 10.1853 49.0305 10.3987 48.9131 10.644C48.8065 10.8787 48.7531 11.1347 48.7531 11.412V16.5H47.9371C47.7985 16.5 47.6598 16.5 47.5211 16.5C47.3825 16.5 47.2438 16.5 47.1051 16.5ZM60.5408 16.66C59.6768 16.66 58.9088 16.4787 58.2368 16.116C57.5754 15.7427 57.0528 15.236 56.6688 14.596C56.2954 13.956 56.1088 13.22 56.1088 12.388C56.1088 11.7267 56.2154 11.124 56.4288 10.58C56.6421 10.036 56.9354 9.56667 57.3088 9.172C57.6928 8.76667 58.1461 8.45733 58.6688 8.244C59.2021 8.02 59.7781 7.908 60.3968 7.908C60.9408 7.908 61.4474 8.01467 61.9168 8.228C62.3861 8.43067 62.7914 8.71333 63.1328 9.076C63.4848 9.43867 63.7514 9.87067 63.9328 10.372C64.1248 10.8627 64.2154 11.4013 64.2048 11.988L64.1888 12.692H57.3248L56.9568 11.38H62.7648L62.5248 11.652V11.268C62.4928 10.916 62.3754 10.6013 62.1728 10.324C61.9701 10.0467 61.7141 9.828 61.4048 9.668C61.0954 9.508 60.7594 9.428 60.3968 9.428C59.8208 9.428 59.3354 9.54 58.9408 9.764C58.5461 9.97733 58.2474 10.2973 58.0448 10.724C57.8421 11.14 57.7408 11.6573 57.7408 12.276C57.7408 12.8627 57.8634 13.3747 58.1088 13.812C58.3541 14.2387 58.7008 14.5693 59.1488 14.804C59.5968 15.0387 60.1141 15.156 60.7008 15.156C61.1168 15.156 61.5008 15.0867 61.8528 14.948C62.2154 14.8093 62.6048 14.5587 63.0208 14.196L63.8528 15.364C63.5968 15.62 63.2821 15.844 62.9088 16.036C62.5461 16.228 62.1568 16.3827 61.7408 16.5C61.3354 16.6067 60.9354 16.66 60.5408 16.66ZM69.4998 16.66C68.7318 16.66 68.0438 16.4733 67.4358 16.1C66.8384 15.716 66.3638 15.1987 66.0118 14.548C65.6598 13.8867 65.4838 13.1347 65.4838 12.292C65.4838 11.4493 65.6544 10.7027 65.9958 10.052C66.3478 9.39067 66.8224 8.87333 67.4198 8.5C68.0171 8.116 68.6944 7.924 69.4518 7.924C69.8678 7.924 70.2678 7.99333 70.6518 8.132C71.0464 8.26 71.3984 8.44133 71.7078 8.676C72.0171 8.9 72.2571 9.15067 72.4278 9.428C72.6091 9.69467 72.6998 9.96667 72.6998 10.244L72.2198 10.276V4.66H73.8678V16.5H72.2198V14.5H72.5398C72.5398 14.756 72.4544 15.012 72.2838 15.268C72.1131 15.5133 71.8838 15.7427 71.5958 15.956C71.3184 16.1693 70.9931 16.34 70.6198 16.468C70.2571 16.596 69.8838 16.66 69.4998 16.66ZM69.7238 15.236C70.2251 15.236 70.6678 15.108 71.0518 14.852C71.4358 14.596 71.7344 14.2493 71.9478 13.812C72.1718 13.364 72.2838 12.8573 72.2838 12.292C72.2838 11.7267 72.1718 11.2253 71.9478 10.788C71.7344 10.34 71.4358 9.988 71.0518 9.732C70.6678 9.476 70.2251 9.348 69.7238 9.348C69.2224 9.348 68.7798 9.476 68.3958 9.732C68.0118 9.988 67.7078 10.34 67.4838 10.788C67.2704 11.2253 67.1638 11.7267 67.1638 12.292C67.1638 12.8573 67.2704 13.364 67.4838 13.812C67.7078 14.2493 68.0118 14.596 68.3958 14.852C68.7798 15.108 69.2224 15.236 69.7238 15.236Z" fill="white"/>
</g>
</svg>
