<svg width="44" height="18" viewBox="0 0 44 18" fill="none" xmlns="http://www.w3.org/2000/svg">
<mask id="mask0_11_759" style="mask-type:luminance" maskUnits="userSpaceOnUse" x="0" y="0" width="44" height="18">
<path d="M44 0H0V18H44V0Z" fill="white"/>
</mask>
<g mask="url(#mask0_11_759)">
<path d="M1.372 15V5.2H5.208C5.908 5.2 6.538 5.31667 7.098 5.55C7.66733 5.78333 8.15267 6.11933 8.554 6.558C8.95533 6.99667 9.26333 7.51467 9.478 8.112C9.69267 8.70933 9.8 9.372 9.8 10.1C9.8 10.828 9.69267 11.4953 9.478 12.102C9.26333 12.6993 8.95533 13.2173 8.554 13.656C8.162 14.0853 7.68133 14.4167 7.112 14.65C6.54267 14.8833 5.908 15 5.208 15H1.372ZM2.884 13.698L2.842 13.544H5.138C5.63267 13.544 6.07133 13.4647 6.454 13.306C6.846 13.1473 7.17267 12.9233 7.434 12.634C7.70467 12.3353 7.91 11.9713 8.05 11.542C8.19 11.1127 8.26 10.632 8.26 10.1C8.26 9.568 8.19 9.092 8.05 8.672C7.91 8.24267 7.70467 7.87867 7.434 7.58C7.16333 7.28133 6.83667 7.05267 6.454 6.894C6.07133 6.73533 5.63267 6.656 5.138 6.656H2.8L2.884 6.53V13.698ZM14.9107 15.14C14.1547 15.14 13.4827 14.9813 12.8947 14.664C12.316 14.3373 11.8587 13.894 11.5227 13.334C11.196 12.774 11.0327 12.13 11.0327 11.402C11.0327 10.8233 11.126 10.296 11.3127 9.82C11.4993 9.344 11.756 8.93333 12.0827 8.588C12.4187 8.23333 12.8153 7.96267 13.2727 7.776C13.7393 7.58 14.2433 7.482 14.7847 7.482C15.2607 7.482 15.704 7.57533 16.1147 7.762C16.5253 7.93933 16.88 8.18667 17.1787 8.504C17.4867 8.82133 17.72 9.19933 17.8787 9.638C18.0467 10.0673 18.126 10.5387 18.1167 11.052L18.1027 11.668H12.0967L11.7747 10.52H16.8567L16.6467 10.758V10.422C16.6187 10.114 16.516 9.83867 16.3387 9.596C16.1613 9.35333 15.9373 9.162 15.6667 9.022C15.396 8.882 15.102 8.812 14.7847 8.812C14.2807 8.812 13.856 8.91 13.5107 9.106C13.1653 9.29267 12.904 9.57267 12.7267 9.946C12.5493 10.31 12.4607 10.7627 12.4607 11.304C12.4607 11.8173 12.568 12.2653 12.7827 12.648C12.9973 13.0213 13.3007 13.3107 13.6927 13.516C14.0847 13.7213 14.5373 13.824 15.0507 13.824C15.4147 13.824 15.7507 13.7633 16.0587 13.642C16.376 13.5207 16.7167 13.3013 17.0807 12.984L17.8087 14.006C17.5847 14.23 17.3093 14.426 16.9827 14.594C16.6653 14.762 16.3247 14.8973 15.9607 15C15.606 15.0933 15.256 15.14 14.9107 15.14ZM19.7118 15V4.64H21.1538V15H19.7118ZM26.4907 15.14C25.7347 15.14 25.0627 14.9813 24.4747 14.664C23.8961 14.3373 23.4387 13.894 23.1027 13.334C22.7761 12.774 22.6127 12.13 22.6127 11.402C22.6127 10.8233 22.7061 10.296 22.8927 9.82C23.0794 9.344 23.3361 8.93333 23.6627 8.588C23.9987 8.23333 24.3954 7.96267 24.8527 7.776C25.3194 7.58 25.8234 7.482 26.3647 7.482C26.8407 7.482 27.2841 7.57533 27.6947 7.762C28.1054 7.93933 28.4601 8.18667 28.7587 8.504C29.0667 8.82133 29.3001 9.19933 29.4587 9.638C29.6267 10.0673 29.7061 10.5387 29.6967 11.052L29.6827 11.668H23.6767L23.3547 10.52H28.4367L28.2267 10.758V10.422C28.1987 10.114 28.0961 9.83867 27.9187 9.596C27.7414 9.35333 27.5174 9.162 27.2467 9.022C26.9761 8.882 26.6821 8.812 26.3647 8.812C25.8607 8.812 25.4361 8.91 25.0907 9.106C24.7454 9.29267 24.4841 9.57267 24.3067 9.946C24.1294 10.31 24.0407 10.7627 24.0407 11.304C24.0407 11.8173 24.1481 12.2653 24.3627 12.648C24.5774 13.0213 24.8807 13.3107 25.2727 13.516C25.6647 13.7213 26.1174 13.824 26.6307 13.824C26.9947 13.824 27.3307 13.7633 27.6387 13.642C27.9561 13.5207 28.2967 13.3013 28.6607 12.984L29.3887 14.006C29.1647 14.23 28.8894 14.426 28.5627 14.594C28.2454 14.762 27.9047 14.8973 27.5407 15C27.1861 15.0933 26.8361 15.14 26.4907 15.14ZM32.1739 15V5.774H33.6159V15H32.1739ZM30.6479 9.05V7.65H35.3239V9.05H30.6479ZM39.9985 15.14C39.2425 15.14 38.5705 14.9813 37.9825 14.664C37.4039 14.3373 36.9465 13.894 36.6105 13.334C36.2839 12.774 36.1205 12.13 36.1205 11.402C36.1205 10.8233 36.2139 10.296 36.4005 9.82C36.5872 9.344 36.8439 8.93333 37.1705 8.588C37.5065 8.23333 37.9032 7.96267 38.3605 7.776C38.8272 7.58 39.3312 7.482 39.8725 7.482C40.3485 7.482 40.7919 7.57533 41.2025 7.762C41.6132 7.93933 41.9679 8.18667 42.2665 8.504C42.5745 8.82133 42.8079 9.19933 42.9665 9.638C43.1345 10.0673 43.2139 10.5387 43.2045 11.052L43.1905 11.668H37.1845L36.8625 10.52H41.9445L41.7345 10.758V10.422C41.7065 10.114 41.6039 9.83867 41.4265 9.596C41.2492 9.35333 41.0252 9.162 40.7545 9.022C40.4839 8.882 40.1899 8.812 39.8725 8.812C39.3685 8.812 38.9439 8.91 38.5985 9.106C38.2532 9.29267 37.9919 9.57267 37.8145 9.946C37.6372 10.31 37.5485 10.7627 37.5485 11.304C37.5485 11.8173 37.6559 12.2653 37.8705 12.648C38.0852 13.0213 38.3885 13.3107 38.7805 13.516C39.1725 13.7213 39.6252 13.824 40.1385 13.824C40.5025 13.824 40.8385 13.7633 41.1465 13.642C41.4639 13.5207 41.8045 13.3013 42.1685 12.984L42.8965 14.006C42.6725 14.23 42.3972 14.426 42.0705 14.594C41.7532 14.762 41.4125 14.8973 41.0485 15C40.6939 15.0933 40.3439 15.14 39.9985 15.14Z" fill="#DC143C"/>
</g>
</svg>
