<svg width="47" height="17" viewBox="0 0 47 17" fill="none" xmlns="http://www.w3.org/2000/svg">
<mask id="mask0_14_5013" style="mask-type:luminance" maskUnits="userSpaceOnUse" x="0" y="0" width="47" height="17">
<path d="M47 0H0V17H47V0Z" fill="white"/>
</mask>
<g mask="url(#mask0_14_5013)">
<path d="M4.83984 4.92871L1.54492 14H0.198242L3.99219 4.04688H4.86035L4.83984 4.92871ZM7.60156 14L4.2998 4.92871L4.2793 4.04688H5.14746L8.95508 14H7.60156ZM7.43066 10.3154V11.3955H1.83887V10.3154H7.43066ZM13.0566 13.0977C13.3574 13.0977 13.6354 13.0361 13.8906 12.9131C14.1458 12.79 14.3555 12.6214 14.5195 12.4072C14.6836 12.1885 14.777 11.9401 14.7998 11.6621H16.0029C15.9801 12.0996 15.832 12.5075 15.5586 12.8857C15.2897 13.2594 14.9365 13.5625 14.499 13.7949C14.0615 14.0228 13.5807 14.1367 13.0566 14.1367C12.5007 14.1367 12.0153 14.0387 11.6006 13.8428C11.1904 13.6468 10.8486 13.3779 10.5752 13.0361C10.3063 12.6943 10.1035 12.3024 9.9668 11.8604C9.83464 11.4137 9.76855 10.9421 9.76855 10.4453V10.1582C9.76855 9.66146 9.83464 9.19206 9.9668 8.75C10.1035 8.30339 10.3063 7.90918 10.5752 7.56738C10.8486 7.22559 11.1904 6.95671 11.6006 6.76074C12.0153 6.56478 12.5007 6.4668 13.0566 6.4668C13.6354 6.4668 14.1413 6.58529 14.5742 6.82227C15.0072 7.05469 15.3467 7.3737 15.5928 7.7793C15.8434 8.18034 15.9801 8.63607 16.0029 9.14648H14.7998C14.777 8.84115 14.6904 8.56543 14.54 8.31934C14.3942 8.07324 14.1937 7.87728 13.9385 7.73145C13.6878 7.58105 13.3939 7.50586 13.0566 7.50586C12.6693 7.50586 12.3434 7.58333 12.0791 7.73828C11.8193 7.88867 11.612 8.09375 11.457 8.35352C11.3066 8.60872 11.1973 8.89355 11.1289 9.20801C11.0651 9.5179 11.0332 9.83464 11.0332 10.1582V10.4453C11.0332 10.7689 11.0651 11.0879 11.1289 11.4023C11.1927 11.7168 11.2998 12.0016 11.4502 12.2568C11.6051 12.512 11.8125 12.7171 12.0723 12.8721C12.3366 13.0225 12.6647 13.0977 13.0566 13.0977ZM20.5215 6.60352V7.57422H16.5225V6.60352H20.5215ZM17.876 4.80566H19.1406V12.168C19.1406 12.4186 19.1794 12.6077 19.2568 12.7354C19.3343 12.863 19.4346 12.9473 19.5576 12.9883C19.6807 13.0293 19.8128 13.0498 19.9541 13.0498C20.0589 13.0498 20.1683 13.0407 20.2822 13.0225C20.4007 12.9997 20.4896 12.9814 20.5488 12.9678L20.5557 14C20.4554 14.0319 20.3232 14.0615 20.1592 14.0889C19.9997 14.1208 19.806 14.1367 19.5781 14.1367C19.2682 14.1367 18.9834 14.0752 18.7236 13.9521C18.4639 13.8291 18.2565 13.624 18.1016 13.3369C17.9512 13.0452 17.876 12.6533 17.876 12.1611V4.80566ZM23.3789 6.60352V14H22.1074V6.60352H23.3789ZM22.0117 4.6416C22.0117 4.43652 22.0732 4.26335 22.1963 4.12207C22.3239 3.98079 22.5107 3.91016 22.7568 3.91016C22.9984 3.91016 23.1829 3.98079 23.3105 4.12207C23.4427 4.26335 23.5088 4.43652 23.5088 4.6416C23.5088 4.83757 23.4427 5.00618 23.3105 5.14746C23.1829 5.28418 22.9984 5.35254 22.7568 5.35254C22.5107 5.35254 22.3239 5.28418 22.1963 5.14746C22.0732 5.00618 22.0117 4.83757 22.0117 4.6416ZM27.6582 12.8584L29.6816 6.60352H30.9736L28.3145 14H27.4668L27.6582 12.8584ZM25.9697 6.60352L28.0547 12.8926L28.1982 14H27.3506L24.6709 6.60352H25.9697ZM35.1641 14.1367C34.6491 14.1367 34.182 14.0501 33.7627 13.877C33.348 13.6992 32.9902 13.4508 32.6895 13.1318C32.3932 12.8128 32.1654 12.4346 32.0059 11.9971C31.8464 11.5596 31.7666 11.0811 31.7666 10.5615V10.2744C31.7666 9.67285 31.8555 9.13737 32.0332 8.66797C32.2109 8.19401 32.4525 7.79297 32.7578 7.46484C33.0632 7.13672 33.4095 6.88835 33.7969 6.71973C34.1842 6.55111 34.5853 6.4668 35 6.4668C35.5286 6.4668 35.9844 6.55794 36.3672 6.74023C36.7546 6.92253 37.0713 7.17773 37.3174 7.50586C37.5635 7.82943 37.7458 8.21224 37.8643 8.6543C37.9827 9.0918 38.042 9.57031 38.042 10.0898V10.6572H32.5186V9.625H36.7773V9.5293C36.7591 9.20117 36.6908 8.88216 36.5723 8.57227C36.4583 8.26237 36.276 8.00716 36.0254 7.80664C35.7747 7.60612 35.4329 7.50586 35 7.50586C34.7129 7.50586 34.4486 7.56738 34.207 7.69043C33.9655 7.80892 33.7581 7.98665 33.585 8.22363C33.4118 8.46061 33.2773 8.75 33.1816 9.0918C33.0859 9.43359 33.0381 9.8278 33.0381 10.2744V10.5615C33.0381 10.9124 33.0859 11.2428 33.1816 11.5527C33.2819 11.8581 33.4255 12.127 33.6123 12.3594C33.8037 12.5918 34.0339 12.7741 34.3027 12.9062C34.5762 13.0384 34.8861 13.1045 35.2324 13.1045C35.679 13.1045 36.0573 13.0133 36.3672 12.8311C36.6771 12.6488 36.9482 12.4049 37.1807 12.0996L37.9463 12.708C37.7868 12.9495 37.584 13.1797 37.3379 13.3984C37.0918 13.6172 36.7887 13.7949 36.4287 13.9316C36.0732 14.0684 35.6517 14.1367 35.1641 14.1367Z" fill="white"/>
</g>
</svg>
