<svg width="123" height="20" viewBox="0 0 123 20" fill="none" xmlns="http://www.w3.org/2000/svg">
<mask id="mask0_14_4150" style="mask-type:luminance" maskUnits="userSpaceOnUse" x="0" y="0" width="123" height="20">
<path d="M123 0H0V20H123V0Z" fill="white"/>
</mask>
<g mask="url(#mask0_14_4150)">
<path d="M1.568 18V6.8H6.336C6.976 6.8 7.56267 6.96 8.096 7.28C8.64 7.58933 9.072 8.016 9.392 8.56C9.712 9.09333 9.872 9.696 9.872 10.368C9.872 10.976 9.712 11.5413 9.392 12.064C9.072 12.5867 8.64533 13.008 8.112 13.328C7.57867 13.6373 6.98667 13.792 6.336 13.792H3.296V18H1.568ZM8.224 18L5.376 12.944L7.152 12.544L10.32 18.016L8.224 18ZM3.296 12.128H6.496C6.80533 12.128 7.08267 12.0533 7.328 11.904C7.57333 11.744 7.76533 11.5307 7.904 11.264C8.04267 10.9867 8.112 10.6827 8.112 10.352C8.112 9.97867 8.02133 9.65333 7.84 9.376C7.66933 9.088 7.424 8.864 7.104 8.704C6.79467 8.544 6.44267 8.464 6.048 8.464H3.296V12.128ZM15.8845 18.16C15.0205 18.16 14.2525 17.9787 13.5805 17.616C12.9192 17.2427 12.3965 16.736 12.0125 16.096C11.6392 15.456 11.4525 14.72 11.4525 13.888C11.4525 13.2267 11.5592 12.624 11.7725 12.08C11.9858 11.536 12.2792 11.0667 12.6525 10.672C13.0365 10.2667 13.4898 9.95733 14.0125 9.744C14.5458 9.52 15.1218 9.408 15.7405 9.408C16.2845 9.408 16.7912 9.51467 17.2605 9.728C17.7298 9.93067 18.1352 10.2133 18.4765 10.576C18.8285 10.9387 19.0952 11.3707 19.2765 11.872C19.4685 12.3627 19.5592 12.9013 19.5485 13.488L19.5325 14.192H12.6685L12.3005 12.88H18.1085L17.8685 13.152V12.768C17.8365 12.416 17.7192 12.1013 17.5165 11.824C17.3138 11.5467 17.0578 11.328 16.7485 11.168C16.4392 11.008 16.1032 10.928 15.7405 10.928C15.1645 10.928 14.6792 11.04 14.2845 11.264C13.8898 11.4773 13.5912 11.7973 13.3885 12.224C13.1858 12.64 13.0845 13.1573 13.0845 13.776C13.0845 14.3627 13.2072 14.8747 13.4525 15.312C13.6978 15.7387 14.0445 16.0693 14.4925 16.304C14.9405 16.5387 15.4578 16.656 16.0445 16.656C16.4605 16.656 16.8445 16.5867 17.1965 16.448C17.5592 16.3093 17.9485 16.0587 18.3645 15.696L19.1965 16.864C18.9405 17.12 18.6258 17.344 18.2525 17.536C17.8898 17.728 17.5005 17.8827 17.0845 18C16.6792 18.1067 16.2792 18.16 15.8845 18.16ZM24.5715 18.16C23.8782 18.16 23.2435 17.968 22.6675 17.584C22.1022 17.2 21.6488 16.6773 21.3075 16.016C20.9662 15.3547 20.7955 14.608 20.7955 13.776C20.7955 12.9333 20.9662 12.1867 21.3075 11.536C21.6595 10.8747 22.1288 10.3573 22.7155 9.984C23.3128 9.61067 23.9795 9.424 24.7155 9.424C25.1528 9.424 25.5528 9.488 25.9155 9.616C26.2782 9.744 26.5928 9.92533 26.8595 10.16C27.1368 10.384 27.3608 10.6453 27.5315 10.944C27.7128 11.2427 27.8248 11.5627 27.8675 11.904L27.4995 11.776V9.6H29.1635V18H27.4995V16L27.8835 15.888C27.8195 16.176 27.6862 16.4587 27.4835 16.736C27.2915 17.0027 27.0408 17.2427 26.7315 17.456C26.4328 17.6693 26.0968 17.84 25.7235 17.968C25.3608 18.096 24.9768 18.16 24.5715 18.16ZM25.0035 16.64C25.5048 16.64 25.9475 16.5173 26.3315 16.272C26.7155 16.0267 27.0142 15.6907 27.2275 15.264C27.4515 14.8267 27.5635 14.3307 27.5635 13.776C27.5635 13.232 27.4515 12.7467 27.2275 12.32C27.0142 11.8933 26.7155 11.5573 26.3315 11.312C25.9475 11.0667 25.5048 10.944 25.0035 10.944C24.5128 10.944 24.0755 11.0667 23.6915 11.312C23.3182 11.5573 23.0195 11.8933 22.7955 12.32C22.5822 12.7467 22.4755 13.232 22.4755 13.776C22.4755 14.3307 22.5822 14.8267 22.7955 15.264C23.0195 15.6907 23.3182 16.0267 23.6915 16.272C24.0755 16.5173 24.5128 16.64 25.0035 16.64ZM34.9685 18.16C34.2005 18.16 33.5125 17.9733 32.9045 17.6C32.3072 17.216 31.8325 16.6987 31.4805 16.048C31.1285 15.3867 30.9525 14.6347 30.9525 13.792C30.9525 12.9493 31.1232 12.2027 31.4645 11.552C31.8165 10.8907 32.2912 10.3733 32.8885 10C33.4858 9.616 34.1632 9.424 34.9205 9.424C35.3365 9.424 35.7365 9.49333 36.1205 9.632C36.5152 9.76 36.8672 9.94133 37.1765 10.176C37.4858 10.4 37.7258 10.6507 37.8965 10.928C38.0778 11.1947 38.1685 11.4667 38.1685 11.744L37.6885 11.776V6.16H39.3365V18H37.6885V16H38.0085C38.0085 16.256 37.9232 16.512 37.7525 16.768C37.5818 17.0133 37.3525 17.2427 37.0645 17.456C36.7872 17.6693 36.4618 17.84 36.0885 17.968C35.7258 18.096 35.3525 18.16 34.9685 18.16ZM35.1925 16.736C35.6938 16.736 36.1365 16.608 36.5205 16.352C36.9045 16.096 37.2032 15.7493 37.4165 15.312C37.6405 14.864 37.7525 14.3573 37.7525 13.792C37.7525 13.2267 37.6405 12.7253 37.4165 12.288C37.2032 11.84 36.9045 11.488 36.5205 11.232C36.1365 10.976 35.6938 10.848 35.1925 10.848C34.6912 10.848 34.2485 10.976 33.8645 11.232C33.4805 11.488 33.1765 11.84 32.9525 12.288C32.7392 12.7253 32.6325 13.2267 32.6325 13.792C32.6325 14.3573 32.7392 14.864 32.9525 15.312C33.1765 15.7493 33.4805 16.096 33.8645 16.352C34.2485 16.608 34.6912 16.736 35.1925 16.736ZM47.0015 18V8.656C47.0015 8.176 47.1082 7.74933 47.3215 7.376C47.5348 7.00267 47.8282 6.70933 48.2015 6.496C48.5748 6.28267 49.0068 6.176 49.4975 6.176C49.8388 6.176 50.1588 6.24 50.4575 6.368C50.7562 6.496 50.9962 6.66667 51.1775 6.88L50.6175 8.144C50.4788 8.016 50.3242 7.91467 50.1535 7.84C49.9935 7.75467 49.8388 7.712 49.6895 7.712C49.4655 7.712 49.2735 7.74933 49.1135 7.824C48.9642 7.888 48.8522 7.99467 48.7775 8.144C48.7028 8.28267 48.6655 8.45333 48.6655 8.656V18H47.8335C47.6948 18 47.5562 18 47.4175 18C47.2788 18 47.1402 18 47.0015 18ZM45.6575 11.264V9.744H50.6495V11.264H45.6575ZM55.3148 18.16C54.7174 18.16 54.1948 18.0213 53.7468 17.744C53.3094 17.4667 52.9681 17.0773 52.7228 16.576C52.4881 16.0747 52.3708 15.4773 52.3708 14.784V9.6H54.0188V14.336C54.0188 14.8267 54.0934 15.2533 54.2428 15.616C54.4028 15.968 54.6268 16.24 54.9148 16.432C55.2134 16.624 55.5708 16.72 55.9868 16.72C56.2961 16.72 56.5788 16.672 56.8348 16.576C57.0908 16.4693 57.3094 16.3253 57.4908 16.144C57.6828 15.9627 57.8321 15.744 57.9388 15.488C58.0454 15.232 58.0988 14.9547 58.0988 14.656V9.6H59.7468V18H58.0988V16.24L58.3868 16.048C58.2588 16.4427 58.0401 16.8 57.7308 17.12C57.4321 17.44 57.0748 17.696 56.6588 17.888C56.2428 18.0693 55.7948 18.16 55.3148 18.16ZM62.0903 18V6.16H63.7383V18H62.0903ZM66.1059 18V6.16H67.7539V18H66.1059ZM77.8059 18.16C77.1125 18.16 76.4779 17.968 75.9019 17.584C75.3365 17.2 74.8832 16.6773 74.5419 16.016C74.2005 15.3547 74.0299 14.608 74.0299 13.776C74.0299 12.9333 74.2005 12.1867 74.5419 11.536C74.8939 10.8747 75.3632 10.3573 75.9499 9.984C76.5472 9.61067 77.2139 9.424 77.9499 9.424C78.3872 9.424 78.7872 9.488 79.1499 9.616C79.5125 9.744 79.8272 9.92533 80.0939 10.16C80.3712 10.384 80.5952 10.6453 80.7659 10.944C80.9472 11.2427 81.0592 11.5627 81.1019 11.904L80.7339 11.776V9.6H82.3979V18H80.7339V16L81.1179 15.888C81.0539 16.176 80.9205 16.4587 80.7179 16.736C80.5259 17.0027 80.2752 17.2427 79.9659 17.456C79.6672 17.6693 79.3312 17.84 78.9579 17.968C78.5952 18.096 78.2112 18.16 77.8059 18.16ZM78.2379 16.64C78.7392 16.64 79.1819 16.5173 79.5659 16.272C79.9499 16.0267 80.2485 15.6907 80.4619 15.264C80.6859 14.8267 80.7979 14.3307 80.7979 13.776C80.7979 13.232 80.6859 12.7467 80.4619 12.32C80.2485 11.8933 79.9499 11.5573 79.5659 11.312C79.1819 11.0667 78.7392 10.944 78.2379 10.944C77.7472 10.944 77.3099 11.0667 76.9259 11.312C76.5525 11.5573 76.2539 11.8933 76.0299 12.32C75.8165 12.7467 75.7099 13.232 75.7099 13.776C75.7099 14.3307 75.8165 14.8267 76.0299 15.264C76.2539 15.6907 76.5525 16.0267 76.9259 16.272C77.3099 16.5173 77.7472 16.64 78.2379 16.64ZM84.6989 18V9.6H86.3629V12.24L86.2029 11.6C86.3202 11.1947 86.5175 10.8267 86.7949 10.496C87.0829 10.1653 87.4082 9.904 87.7709 9.712C88.1442 9.52 88.5282 9.424 88.9229 9.424C89.1042 9.424 89.2749 9.44 89.4349 9.472C89.6055 9.504 89.7389 9.54133 89.8349 9.584L89.4029 11.376C89.2749 11.3227 89.1309 11.28 88.9709 11.248C88.8215 11.2053 88.6722 11.184 88.5229 11.184C88.2349 11.184 87.9575 11.2427 87.6909 11.36C87.4349 11.4667 87.2055 11.6213 87.0029 11.824C86.8109 12.016 86.6562 12.2453 86.5389 12.512C86.4215 12.768 86.3629 13.0507 86.3629 13.36V18H84.6989ZM92.5045 18V7.456H94.1525V18H92.5045ZM90.7605 11.2V9.6H96.1045V11.2H90.7605ZM97.8771 18V9.6H99.5251V18H97.8771ZM98.6771 7.744C98.3251 7.744 98.0531 7.65333 97.8611 7.472C97.6691 7.29067 97.5731 7.03467 97.5731 6.704C97.5731 6.39467 97.6691 6.144 97.8611 5.952C98.0638 5.76 98.3358 5.664 98.6771 5.664C99.0291 5.664 99.3011 5.75467 99.4931 5.936C99.6851 6.11733 99.7811 6.37333 99.7811 6.704C99.7811 7.01333 99.6798 7.264 99.4771 7.456C99.2851 7.648 99.0185 7.744 98.6771 7.744ZM105.626 18.16C104.848 18.16 104.149 17.968 103.53 17.584C102.922 17.2 102.437 16.6773 102.074 16.016C101.722 15.3547 101.546 14.6133 101.546 13.792C101.546 12.9707 101.722 12.2293 102.074 11.568C102.437 10.9067 102.922 10.384 103.53 10C104.149 9.616 104.848 9.424 105.626 9.424C106.373 9.424 107.05 9.57867 107.658 9.888C108.277 10.1867 108.746 10.5973 109.066 11.12L108.154 12.24C107.984 11.9947 107.765 11.7707 107.498 11.568C107.232 11.3653 106.949 11.2053 106.65 11.088C106.352 10.9707 106.064 10.912 105.786 10.912C105.274 10.912 104.816 11.04 104.41 11.296C104.016 11.5413 103.701 11.8827 103.466 12.32C103.232 12.7573 103.114 13.248 103.114 13.792C103.114 14.336 103.237 14.8267 103.482 15.264C103.728 15.6907 104.053 16.032 104.458 16.288C104.864 16.544 105.312 16.672 105.802 16.672C106.09 16.672 106.368 16.624 106.634 16.528C106.912 16.432 107.178 16.288 107.434 16.096C107.69 15.904 107.93 15.6693 108.154 15.392L109.066 16.512C108.725 16.992 108.234 17.3867 107.594 17.696C106.965 18.0053 106.309 18.16 105.626 18.16ZM110.653 18V6.16H112.301V18H110.653ZM118.4 18.16C117.536 18.16 116.768 17.9787 116.096 17.616C115.435 17.2427 114.912 16.736 114.528 16.096C114.155 15.456 113.968 14.72 113.968 13.888C113.968 13.2267 114.075 12.624 114.288 12.08C114.501 11.536 114.795 11.0667 115.168 10.672C115.552 10.2667 116.005 9.95733 116.528 9.744C117.061 9.52 117.637 9.408 118.256 9.408C118.8 9.408 119.307 9.51467 119.776 9.728C120.245 9.93067 120.651 10.2133 120.992 10.576C121.344 10.9387 121.611 11.3707 121.792 11.872C121.984 12.3627 122.075 12.9013 122.064 13.488L122.048 14.192H115.184L114.816 12.88H120.624L120.384 13.152V12.768C120.352 12.416 120.235 12.1013 120.032 11.824C119.829 11.5467 119.573 11.328 119.264 11.168C118.955 11.008 118.619 10.928 118.256 10.928C117.68 10.928 117.195 11.04 116.8 11.264C116.405 11.4773 116.107 11.7973 115.904 12.224C115.701 12.64 115.6 13.1573 115.6 13.776C115.6 14.3627 115.723 14.8747 115.968 15.312C116.213 15.7387 116.56 16.0693 117.008 16.304C117.456 16.5387 117.973 16.656 118.56 16.656C118.976 16.656 119.36 16.5867 119.712 16.448C120.075 16.3093 120.464 16.0587 120.88 15.696L121.712 16.864C121.456 17.12 121.141 17.344 120.768 17.536C120.405 17.728 120.016 17.8827 119.6 18C119.195 18.1067 118.795 18.16 118.4 18.16Z" fill="#DC143C"/>
</g>
</svg>
