<svg width="14" height="14" viewBox="0 0 14 14" fill="none" xmlns="http://www.w3.org/2000/svg">
<g clip-path="url(#clip0_14_5048)">
<path d="M9.78542 2.8L11.9778 4.99236C12.0701 5.08473 12.0701 5.23542 11.9778 5.32778L6.66944 10.6361L4.41389 10.8865C4.1125 10.9205 3.85729 10.6653 3.89132 10.3639L4.14167 8.10834L9.45 2.8C9.54236 2.70764 9.69306 2.70764 9.78542 2.8ZM13.7229 2.24341L12.5368 1.0573C12.1674 0.687851 11.567 0.687851 11.1951 1.0573L10.3347 1.91771C10.2424 2.01007 10.2424 2.16077 10.3347 2.25313L12.5271 4.44549C12.6194 4.53785 12.7701 4.53785 12.8625 4.44549L13.7229 3.58507C14.0924 3.2132 14.0924 2.61285 13.7229 2.24341ZM9.33333 9.19237V11.6667H1.55556V3.88889H7.14097C7.21875 3.88889 7.29167 3.8573 7.34757 3.80382L8.31979 2.8316C8.50451 2.64688 8.37326 2.33334 8.11319 2.33334H1.16667C0.522569 2.33334 0 2.85591 0 3.5V12.0556C0 12.6997 0.522569 13.2222 1.16667 13.2222H9.72222C10.3663 13.2222 10.8889 12.6997 10.8889 12.0556V8.22014C10.8889 7.96007 10.5753 7.83125 10.3906 8.01355L9.4184 8.98577C9.36493 9.04167 9.33333 9.11459 9.33333 9.19237Z" fill="black"/>
</g>
<defs>
<clipPath id="clip0_14_5048">
<rect width="14" height="14" fill="white"/>
</clipPath>
</defs>
</svg>
