<svg width="116" height="19" viewBox="0 0 116 19" fill="none" xmlns="http://www.w3.org/2000/svg">
<mask id="mask0_11_1936" style="mask-type:luminance" maskUnits="userSpaceOnUse" x="0" y="0" width="116" height="19">
<path d="M116 0H0V19H116V0Z" fill="white"/>
</mask>
<g mask="url(#mask0_11_1936)">
<path d="M1.32031 5.125H5.08594C5.9401 5.125 6.66146 5.25521 7.25 5.51562C7.84375 5.77604 8.29427 6.16146 8.60156 6.67188C8.91406 7.17708 9.07031 7.79948 9.07031 8.53906C9.07031 9.0599 8.96354 9.53646 8.75 9.96875C8.54167 10.3958 8.23958 10.7604 7.84375 11.0625C7.45312 11.3594 6.98438 11.5807 6.4375 11.7266L6.01562 11.8906H2.47656L2.46094 10.6641H5.13281C5.67448 10.6641 6.125 10.5703 6.48438 10.3828C6.84375 10.1901 7.11458 9.93229 7.29688 9.60938C7.47917 9.28646 7.57031 8.92969 7.57031 8.53906C7.57031 8.10156 7.48438 7.71875 7.3125 7.39062C7.14062 7.0625 6.86979 6.8099 6.5 6.63281C6.13542 6.45052 5.66406 6.35938 5.08594 6.35938H2.82812V16.5H1.32031V5.125ZM7.96875 16.5L5.20312 11.3438L6.77344 11.3359L9.57812 16.4062V16.5H7.96875ZM14.4688 16.6562C13.8802 16.6562 13.3464 16.5573 12.8672 16.3594C12.3932 16.1562 11.9844 15.8724 11.6406 15.5078C11.3021 15.1432 11.0417 14.7109 10.8594 14.2109C10.6771 13.7109 10.5859 13.1641 10.5859 12.5703V12.2422C10.5859 11.5547 10.6875 10.9427 10.8906 10.4062C11.0938 9.86458 11.3698 9.40625 11.7188 9.03125C12.0677 8.65625 12.4635 8.3724 12.9062 8.17969C13.349 7.98698 13.8073 7.89062 14.2812 7.89062C14.8854 7.89062 15.4062 7.99479 15.8438 8.20312C16.2865 8.41146 16.6484 8.70312 16.9297 9.07812C17.2109 9.44792 17.4193 9.88542 17.5547 10.3906C17.6901 10.8906 17.7578 11.4375 17.7578 12.0312V12.6797H11.4453V11.5H16.3125V11.3906C16.2917 11.0156 16.2135 10.651 16.0781 10.2969C15.9479 9.94271 15.7396 9.65104 15.4531 9.42188C15.1667 9.19271 14.776 9.07812 14.2812 9.07812C13.9531 9.07812 13.651 9.14844 13.375 9.28906C13.099 9.42448 12.862 9.6276 12.6641 9.89844C12.4661 10.1693 12.3125 10.5 12.2031 10.8906C12.0938 11.2812 12.0391 11.7318 12.0391 12.2422V12.5703C12.0391 12.9714 12.0938 13.349 12.2031 13.7031C12.3177 14.0521 12.4818 14.3594 12.6953 14.625C12.9141 14.8906 13.1771 15.099 13.4844 15.25C13.7969 15.401 14.151 15.4766 14.5469 15.4766C15.0573 15.4766 15.4896 15.3724 15.8438 15.1641C16.1979 14.9557 16.5078 14.6771 16.7734 14.3281L17.6484 15.0234C17.4661 15.2995 17.2344 15.5625 16.9531 15.8125C16.6719 16.0625 16.3255 16.2656 15.9141 16.4219C15.5078 16.5781 15.026 16.6562 14.4688 16.6562ZM24.4297 15.0547V10.7031C24.4297 10.3698 24.362 10.0807 24.2266 9.83594C24.0964 9.58594 23.8984 9.39323 23.6328 9.25781C23.3672 9.1224 23.0391 9.05469 22.6484 9.05469C22.2839 9.05469 21.9635 9.11719 21.6875 9.24219C21.4167 9.36719 21.2031 9.53125 21.0469 9.73438C20.8958 9.9375 20.8203 10.1562 20.8203 10.3906H19.375C19.375 10.0885 19.4531 9.78906 19.6094 9.49219C19.7656 9.19531 19.9896 8.92708 20.2812 8.6875C20.5781 8.44271 20.9323 8.25 21.3438 8.10938C21.7604 7.96354 22.224 7.89062 22.7344 7.89062C23.349 7.89062 23.8906 7.99479 24.3594 8.20312C24.8333 8.41146 25.2031 8.72656 25.4688 9.14844C25.7396 9.5651 25.875 10.0885 25.875 10.7188V14.6562C25.875 14.9375 25.8984 15.237 25.9453 15.5547C25.9974 15.8724 26.0729 16.1458 26.1719 16.375V16.5H24.6641C24.5911 16.3333 24.5339 16.112 24.4922 15.8359C24.4505 15.5547 24.4297 15.2943 24.4297 15.0547ZM24.6797 11.375L24.6953 12.3906H23.2344C22.8229 12.3906 22.4557 12.4245 22.1328 12.4922C21.8099 12.5547 21.5391 12.651 21.3203 12.7812C21.1016 12.9115 20.9349 13.0755 20.8203 13.2734C20.7057 13.4661 20.6484 13.6927 20.6484 13.9531C20.6484 14.2188 20.7083 14.4609 20.8281 14.6797C20.9479 14.8984 21.1276 15.0729 21.3672 15.2031C21.612 15.3281 21.9115 15.3906 22.2656 15.3906C22.7083 15.3906 23.099 15.2969 23.4375 15.1094C23.776 14.9219 24.0443 14.6927 24.2422 14.4219C24.4453 14.151 24.5547 13.888 24.5703 13.6328L25.1875 14.3281C25.151 14.5469 25.0521 14.7891 24.8906 15.0547C24.7292 15.3203 24.513 15.5755 24.2422 15.8203C23.9766 16.0599 23.6589 16.2604 23.2891 16.4219C22.9245 16.5781 22.513 16.6562 22.0547 16.6562C21.4818 16.6562 20.9792 16.5443 20.5469 16.3203C20.1198 16.0964 19.7865 15.7969 19.5469 15.4219C19.3125 15.0417 19.1953 14.6172 19.1953 14.1484C19.1953 13.6953 19.2839 13.2969 19.4609 12.9531C19.638 12.6042 19.8932 12.3151 20.2266 12.0859C20.5599 11.8516 20.9609 11.6745 21.4297 11.5547C21.8984 11.4349 22.4219 11.375 23 11.375H24.6797ZM33.4766 14.8594V4.5H34.9297V16.5H33.6016L33.4766 14.8594ZM27.7891 12.3672V12.2031C27.7891 11.5573 27.8672 10.9714 28.0234 10.4453C28.1849 9.91406 28.4115 9.45833 28.7031 9.07812C29 8.69792 29.3516 8.40625 29.7578 8.20312C30.1693 7.99479 30.6276 7.89062 31.1328 7.89062C31.6641 7.89062 32.1276 7.98438 32.5234 8.17188C32.9245 8.35417 33.263 8.6224 33.5391 8.97656C33.8203 9.32552 34.0417 9.7474 34.2031 10.2422C34.3646 10.737 34.4766 11.2969 34.5391 11.9219V12.6406C34.4818 13.2604 34.3698 13.8177 34.2031 14.3125C34.0417 14.8073 33.8203 15.2292 33.5391 15.5781C33.263 15.9271 32.9245 16.1953 32.5234 16.3828C32.1224 16.5651 31.6536 16.6562 31.1172 16.6562C30.6224 16.6562 30.1693 16.5495 29.7578 16.3359C29.3516 16.1224 29 15.8229 28.7031 15.4375C28.4115 15.0521 28.1849 14.599 28.0234 14.0781C27.8672 13.5521 27.7891 12.9818 27.7891 12.3672ZM29.2422 12.2031V12.3672C29.2422 12.7891 29.2839 13.1849 29.3672 13.5547C29.4557 13.9245 29.5911 14.25 29.7734 14.5312C29.9557 14.8125 30.1875 15.0339 30.4688 15.1953C30.75 15.3516 31.0859 15.4297 31.4766 15.4297C31.9557 15.4297 32.349 15.3281 32.6562 15.125C32.9688 14.9219 33.2188 14.6536 33.4062 14.3203C33.5938 13.987 33.7396 13.625 33.8438 13.2344V11.3516C33.7812 11.0651 33.6901 10.7891 33.5703 10.5234C33.4557 10.2526 33.3047 10.013 33.1172 9.80469C32.9349 9.59115 32.7083 9.42188 32.4375 9.29688C32.1719 9.17188 31.8568 9.10938 31.4922 9.10938C31.0964 9.10938 30.7552 9.19271 30.4688 9.35938C30.1875 9.52083 29.9557 9.74479 29.7734 10.0312C29.5911 10.3125 29.4557 10.6406 29.3672 11.0156C29.2839 11.3854 29.2422 11.7812 29.2422 12.2031ZM42.875 5.125V16.5H41.3672V5.125H42.875ZM47.6406 10.2422V11.4766H42.5469V10.2422H47.6406ZM48.4141 5.125V6.35938H42.5469V5.125H48.4141ZM54.9922 14.5469V8.04688H56.4453V16.5H55.0625L54.9922 14.5469ZM55.2656 12.7656L55.8672 12.75C55.8672 13.3125 55.8073 13.8333 55.6875 14.3125C55.5729 14.7865 55.3854 15.1979 55.125 15.5469C54.8646 15.8958 54.5234 16.1693 54.1016 16.3672C53.6797 16.5599 53.1667 16.6562 52.5625 16.6562C52.151 16.6562 51.7734 16.5964 51.4297 16.4766C51.0911 16.3568 50.7995 16.1719 50.5547 15.9219C50.3099 15.6719 50.1198 15.3464 49.9844 14.9453C49.8542 14.5443 49.7891 14.0625 49.7891 13.5V8.04688H51.2344V13.5156C51.2344 13.8958 51.276 14.2109 51.3594 14.4609C51.4479 14.7057 51.5651 14.901 51.7109 15.0469C51.862 15.1875 52.0286 15.2865 52.2109 15.3438C52.3984 15.401 52.5911 15.4297 52.7891 15.4297C53.4036 15.4297 53.8906 15.3125 54.25 15.0781C54.6094 14.8385 54.8672 14.5182 55.0234 14.1172C55.1849 13.7109 55.2656 13.2604 55.2656 12.7656ZM60.2188 4.5V16.5H58.7656V4.5H60.2188ZM64.1094 4.5V16.5H62.6562V4.5H64.1094ZM74.8281 6.13281L71.0625 16.5H69.5234L73.8594 5.125H74.8516L74.8281 6.13281ZM77.9844 16.5L74.2109 6.13281L74.1875 5.125H75.1797L79.5312 16.5H77.9844ZM77.7891 12.2891V13.5234H71.3984V12.2891H77.7891ZM82.2812 9.375V16.5H80.8359V8.04688H82.2422L82.2812 9.375ZM84.9219 8L84.9141 9.34375C84.7943 9.31771 84.6797 9.30208 84.5703 9.29688C84.4661 9.28646 84.3464 9.28125 84.2109 9.28125C83.8776 9.28125 83.5833 9.33333 83.3281 9.4375C83.0729 9.54167 82.8568 9.6875 82.6797 9.875C82.5026 10.0625 82.362 10.2865 82.2578 10.5469C82.1589 10.8021 82.0938 11.0833 82.0625 11.3906L81.6562 11.625C81.6562 11.1146 81.7057 10.6354 81.8047 10.1875C81.9089 9.73958 82.0677 9.34375 82.2812 9C82.4948 8.65104 82.7656 8.38021 83.0938 8.1875C83.4271 7.98958 83.8229 7.89062 84.2812 7.89062C84.3854 7.89062 84.5052 7.90365 84.6406 7.92969C84.776 7.95052 84.8698 7.97396 84.9219 8ZM90.1875 8.04688V9.15625H85.6172V8.04688H90.1875ZM87.1641 5.99219H88.6094V14.4062C88.6094 14.6927 88.6536 14.9089 88.7422 15.0547C88.8307 15.2005 88.9453 15.2969 89.0859 15.3438C89.2266 15.3906 89.3776 15.4141 89.5391 15.4141C89.6589 15.4141 89.7839 15.4036 89.9141 15.3828C90.0495 15.3568 90.151 15.3359 90.2188 15.3203L90.2266 16.5C90.112 16.5365 89.9609 16.5703 89.7734 16.6016C89.5911 16.638 89.3698 16.6562 89.1094 16.6562C88.7552 16.6562 88.4297 16.5859 88.1328 16.4453C87.8359 16.3047 87.599 16.0703 87.4219 15.7422C87.25 15.4089 87.1641 14.9609 87.1641 14.3984V5.99219ZM93.4531 8.04688V16.5H92V8.04688H93.4531ZM91.8906 5.80469C91.8906 5.57031 91.9609 5.3724 92.1016 5.21094C92.2474 5.04948 92.4609 4.96875 92.7422 4.96875C93.0182 4.96875 93.2292 5.04948 93.375 5.21094C93.526 5.3724 93.6016 5.57031 93.6016 5.80469C93.6016 6.02865 93.526 6.22135 93.375 6.38281C93.2292 6.53906 93.0182 6.61719 92.7422 6.61719C92.4609 6.61719 92.2474 6.53906 92.1016 6.38281C91.9609 6.22135 91.8906 6.02865 91.8906 5.80469ZM99.1562 15.4688C99.5 15.4688 99.8177 15.3984 100.109 15.2578C100.401 15.1172 100.641 14.9245 100.828 14.6797C101.016 14.4297 101.122 14.1458 101.148 13.8281H102.523C102.497 14.3281 102.328 14.7943 102.016 15.2266C101.708 15.6536 101.305 16 100.805 16.2656C100.305 16.526 99.7552 16.6562 99.1562 16.6562C98.5208 16.6562 97.9661 16.5443 97.4922 16.3203C97.0234 16.0964 96.6328 15.7891 96.3203 15.3984C96.013 15.0078 95.7812 14.5599 95.625 14.0547C95.474 13.5443 95.3984 13.0052 95.3984 12.4375V12.1094C95.3984 11.5417 95.474 11.0052 95.625 10.5C95.7812 9.98958 96.013 9.53906 96.3203 9.14844C96.6328 8.75781 97.0234 8.45052 97.4922 8.22656C97.9661 8.0026 98.5208 7.89062 99.1562 7.89062C99.8177 7.89062 100.396 8.02604 100.891 8.29688C101.385 8.5625 101.773 8.92708 102.055 9.39062C102.341 9.84896 102.497 10.3698 102.523 10.9531H101.148C101.122 10.6042 101.023 10.2891 100.852 10.0078C100.685 9.72656 100.456 9.5026 100.164 9.33594C99.8776 9.16406 99.5417 9.07812 99.1562 9.07812C98.7135 9.07812 98.3411 9.16667 98.0391 9.34375C97.7422 9.51562 97.5052 9.75 97.3281 10.0469C97.1562 10.3385 97.0312 10.6641 96.9531 11.0234C96.8802 11.3776 96.8438 11.7396 96.8438 12.1094V12.4375C96.8438 12.8073 96.8802 13.1719 96.9531 13.5312C97.026 13.8906 97.1484 14.2161 97.3203 14.5078C97.4974 14.7995 97.7344 15.0339 98.0312 15.2109C98.3333 15.3828 98.7083 15.4688 99.1562 15.4688ZM105.719 4.5V16.5H104.266V4.5H105.719ZM111.547 16.6562C110.958 16.6562 110.424 16.5573 109.945 16.3594C109.471 16.1562 109.062 15.8724 108.719 15.5078C108.38 15.1432 108.12 14.7109 107.938 14.2109C107.755 13.7109 107.664 13.1641 107.664 12.5703V12.2422C107.664 11.5547 107.766 10.9427 107.969 10.4062C108.172 9.86458 108.448 9.40625 108.797 9.03125C109.146 8.65625 109.542 8.3724 109.984 8.17969C110.427 7.98698 110.885 7.89062 111.359 7.89062C111.964 7.89062 112.484 7.99479 112.922 8.20312C113.365 8.41146 113.727 8.70312 114.008 9.07812C114.289 9.44792 114.497 9.88542 114.633 10.3906C114.768 10.8906 114.836 11.4375 114.836 12.0312V12.6797H108.523V11.5H113.391V11.3906C113.37 11.0156 113.292 10.651 113.156 10.2969C113.026 9.94271 112.818 9.65104 112.531 9.42188C112.245 9.19271 111.854 9.07812 111.359 9.07812C111.031 9.07812 110.729 9.14844 110.453 9.28906C110.177 9.42448 109.94 9.6276 109.742 9.89844C109.544 10.1693 109.391 10.5 109.281 10.8906C109.172 11.2812 109.117 11.7318 109.117 12.2422V12.5703C109.117 12.9714 109.172 13.349 109.281 13.7031C109.396 14.0521 109.56 14.3594 109.773 14.625C109.992 14.8906 110.255 15.099 110.562 15.25C110.875 15.401 111.229 15.4766 111.625 15.4766C112.135 15.4766 112.568 15.3724 112.922 15.1641C113.276 14.9557 113.586 14.6771 113.852 14.3281L114.727 15.0234C114.544 15.2995 114.312 15.5625 114.031 15.8125C113.75 16.0625 113.404 16.2656 112.992 16.4219C112.586 16.5781 112.104 16.6562 111.547 16.6562Z" fill="#3B82F6"/>
</g>
</svg>
