<svg width="24" height="24" viewBox="0 0 24 24" fill="none" xmlns="http://www.w3.org/2000/svg">
<g clip-path="url(#clip0_14_4265)">
<path d="M13.875 17.9999H10.125C9.50156 17.9999 9 17.4983 9 16.8749V8.9999H4.88906C4.05469 8.9999 3.6375 7.99209 4.22812 7.40146L11.3578 0.26709C11.7094 -0.0844726 12.2859 -0.0844726 12.6375 0.26709L19.7719 7.40146C20.3625 7.99209 19.9453 8.9999 19.1109 8.9999H15V16.8749C15 17.4983 14.4984 17.9999 13.875 17.9999ZM24 17.6249V22.8749C24 23.4983 23.4984 23.9999 22.875 23.9999H1.125C0.501562 23.9999 0 23.4983 0 22.8749V17.6249C0 17.0015 0.501562 16.4999 1.125 16.4999H7.5V16.8749C7.5 18.3233 8.67656 19.4999 10.125 19.4999H13.875C15.3234 19.4999 16.5 18.3233 16.5 16.8749V16.4999H22.875C23.4984 16.4999 24 17.0015 24 17.6249ZM18.1875 21.7499C18.1875 21.2343 17.7656 20.8124 17.25 20.8124C16.7344 20.8124 16.3125 21.2343 16.3125 21.7499C16.3125 22.2655 16.7344 22.6874 17.25 22.6874C17.7656 22.6874 18.1875 22.2655 18.1875 21.7499ZM21.1875 21.7499C21.1875 21.2343 20.7656 20.8124 20.25 20.8124C19.7344 20.8124 19.3125 21.2343 19.3125 21.7499C19.3125 22.2655 19.7344 22.6874 20.25 22.6874C20.7656 22.6874 21.1875 22.2655 21.1875 21.7499Z" fill="#DC143C"/>
</g>
<defs>
<clipPath id="clip0_14_4265">
<rect width="24" height="24" fill="white"/>
</clipPath>
</defs>
</svg>
