<svg width="49" height="18" viewBox="0 0 49 18" fill="none" xmlns="http://www.w3.org/2000/svg">
<mask id="mask0_11_733" style="mask-type:luminance" maskUnits="userSpaceOnUse" x="0" y="0" width="49" height="18">
<path d="M49 0H0V18H49V0Z" fill="white"/>
</mask>
<g mask="url(#mask0_11_733)">
<path d="M1.372 15V5.2H5.362C5.894 5.2 6.37467 5.33533 6.804 5.606C7.24267 5.86733 7.59267 6.22667 7.854 6.684C8.11533 7.14133 8.246 7.65 8.246 8.21C8.246 8.77 8.11533 9.27867 7.854 9.736C7.59267 10.1933 7.24267 10.562 6.804 10.842C6.37467 11.1127 5.894 11.248 5.362 11.248H2.884V15H1.372ZM2.884 9.792H5.334C5.586 9.792 5.81467 9.722 6.02 9.582C6.22533 9.43267 6.38867 9.24133 6.51 9.008C6.64067 8.76533 6.706 8.49933 6.706 8.21C6.706 7.92067 6.64067 7.65933 6.51 7.426C6.38867 7.19267 6.22533 7.006 6.02 6.866C5.81467 6.726 5.586 6.656 5.334 6.656H2.884V9.792ZM13.0483 15.14C12.3297 15.14 11.6857 14.9767 11.1163 14.65C10.5563 14.314 10.113 13.8613 9.78633 13.292C9.45966 12.7133 9.29633 12.0553 9.29633 11.318C9.29633 10.5807 9.45966 9.92733 9.78633 9.358C10.113 8.77933 10.5563 8.32667 11.1163 8C11.6857 7.664 12.3297 7.496 13.0483 7.496C13.7577 7.496 14.3923 7.664 14.9523 8C15.5217 8.32667 15.9697 8.77933 16.2963 9.358C16.623 9.92733 16.7863 10.5807 16.7863 11.318C16.7863 12.0553 16.623 12.7133 16.2963 13.292C15.9697 13.8613 15.5217 14.314 14.9523 14.65C14.3923 14.9767 13.7577 15.14 13.0483 15.14ZM13.0483 13.824C13.487 13.824 13.879 13.7167 14.2243 13.502C14.5697 13.278 14.8403 12.9793 15.0363 12.606C15.2323 12.2233 15.3257 11.794 15.3163 11.318C15.3257 10.8327 15.2323 10.4033 15.0363 10.03C14.8403 9.64733 14.5697 9.34867 14.2243 9.134C13.879 8.91933 13.487 8.812 13.0483 8.812C12.6097 8.812 12.213 8.924 11.8583 9.148C11.513 9.36267 11.2423 9.66133 11.0463 10.044C10.8503 10.4173 10.757 10.842 10.7663 11.318C10.757 11.794 10.8503 12.2233 11.0463 12.606C11.2423 12.9793 11.513 13.278 11.8583 13.502C12.213 13.7167 12.6097 13.824 13.0483 13.824ZM18.3856 15V4.64H19.8276V15H18.3856ZM22.1093 15V7.65H23.5513V15H22.1093ZM22.8093 6.026C22.5013 6.026 22.2633 5.94667 22.0953 5.788C21.9273 5.62933 21.8433 5.40533 21.8433 5.116C21.8433 4.84533 21.9273 4.626 22.0953 4.458C22.2726 4.29 22.5106 4.206 22.8093 4.206C23.1173 4.206 23.3553 4.28533 23.5233 4.444C23.6913 4.60267 23.7753 4.82667 23.7753 5.116C23.7753 5.38667 23.6866 5.606 23.5093 5.774C23.3413 5.942 23.1079 6.026 22.8093 6.026ZM26.6778 15V5.774H28.1198V15H26.6778ZM25.1518 9.05V7.65H29.8278V9.05H25.1518ZM31.3788 15V7.65H32.8208V15H31.3788ZM32.0788 6.026C31.7708 6.026 31.5328 5.94667 31.3648 5.788C31.1968 5.62933 31.1128 5.40533 31.1128 5.116C31.1128 4.84533 31.1968 4.626 31.3648 4.458C31.5421 4.29 31.7801 4.206 32.0788 4.206C32.3868 4.206 32.6248 4.28533 32.7928 4.444C32.9608 4.60267 33.0448 4.82667 33.0448 5.116C33.0448 5.38667 32.9561 5.606 32.7788 5.774C32.6108 5.942 32.3775 6.026 32.0788 6.026ZM38.1593 15.14C37.478 15.14 36.8666 14.972 36.3253 14.636C35.7933 14.3 35.3686 13.8427 35.0513 13.264C34.7433 12.6853 34.5893 12.0367 34.5893 11.318C34.5893 10.5993 34.7433 9.95067 35.0513 9.372C35.3686 8.79333 35.7933 8.336 36.3253 8C36.8666 7.664 37.478 7.496 38.1593 7.496C38.8126 7.496 39.4053 7.63133 39.9373 7.902C40.4786 8.16333 40.8893 8.52267 41.1693 8.98L40.3713 9.96C40.222 9.74533 40.0306 9.54933 39.7973 9.372C39.564 9.19467 39.3166 9.05467 39.0553 8.952C38.794 8.84933 38.542 8.798 38.2993 8.798C37.8513 8.798 37.45 8.91 37.0953 9.134C36.75 9.34867 36.4746 9.64733 36.2693 10.03C36.064 10.4127 35.9613 10.842 35.9613 11.318C35.9613 11.794 36.0686 12.2233 36.2833 12.606C36.498 12.9793 36.7826 13.278 37.1373 13.502C37.492 13.726 37.884 13.838 38.3133 13.838C38.5653 13.838 38.808 13.796 39.0413 13.712C39.284 13.628 39.5173 13.502 39.7413 13.334C39.9653 13.166 40.1753 12.9607 40.3713 12.718L41.1693 13.698C40.8706 14.118 40.4413 14.4633 39.8813 14.734C39.3306 15.0047 38.7566 15.14 38.1593 15.14ZM44.9795 15.14C44.3635 15.14 43.8082 15.0327 43.3135 14.818C42.8188 14.6033 42.4082 14.286 42.0815 13.866L43.0615 13.026C43.3415 13.3527 43.6448 13.5907 43.9715 13.74C44.3075 13.88 44.6855 13.95 45.1055 13.95C45.2735 13.95 45.4275 13.9313 45.5675 13.894C45.7168 13.8473 45.8428 13.782 45.9455 13.698C46.0575 13.614 46.1415 13.516 46.1975 13.404C46.2535 13.2827 46.2815 13.152 46.2815 13.012C46.2815 12.7693 46.1928 12.5733 46.0155 12.424C45.9222 12.3587 45.7728 12.2887 45.5675 12.214C45.3715 12.13 45.1148 12.046 44.7975 11.962C44.2562 11.822 43.8128 11.6633 43.4675 11.486C43.1222 11.3087 42.8562 11.108 42.6695 10.884C42.5295 10.7067 42.4268 10.5153 42.3615 10.31C42.2962 10.0953 42.2635 9.862 42.2635 9.61C42.2635 9.302 42.3288 9.022 42.4595 8.77C42.5995 8.50867 42.7862 8.28467 43.0195 8.098C43.2622 7.902 43.5422 7.75267 43.8595 7.65C44.1862 7.54733 44.5315 7.496 44.8955 7.496C45.2408 7.496 45.5815 7.54267 45.9175 7.636C46.2628 7.72933 46.5802 7.86467 46.8695 8.042C47.1588 8.21933 47.4015 8.42933 47.5975 8.672L46.7715 9.582C46.5942 9.40467 46.3982 9.25067 46.1835 9.12C45.9782 8.98 45.7682 8.87267 45.5535 8.798C45.3388 8.72333 45.1428 8.686 44.9655 8.686C44.7695 8.686 44.5922 8.70467 44.4335 8.742C44.2748 8.77933 44.1395 8.83533 44.0275 8.91C43.9248 8.98467 43.8455 9.078 43.7895 9.19C43.7335 9.302 43.7055 9.428 43.7055 9.568C43.7148 9.68933 43.7428 9.806 43.7895 9.918C43.8455 10.0207 43.9202 10.1093 44.0135 10.184C44.1162 10.2587 44.2702 10.338 44.4755 10.422C44.6808 10.506 44.9422 10.5853 45.2595 10.66C45.7262 10.7813 46.1088 10.9167 46.4075 11.066C46.7155 11.206 46.9582 11.3693 47.1355 11.556C47.3222 11.7333 47.4528 11.9387 47.5275 12.172C47.6022 12.4053 47.6395 12.6667 47.6395 12.956C47.6395 13.376 47.5182 13.754 47.2755 14.09C47.0422 14.4167 46.7248 14.6733 46.3235 14.86C45.9222 15.0467 45.4742 15.14 44.9795 15.14Z" fill="white"/>
</g>
</svg>
