<svg width="42" height="14" viewBox="0 0 42 14" fill="none" xmlns="http://www.w3.org/2000/svg">
<mask id="mask0_14_3194" style="mask-type:luminance" maskUnits="userSpaceOnUse" x="0" y="0" width="42" height="14">
<path d="M42 0H0V14H42V0Z" fill="white"/>
</mask>
<g mask="url(#mask0_14_3194)">
<path d="M2.20312 2.46875V11H1.07227V2.46875H2.20312ZM5.17969 6.01367V11H4.0957V4.66016H5.12109L5.17969 6.01367ZM4.92188 7.58984L4.4707 7.57227C4.47461 7.13867 4.53906 6.73828 4.66406 6.37109C4.78906 6 4.96484 5.67773 5.19141 5.4043C5.41797 5.13086 5.6875 4.91992 6 4.77148C6.31641 4.61914 6.66602 4.54297 7.04883 4.54297C7.36133 4.54297 7.64258 4.58594 7.89258 4.67188C8.14258 4.75391 8.35547 4.88672 8.53125 5.07031C8.71094 5.25391 8.84766 5.49219 8.94141 5.78516C9.03516 6.07422 9.08203 6.42773 9.08203 6.8457V11H7.99219V6.83398C7.99219 6.50195 7.94336 6.23633 7.8457 6.03711C7.74805 5.83398 7.60547 5.6875 7.41797 5.59766C7.23047 5.50391 7 5.45703 6.72656 5.45703C6.45703 5.45703 6.21094 5.51367 5.98828 5.62695C5.76953 5.74023 5.58008 5.89648 5.41992 6.0957C5.26367 6.29492 5.14062 6.52344 5.05078 6.78125C4.96484 7.03516 4.92188 7.30469 4.92188 7.58984ZM14.4668 9.91602V6.65234C14.4668 6.40234 14.416 6.18555 14.3145 6.00195C14.2168 5.81445 14.0684 5.66992 13.8691 5.56836C13.6699 5.4668 13.4238 5.41602 13.1309 5.41602C12.8574 5.41602 12.6172 5.46289 12.4102 5.55664C12.207 5.65039 12.0469 5.77344 11.9297 5.92578C11.8164 6.07812 11.7598 6.24219 11.7598 6.41797H10.6758C10.6758 6.19141 10.7344 5.9668 10.8516 5.74414C10.9688 5.52148 11.1367 5.32031 11.3555 5.14062C11.5781 4.95703 11.8438 4.8125 12.1523 4.70703C12.4648 4.59766 12.8125 4.54297 13.1953 4.54297C13.6562 4.54297 14.0625 4.62109 14.4141 4.77734C14.7695 4.93359 15.0469 5.16992 15.2461 5.48633C15.4492 5.79883 15.5508 6.19141 15.5508 6.66406V9.61719C15.5508 9.82812 15.5684 10.0527 15.6035 10.291C15.6426 10.5293 15.6992 10.7344 15.7734 10.9062V11H14.6426C14.5879 10.875 14.5449 10.709 14.5137 10.502C14.4824 10.291 14.4668 10.0957 14.4668 9.91602ZM14.6543 7.15625L14.666 7.91797H13.5703C13.2617 7.91797 12.9863 7.94336 12.7441 7.99414C12.502 8.04102 12.2988 8.11328 12.1348 8.21094C11.9707 8.30859 11.8457 8.43164 11.7598 8.58008C11.6738 8.72461 11.6309 8.89453 11.6309 9.08984C11.6309 9.28906 11.6758 9.4707 11.7656 9.63477C11.8555 9.79883 11.9902 9.92969 12.1699 10.0273C12.3535 10.1211 12.5781 10.168 12.8438 10.168C13.1758 10.168 13.4688 10.0977 13.7227 9.95703C13.9766 9.81641 14.1777 9.64453 14.3262 9.44141C14.4785 9.23828 14.5605 9.04102 14.5723 8.84961L15.0352 9.37109C15.0078 9.53516 14.9336 9.7168 14.8125 9.91602C14.6914 10.1152 14.5293 10.3066 14.3262 10.4902C14.127 10.6699 13.8887 10.8203 13.6113 10.9414C13.3379 11.0586 13.0293 11.1172 12.6855 11.1172C12.2559 11.1172 11.8789 11.0332 11.5547 10.8652C11.2344 10.6973 10.9844 10.4727 10.8047 10.1914C10.6289 9.90625 10.541 9.58789 10.541 9.23633C10.541 8.89648 10.6074 8.59766 10.7402 8.33984C10.873 8.07812 11.0645 7.86133 11.3145 7.68945C11.5645 7.51367 11.8652 7.38086 12.2168 7.29102C12.5684 7.20117 12.9609 7.15625 13.3945 7.15625H14.6543ZM19.793 10.2266C20.0508 10.2266 20.2891 10.1738 20.5078 10.0684C20.7266 9.96289 20.9062 9.81836 21.0469 9.63477C21.1875 9.44727 21.2676 9.23438 21.2871 8.99609H22.3184C22.2988 9.37109 22.1719 9.7207 21.9375 10.0449C21.707 10.3652 21.4043 10.625 21.0293 10.8242C20.6543 11.0195 20.2422 11.1172 19.793 11.1172C19.3164 11.1172 18.9004 11.0332 18.5449 10.8652C18.1934 10.6973 17.9004 10.4668 17.666 10.1738C17.4355 9.88086 17.2617 9.54492 17.1445 9.16602C17.0312 8.7832 16.9746 8.37891 16.9746 7.95312V7.70703C16.9746 7.28125 17.0312 6.87891 17.1445 6.5C17.2617 6.11719 17.4355 5.7793 17.666 5.48633C17.9004 5.19336 18.1934 4.96289 18.5449 4.79492C18.9004 4.62695 19.3164 4.54297 19.793 4.54297C20.2891 4.54297 20.7227 4.64453 21.0938 4.84766C21.4648 5.04688 21.7559 5.32031 21.9668 5.66797C22.1816 6.01172 22.2988 6.40234 22.3184 6.83984H21.2871C21.2676 6.57812 21.1934 6.3418 21.0645 6.13086C20.9395 5.91992 20.7676 5.75195 20.5488 5.62695C20.334 5.49805 20.082 5.43359 19.793 5.43359C19.4609 5.43359 19.1816 5.5 18.9551 5.63281C18.7324 5.76172 18.5547 5.9375 18.4219 6.16016C18.293 6.37891 18.1992 6.62305 18.1406 6.89258C18.0859 7.1582 18.0586 7.42969 18.0586 7.70703V7.95312C18.0586 8.23047 18.0859 8.50391 18.1406 8.77344C18.1953 9.04297 18.2871 9.28711 18.416 9.50586C18.5488 9.72461 18.7266 9.90039 18.9492 10.0332C19.1758 10.1621 19.457 10.2266 19.793 10.2266ZM26.1914 4.66016V5.49219H22.7637V4.66016H26.1914ZM23.9238 3.11914H25.0078V9.42969C25.0078 9.64453 25.041 9.80664 25.1074 9.91602C25.1738 10.0254 25.2598 10.0977 25.3652 10.1328C25.4707 10.168 25.584 10.1855 25.7051 10.1855C25.7949 10.1855 25.8887 10.1777 25.9863 10.1621C26.0879 10.1426 26.1641 10.127 26.2148 10.1152L26.2207 11C26.1348 11.0273 26.0215 11.0527 25.8809 11.0762C25.7441 11.1035 25.5781 11.1172 25.3828 11.1172C25.1172 11.1172 24.873 11.0645 24.6504 10.959C24.4277 10.8535 24.25 10.6777 24.1172 10.4316C23.9883 10.1816 23.9238 9.8457 23.9238 9.42383V3.11914ZM28.6406 4.66016V11H27.5508V4.66016H28.6406ZM27.4688 2.97852C27.4688 2.80273 27.5215 2.6543 27.627 2.5332C27.7363 2.41211 27.8965 2.35156 28.1074 2.35156C28.3145 2.35156 28.4727 2.41211 28.582 2.5332C28.6953 2.6543 28.752 2.80273 28.752 2.97852C28.752 3.14648 28.6953 3.29102 28.582 3.41211C28.4727 3.5293 28.3145 3.58789 28.1074 3.58789C27.8965 3.58789 27.7363 3.5293 27.627 3.41211C27.5215 3.29102 27.4688 3.14648 27.4688 2.97852ZM32.3086 10.0215L34.043 4.66016H35.1504L32.8711 11H32.1445L32.3086 10.0215ZM30.8613 4.66016L32.6484 10.0508L32.7715 11H32.0449L29.748 4.66016H30.8613ZM38.7422 11.1172C38.3008 11.1172 37.9004 11.043 37.541 10.8945C37.1855 10.7422 36.8789 10.5293 36.6211 10.2559C36.3672 9.98242 36.1719 9.6582 36.0352 9.2832C35.8984 8.9082 35.8301 8.49805 35.8301 8.05273V7.80664C35.8301 7.29102 35.9062 6.83203 36.0586 6.42969C36.2109 6.02344 36.418 5.67969 36.6797 5.39844C36.9414 5.11719 37.2383 4.9043 37.5703 4.75977C37.9023 4.61523 38.2461 4.54297 38.6016 4.54297C39.0547 4.54297 39.4453 4.62109 39.7734 4.77734C40.1055 4.93359 40.377 5.15234 40.5879 5.43359C40.7988 5.71094 40.9551 6.03906 41.0566 6.41797C41.1582 6.79297 41.209 7.20312 41.209 7.64844V8.13477H36.4746V7.25H40.125V7.16797C40.1094 6.88672 40.0508 6.61328 39.9492 6.34766C39.8516 6.08203 39.6953 5.86328 39.4805 5.69141C39.2656 5.51953 38.9727 5.43359 38.6016 5.43359C38.3555 5.43359 38.1289 5.48633 37.9219 5.5918C37.7148 5.69336 37.5371 5.8457 37.3887 6.04883C37.2402 6.25195 37.125 6.5 37.043 6.79297C36.9609 7.08594 36.9199 7.42383 36.9199 7.80664V8.05273C36.9199 8.35352 36.9609 8.63672 37.043 8.90234C37.1289 9.16406 37.252 9.39453 37.4121 9.59375C37.5762 9.79297 37.7734 9.94922 38.0039 10.0625C38.2383 10.1758 38.5039 10.2324 38.8008 10.2324C39.1836 10.2324 39.5078 10.1543 39.7734 9.99805C40.0391 9.8418 40.2715 9.63281 40.4707 9.37109L41.127 9.89258C40.9902 10.0996 40.8164 10.2969 40.6055 10.4844C40.3945 10.6719 40.1348 10.8242 39.8262 10.9414C39.5215 11.0586 39.1602 11.1172 38.7422 11.1172Z" fill="white"/>
</g>
</svg>
