<svg width="57" height="17" viewBox="0 0 57 17" fill="none" xmlns="http://www.w3.org/2000/svg">
<mask id="mask0_14_5076" style="mask-type:luminance" maskUnits="userSpaceOnUse" x="0" y="0" width="57" height="17">
<path d="M57 0H0V17H57V0Z" fill="white"/>
</mask>
<g mask="url(#mask0_14_5076)">
<path d="M4.70312 9.34473H2.18066L2.16699 8.28516H4.45703C4.83529 8.28516 5.16569 8.22135 5.44824 8.09375C5.73079 7.96615 5.94954 7.78385 6.10449 7.54688C6.264 7.30534 6.34375 7.01823 6.34375 6.68555C6.34375 6.32096 6.27311 6.02474 6.13184 5.79688C5.99512 5.56445 5.7832 5.39583 5.49609 5.29102C5.21354 5.18164 4.85352 5.12695 4.41602 5.12695H2.47461V14H1.15527V4.04688H4.41602C4.92643 4.04688 5.38216 4.09928 5.7832 4.2041C6.18424 4.30436 6.52376 4.46387 6.80176 4.68262C7.08431 4.89681 7.2985 5.17025 7.44434 5.50293C7.59017 5.83561 7.66309 6.23438 7.66309 6.69922C7.66309 7.10938 7.55827 7.48079 7.34863 7.81348C7.139 8.1416 6.84733 8.41048 6.47363 8.62012C6.10449 8.82975 5.67155 8.96419 5.1748 9.02344L4.70312 9.34473ZM4.6416 14H1.66113L2.40625 12.9268H4.6416C5.06087 12.9268 5.41634 12.8538 5.70801 12.708C6.00423 12.5622 6.22982 12.3571 6.38477 12.0928C6.53971 11.8239 6.61719 11.5072 6.61719 11.1426C6.61719 10.7734 6.55111 10.4544 6.41895 10.1855C6.28678 9.91667 6.07943 9.70931 5.79688 9.56348C5.51432 9.41764 5.14974 9.34473 4.70312 9.34473H2.82324L2.83691 8.28516H5.40723L5.6875 8.66797C6.16602 8.70898 6.57161 8.8457 6.9043 9.07812C7.23698 9.30599 7.48991 9.59766 7.66309 9.95312C7.84082 10.3086 7.92969 10.7005 7.92969 11.1289C7.92969 11.7487 7.79297 12.2728 7.51953 12.7012C7.25065 13.125 6.87012 13.4486 6.37793 13.6719C5.88574 13.8906 5.30697 14 4.6416 14ZM11.0605 3.5V14H9.78906V3.5H11.0605ZM12.7559 10.3838V10.2266C12.7559 9.69336 12.8333 9.19889 12.9883 8.74316C13.1432 8.28288 13.3665 7.88411 13.6582 7.54688C13.9499 7.20508 14.3031 6.94076 14.7178 6.75391C15.1325 6.5625 15.5973 6.4668 16.1123 6.4668C16.6318 6.4668 17.099 6.5625 17.5137 6.75391C17.9329 6.94076 18.2884 7.20508 18.5801 7.54688C18.8763 7.88411 19.1019 8.28288 19.2568 8.74316C19.4118 9.19889 19.4893 9.69336 19.4893 10.2266V10.3838C19.4893 10.917 19.4118 11.4115 19.2568 11.8672C19.1019 12.3229 18.8763 12.7217 18.5801 13.0635C18.2884 13.4007 17.9352 13.665 17.5205 13.8564C17.1104 14.0433 16.6455 14.1367 16.126 14.1367C15.6064 14.1367 15.1393 14.0433 14.7246 13.8564C14.3099 13.665 13.9544 13.4007 13.6582 13.0635C13.3665 12.7217 13.1432 12.3229 12.9883 11.8672C12.8333 11.4115 12.7559 10.917 12.7559 10.3838ZM14.0205 10.2266V10.3838C14.0205 10.7529 14.0638 11.1016 14.1504 11.4297C14.237 11.7533 14.3669 12.0404 14.54 12.291C14.7178 12.5417 14.9388 12.7399 15.2031 12.8857C15.4674 13.027 15.7751 13.0977 16.126 13.0977C16.4723 13.0977 16.7754 13.027 17.0352 12.8857C17.2995 12.7399 17.5182 12.5417 17.6914 12.291C17.8646 12.0404 17.9945 11.7533 18.0811 11.4297C18.1722 11.1016 18.2178 10.7529 18.2178 10.3838V10.2266C18.2178 9.86198 18.1722 9.5179 18.0811 9.19434C17.9945 8.86621 17.8623 8.57682 17.6846 8.32617C17.5114 8.07096 17.2926 7.87044 17.0283 7.72461C16.7686 7.57878 16.4632 7.50586 16.1123 7.50586C15.766 7.50586 15.4606 7.57878 15.1963 7.72461C14.9365 7.87044 14.7178 8.07096 14.54 8.32617C14.3669 8.57682 14.237 8.86621 14.1504 9.19434C14.0638 9.5179 14.0205 9.86198 14.0205 10.2266ZM24.0352 13.0977C24.3359 13.0977 24.6139 13.0361 24.8691 12.9131C25.1243 12.79 25.334 12.6214 25.498 12.4072C25.6621 12.1885 25.7555 11.9401 25.7783 11.6621H26.9814C26.9587 12.0996 26.8105 12.5075 26.5371 12.8857C26.2682 13.2594 25.915 13.5625 25.4775 13.7949C25.04 14.0228 24.5592 14.1367 24.0352 14.1367C23.4792 14.1367 22.9938 14.0387 22.5791 13.8428C22.1689 13.6468 21.8271 13.3779 21.5537 13.0361C21.2848 12.6943 21.082 12.3024 20.9453 11.8604C20.8132 11.4137 20.7471 10.9421 20.7471 10.4453V10.1582C20.7471 9.66146 20.8132 9.19206 20.9453 8.75C21.082 8.30339 21.2848 7.90918 21.5537 7.56738C21.8271 7.22559 22.1689 6.95671 22.5791 6.76074C22.9938 6.56478 23.4792 6.4668 24.0352 6.4668C24.6139 6.4668 25.1198 6.58529 25.5527 6.82227C25.9857 7.05469 26.3252 7.3737 26.5713 7.7793C26.8219 8.18034 26.9587 8.63607 26.9814 9.14648H25.7783C25.7555 8.84115 25.6689 8.56543 25.5186 8.31934C25.3727 8.07324 25.1722 7.87728 24.917 7.73145C24.6663 7.58105 24.3724 7.50586 24.0352 7.50586C23.6478 7.50586 23.3219 7.58333 23.0576 7.73828C22.7979 7.88867 22.5905 8.09375 22.4355 8.35352C22.2852 8.60872 22.1758 8.89355 22.1074 9.20801C22.0436 9.5179 22.0117 9.83464 22.0117 10.1582V10.4453C22.0117 10.7689 22.0436 11.0879 22.1074 11.4023C22.1712 11.7168 22.2783 12.0016 22.4287 12.2568C22.5837 12.512 22.791 12.7171 23.0508 12.8721C23.3151 13.0225 23.6432 13.0977 24.0352 13.0977ZM29.6748 3.5V14H28.4033V3.5H29.6748ZM34.1934 6.60352L30.9668 10.0557L29.1621 11.9287L29.0596 10.582L30.3516 9.03711L32.6484 6.60352H34.1934ZM33.0381 14L30.3994 10.4727L31.0557 9.34473L34.5283 14H33.0381ZM38.4316 14.1367C37.9167 14.1367 37.4495 14.0501 37.0303 13.877C36.6156 13.6992 36.2578 13.4508 35.957 13.1318C35.6608 12.8128 35.4329 12.4346 35.2734 11.9971C35.1139 11.5596 35.0342 11.0811 35.0342 10.5615V10.2744C35.0342 9.67285 35.123 9.13737 35.3008 8.66797C35.4785 8.19401 35.7201 7.79297 36.0254 7.46484C36.3307 7.13672 36.6771 6.88835 37.0645 6.71973C37.4518 6.55111 37.8529 6.4668 38.2676 6.4668C38.7962 6.4668 39.252 6.55794 39.6348 6.74023C40.0221 6.92253 40.3389 7.17773 40.585 7.50586C40.8311 7.82943 41.0133 8.21224 41.1318 8.6543C41.2503 9.0918 41.3096 9.57031 41.3096 10.0898V10.6572H35.7861V9.625H40.0449V9.5293C40.0267 9.20117 39.9583 8.88216 39.8398 8.57227C39.7259 8.26237 39.5436 8.00716 39.293 7.80664C39.0423 7.60612 38.7005 7.50586 38.2676 7.50586C37.9805 7.50586 37.7161 7.56738 37.4746 7.69043C37.2331 7.80892 37.0257 7.98665 36.8525 8.22363C36.6794 8.46061 36.5449 8.75 36.4492 9.0918C36.3535 9.43359 36.3057 9.8278 36.3057 10.2744V10.5615C36.3057 10.9124 36.3535 11.2428 36.4492 11.5527C36.5495 11.8581 36.693 12.127 36.8799 12.3594C37.0713 12.5918 37.3014 12.7741 37.5703 12.9062C37.8438 13.0384 38.1536 13.1045 38.5 13.1045C38.9466 13.1045 39.3249 13.0133 39.6348 12.8311C39.9447 12.6488 40.2158 12.4049 40.4482 12.0996L41.2139 12.708C41.0544 12.9495 40.8516 13.1797 40.6055 13.3984C40.3594 13.6172 40.0563 13.7949 39.6963 13.9316C39.3408 14.0684 38.9193 14.1367 38.4316 14.1367ZM47.4482 12.5645V3.5H48.7197V14H47.5576L47.4482 12.5645ZM42.4717 10.3838V10.2402C42.4717 9.67513 42.54 9.16243 42.6768 8.70215C42.818 8.2373 43.0163 7.83854 43.2715 7.50586C43.5312 7.17318 43.8389 6.91797 44.1943 6.74023C44.5544 6.55794 44.9554 6.4668 45.3975 6.4668C45.8623 6.4668 46.2679 6.54883 46.6143 6.71289C46.9652 6.8724 47.2614 7.1071 47.5029 7.41699C47.749 7.72233 47.9427 8.09147 48.084 8.52441C48.2253 8.95736 48.3232 9.44727 48.3779 9.99414V10.623C48.3278 11.1654 48.2298 11.653 48.084 12.0859C47.9427 12.5189 47.749 12.888 47.5029 13.1934C47.2614 13.4987 46.9652 13.7334 46.6143 13.8975C46.2633 14.057 45.8532 14.1367 45.3838 14.1367C44.9508 14.1367 44.5544 14.0433 44.1943 13.8564C43.8389 13.6696 43.5312 13.4076 43.2715 13.0703C43.0163 12.7331 42.818 12.3366 42.6768 11.8809C42.54 11.4206 42.4717 10.9215 42.4717 10.3838ZM43.7432 10.2402V10.3838C43.7432 10.7529 43.7796 11.0993 43.8525 11.4229C43.93 11.7464 44.0485 12.0312 44.208 12.2773C44.3675 12.5234 44.5703 12.7171 44.8164 12.8584C45.0625 12.9951 45.3564 13.0635 45.6982 13.0635C46.1175 13.0635 46.4616 12.9746 46.7305 12.7969C47.0039 12.6191 47.2227 12.3844 47.3867 12.0928C47.5508 11.8011 47.6784 11.4844 47.7695 11.1426V9.49512C47.7148 9.24447 47.6351 9.00293 47.5303 8.77051C47.43 8.53353 47.2979 8.32389 47.1338 8.1416C46.9743 7.95475 46.776 7.80664 46.5391 7.69727C46.3066 7.58789 46.0309 7.5332 45.7119 7.5332C45.3656 7.5332 45.0671 7.60612 44.8164 7.75195C44.5703 7.89323 44.3675 8.08919 44.208 8.33984C44.0485 8.58594 43.93 8.87305 43.8525 9.20117C43.7796 9.52474 43.7432 9.87109 43.7432 10.2402Z" fill="black"/>
</g>
</svg>
