<svg width="34" height="18" viewBox="0 0 34 18" fill="none" xmlns="http://www.w3.org/2000/svg">
<mask id="mask0_11_832" style="mask-type:luminance" maskUnits="userSpaceOnUse" x="0" y="0" width="34" height="18">
<path d="M34 0H0V18H34V0Z" fill="white"/>
</mask>
<g mask="url(#mask0_11_832)">
<path d="M4.256 15L0.336 5.2H2.058L4.396 11.15C4.508 11.4393 4.606 11.7007 4.69 11.934C4.78333 12.1673 4.86267 12.382 4.928 12.578C4.99333 12.7647 5.054 12.942 5.11 13.11C5.166 13.278 5.222 13.446 5.278 13.614L4.914 13.628C4.97933 13.404 5.04933 13.1707 5.124 12.928C5.19867 12.6853 5.28267 12.4193 5.376 12.13C5.47867 11.8407 5.6 11.514 5.74 11.15L7.91 5.2H9.674L5.726 15H4.256ZM11.2538 15V7.65H12.6958V15H11.2538ZM11.9538 6.026C11.6458 6.026 11.4078 5.94667 11.2398 5.788C11.0718 5.62933 10.9878 5.40533 10.9878 5.116C10.9878 4.84533 11.0718 4.626 11.2398 4.458C11.4171 4.29 11.6551 4.206 11.9538 4.206C12.2618 4.206 12.4998 4.28533 12.6678 4.444C12.8358 4.60267 12.9198 4.82667 12.9198 5.116C12.9198 5.38667 12.8311 5.606 12.6538 5.774C12.4858 5.942 12.2525 6.026 11.9538 6.026ZM18.3423 15.14C17.5863 15.14 16.9143 14.9813 16.3263 14.664C15.7476 14.3373 15.2903 13.894 14.9543 13.334C14.6276 12.774 14.4643 12.13 14.4643 11.402C14.4643 10.8233 14.5576 10.296 14.7443 9.82C14.931 9.344 15.1876 8.93333 15.5143 8.588C15.8503 8.23333 16.247 7.96267 16.7043 7.776C17.171 7.58 17.675 7.482 18.2163 7.482C18.6923 7.482 19.1356 7.57533 19.5463 7.762C19.957 7.93933 20.3116 8.18667 20.6103 8.504C20.9183 8.82133 21.1516 9.19933 21.3103 9.638C21.4783 10.0673 21.5576 10.5387 21.5483 11.052L21.5343 11.668H15.5283L15.2063 10.52H20.2883L20.0783 10.758V10.422C20.0503 10.114 19.9476 9.83867 19.7703 9.596C19.593 9.35333 19.369 9.162 19.0983 9.022C18.8276 8.882 18.5336 8.812 18.2163 8.812C17.7123 8.812 17.2876 8.91 16.9423 9.106C16.597 9.29267 16.3356 9.57267 16.1583 9.946C15.981 10.31 15.8923 10.7627 15.8923 11.304C15.8923 11.8173 15.9996 12.2653 16.2143 12.648C16.429 13.0213 16.7323 13.3107 17.1243 13.516C17.5163 13.7213 17.969 13.824 18.4823 13.824C18.8463 13.824 19.1823 13.7633 19.4903 13.642C19.8076 13.5207 20.1483 13.3013 20.5123 12.984L21.2403 14.006C21.0163 14.23 20.741 14.426 20.4143 14.594C20.097 14.762 19.7563 14.8973 19.3923 15C19.0376 15.0933 18.6876 15.14 18.3423 15.14ZM24.7847 15L22.2787 7.65L23.7347 7.636L25.5267 13.138L25.2047 13.11L27.1507 8.812H28.0187L29.9787 13.124L29.6007 13.152L31.4067 7.65H32.8627L30.3847 15H29.3907L27.3467 10.324L27.6687 10.366L25.7647 15H24.7847Z" fill="#DC143C"/>
</g>
</svg>
