<svg width="110" height="24" viewBox="0 0 110 24" fill="none" xmlns="http://www.w3.org/2000/svg">
<mask id="mask0_14_3560" style="mask-type:luminance" maskUnits="userSpaceOnUse" x="0" y="0" width="110" height="24">
<path d="M109.744 0H0V23.7284H109.744V0Z" fill="white"/>
</mask>
<g mask="url(#mask0_14_3560)">
<path d="M6.112 18.16C5.33333 18.16 4.61867 18.0213 3.968 17.744C3.31733 17.4667 2.752 17.072 2.272 16.56C1.792 16.0373 1.41867 15.424 1.152 14.72C0.896 14.016 0.768 13.2427 0.768 12.4C0.768 11.6 0.906667 10.8587 1.184 10.176C1.472 9.48267 1.86667 8.87467 2.368 8.352C2.86933 7.82933 3.45067 7.424 4.112 7.136C4.77333 6.848 5.488 6.704 6.256 6.704C6.8 6.704 7.328 6.78933 7.84 6.96C8.36267 7.12 8.832 7.34933 9.248 7.648C9.67467 7.936 10.0213 8.26667 10.288 8.64L9.136 9.84C8.82667 9.53067 8.512 9.27467 8.192 9.072C7.88267 8.85867 7.56267 8.69867 7.232 8.592C6.912 8.48533 6.58667 8.432 6.256 8.432C5.73333 8.432 5.24267 8.53333 4.784 8.736C4.336 8.928 3.94133 9.2 3.6 9.552C3.26933 9.904 3.008 10.3253 2.816 10.816C2.624 11.296 2.528 11.824 2.528 12.4C2.528 13.008 2.61867 13.5627 2.8 14.064C2.992 14.5547 3.25867 14.976 3.6 15.328C3.94133 15.68 4.34667 15.952 4.816 16.144C5.296 16.3253 5.824 16.416 6.4 16.416C6.752 16.416 7.09867 16.368 7.44 16.272C7.78133 16.176 8.10133 16.0373 8.4 15.856C8.69867 15.6747 8.97067 15.4613 9.216 15.216L10.08 16.624C9.83467 16.912 9.49867 17.1733 9.072 17.408C8.656 17.6427 8.18667 17.8293 7.664 17.968C7.152 18.096 6.63467 18.16 6.112 18.16ZM15.2434 18.16C14.55 18.16 13.9154 17.968 13.3394 17.584C12.774 17.2 12.3207 16.6773 11.9794 16.016C11.638 15.3547 11.4674 14.608 11.4674 13.776C11.4674 12.9333 11.638 12.1867 11.9794 11.536C12.3314 10.8747 12.8007 10.3573 13.3874 9.984C13.9847 9.61067 14.6514 9.424 15.3874 9.424C15.8247 9.424 16.2247 9.488 16.5874 9.616C16.95 9.744 17.2647 9.92533 17.5314 10.16C17.8087 10.384 18.0327 10.6453 18.2034 10.944C18.3847 11.2427 18.4967 11.5627 18.5394 11.904L18.1714 11.776V9.6H19.8354V18H18.1714V16L18.5554 15.888C18.4914 16.176 18.358 16.4587 18.1554 16.736C17.9634 17.0027 17.7127 17.2427 17.4034 17.456C17.1047 17.6693 16.7687 17.84 16.3954 17.968C16.0327 18.096 15.6487 18.16 15.2434 18.16ZM15.6754 16.64C16.1767 16.64 16.6194 16.5173 17.0034 16.272C17.3874 16.0267 17.686 15.6907 17.8994 15.264C18.1234 14.8267 18.2354 14.3307 18.2354 13.776C18.2354 13.232 18.1234 12.7467 17.8994 12.32C17.686 11.8933 17.3874 11.5573 17.0034 11.312C16.6194 11.0667 16.1767 10.944 15.6754 10.944C15.1847 10.944 14.7474 11.0667 14.3634 11.312C13.99 11.5573 13.6914 11.8933 13.4674 12.32C13.254 12.7467 13.1474 13.232 13.1474 13.776C13.1474 14.3307 13.254 14.8267 13.4674 15.264C13.6914 15.6907 13.99 16.0267 14.3634 16.272C14.7474 16.5173 15.1847 16.64 15.6754 16.64ZM23.1764 18V7.456H24.8244V18H23.1764ZM21.4324 11.2V9.6H26.7764V11.2H21.4324ZM32.1189 18.16C31.2549 18.16 30.4869 17.9787 29.8149 17.616C29.1535 17.2427 28.6309 16.736 28.2469 16.096C27.8735 15.456 27.6869 14.72 27.6869 13.888C27.6869 13.2267 27.7935 12.624 28.0069 12.08C28.2202 11.536 28.5135 11.0667 28.8869 10.672C29.2709 10.2667 29.7242 9.95733 30.2469 9.744C30.7802 9.52 31.3562 9.408 31.9749 9.408C32.5189 9.408 33.0255 9.51467 33.4949 9.728C33.9642 9.93067 34.3695 10.2133 34.7109 10.576C35.0629 10.9387 35.3295 11.3707 35.5109 11.872C35.7029 12.3627 35.7935 12.9013 35.7829 13.488L35.7669 14.192H28.9029L28.5349 12.88H34.3429L34.1029 13.152V12.768C34.0709 12.416 33.9535 12.1013 33.7509 11.824C33.5482 11.5467 33.2922 11.328 32.9829 11.168C32.6735 11.008 32.3375 10.928 31.9749 10.928C31.3989 10.928 30.9135 11.04 30.5189 11.264C30.1242 11.4773 29.8255 11.7973 29.6229 12.224C29.4202 12.64 29.3189 13.1573 29.3189 13.776C29.3189 14.3627 29.4415 14.8747 29.6869 15.312C29.9322 15.7387 30.2789 16.0693 30.7269 16.304C31.1749 16.5387 31.6922 16.656 32.2789 16.656C32.6949 16.656 33.0789 16.5867 33.4309 16.448C33.7935 16.3093 34.1829 16.0587 34.5989 15.696L35.4309 16.864C35.1749 17.12 34.8602 17.344 34.4869 17.536C34.1242 17.728 33.7349 17.8827 33.3189 18C32.9135 18.1067 32.5135 18.16 32.1189 18.16ZM41.2558 21.68C40.6584 21.68 40.0611 21.584 39.4638 21.392C38.8771 21.2107 38.4024 20.9707 38.0398 20.672L38.6478 19.392C38.8611 19.552 39.1118 19.6907 39.3998 19.808C39.6878 19.936 39.9918 20.032 40.3118 20.096C40.6318 20.1707 40.9464 20.208 41.2558 20.208C41.8424 20.208 42.3331 20.112 42.7278 19.92C43.1224 19.728 43.4211 19.4453 43.6238 19.072C43.8264 18.6987 43.9278 18.2347 43.9278 17.68V16.064L44.1038 16.176C44.0504 16.5067 43.8744 16.8267 43.5758 17.136C43.2878 17.4347 42.9251 17.68 42.4878 17.872C42.0504 18.064 41.6024 18.16 41.1438 18.16C40.3438 18.16 39.6291 17.9733 38.9998 17.6C38.3811 17.216 37.8904 16.6987 37.5278 16.048C37.1651 15.3867 36.9838 14.6347 36.9838 13.792C36.9838 12.9493 37.1598 12.2027 37.5118 11.552C37.8744 10.8907 38.3651 10.3733 38.9838 10C39.6131 9.616 40.3171 9.424 41.0958 9.424C41.4158 9.424 41.7251 9.46667 42.0238 9.552C42.3224 9.62667 42.5998 9.73867 42.8558 9.888C43.1118 10.0267 43.3411 10.1813 43.5438 10.352C43.7464 10.5227 43.9118 10.704 44.0398 10.896C44.1678 11.088 44.2478 11.2693 44.2798 11.44L43.9278 11.568V9.6H45.5758V17.488C45.5758 18.16 45.4744 18.752 45.2718 19.264C45.0798 19.7867 44.7971 20.224 44.4237 20.576C44.0504 20.9387 43.5971 21.2107 43.0638 21.392C42.5304 21.584 41.9278 21.68 41.2558 21.68ZM41.3198 16.64C41.8424 16.64 42.3064 16.5173 42.7118 16.272C43.1171 16.0267 43.4318 15.6907 43.6558 15.264C43.8798 14.8373 43.9918 14.3467 43.9918 13.792C43.9918 13.2373 43.8744 12.7467 43.6398 12.32C43.4158 11.8827 43.1011 11.5413 42.6958 11.296C42.3011 11.0507 41.8424 10.928 41.3198 10.928C40.8078 10.928 40.3491 11.056 39.9438 11.312C39.5491 11.5573 39.2344 11.8987 38.9998 12.336C38.7758 12.7627 38.6638 13.248 38.6638 13.792C38.6638 14.336 38.7758 14.8267 38.9998 15.264C39.2344 15.6907 39.5491 16.0267 39.9438 16.272C40.3491 16.5173 40.8078 16.64 41.3198 16.64ZM51.6624 18.16C50.841 18.16 50.105 17.9733 49.4544 17.6C48.8144 17.216 48.3077 16.6987 47.9344 16.048C47.561 15.3867 47.3744 14.6347 47.3744 13.792C47.3744 12.9493 47.561 12.2027 47.9344 11.552C48.3077 10.8907 48.8144 10.3733 49.4544 10C50.105 9.616 50.841 9.424 51.6624 9.424C52.473 9.424 53.1984 9.616 53.8384 10C54.489 10.3733 55.001 10.8907 55.3744 11.552C55.7477 12.2027 55.9344 12.9493 55.9344 13.792C55.9344 14.6347 55.7477 15.3867 55.3744 16.048C55.001 16.6987 54.489 17.216 53.8384 17.6C53.1984 17.9733 52.473 18.16 51.6624 18.16ZM51.6624 16.656C52.1637 16.656 52.6117 16.5333 53.0064 16.288C53.401 16.032 53.7104 15.6907 53.9344 15.264C54.1584 14.8267 54.265 14.336 54.2544 13.792C54.265 13.2373 54.1584 12.7467 53.9344 12.32C53.7104 11.8827 53.401 11.5413 53.0064 11.296C52.6117 11.0507 52.1637 10.928 51.6624 10.928C51.161 10.928 50.7077 11.056 50.3024 11.312C49.9077 11.5573 49.5984 11.8987 49.3744 12.336C49.1504 12.7627 49.0437 13.248 49.0544 13.792C49.0437 14.336 49.1504 14.8267 49.3744 15.264C49.5984 15.6907 49.9077 16.032 50.3024 16.288C50.7077 16.5333 51.161 16.656 51.6624 16.656ZM57.7301 18V9.6H59.3941V12.24L59.2341 11.6C59.3515 11.1947 59.5488 10.8267 59.8261 10.496C60.1141 10.1653 60.4395 9.904 60.8021 9.712C61.1755 9.52 61.5595 9.424 61.9541 9.424C62.1355 9.424 62.3061 9.44 62.4661 9.472C62.6368 9.504 62.7701 9.54133 62.8661 9.584L62.4341 11.376C62.3061 11.3227 62.1621 11.28 62.0021 11.248C61.8528 11.2053 61.7035 11.184 61.5541 11.184C61.2661 11.184 60.9888 11.2427 60.7221 11.36C60.4661 11.4667 60.2368 11.6213 60.0341 11.824C59.8421 12.016 59.6875 12.2453 59.5701 12.512C59.4528 12.768 59.3941 13.0507 59.3941 13.36V18H57.7301ZM65.5913 21.68L67.2873 17.76L67.3033 19.072L63.1113 9.6H65.0312L67.6553 15.776C67.7086 15.8827 67.7726 16.048 67.8473 16.272C67.9219 16.4853 67.9859 16.6987 68.0393 16.912L67.6233 17.008C67.7086 16.784 67.7886 16.56 67.8633 16.336C67.9486 16.112 68.0286 15.888 68.1033 15.664L70.2953 9.6H72.2473L68.7913 18L67.3673 21.68H65.5913Z" fill="black"/>
</g>
</svg>
