<svg width="14" height="14" viewBox="0 0 14 14" fill="none" xmlns="http://www.w3.org/2000/svg">
<path d="M13.9154 6.64512C12.5973 4.07335 9.98787 2.33331 6.99999 2.33331C4.0121 2.33331 1.40193 4.07456 0.08457 6.64536C0.0289691 6.75535 0 6.87686 0 7.0001C0 7.12334 0.0289691 7.24486 0.08457 7.35484C1.40266 9.92661 4.0121 11.6666 6.99999 11.6666C9.98787 11.6666 12.598 9.9254 13.9154 7.3546C13.971 7.24461 14 7.1231 14 6.99986C14 6.87662 13.971 6.7551 13.9154 6.64512ZM6.99999 10.5C6.30775 10.5 5.63106 10.2947 5.05549 9.91012C4.47992 9.52554 4.03132 8.97891 3.76641 8.33937C3.5015 7.69983 3.43219 6.9961 3.56724 6.31716C3.70229 5.63823 4.03563 5.01459 4.52511 4.52511C5.0146 4.03562 5.63824 3.70228 6.31717 3.56723C6.9961 3.43218 7.69984 3.50149 8.33938 3.7664C8.97892 4.03131 9.52555 4.47991 9.91013 5.05548C10.2947 5.63106 10.5 6.30775 10.5 6.99998C10.5002 7.45967 10.4098 7.9149 10.234 8.33964C10.0582 8.76438 9.80041 9.1503 9.47536 9.47535C9.15031 9.8004 8.76438 10.0582 8.33964 10.234C7.9149 10.4098 7.45968 10.5002 6.99999 10.5ZM6.99999 4.66665C6.79172 4.66956 6.5848 4.70054 6.38481 4.75876C6.54966 4.98278 6.62876 5.25846 6.60778 5.5358C6.5868 5.81314 6.46712 6.07378 6.27046 6.27045C6.07379 6.46712 5.81315 6.5868 5.53581 6.60778C5.25847 6.62876 4.98279 6.54965 4.75877 6.38481C4.63121 6.85478 4.65423 7.35292 4.82461 7.80911C4.99499 8.26531 5.30413 8.65659 5.70854 8.92789C6.11294 9.19918 6.59224 9.33683 7.07897 9.32145C7.5657 9.30608 8.03536 9.13845 8.42183 8.84217C8.80831 8.54589 9.09214 8.13588 9.23338 7.66984C9.37463 7.2038 9.36616 6.7052 9.20919 6.24422C9.05222 5.78324 8.75464 5.38309 8.35833 5.10009C7.96203 4.81709 7.48696 4.6655 6.99999 4.66665Z" fill="black"/>
</svg>
