<svg width="29" height="17" viewBox="0 0 29 17" fill="none" xmlns="http://www.w3.org/2000/svg">
<mask id="mask0_14_5094" style="mask-type:luminance" maskUnits="userSpaceOnUse" x="0" y="0" width="29" height="17">
<path d="M29 0H0V17H29V0Z" fill="white"/>
</mask>
<g mask="url(#mask0_14_5094)">
<path d="M6.84961 4.04688H8.16211V10.7803C8.16211 11.5277 7.99577 12.1497 7.66309 12.6465C7.3304 13.1432 6.88835 13.5169 6.33691 13.7676C5.79004 14.0137 5.19531 14.1367 4.55273 14.1367C3.87826 14.1367 3.26758 14.0137 2.7207 13.7676C2.17839 13.5169 1.74772 13.1432 1.42871 12.6465C1.11426 12.1497 0.957031 11.5277 0.957031 10.7803V4.04688H2.2627V10.7803C2.2627 11.2998 2.3584 11.7282 2.5498 12.0654C2.74121 12.4027 3.00781 12.6533 3.34961 12.8174C3.69596 12.9814 4.09701 13.0635 4.55273 13.0635C5.01302 13.0635 5.41406 12.9814 5.75586 12.8174C6.10221 12.6533 6.37109 12.4027 6.5625 12.0654C6.75391 11.7282 6.84961 11.2998 6.84961 10.7803V4.04688ZM14.3486 12.0381C14.3486 11.8558 14.3076 11.6872 14.2256 11.5322C14.1481 11.3727 13.9863 11.2292 13.7402 11.1016C13.4987 10.9694 13.1341 10.8555 12.6465 10.7598C12.2363 10.6732 11.8649 10.5706 11.5322 10.4521C11.2041 10.3337 10.9238 10.1901 10.6914 10.0215C10.4635 9.85286 10.2881 9.65462 10.165 9.42676C10.042 9.19889 9.98047 8.93229 9.98047 8.62695C9.98047 8.33529 10.0443 8.05957 10.1719 7.7998C10.304 7.54004 10.4886 7.3099 10.7256 7.10938C10.9671 6.90885 11.2565 6.75163 11.5938 6.6377C11.931 6.52376 12.307 6.4668 12.7217 6.4668C13.3141 6.4668 13.82 6.57161 14.2393 6.78125C14.6585 6.99089 14.9798 7.27116 15.2031 7.62207C15.4264 7.96842 15.5381 8.35352 15.5381 8.77734H14.2734C14.2734 8.57227 14.2119 8.37402 14.0889 8.18262C13.9704 7.98665 13.7949 7.82487 13.5625 7.69727C13.3346 7.56966 13.0544 7.50586 12.7217 7.50586C12.3708 7.50586 12.0859 7.56055 11.8672 7.66992C11.653 7.77474 11.4958 7.90918 11.3955 8.07324C11.2998 8.2373 11.252 8.41048 11.252 8.59277C11.252 8.72949 11.2747 8.85254 11.3203 8.96191C11.3704 9.06673 11.457 9.16471 11.5801 9.25586C11.7031 9.34245 11.8763 9.42448 12.0996 9.50195C12.3229 9.57943 12.6077 9.6569 12.9541 9.73438C13.5602 9.87109 14.0592 10.0352 14.4512 10.2266C14.8431 10.418 15.1348 10.6527 15.3262 10.9307C15.5176 11.2087 15.6133 11.5459 15.6133 11.9424C15.6133 12.266 15.5449 12.5622 15.4082 12.8311C15.276 13.0999 15.0824 13.3324 14.8271 13.5283C14.5765 13.7197 14.2757 13.8701 13.9248 13.9795C13.5785 14.0843 13.1888 14.1367 12.7559 14.1367C12.1042 14.1367 11.5527 14.0205 11.1016 13.7881C10.6504 13.5557 10.3086 13.2549 10.0762 12.8857C9.84375 12.5166 9.72754 12.127 9.72754 11.7168H10.999C11.0173 12.0632 11.1175 12.3389 11.2998 12.5439C11.4821 12.7445 11.7054 12.888 11.9697 12.9746C12.234 13.0566 12.4961 13.0977 12.7559 13.0977C13.1022 13.0977 13.3916 13.0521 13.624 12.9609C13.861 12.8698 14.041 12.7445 14.1641 12.585C14.2871 12.4255 14.3486 12.2432 14.3486 12.0381ZM20.3438 14.1367C19.8288 14.1367 19.3617 14.0501 18.9424 13.877C18.5277 13.6992 18.1699 13.4508 17.8691 13.1318C17.5729 12.8128 17.3451 12.4346 17.1855 11.9971C17.026 11.5596 16.9463 11.0811 16.9463 10.5615V10.2744C16.9463 9.67285 17.0352 9.13737 17.2129 8.66797C17.3906 8.19401 17.6322 7.79297 17.9375 7.46484C18.2428 7.13672 18.5892 6.88835 18.9766 6.71973C19.3639 6.55111 19.765 6.4668 20.1797 6.4668C20.7083 6.4668 21.1641 6.55794 21.5469 6.74023C21.9342 6.92253 22.251 7.17773 22.4971 7.50586C22.7432 7.82943 22.9255 8.21224 23.0439 8.6543C23.1624 9.0918 23.2217 9.57031 23.2217 10.0898V10.6572H17.6982V9.625H21.957V9.5293C21.9388 9.20117 21.8704 8.88216 21.752 8.57227C21.638 8.26237 21.4557 8.00716 21.2051 7.80664C20.9544 7.60612 20.6126 7.50586 20.1797 7.50586C19.8926 7.50586 19.6283 7.56738 19.3867 7.69043C19.1452 7.80892 18.9378 7.98665 18.7646 8.22363C18.5915 8.46061 18.457 8.75 18.3613 9.0918C18.2656 9.43359 18.2178 9.8278 18.2178 10.2744V10.5615C18.2178 10.9124 18.2656 11.2428 18.3613 11.5527C18.4616 11.8581 18.6051 12.127 18.792 12.3594C18.9834 12.5918 19.2135 12.7741 19.4824 12.9062C19.7559 13.0384 20.0658 13.1045 20.4121 13.1045C20.8587 13.1045 21.237 13.0133 21.5469 12.8311C21.8568 12.6488 22.1279 12.4049 22.3604 12.0996L23.126 12.708C22.9665 12.9495 22.7637 13.1797 22.5176 13.3984C22.2715 13.6172 21.9684 13.7949 21.6084 13.9316C21.2529 14.0684 20.8314 14.1367 20.3438 14.1367ZM25.9629 7.76562V14H24.6982V6.60352H25.9287L25.9629 7.76562ZM28.2734 6.5625L28.2666 7.73828C28.1618 7.71549 28.0615 7.70182 27.9658 7.69727C27.8747 7.68815 27.7699 7.68359 27.6514 7.68359C27.3597 7.68359 27.1022 7.72917 26.8789 7.82031C26.6556 7.91146 26.4665 8.03906 26.3115 8.20312C26.1566 8.36719 26.0335 8.56315 25.9424 8.79102C25.8558 9.01432 25.7988 9.26042 25.7715 9.5293L25.416 9.73438C25.416 9.28776 25.4593 8.86849 25.5459 8.47656C25.637 8.08464 25.776 7.73828 25.9629 7.4375C26.1497 7.13216 26.3867 6.89518 26.6738 6.72656C26.9655 6.55339 27.3118 6.4668 27.7129 6.4668C27.804 6.4668 27.9089 6.47819 28.0273 6.50098C28.1458 6.51921 28.2279 6.53971 28.2734 6.5625Z" fill="white"/>
</g>
</svg>
