<svg width="54" height="18" viewBox="0 0 54 18" fill="none" xmlns="http://www.w3.org/2000/svg">
<mask id="mask0_11_811" style="mask-type:luminance" maskUnits="userSpaceOnUse" x="0" y="0" width="54" height="18">
<path d="M54 0H0V18H54V0Z" fill="white"/>
</mask>
<g mask="url(#mask0_11_811)">
<path d="M1.372 15V5.2H2.884V15H1.372ZM2.044 10.828V9.372H7.098V10.828H2.044ZM2.044 6.656V5.2H7.728V6.656H2.044ZM9.66788 15V7.65H11.1099V15H9.66788ZM10.3679 6.026C10.0599 6.026 9.82188 5.94667 9.65388 5.788C9.48588 5.62933 9.40188 5.40533 9.40188 5.116C9.40188 4.84533 9.48588 4.626 9.65388 4.458C9.83121 4.29 10.0692 4.206 10.3679 4.206C10.6759 4.206 10.9139 4.28533 11.0819 4.444C11.2499 4.60267 11.3339 4.82667 11.3339 5.116C11.3339 5.38667 11.2452 5.606 11.0679 5.774C10.8999 5.942 10.6665 6.026 10.3679 6.026ZM13.3264 15V7.65H14.7684V9.162L14.5164 9.33C14.6097 9.00333 14.7917 8.70467 15.0624 8.434C15.333 8.154 15.655 7.93 16.0284 7.762C16.4017 7.58467 16.7844 7.496 17.1764 7.496C17.7364 7.496 18.203 7.608 18.5764 7.832C18.9497 8.04667 19.2297 8.378 19.4164 8.826C19.603 9.274 19.6964 9.83867 19.6964 10.52V15H18.2544V10.618C18.2544 10.198 18.1984 9.85267 18.0864 9.582C17.9744 9.302 17.8017 9.10133 17.5684 8.98C17.335 8.84933 17.0457 8.79333 16.7004 8.812C16.4204 8.812 16.1637 8.85867 15.9304 8.952C15.697 9.036 15.4917 9.15733 15.3144 9.316C15.1464 9.47467 15.011 9.66133 14.9084 9.876C14.815 10.0813 14.7684 10.3053 14.7684 10.548V15H14.0544C13.933 15 13.8117 15 13.6904 15C13.569 15 13.4477 15 13.3264 15ZM24.4805 15.14C23.8739 15.14 23.3185 14.972 22.8145 14.636C22.3199 14.3 21.9232 13.8427 21.6245 13.264C21.3259 12.6853 21.1765 12.032 21.1765 11.304C21.1765 10.5667 21.3259 9.91333 21.6245 9.344C21.9325 8.76533 22.3432 8.31267 22.8565 7.986C23.3792 7.65933 23.9625 7.496 24.6065 7.496C24.9892 7.496 25.3392 7.552 25.6565 7.664C25.9739 7.776 26.2492 7.93467 26.4825 8.14C26.7252 8.336 26.9212 8.56467 27.0705 8.826C27.2292 9.08733 27.3272 9.36733 27.3645 9.666L27.0425 9.554V7.65H28.4985V15H27.0425V13.25L27.3785 13.152C27.3225 13.404 27.2059 13.6513 27.0285 13.894C26.8605 14.1273 26.6412 14.3373 26.3705 14.524C26.1092 14.7107 25.8152 14.86 25.4885 14.972C25.1712 15.084 24.8352 15.14 24.4805 15.14ZM24.8585 13.81C25.2972 13.81 25.6845 13.7027 26.0205 13.488C26.3565 13.2733 26.6179 12.9793 26.8045 12.606C27.0005 12.2233 27.0985 11.7893 27.0985 11.304C27.0985 10.828 27.0005 10.4033 26.8045 10.03C26.6179 9.65667 26.3565 9.36267 26.0205 9.148C25.6845 8.93333 25.2972 8.826 24.8585 8.826C24.4292 8.826 24.0465 8.93333 23.7105 9.148C23.3839 9.36267 23.1225 9.65667 22.9265 10.03C22.7399 10.4033 22.6465 10.828 22.6465 11.304C22.6465 11.7893 22.7399 12.2233 22.9265 12.606C23.1225 12.9793 23.3839 13.2733 23.7105 13.488C24.0465 13.7027 24.4292 13.81 24.8585 13.81ZM30.5119 15V7.65H31.9539V9.162L31.7019 9.33C31.7952 9.00333 31.9772 8.70467 32.2479 8.434C32.5186 8.154 32.8406 7.93 33.2139 7.762C33.5872 7.58467 33.9699 7.496 34.3619 7.496C34.9219 7.496 35.3886 7.608 35.7619 7.832C36.1352 8.04667 36.4152 8.378 36.6019 8.826C36.7886 9.274 36.8819 9.83867 36.8819 10.52V15H35.4399V10.618C35.4399 10.198 35.3839 9.85267 35.2719 9.582C35.1599 9.302 34.9872 9.10133 34.7539 8.98C34.5206 8.84933 34.2312 8.79333 33.8859 8.812C33.6059 8.812 33.3492 8.85867 33.1159 8.952C32.8826 9.036 32.6772 9.15733 32.4999 9.316C32.3319 9.47467 32.1966 9.66133 32.0939 9.876C32.0006 10.0813 31.9539 10.3053 31.9539 10.548V15H31.2399C31.1186 15 30.9972 15 30.8759 15C30.7546 15 30.6332 15 30.5119 15ZM41.9601 15.14C41.2787 15.14 40.6674 14.972 40.1261 14.636C39.5941 14.3 39.1694 13.8427 38.8521 13.264C38.5441 12.6853 38.3901 12.0367 38.3901 11.318C38.3901 10.5993 38.5441 9.95067 38.8521 9.372C39.1694 8.79333 39.5941 8.336 40.1261 8C40.6674 7.664 41.2787 7.496 41.9601 7.496C42.6134 7.496 43.2061 7.63133 43.7381 7.902C44.2794 8.16333 44.6901 8.52267 44.9701 8.98L44.1721 9.96C44.0227 9.74533 43.8314 9.54933 43.5981 9.372C43.3647 9.19467 43.1174 9.05467 42.8561 8.952C42.5947 8.84933 42.3427 8.798 42.1001 8.798C41.6521 8.798 41.2507 8.91 40.8961 9.134C40.5507 9.34867 40.2754 9.64733 40.0701 10.03C39.8647 10.4127 39.7621 10.842 39.7621 11.318C39.7621 11.794 39.8694 12.2233 40.0841 12.606C40.2987 12.9793 40.5834 13.278 40.9381 13.502C41.2927 13.726 41.6847 13.838 42.1141 13.838C42.3661 13.838 42.6087 13.796 42.8421 13.712C43.0847 13.628 43.3181 13.502 43.5421 13.334C43.7661 13.166 43.9761 12.9607 44.1721 12.718L44.9701 13.698C44.6714 14.118 44.2421 14.4633 43.6821 14.734C43.1314 15.0047 42.5574 15.14 41.9601 15.14ZM49.7603 15.14C49.0043 15.14 48.3323 14.9813 47.7443 14.664C47.1656 14.3373 46.7083 13.894 46.3723 13.334C46.0456 12.774 45.8823 12.13 45.8823 11.402C45.8823 10.8233 45.9756 10.296 46.1623 9.82C46.3489 9.344 46.6056 8.93333 46.9323 8.588C47.2683 8.23333 47.6649 7.96267 48.1223 7.776C48.5889 7.58 49.0929 7.482 49.6343 7.482C50.1103 7.482 50.5536 7.57533 50.9643 7.762C51.3749 7.93933 51.7296 8.18667 52.0283 8.504C52.3363 8.82133 52.5696 9.19933 52.7283 9.638C52.8963 10.0673 52.9756 10.5387 52.9663 11.052L52.9523 11.668H46.9463L46.6243 10.52H51.7063L51.4963 10.758V10.422C51.4683 10.114 51.3656 9.83867 51.1883 9.596C51.0109 9.35333 50.7869 9.162 50.5163 9.022C50.2456 8.882 49.9516 8.812 49.6343 8.812C49.1303 8.812 48.7056 8.91 48.3603 9.106C48.0149 9.29267 47.7536 9.57267 47.5763 9.946C47.3989 10.31 47.3103 10.7627 47.3103 11.304C47.3103 11.8173 47.4176 12.2653 47.6323 12.648C47.8469 13.0213 48.1503 13.3107 48.5423 13.516C48.9343 13.7213 49.3869 13.824 49.9003 13.824C50.2643 13.824 50.6003 13.7633 50.9083 13.642C51.2256 13.5207 51.5663 13.3013 51.9303 12.984L52.6583 14.006C52.4343 14.23 52.1589 14.426 51.8323 14.594C51.5149 14.762 51.1743 14.8973 50.8103 15C50.4556 15.0933 50.1056 15.14 49.7603 15.14Z" fill="white"/>
</g>
</svg>
