<svg width="817" height="20" viewBox="0 0 817 20" fill="none" xmlns="http://www.w3.org/2000/svg">
<g filter="url(#filter0_d_11_1615)">
<path d="M809 0H8C3.58172 0 0 3.58172 0 8V12C0 16.4183 3.58172 20 8 20H809C813.418 20 817 16.4183 817 12V8C817 3.58172 813.418 0 809 0Z" fill="white"/>
<path d="M809 0H8C3.58172 0 0 3.58172 0 8V12C0 16.4183 3.58172 20 8 20H809C813.418 20 817 16.4183 817 12V8C817 3.58172 813.418 0 809 0Z" stroke="#D1D5DB"/>
</g>
<mask id="mask0_11_1615" style="mask-type:luminance" maskUnits="userSpaceOnUse" x="0" y="0" width="817" height="20">
<path d="M817 0H0V20H817V0Z" fill="white"/>
</mask>
<g mask="url(#mask0_11_1615)">
<path d="M9.274 15V5.9H15.007V7.252H10.678V13.648H15.007V15H9.274ZM9.911 11.009V9.657H14.292V11.009H9.911ZM17.2594 15V5.9H18.5204L24.0844 13.349L23.8764 13.466C23.8417 13.2493 23.8114 13.0153 23.7854 12.764C23.7594 12.504 23.7334 12.231 23.7074 11.945C23.69 11.6503 23.6727 11.3427 23.6554 11.022C23.6467 10.6927 23.638 10.3503 23.6294 9.995C23.6207 9.63967 23.6164 9.27133 23.6164 8.89V5.9H25.0204V15H23.7334L18.2604 7.824L18.4034 7.642C18.4467 8.17067 18.4814 8.62133 18.5074 8.994C18.542 9.358 18.568 9.67 18.5854 9.93C18.6114 10.1813 18.6287 10.3893 18.6374 10.554C18.646 10.71 18.6504 10.84 18.6504 10.944C18.659 11.048 18.6634 11.139 18.6634 11.217V15H17.2594Z" fill="#94A3B8"/>
</g>
<mask id="mask1_11_1615" style="mask-type:luminance" maskUnits="userSpaceOnUse" x="0" y="0" width="817" height="20">
<path d="M817 0H0V20H817V0Z" fill="white"/>
</mask>
<g mask="url(#mask1_11_1615)">
<g clip-path="url(#clip0_11_1615)">
<path d="M804.677 8.01074L802 10.6824L799.322 8.01074L798.5 8.83324L802 12.3332L805.5 8.83324L804.677 8.01074Z" fill="#94A3B8"/>
</g>
</g>
<defs>
<filter id="filter0_d_11_1615" x="-0.5" y="-0.5" width="818" height="21" filterUnits="userSpaceOnUse" color-interpolation-filters="sRGB">
<feFlood flood-opacity="0" result="BackgroundImageFix"/>
<feColorMatrix in="SourceAlpha" type="matrix" values="0 0 0 0 0 0 0 0 0 0 0 0 0 0 0 0 0 0 127 0" result="hardAlpha"/>
<feOffset/>
<feComposite in2="hardAlpha" operator="out"/>
<feColorMatrix type="matrix" values="0 0 0 0 0 0 0 0 0 0 0 0 0 0 0 0 0 0 0.08 0"/>
<feBlend mode="normal" in2="BackgroundImageFix" result="effect1_dropShadow_11_1615"/>
<feBlend mode="normal" in="SourceGraphic" in2="effect1_dropShadow_11_1615" result="shape"/>
</filter>
<clipPath id="clip0_11_1615">
<rect width="14" height="14" fill="white" transform="translate(795 3)"/>
</clipPath>
</defs>
</svg>
