<svg width="43" height="14" viewBox="0 0 43 14" fill="none" xmlns="http://www.w3.org/2000/svg">
<mask id="mask0_11_2808" style="mask-type:luminance" maskUnits="userSpaceOnUse" x="0" y="0" width="43" height="14">
<path d="M43 0H0V14H43V0Z" fill="white"/>
</mask>
<g mask="url(#mask0_11_2808)">
<path d="M2.63086 2.46875V11H0.878906V2.46875H2.63086ZM5.82422 6.01367V11H4.13672V4.66016H5.71875L5.82422 6.01367ZM5.57812 7.60742H5.12109C5.12109 7.13867 5.18164 6.7168 5.30273 6.3418C5.42383 5.96289 5.59375 5.64062 5.8125 5.375C6.03125 5.10547 6.29102 4.90039 6.5918 4.75977C6.89648 4.61523 7.23633 4.54297 7.61133 4.54297C7.9082 4.54297 8.17969 4.58594 8.42578 4.67188C8.67188 4.75781 8.88281 4.89453 9.05859 5.08203C9.23828 5.26953 9.375 5.51758 9.46875 5.82617C9.56641 6.13477 9.61523 6.51172 9.61523 6.95703V11H7.91602V6.95117C7.91602 6.66992 7.87695 6.45117 7.79883 6.29492C7.7207 6.13867 7.60547 6.0293 7.45312 5.9668C7.30469 5.90039 7.12109 5.86719 6.90234 5.86719C6.67578 5.86719 6.47852 5.91211 6.31055 6.00195C6.14648 6.0918 6.00977 6.2168 5.90039 6.37695C5.79492 6.5332 5.71484 6.7168 5.66016 6.92773C5.60547 7.13867 5.57812 7.36523 5.57812 7.60742ZM14.3203 9.57031V6.74609C14.3203 6.54297 14.2871 6.36914 14.2207 6.22461C14.1543 6.07617 14.0508 5.96094 13.9102 5.87891C13.7734 5.79688 13.5957 5.75586 13.377 5.75586C13.1895 5.75586 13.0273 5.78906 12.8906 5.85547C12.7539 5.91797 12.6484 6.00977 12.5742 6.13086C12.5 6.24805 12.4629 6.38672 12.4629 6.54688H10.7754C10.7754 6.27734 10.8379 6.02148 10.9629 5.7793C11.0879 5.53711 11.2695 5.32422 11.5078 5.14062C11.7461 4.95312 12.0293 4.80664 12.3574 4.70117C12.6895 4.5957 13.0605 4.54297 13.4707 4.54297C13.9629 4.54297 14.4004 4.625 14.7832 4.78906C15.166 4.95312 15.4668 5.19922 15.6855 5.52734C15.9082 5.85547 16.0195 6.26562 16.0195 6.75781V9.4707C16.0195 9.81836 16.041 10.1035 16.084 10.3262C16.127 10.5449 16.1895 10.7363 16.2715 10.9004V11H14.5664C14.4844 10.8281 14.4219 10.6133 14.3789 10.3555C14.3398 10.0938 14.3203 9.83203 14.3203 9.57031ZM14.543 7.13867L14.5547 8.09375H13.6113C13.3887 8.09375 13.1953 8.11914 13.0312 8.16992C12.8672 8.2207 12.7324 8.29297 12.627 8.38672C12.5215 8.47656 12.4434 8.58203 12.3926 8.70312C12.3457 8.82422 12.3223 8.95703 12.3223 9.10156C12.3223 9.24609 12.3555 9.37695 12.4219 9.49414C12.4883 9.60742 12.584 9.69727 12.709 9.76367C12.834 9.82617 12.9805 9.85742 13.1484 9.85742C13.4023 9.85742 13.623 9.80664 13.8105 9.70508C13.998 9.60352 14.1426 9.47852 14.2441 9.33008C14.3496 9.18164 14.4043 9.04102 14.4082 8.9082L14.8535 9.62305C14.791 9.7832 14.7051 9.94922 14.5957 10.1211C14.4902 10.293 14.3555 10.4551 14.1914 10.6074C14.0273 10.7559 13.8301 10.8789 13.5996 10.9766C13.3691 11.0703 13.0957 11.1172 12.7793 11.1172C12.377 11.1172 12.0117 11.0371 11.6836 10.877C11.3594 10.7129 11.1016 10.4883 10.9102 10.2031C10.7227 9.91406 10.6289 9.58594 10.6289 9.21875C10.6289 8.88672 10.6914 8.5918 10.8164 8.33398C10.9414 8.07617 11.125 7.85938 11.3672 7.68359C11.6133 7.50391 11.9199 7.36914 12.2871 7.2793C12.6543 7.18555 13.0801 7.13867 13.5645 7.13867H14.543ZM19.9395 9.79883C20.1465 9.79883 20.3301 9.75977 20.4902 9.68164C20.6504 9.59961 20.7754 9.48633 20.8652 9.3418C20.959 9.19336 21.0078 9.01953 21.0117 8.82031H22.5996C22.5957 9.26562 22.4766 9.66211 22.2422 10.0098C22.0078 10.3535 21.6934 10.625 21.2988 10.8242C20.9043 11.0195 20.4629 11.1172 19.9746 11.1172C19.4824 11.1172 19.0527 11.0352 18.6855 10.8711C18.3223 10.707 18.0195 10.4805 17.7773 10.1914C17.5352 9.89844 17.3535 9.55859 17.2324 9.17188C17.1113 8.78125 17.0508 8.36328 17.0508 7.91797V7.74805C17.0508 7.29883 17.1113 6.88086 17.2324 6.49414C17.3535 6.10352 17.5352 5.76367 17.7773 5.47461C18.0195 5.18164 18.3223 4.95312 18.6855 4.78906C19.0488 4.625 19.4746 4.54297 19.9629 4.54297C20.4824 4.54297 20.9375 4.64258 21.3281 4.8418C21.7227 5.04102 22.0312 5.32617 22.2539 5.69727C22.4805 6.06445 22.5957 6.5 22.5996 7.00391H21.0117C21.0078 6.79297 20.9629 6.60156 20.877 6.42969C20.7949 6.25781 20.6738 6.12109 20.5137 6.01953C20.3574 5.91406 20.1641 5.86133 19.9336 5.86133C19.6875 5.86133 19.4863 5.91406 19.3301 6.01953C19.1738 6.12109 19.0527 6.26172 18.9668 6.44141C18.8809 6.61719 18.8203 6.81836 18.7852 7.04492C18.7539 7.26758 18.7383 7.50195 18.7383 7.74805V7.91797C18.7383 8.16406 18.7539 8.40039 18.7852 8.62695C18.8164 8.85352 18.875 9.05469 18.9609 9.23047C19.0508 9.40625 19.1738 9.54492 19.3301 9.64648C19.4863 9.74805 19.6895 9.79883 19.9395 9.79883ZM26.6836 4.66016V5.85547H22.9922V4.66016H26.6836ZM23.9062 3.0957H25.5938V9.08984C25.5938 9.27344 25.6172 9.41406 25.6641 9.51172C25.7148 9.60938 25.7891 9.67773 25.8867 9.7168C25.9844 9.75195 26.1074 9.76953 26.2559 9.76953C26.3613 9.76953 26.4551 9.76562 26.5371 9.75781C26.623 9.74609 26.6953 9.73438 26.7539 9.72266L26.7598 10.9648C26.6152 11.0117 26.459 11.0488 26.291 11.0762C26.123 11.1035 25.9375 11.1172 25.7344 11.1172C25.3633 11.1172 25.0391 11.0566 24.7617 10.9355C24.4883 10.8105 24.2773 10.6113 24.1289 10.3379C23.9805 10.0645 23.9062 9.70508 23.9062 9.25977V3.0957ZM29.4258 4.66016V11H27.7324V4.66016H29.4258ZM27.627 3.00781C27.627 2.76172 27.7129 2.55859 27.8848 2.39844C28.0566 2.23828 28.2871 2.1582 28.5762 2.1582C28.8613 2.1582 29.0898 2.23828 29.2617 2.39844C29.4375 2.55859 29.5254 2.76172 29.5254 3.00781C29.5254 3.25391 29.4375 3.45703 29.2617 3.61719C29.0898 3.77734 28.8613 3.85742 28.5762 3.85742C28.2871 3.85742 28.0566 3.77734 27.8848 3.61719C27.7129 3.45703 27.627 3.25391 27.627 3.00781ZM32.9766 9.76953L34.3828 4.66016H36.1465L34.0078 11H32.9414L32.9766 9.76953ZM32.0098 4.66016L33.4219 9.77539L33.4512 11H32.3789L30.2402 4.66016H32.0098ZM39.7383 11.1172C39.2461 11.1172 38.8047 11.0391 38.4141 10.8828C38.0234 10.7227 37.6914 10.502 37.418 10.2207C37.1484 9.93945 36.9414 9.61328 36.7969 9.24219C36.6523 8.86719 36.5801 8.46875 36.5801 8.04688V7.8125C36.5801 7.33203 36.6484 6.89258 36.7852 6.49414C36.9219 6.0957 37.1172 5.75 37.3711 5.45703C37.6289 5.16406 37.9414 4.93945 38.3086 4.7832C38.6758 4.62305 39.0898 4.54297 39.5508 4.54297C40 4.54297 40.3984 4.61719 40.7461 4.76562C41.0938 4.91406 41.3848 5.125 41.6191 5.39844C41.8574 5.67188 42.0371 6 42.1582 6.38281C42.2793 6.76172 42.3398 7.18359 42.3398 7.64844V8.35156H37.3008V7.22656H40.6816V7.09766C40.6816 6.86328 40.6387 6.6543 40.5527 6.4707C40.4707 6.2832 40.3457 6.13477 40.1777 6.02539C40.0098 5.91602 39.7949 5.86133 39.5332 5.86133C39.3105 5.86133 39.1191 5.91016 38.959 6.00781C38.7988 6.10547 38.668 6.24219 38.5664 6.41797C38.4688 6.59375 38.3945 6.80078 38.3438 7.03906C38.2969 7.27344 38.2734 7.53125 38.2734 7.8125V8.04688C38.2734 8.30078 38.3086 8.53516 38.3789 8.75C38.4531 8.96484 38.5566 9.15039 38.6895 9.30664C38.8262 9.46289 38.9902 9.58398 39.1816 9.66992C39.377 9.75586 39.5977 9.79883 39.8438 9.79883C40.1484 9.79883 40.4316 9.74023 40.6934 9.62305C40.959 9.50195 41.1875 9.32031 41.3789 9.07812L42.1992 9.96875C42.0664 10.1602 41.8848 10.3438 41.6543 10.5195C41.4277 10.6953 41.1543 10.8398 40.834 10.9531C40.5137 11.0625 40.1484 11.1172 39.7383 11.1172Z" fill="white"/>
</g>
</svg>
