<svg width="27" height="18" viewBox="0 0 27 18" fill="none" xmlns="http://www.w3.org/2000/svg">
<mask id="mask0_11_788" style="mask-type:luminance" maskUnits="userSpaceOnUse" x="0" y="0" width="27" height="18">
<path d="M27 0H0V18H27V0Z" fill="white"/>
</mask>
<g mask="url(#mask0_11_788)">
<path d="M1.372 15V5.2H7.546V6.656H2.884V13.544H7.546V15H1.372ZM2.058 10.702V9.246H6.776V10.702H2.058ZM12.6053 15.14C11.9333 15.14 11.3313 14.9767 10.7993 14.65C10.2766 14.314 9.86125 13.8613 9.55325 13.292C9.24525 12.7133 9.09125 12.0553 9.09125 11.318C9.09125 10.5807 9.24058 9.92733 9.53925 9.358C9.84725 8.77933 10.2626 8.32667 10.7853 8C11.3079 7.664 11.9006 7.496 12.5633 7.496C12.9273 7.496 13.2773 7.55667 13.6133 7.678C13.9586 7.79 14.2666 7.94867 14.5373 8.154C14.8079 8.35 15.0179 8.56933 15.1673 8.812C15.3259 9.04533 15.4053 9.28333 15.4053 9.526L14.9853 9.554V4.64H16.4273V15H14.9853V13.25H15.2653C15.2653 13.474 15.1906 13.698 15.0413 13.922C14.8919 14.1367 14.6913 14.3373 14.4393 14.524C14.1966 14.7107 13.9119 14.86 13.5853 14.972C13.2679 15.084 12.9413 15.14 12.6053 15.14ZM12.8013 13.894C13.2399 13.894 13.6273 13.782 13.9633 13.558C14.2993 13.334 14.5606 13.0307 14.7473 12.648C14.9433 12.256 15.0413 11.8127 15.0413 11.318C15.0413 10.8233 14.9433 10.3847 14.7473 10.002C14.5606 9.61 14.2993 9.302 13.9633 9.078C13.6273 8.854 13.2399 8.742 12.8013 8.742C12.3626 8.742 11.9753 8.854 11.6393 9.078C11.3033 9.302 11.0373 9.61 10.8413 10.002C10.6546 10.3847 10.5613 10.8233 10.5613 11.318C10.5613 11.8127 10.6546 12.256 10.8413 12.648C11.0373 13.0307 11.3033 13.334 11.6393 13.558C11.9753 13.782 12.3626 13.894 12.8013 13.894ZM18.6503 15V7.65H20.0923V15H18.6503ZM19.3503 6.026C19.0423 6.026 18.8043 5.94667 18.6363 5.788C18.4683 5.62933 18.3843 5.40533 18.3843 5.116C18.3843 4.84533 18.4683 4.626 18.6363 4.458C18.8136 4.29 19.0516 4.206 19.3503 4.206C19.6583 4.206 19.8963 4.28533 20.0643 4.444C20.2323 4.60267 20.3163 4.82667 20.3163 5.116C20.3163 5.38667 20.2276 5.606 20.0503 5.774C19.8823 5.942 19.649 6.026 19.3503 6.026ZM23.2188 15V5.774H24.6608V15H23.2188ZM21.6928 9.05V7.65H26.3688V9.05H21.6928Z" fill="#DC143C"/>
</g>
</svg>
