<svg width="111" height="20" viewBox="0 0 111 20" fill="none" xmlns="http://www.w3.org/2000/svg">
<mask id="mask0_14_3603" style="mask-type:luminance" maskUnits="userSpaceOnUse" x="0" y="0" width="111" height="20">
<path d="M111 0H0V20H111V0Z" fill="white"/>
</mask>
<g mask="url(#mask0_14_3603)">
<path d="M3.472 15.716V6.628L4.064 7.076L1.856 8.244L1.392 6.74L4.384 5.14H5.216V15.716H3.472ZM1.696 16.5V14.836H7.04V16.5H1.696ZM9.408 19.364L8.8 18.628C9.17333 18.4147 9.47733 18.1693 9.712 17.892C9.94667 17.6147 10.064 17.3747 10.064 17.172C10.064 17.0653 10.0373 16.9587 9.984 16.852C9.93067 16.756 9.81867 16.6173 9.648 16.436C9.43467 16.2333 9.296 16.0627 9.232 15.924C9.168 15.7853 9.136 15.636 9.136 15.476C9.136 15.22 9.22667 15.0173 9.408 14.868C9.58933 14.708 9.824 14.628 10.112 14.628C10.3787 14.628 10.6187 14.708 10.832 14.868C11.056 15.0173 11.2267 15.2307 11.344 15.508C11.472 15.7747 11.536 16.084 11.536 16.436C11.536 16.756 11.4827 17.0653 11.376 17.364C11.2693 17.6627 11.12 17.94 10.928 18.196C10.736 18.452 10.512 18.6813 10.256 18.884C10 19.0867 9.71733 19.2467 9.408 19.364ZM13.7536 16.5L13.2256 15.188L16.6496 11.332C16.831 11.14 17.0176 10.9213 17.2096 10.676C17.4123 10.42 17.6043 10.1587 17.7856 9.892C17.967 9.62533 18.111 9.364 18.2176 9.108C18.335 8.84133 18.3936 8.59067 18.3936 8.356C18.3936 8.01467 18.3243 7.72667 18.1856 7.492C18.0576 7.24667 17.8656 7.06 17.6096 6.932C17.3643 6.804 17.0656 6.74 16.7136 6.74C16.4043 6.74 16.1003 6.83067 15.8016 7.012C15.503 7.19333 15.231 7.44933 14.9856 7.78C14.7403 8.11067 14.5483 8.49467 14.4096 8.932L13.0816 8.1C13.263 7.48133 13.535 6.95333 13.8976 6.516C14.271 6.068 14.7136 5.72667 15.2256 5.492C15.7483 5.25733 16.3136 5.14 16.9216 5.14C17.551 5.14 18.111 5.27333 18.6016 5.54C19.0923 5.796 19.4763 6.15867 19.7536 6.628C20.031 7.08667 20.1696 7.62 20.1696 8.228C20.1696 8.47333 20.143 8.724 20.0896 8.98C20.0363 9.236 19.951 9.50267 19.8336 9.78C19.7163 10.0467 19.567 10.3293 19.3856 10.628C19.2043 10.916 18.9856 11.22 18.7296 11.54C18.4843 11.86 18.2016 12.196 17.8816 12.548L15.3376 15.316L15.0176 14.836H20.5216V16.5H13.7536ZM25.0473 16.66C24.2579 16.66 23.5699 16.4787 22.9833 16.116C22.4073 15.7533 21.8633 15.1453 21.3513 14.292L22.6953 13.444C22.9619 13.8387 23.2233 14.164 23.4793 14.42C23.7459 14.6653 24.0179 14.8467 24.2953 14.964C24.5726 15.0813 24.8659 15.14 25.1753 15.14C25.5486 15.14 25.8953 15.0493 26.2153 14.868C26.5353 14.676 26.7913 14.4147 26.9833 14.084C27.1753 13.7533 27.2713 13.38 27.2713 12.964C27.2713 12.548 27.1966 12.196 27.0473 11.908C26.8979 11.6093 26.6793 11.3853 26.3913 11.236C26.1033 11.076 25.7619 10.996 25.3673 10.996C25.1859 10.996 24.9939 11.0173 24.7913 11.06C24.5993 11.092 24.3913 11.1453 24.1673 11.22C23.9433 11.284 23.6979 11.3693 23.4313 11.476L22.9513 10.212L26.4073 6.404L26.7433 6.9H21.9753V5.3H28.3913L28.7113 5.94L25.0473 10.004L24.6473 9.588C24.7326 9.54533 24.8713 9.508 25.0633 9.476C25.2659 9.43333 25.4313 9.412 25.5593 9.412C26.0286 9.412 26.4659 9.50267 26.8713 9.684C27.2873 9.85467 27.6446 10.1 27.9433 10.42C28.2526 10.7293 28.4926 11.0973 28.6633 11.524C28.8446 11.94 28.9353 12.388 28.9353 12.868C28.9353 13.5933 28.7593 14.244 28.4073 14.82C28.0659 15.3853 27.6019 15.8333 27.0153 16.164C26.4286 16.4947 25.7726 16.66 25.0473 16.66ZM35.132 16.5V7.476L35.532 7.572L31.852 12.068L31.788 11.876H38.748V13.46H30.716L29.98 12.02L35.468 5.3H36.796V16.5H35.132Z" fill="black"/>
</g>
</svg>
