<svg width="102" height="23" viewBox="0 0 102 23" fill="none" xmlns="http://www.w3.org/2000/svg">
<mask id="mask0_11_1308" style="mask-type:luminance" maskUnits="userSpaceOnUse" x="0" y="0" width="102" height="23">
<path d="M102 0H0V23H102V0Z" fill="white"/>
</mask>
<g mask="url(#mask0_11_1308)">
<path d="M10.0703 5.125V16.5H8.55469L2.82812 7.72656V16.5H1.32031V5.125H2.82812L8.57812 13.9219V5.125H10.0703ZM12.1406 12.3672V12.1875C12.1406 11.5781 12.2292 11.013 12.4062 10.4922C12.5833 9.96615 12.8385 9.51042 13.1719 9.125C13.5052 8.73438 13.9089 8.43229 14.3828 8.21875C14.8568 8 15.388 7.89062 15.9766 7.89062C16.5703 7.89062 17.1042 8 17.5781 8.21875C18.0573 8.43229 18.4635 8.73438 18.7969 9.125C19.1354 9.51042 19.3932 9.96615 19.5703 10.4922C19.7474 11.013 19.8359 11.5781 19.8359 12.1875V12.3672C19.8359 12.9766 19.7474 13.5417 19.5703 14.0625C19.3932 14.5833 19.1354 15.0391 18.7969 15.4297C18.4635 15.8151 18.0599 16.1172 17.5859 16.3359C17.1172 16.5495 16.5859 16.6562 15.9922 16.6562C15.3984 16.6562 14.8646 16.5495 14.3906 16.3359C13.9167 16.1172 13.5104 15.8151 13.1719 15.4297C12.8385 15.0391 12.5833 14.5833 12.4062 14.0625C12.2292 13.5417 12.1406 12.9766 12.1406 12.3672ZM13.5859 12.1875V12.3672C13.5859 12.7891 13.6354 13.1875 13.7344 13.5625C13.8333 13.9323 13.9818 14.2604 14.1797 14.5469C14.3828 14.8333 14.6354 15.0599 14.9375 15.2266C15.2396 15.388 15.5911 15.4688 15.9922 15.4688C16.388 15.4688 16.7344 15.388 17.0312 15.2266C17.3333 15.0599 17.5833 14.8333 17.7812 14.5469C17.9792 14.2604 18.1276 13.9323 18.2266 13.5625C18.3307 13.1875 18.3828 12.7891 18.3828 12.3672V12.1875C18.3828 11.7708 18.3307 11.3776 18.2266 11.0078C18.1276 10.6328 17.9766 10.3021 17.7734 10.0156C17.5755 9.72396 17.3255 9.49479 17.0234 9.32812C16.7266 9.16146 16.3776 9.07812 15.9766 9.07812C15.5807 9.07812 15.2318 9.16146 14.9297 9.32812C14.6328 9.49479 14.3828 9.72396 14.1797 10.0156C13.9818 10.3021 13.8333 10.6328 13.7344 11.0078C13.6354 11.3776 13.5859 11.7708 13.5859 12.1875ZM25.1875 8.04688V9.15625H20.6172V8.04688H25.1875ZM22.1641 5.99219H23.6094V14.4062C23.6094 14.6927 23.6536 14.9089 23.7422 15.0547C23.8307 15.2005 23.9453 15.2969 24.0859 15.3438C24.2266 15.3906 24.3776 15.4141 24.5391 15.4141C24.6589 15.4141 24.7839 15.4036 24.9141 15.3828C25.0495 15.3568 25.151 15.3359 25.2188 15.3203L25.2266 16.5C25.112 16.5365 24.9609 16.5703 24.7734 16.6016C24.5911 16.638 24.3698 16.6562 24.1094 16.6562C23.7552 16.6562 23.4297 16.5859 23.1328 16.4453C22.8359 16.3047 22.599 16.0703 22.4219 15.7422C22.25 15.4089 22.1641 14.9609 22.1641 14.3984V5.99219ZM28.4531 8.04688V16.5H27V8.04688H28.4531ZM26.8906 5.80469C26.8906 5.57031 26.9609 5.3724 27.1016 5.21094C27.2474 5.04948 27.4609 4.96875 27.7422 4.96875C28.0182 4.96875 28.2292 5.04948 28.375 5.21094C28.526 5.3724 28.6016 5.57031 28.6016 5.80469C28.6016 6.02865 28.526 6.22135 28.375 6.38281C28.2292 6.53906 28.0182 6.61719 27.7422 6.61719C27.4609 6.61719 27.2474 6.53906 27.1016 6.38281C26.9609 6.22135 26.8906 6.02865 26.8906 5.80469ZM32.7031 16.5H31.2578V7.3125C31.2578 6.67188 31.3828 6.13021 31.6328 5.6875C31.8828 5.24479 32.2396 4.90885 32.7031 4.67969C33.1667 4.45052 33.7161 4.33594 34.3516 4.33594C34.7266 4.33594 35.0938 4.38281 35.4531 4.47656C35.8125 4.5651 36.1823 4.67708 36.5625 4.8125L36.3203 6.03125C36.0807 5.9375 35.8021 5.84896 35.4844 5.76562C35.1719 5.67708 34.8281 5.63281 34.4531 5.63281C33.8333 5.63281 33.3854 5.77344 33.1094 6.05469C32.8385 6.33073 32.7031 6.75 32.7031 7.3125V16.5ZM34.4297 8.04688V9.15625H29.9219V8.04688H34.4297ZM37.2734 8.04688V16.5H35.8281V8.04688H37.2734ZM43.0312 15.4688C43.375 15.4688 43.6927 15.3984 43.9844 15.2578C44.276 15.1172 44.5156 14.9245 44.7031 14.6797C44.8906 14.4297 44.9974 14.1458 45.0234 13.8281H46.3984C46.3724 14.3281 46.2031 14.7943 45.8906 15.2266C45.5833 15.6536 45.1797 16 44.6797 16.2656C44.1797 16.526 43.6302 16.6562 43.0312 16.6562C42.3958 16.6562 41.8411 16.5443 41.3672 16.3203C40.8984 16.0964 40.5078 15.7891 40.1953 15.3984C39.888 15.0078 39.6562 14.5599 39.5 14.0547C39.349 13.5443 39.2734 13.0052 39.2734 12.4375V12.1094C39.2734 11.5417 39.349 11.0052 39.5 10.5C39.6562 9.98958 39.888 9.53906 40.1953 9.14844C40.5078 8.75781 40.8984 8.45052 41.3672 8.22656C41.8411 8.0026 42.3958 7.89062 43.0312 7.89062C43.6927 7.89062 44.2708 8.02604 44.7656 8.29688C45.2604 8.5625 45.6484 8.92708 45.9297 9.39062C46.2161 9.84896 46.3724 10.3698 46.3984 10.9531H45.0234C44.9974 10.6042 44.8984 10.2891 44.7266 10.0078C44.5599 9.72656 44.3307 9.5026 44.0391 9.33594C43.7526 9.16406 43.4167 9.07812 43.0312 9.07812C42.5885 9.07812 42.2161 9.16667 41.9141 9.34375C41.6172 9.51562 41.3802 9.75 41.2031 10.0469C41.0312 10.3385 40.9062 10.6641 40.8281 11.0234C40.7552 11.3776 40.7188 11.7396 40.7188 12.1094V12.4375C40.7188 12.8073 40.7552 13.1719 40.8281 13.5312C40.901 13.8906 41.0234 14.2161 41.1953 14.5078C41.3724 14.7995 41.6094 15.0339 41.9062 15.2109C42.2083 15.3828 42.5833 15.4688 43.0312 15.4688ZM53.0078 15.0547V10.7031C53.0078 10.3698 52.9401 10.0807 52.8047 9.83594C52.6745 9.58594 52.4766 9.39323 52.2109 9.25781C51.9453 9.1224 51.6172 9.05469 51.2266 9.05469C50.862 9.05469 50.5417 9.11719 50.2656 9.24219C49.9948 9.36719 49.7812 9.53125 49.625 9.73438C49.474 9.9375 49.3984 10.1562 49.3984 10.3906H47.9531C47.9531 10.0885 48.0312 9.78906 48.1875 9.49219C48.3438 9.19531 48.5677 8.92708 48.8594 8.6875C49.1562 8.44271 49.5104 8.25 49.9219 8.10938C50.3385 7.96354 50.8021 7.89062 51.3125 7.89062C51.9271 7.89062 52.4688 7.99479 52.9375 8.20312C53.4115 8.41146 53.7812 8.72656 54.0469 9.14844C54.3177 9.5651 54.4531 10.0885 54.4531 10.7188V14.6562C54.4531 14.9375 54.4766 15.237 54.5234 15.5547C54.5755 15.8724 54.651 16.1458 54.75 16.375V16.5H53.2422C53.1693 16.3333 53.112 16.112 53.0703 15.8359C53.0286 15.5547 53.0078 15.2943 53.0078 15.0547ZM53.2578 11.375L53.2734 12.3906H51.8125C51.401 12.3906 51.0339 12.4245 50.7109 12.4922C50.388 12.5547 50.1172 12.651 49.8984 12.7812C49.6797 12.9115 49.513 13.0755 49.3984 13.2734C49.2839 13.4661 49.2266 13.6927 49.2266 13.9531C49.2266 14.2188 49.2865 14.4609 49.4062 14.6797C49.526 14.8984 49.7057 15.0729 49.9453 15.2031C50.1901 15.3281 50.4896 15.3906 50.8438 15.3906C51.2865 15.3906 51.6771 15.2969 52.0156 15.1094C52.3542 14.9219 52.6224 14.6927 52.8203 14.4219C53.0234 14.151 53.1328 13.888 53.1484 13.6328L53.7656 14.3281C53.7292 14.5469 53.6302 14.7891 53.4688 15.0547C53.3073 15.3203 53.0911 15.5755 52.8203 15.8203C52.5547 16.0599 52.237 16.2604 51.8672 16.4219C51.5026 16.5781 51.0911 16.6562 50.6328 16.6562C50.0599 16.6562 49.5573 16.5443 49.125 16.3203C48.6979 16.0964 48.3646 15.7969 48.125 15.4219C47.8906 15.0417 47.7734 14.6172 47.7734 14.1484C47.7734 13.6953 47.862 13.2969 48.0391 12.9531C48.2161 12.6042 48.4714 12.3151 48.8047 12.0859C49.138 11.8516 49.5391 11.6745 50.0078 11.5547C50.4766 11.4349 51 11.375 51.5781 11.375H53.2578ZM60.2656 8.04688V9.15625H55.6953V8.04688H60.2656ZM57.2422 5.99219H58.6875V14.4062C58.6875 14.6927 58.7318 14.9089 58.8203 15.0547C58.9089 15.2005 59.0234 15.2969 59.1641 15.3438C59.3047 15.3906 59.4557 15.4141 59.6172 15.4141C59.737 15.4141 59.862 15.4036 59.9922 15.3828C60.1276 15.3568 60.2292 15.3359 60.2969 15.3203L60.3047 16.5C60.1901 16.5365 60.0391 16.5703 59.8516 16.6016C59.6693 16.638 59.4479 16.6562 59.1875 16.6562C58.8333 16.6562 58.5078 16.5859 58.2109 16.4453C57.9141 16.3047 57.6771 16.0703 57.5 15.7422C57.3281 15.4089 57.2422 14.9609 57.2422 14.3984V5.99219ZM63.5312 8.04688V16.5H62.0781V8.04688H63.5312ZM61.9688 5.80469C61.9688 5.57031 62.0391 5.3724 62.1797 5.21094C62.3255 5.04948 62.5391 4.96875 62.8203 4.96875C63.0964 4.96875 63.3073 5.04948 63.4531 5.21094C63.6042 5.3724 63.6797 5.57031 63.6797 5.80469C63.6797 6.02865 63.6042 6.22135 63.4531 6.38281C63.3073 6.53906 63.0964 6.61719 62.8203 6.61719C62.5391 6.61719 62.3255 6.53906 62.1797 6.38281C62.0391 6.22135 61.9688 6.02865 61.9688 5.80469ZM65.4688 12.3672V12.1875C65.4688 11.5781 65.5573 11.013 65.7344 10.4922C65.9115 9.96615 66.1667 9.51042 66.5 9.125C66.8333 8.73438 67.237 8.43229 67.7109 8.21875C68.1849 8 68.7161 7.89062 69.3047 7.89062C69.8984 7.89062 70.4323 8 70.9062 8.21875C71.3854 8.43229 71.7917 8.73438 72.125 9.125C72.4635 9.51042 72.7214 9.96615 72.8984 10.4922C73.0755 11.013 73.1641 11.5781 73.1641 12.1875V12.3672C73.1641 12.9766 73.0755 13.5417 72.8984 14.0625C72.7214 14.5833 72.4635 15.0391 72.125 15.4297C71.7917 15.8151 71.388 16.1172 70.9141 16.3359C70.4453 16.5495 69.9141 16.6562 69.3203 16.6562C68.7266 16.6562 68.1927 16.5495 67.7188 16.3359C67.2448 16.1172 66.8385 15.8151 66.5 15.4297C66.1667 15.0391 65.9115 14.5833 65.7344 14.0625C65.5573 13.5417 65.4688 12.9766 65.4688 12.3672ZM66.9141 12.1875V12.3672C66.9141 12.7891 66.9635 13.1875 67.0625 13.5625C67.1615 13.9323 67.3099 14.2604 67.5078 14.5469C67.7109 14.8333 67.9635 15.0599 68.2656 15.2266C68.5677 15.388 68.9193 15.4688 69.3203 15.4688C69.7161 15.4688 70.0625 15.388 70.3594 15.2266C70.6615 15.0599 70.9115 14.8333 71.1094 14.5469C71.3073 14.2604 71.4557 13.9323 71.5547 13.5625C71.6589 13.1875 71.7109 12.7891 71.7109 12.3672V12.1875C71.7109 11.7708 71.6589 11.3776 71.5547 11.0078C71.4557 10.6328 71.3047 10.3021 71.1016 10.0156C70.9036 9.72396 70.6536 9.49479 70.3516 9.32812C70.0547 9.16146 69.7057 9.07812 69.3047 9.07812C68.9089 9.07812 68.5599 9.16146 68.2578 9.32812C67.9609 9.49479 67.7109 9.72396 67.5078 10.0156C67.3099 10.3021 67.1615 10.6328 67.0625 11.0078C66.9635 11.3776 66.9141 11.7708 66.9141 12.1875ZM76.4219 9.85156V16.5H74.9766V8.04688H76.3438L76.4219 9.85156ZM76.0781 11.9531L75.4766 11.9297C75.4818 11.3516 75.5677 10.8177 75.7344 10.3281C75.901 9.83333 76.1354 9.40365 76.4375 9.03906C76.7396 8.67448 77.099 8.39323 77.5156 8.19531C77.9375 7.99219 78.4036 7.89062 78.9141 7.89062C79.3307 7.89062 79.7057 7.94792 80.0391 8.0625C80.3724 8.17188 80.6562 8.34896 80.8906 8.59375C81.1302 8.83854 81.3125 9.15625 81.4375 9.54688C81.5625 9.93229 81.625 10.4036 81.625 10.9609V16.5H80.1719V10.9453C80.1719 10.5026 80.1068 10.1484 79.9766 9.88281C79.8464 9.61198 79.6562 9.41667 79.4062 9.29688C79.1562 9.17188 78.849 9.10938 78.4844 9.10938C78.125 9.10938 77.7969 9.1849 77.5 9.33594C77.2083 9.48698 76.9557 9.69531 76.7422 9.96094C76.5339 10.2266 76.3698 10.5312 76.25 10.875C76.1354 11.2135 76.0781 11.5729 76.0781 11.9531ZM88.7422 14.2578C88.7422 14.0495 88.6953 13.8568 88.6016 13.6797C88.513 13.4974 88.3281 13.3333 88.0469 13.1875C87.7708 13.0365 87.3542 12.9062 86.7969 12.7969C86.3281 12.6979 85.9036 12.5807 85.5234 12.4453C85.1484 12.3099 84.8281 12.1458 84.5625 11.9531C84.3021 11.7604 84.1016 11.5339 83.9609 11.2734C83.8203 11.013 83.75 10.7083 83.75 10.3594C83.75 10.026 83.8229 9.71094 83.9688 9.41406C84.1198 9.11719 84.3307 8.85417 84.6016 8.625C84.8776 8.39583 85.2083 8.21615 85.5938 8.08594C85.9792 7.95573 86.4089 7.89062 86.8828 7.89062C87.5599 7.89062 88.138 8.01042 88.6172 8.25C89.0964 8.48958 89.4635 8.8099 89.7188 9.21094C89.974 9.60677 90.1016 10.0469 90.1016 10.5312H88.6562C88.6562 10.2969 88.5859 10.0703 88.4453 9.85156C88.3099 9.6276 88.1094 9.44271 87.8438 9.29688C87.5833 9.15104 87.263 9.07812 86.8828 9.07812C86.4818 9.07812 86.1562 9.14062 85.9062 9.26562C85.6615 9.38542 85.4818 9.53906 85.3672 9.72656C85.2578 9.91406 85.2031 10.112 85.2031 10.3203C85.2031 10.4766 85.2292 10.6172 85.2812 10.7422C85.3385 10.862 85.4375 10.974 85.5781 11.0781C85.7188 11.1771 85.9167 11.2708 86.1719 11.3594C86.4271 11.4479 86.7526 11.5365 87.1484 11.625C87.8411 11.7812 88.4115 11.9688 88.8594 12.1875C89.3073 12.4062 89.6406 12.6745 89.8594 12.9922C90.0781 13.3099 90.1875 13.6953 90.1875 14.1484C90.1875 14.5182 90.1094 14.8568 89.9531 15.1641C89.8021 15.4714 89.5807 15.737 89.2891 15.9609C89.0026 16.1797 88.6589 16.3516 88.2578 16.4766C87.862 16.5964 87.4167 16.6562 86.9219 16.6562C86.1771 16.6562 85.5469 16.5234 85.0312 16.2578C84.5156 15.9922 84.125 15.6484 83.8594 15.2266C83.5938 14.8047 83.4609 14.3594 83.4609 13.8906H84.9141C84.9349 14.2865 85.0495 14.6016 85.2578 14.8359C85.4661 15.0651 85.7214 15.2292 86.0234 15.3281C86.3255 15.4219 86.625 15.4688 86.9219 15.4688C87.3177 15.4688 87.6484 15.4167 87.9141 15.3125C88.1849 15.2083 88.3906 15.0651 88.5312 14.8828C88.6719 14.7005 88.7422 14.4922 88.7422 14.2578Z" fill="white"/>
</g>
</svg>
