<svg width="18" height="18" viewBox="0 0 18 18" fill="none" xmlns="http://www.w3.org/2000/svg">
<path d="M12.5813 3.59999L15.4 6.41874C15.5187 6.53749 15.5187 6.73124 15.4 6.84999L8.575 13.675L5.675 13.9969C5.2875 14.0406 4.95938 13.7125 5.00313 13.325L5.325 10.425L12.15 3.59999C12.2687 3.48124 12.4625 3.48124 12.5813 3.59999ZM17.6437 2.88436L16.1187 1.35936C15.6437 0.884363 14.8719 0.884363 14.3938 1.35936L13.2875 2.46561C13.1688 2.58436 13.1688 2.77811 13.2875 2.89686L16.1063 5.71561C16.225 5.83436 16.4188 5.83436 16.5375 5.71561L17.6437 4.60936C18.1187 4.13124 18.1187 3.35936 17.6437 2.88436ZM12 11.8187V15H2V4.99999H9.18125C9.28125 4.99999 9.375 4.95936 9.44687 4.89061L10.6969 3.64061C10.9344 3.40311 10.7656 2.99999 10.4312 2.99999H1.5C0.671875 2.99999 0 3.67186 0 4.49999V15.5C0 16.3281 0.671875 17 1.5 17H12.5C13.3281 17 14 16.3281 14 15.5V10.5687C14 10.2344 13.5969 10.0687 13.3594 10.3031L12.1094 11.5531C12.0406 11.625 12 11.7187 12 11.8187Z" fill="black"/>
</svg>
