<svg width="65" height="17" viewBox="0 0 65 17" fill="none" xmlns="http://www.w3.org/2000/svg">
<mask id="mask0_14_5069" style="mask-type:luminance" maskUnits="userSpaceOnUse" x="0" y="0" width="65" height="17">
<path d="M65 0H0V17H65V0Z" fill="white"/>
</mask>
<g mask="url(#mask0_14_5069)">
<path d="M1.57227 4.04688H2.85059L6.11133 12.1611L9.36523 4.04688H10.6504L6.60352 14H5.60547L1.57227 4.04688ZM1.15527 4.04688H2.2832L2.46777 10.1172V14H1.15527V4.04688ZM9.93262 4.04688H11.0605V14H9.74805V10.1172L9.93262 4.04688ZM12.8516 10.3838V10.2266C12.8516 9.69336 12.929 9.19889 13.084 8.74316C13.2389 8.28288 13.4622 7.88411 13.7539 7.54688C14.0456 7.20508 14.3988 6.94076 14.8135 6.75391C15.2282 6.5625 15.693 6.4668 16.208 6.4668C16.7275 6.4668 17.1947 6.5625 17.6094 6.75391C18.0286 6.94076 18.3841 7.20508 18.6758 7.54688C18.972 7.88411 19.1976 8.28288 19.3525 8.74316C19.5075 9.19889 19.585 9.69336 19.585 10.2266V10.3838C19.585 10.917 19.5075 11.4115 19.3525 11.8672C19.1976 12.3229 18.972 12.7217 18.6758 13.0635C18.3841 13.4007 18.0309 13.665 17.6162 13.8564C17.2061 14.0433 16.7412 14.1367 16.2217 14.1367C15.7021 14.1367 15.235 14.0433 14.8203 13.8564C14.4056 13.665 14.0501 13.4007 13.7539 13.0635C13.4622 12.7217 13.2389 12.3229 13.084 11.8672C12.929 11.4115 12.8516 10.917 12.8516 10.3838ZM14.1162 10.2266V10.3838C14.1162 10.7529 14.1595 11.1016 14.2461 11.4297C14.3327 11.7533 14.4626 12.0404 14.6357 12.291C14.8135 12.5417 15.0345 12.7399 15.2988 12.8857C15.5632 13.027 15.8708 13.0977 16.2217 13.0977C16.568 13.0977 16.8711 13.027 17.1309 12.8857C17.3952 12.7399 17.6139 12.5417 17.7871 12.291C17.9603 12.0404 18.0902 11.7533 18.1768 11.4297C18.2679 11.1016 18.3135 10.7529 18.3135 10.3838V10.2266C18.3135 9.86198 18.2679 9.5179 18.1768 9.19434C18.0902 8.86621 17.958 8.57682 17.7803 8.32617C17.6071 8.07096 17.3883 7.87044 17.124 7.72461C16.8643 7.57878 16.5589 7.50586 16.208 7.50586C15.8617 7.50586 15.5563 7.57878 15.292 7.72461C15.0322 7.87044 14.8135 8.07096 14.6357 8.32617C14.4626 8.57682 14.3327 8.86621 14.2461 9.19434C14.1595 9.5179 14.1162 9.86198 14.1162 10.2266ZM25.833 12.5645V3.5H27.1045V14H25.9424L25.833 12.5645ZM20.8564 10.3838V10.2402C20.8564 9.67513 20.9248 9.16243 21.0615 8.70215C21.2028 8.2373 21.401 7.83854 21.6562 7.50586C21.916 7.17318 22.2236 6.91797 22.5791 6.74023C22.9391 6.55794 23.3402 6.4668 23.7822 6.4668C24.2471 6.4668 24.6527 6.54883 24.999 6.71289C25.3499 6.8724 25.6462 7.1071 25.8877 7.41699C26.1338 7.72233 26.3275 8.09147 26.4688 8.52441C26.61 8.95736 26.708 9.44727 26.7627 9.99414V10.623C26.7126 11.1654 26.6146 11.653 26.4688 12.0859C26.3275 12.5189 26.1338 12.888 25.8877 13.1934C25.6462 13.4987 25.3499 13.7334 24.999 13.8975C24.6481 14.057 24.238 14.1367 23.7686 14.1367C23.3356 14.1367 22.9391 14.0433 22.5791 13.8564C22.2236 13.6696 21.916 13.4076 21.6562 13.0703C21.401 12.7331 21.2028 12.3366 21.0615 11.8809C20.9248 11.4206 20.8564 10.9215 20.8564 10.3838ZM22.1279 10.2402V10.3838C22.1279 10.7529 22.1644 11.0993 22.2373 11.4229C22.3148 11.7464 22.4333 12.0312 22.5928 12.2773C22.7523 12.5234 22.9551 12.7171 23.2012 12.8584C23.4473 12.9951 23.7412 13.0635 24.083 13.0635C24.5023 13.0635 24.8464 12.9746 25.1152 12.7969C25.3887 12.6191 25.6074 12.3844 25.7715 12.0928C25.9355 11.8011 26.0632 11.4844 26.1543 11.1426V9.49512C26.0996 9.24447 26.0199 9.00293 25.915 8.77051C25.8148 8.53353 25.6826 8.32389 25.5186 8.1416C25.359 7.95475 25.1608 7.80664 24.9238 7.69727C24.6914 7.58789 24.4157 7.5332 24.0967 7.5332C23.7503 7.5332 23.4518 7.60612 23.2012 7.75195C22.9551 7.89323 22.7523 8.08919 22.5928 8.33984C22.4333 8.58594 22.3148 8.87305 22.2373 9.20117C22.1644 9.52474 22.1279 9.87109 22.1279 10.2402ZM32.1426 14.1367C31.6276 14.1367 31.1605 14.0501 30.7412 13.877C30.3265 13.6992 29.9688 13.4508 29.668 13.1318C29.3717 12.8128 29.1439 12.4346 28.9844 11.9971C28.8249 11.5596 28.7451 11.0811 28.7451 10.5615V10.2744C28.7451 9.67285 28.834 9.13737 29.0117 8.66797C29.1895 8.19401 29.431 7.79297 29.7363 7.46484C30.0417 7.13672 30.388 6.88835 30.7754 6.71973C31.1628 6.55111 31.5638 6.4668 31.9785 6.4668C32.5072 6.4668 32.9629 6.55794 33.3457 6.74023C33.7331 6.92253 34.0498 7.17773 34.2959 7.50586C34.542 7.82943 34.7243 8.21224 34.8428 8.6543C34.9613 9.0918 35.0205 9.57031 35.0205 10.0898V10.6572H29.4971V9.625H33.7559V9.5293C33.7376 9.20117 33.6693 8.88216 33.5508 8.57227C33.4368 8.26237 33.2546 8.00716 33.0039 7.80664C32.7533 7.60612 32.4115 7.50586 31.9785 7.50586C31.6914 7.50586 31.4271 7.56738 31.1855 7.69043C30.944 7.80892 30.7367 7.98665 30.5635 8.22363C30.3903 8.46061 30.2559 8.75 30.1602 9.0918C30.0645 9.43359 30.0166 9.8278 30.0166 10.2744V10.5615C30.0166 10.9124 30.0645 11.2428 30.1602 11.5527C30.2604 11.8581 30.404 12.127 30.5908 12.3594C30.7822 12.5918 31.0124 12.7741 31.2812 12.9062C31.5547 13.0384 31.8646 13.1045 32.2109 13.1045C32.6576 13.1045 33.0358 13.0133 33.3457 12.8311C33.6556 12.6488 33.9268 12.4049 34.1592 12.0996L34.9248 12.708C34.7653 12.9495 34.5625 13.1797 34.3164 13.3984C34.0703 13.6172 33.7673 13.7949 33.4072 13.9316C33.0518 14.0684 32.6302 14.1367 32.1426 14.1367ZM37.7617 7.76562V14H36.4971V6.60352H37.7275L37.7617 7.76562ZM40.0723 6.5625L40.0654 7.73828C39.9606 7.71549 39.8604 7.70182 39.7646 7.69727C39.6735 7.68815 39.5687 7.68359 39.4502 7.68359C39.1585 7.68359 38.901 7.72917 38.6777 7.82031C38.4544 7.91146 38.2653 8.03906 38.1104 8.20312C37.9554 8.36719 37.8324 8.56315 37.7412 8.79102C37.6546 9.01432 37.5977 9.26042 37.5703 9.5293L37.2148 9.73438C37.2148 9.28776 37.2581 8.86849 37.3447 8.47656C37.4359 8.08464 37.5749 7.73828 37.7617 7.4375C37.9486 7.13216 38.1855 6.89518 38.4727 6.72656C38.7643 6.55339 39.1107 6.4668 39.5117 6.4668C39.6029 6.4668 39.7077 6.47819 39.8262 6.50098C39.9447 6.51921 40.0267 6.53971 40.0723 6.5625ZM45.3291 12.7354V8.92773C45.3291 8.63607 45.2699 8.38314 45.1514 8.16895C45.0374 7.9502 44.8643 7.78158 44.6318 7.66309C44.3994 7.5446 44.1123 7.48535 43.7705 7.48535C43.4515 7.48535 43.1712 7.54004 42.9297 7.64941C42.6927 7.75879 42.5059 7.90234 42.3691 8.08008C42.237 8.25781 42.1709 8.44922 42.1709 8.6543H40.9062C40.9062 8.38997 40.9746 8.12793 41.1113 7.86816C41.248 7.6084 41.444 7.3737 41.6992 7.16406C41.959 6.94987 42.2689 6.78125 42.6289 6.6582C42.9935 6.5306 43.3991 6.4668 43.8457 6.4668C44.3835 6.4668 44.8574 6.55794 45.2676 6.74023C45.6823 6.92253 46.0059 7.19824 46.2383 7.56738C46.4753 7.93197 46.5938 8.38997 46.5938 8.94141V12.3867C46.5938 12.6328 46.6143 12.8949 46.6553 13.1729C46.7008 13.4508 46.7669 13.6901 46.8535 13.8906V14H45.5342C45.4704 13.8542 45.4202 13.6605 45.3838 13.4189C45.3473 13.1729 45.3291 12.945 45.3291 12.7354ZM45.5479 9.51562L45.5615 10.4043H44.2832C43.9232 10.4043 43.6019 10.4339 43.3193 10.4932C43.0368 10.5479 42.7998 10.6322 42.6084 10.7461C42.417 10.86 42.2712 11.0036 42.1709 11.1768C42.0706 11.3454 42.0205 11.5436 42.0205 11.7715C42.0205 12.0039 42.0729 12.2158 42.1777 12.4072C42.2826 12.5986 42.4398 12.7513 42.6494 12.8652C42.8636 12.9746 43.1257 13.0293 43.4355 13.0293C43.8229 13.0293 44.1647 12.9473 44.4609 12.7832C44.7572 12.6191 44.9919 12.4186 45.165 12.1816C45.3428 11.9447 45.4385 11.7145 45.4521 11.4912L45.9922 12.0996C45.9603 12.291 45.8737 12.5029 45.7324 12.7354C45.5911 12.9678 45.402 13.1911 45.165 13.4053C44.9326 13.6149 44.6546 13.7904 44.3311 13.9316C44.012 14.0684 43.652 14.1367 43.251 14.1367C42.7497 14.1367 42.3099 14.0387 41.9316 13.8428C41.5579 13.6468 41.2663 13.3848 41.0566 13.0566C40.8516 12.724 40.749 12.3525 40.749 11.9424C40.749 11.5459 40.8265 11.1973 40.9814 10.8965C41.1364 10.5911 41.3597 10.3382 41.6514 10.1377C41.943 9.93262 42.2939 9.77767 42.7041 9.67285C43.1143 9.56803 43.5723 9.51562 44.0781 9.51562H45.5479ZM51.6797 6.60352V7.57422H47.6807V6.60352H51.6797ZM49.0342 4.80566H50.2988V12.168C50.2988 12.4186 50.3376 12.6077 50.415 12.7354C50.4925 12.863 50.5928 12.9473 50.7158 12.9883C50.8389 13.0293 50.971 13.0498 51.1123 13.0498C51.2171 13.0498 51.3265 13.0407 51.4404 13.0225C51.5589 12.9997 51.6478 12.9814 51.707 12.9678L51.7139 14C51.6136 14.0319 51.4814 14.0615 51.3174 14.0889C51.1579 14.1208 50.9642 14.1367 50.7363 14.1367C50.4264 14.1367 50.1416 14.0752 49.8818 13.9521C49.6221 13.8291 49.4147 13.624 49.2598 13.3369C49.1094 13.0452 49.0342 12.6533 49.0342 12.1611V4.80566ZM52.6914 10.3838V10.2266C52.6914 9.69336 52.7689 9.19889 52.9238 8.74316C53.0788 8.28288 53.3021 7.88411 53.5938 7.54688C53.8854 7.20508 54.2386 6.94076 54.6533 6.75391C55.068 6.5625 55.5329 6.4668 56.0479 6.4668C56.5674 6.4668 57.0345 6.5625 57.4492 6.75391C57.8685 6.94076 58.224 7.20508 58.5156 7.54688C58.8118 7.88411 59.0374 8.28288 59.1924 8.74316C59.3473 9.19889 59.4248 9.69336 59.4248 10.2266V10.3838C59.4248 10.917 59.3473 11.4115 59.1924 11.8672C59.0374 12.3229 58.8118 12.7217 58.5156 13.0635C58.224 13.4007 57.8708 13.665 57.4561 13.8564C57.0459 14.0433 56.5811 14.1367 56.0615 14.1367C55.542 14.1367 55.0749 14.0433 54.6602 13.8564C54.2454 13.665 53.89 13.4007 53.5938 13.0635C53.3021 12.7217 53.0788 12.3229 52.9238 11.8672C52.7689 11.4115 52.6914 10.917 52.6914 10.3838ZM53.9561 10.2266V10.3838C53.9561 10.7529 53.9993 11.1016 54.0859 11.4297C54.1725 11.7533 54.3024 12.0404 54.4756 12.291C54.6533 12.5417 54.8743 12.7399 55.1387 12.8857C55.403 13.027 55.7106 13.0977 56.0615 13.0977C56.4079 13.0977 56.7109 13.027 56.9707 12.8857C57.235 12.7399 57.4538 12.5417 57.627 12.291C57.8001 12.0404 57.93 11.7533 58.0166 11.4297C58.1077 11.1016 58.1533 10.7529 58.1533 10.3838V10.2266C58.1533 9.86198 58.1077 9.5179 58.0166 9.19434C57.93 8.86621 57.7979 8.57682 57.6201 8.32617C57.4469 8.07096 57.2282 7.87044 56.9639 7.72461C56.7041 7.57878 56.3988 7.50586 56.0479 7.50586C55.7015 7.50586 55.3962 7.57878 55.1318 7.72461C54.8721 7.87044 54.6533 8.07096 54.4756 8.32617C54.3024 8.57682 54.1725 8.86621 54.0859 9.19434C53.9993 9.5179 53.9561 9.86198 53.9561 10.2266ZM62.2754 7.76562V14H61.0107V6.60352H62.2412L62.2754 7.76562ZM64.5859 6.5625L64.5791 7.73828C64.4743 7.71549 64.374 7.70182 64.2783 7.69727C64.1872 7.68815 64.0824 7.68359 63.9639 7.68359C63.6722 7.68359 63.4147 7.72917 63.1914 7.82031C62.9681 7.91146 62.779 8.03906 62.624 8.20312C62.4691 8.36719 62.346 8.56315 62.2549 8.79102C62.1683 9.01432 62.1113 9.26042 62.084 9.5293L61.7285 9.73438C61.7285 9.28776 61.7718 8.86849 61.8584 8.47656C61.9495 8.08464 62.0885 7.73828 62.2754 7.4375C62.4622 7.13216 62.6992 6.89518 62.9863 6.72656C63.278 6.55339 63.6243 6.4668 64.0254 6.4668C64.1165 6.4668 64.2214 6.47819 64.3398 6.50098C64.4583 6.51921 64.5404 6.53971 64.5859 6.5625Z" fill="black"/>
</g>
</svg>
