<svg width="103" height="18" viewBox="0 0 103 18" fill="none" xmlns="http://www.w3.org/2000/svg">
<mask id="mask0_14_3586" style="mask-type:luminance" maskUnits="userSpaceOnUse" x="0" y="0" width="103" height="18">
<path d="M103 0H0V18H103V0Z" fill="white"/>
</mask>
<g mask="url(#mask0_14_3586)">
<path d="M1.568 16.5V5.3H8.624V6.964H3.296V14.836H8.624V16.5H1.568ZM2.352 11.588V9.924H7.744V11.588H2.352ZM10.9801 16.5V8.1H12.6281V9.828L12.3401 10.02C12.4468 9.64667 12.6548 9.30533 12.9641 8.996C13.2735 8.676 13.6415 8.42 14.0681 8.228C14.4948 8.02533 14.9321 7.924 15.3801 7.924C16.0201 7.924 16.5535 8.052 16.9801 8.308C17.4068 8.55333 17.7268 8.932 17.9401 9.444C18.1535 9.956 18.2601 10.6013 18.2601 11.38V16.5H16.6121V11.492C16.6121 11.012 16.5481 10.6173 16.4201 10.308C16.2921 9.988 16.0948 9.75867 15.8281 9.62C15.5615 9.47067 15.2308 9.40667 14.8361 9.428C14.5161 9.428 14.2228 9.48133 13.9561 9.588C13.6895 9.684 13.4548 9.82267 13.2521 10.004C13.0601 10.1853 12.9055 10.3987 12.7881 10.644C12.6815 10.8787 12.6281 11.1347 12.6281 11.412V16.5H11.8121C11.6735 16.5 11.5348 16.5 11.3961 16.5C11.2575 16.5 11.1188 16.5 10.9801 16.5ZM21.5358 16.5V5.956H23.1838V16.5H21.5358ZM19.7918 9.7V8.1H25.1358V9.7H19.7918ZM30.4783 16.66C29.6143 16.66 28.8463 16.4787 28.1743 16.116C27.5129 15.7427 26.9903 15.236 26.6063 14.596C26.2329 13.956 26.0463 13.22 26.0463 12.388C26.0463 11.7267 26.1529 11.124 26.3663 10.58C26.5796 10.036 26.8729 9.56667 27.2463 9.172C27.6303 8.76667 28.0836 8.45733 28.6063 8.244C29.1396 8.02 29.7156 7.908 30.3343 7.908C30.8783 7.908 31.3849 8.01467 31.8543 8.228C32.3236 8.43067 32.7289 8.71333 33.0703 9.076C33.4223 9.43867 33.6889 9.87067 33.8703 10.372C34.0623 10.8627 34.1529 11.4013 34.1423 11.988L34.1263 12.692H27.2623L26.8943 11.38H32.7023L32.4623 11.652V11.268C32.4303 10.916 32.3129 10.6013 32.1103 10.324C31.9076 10.0467 31.6516 9.828 31.3423 9.668C31.0329 9.508 30.6969 9.428 30.3343 9.428C29.7583 9.428 29.2729 9.54 28.8783 9.764C28.4836 9.97733 28.1849 10.2973 27.9823 10.724C27.7796 11.14 27.6783 11.6573 27.6783 12.276C27.6783 12.8627 27.8009 13.3747 28.0463 13.812C28.2916 14.2387 28.6383 14.5693 29.0863 14.804C29.5343 15.0387 30.0516 15.156 30.6383 15.156C31.0543 15.156 31.4383 15.0867 31.7903 14.948C32.1529 14.8093 32.5423 14.5587 32.9583 14.196L33.7903 15.364C33.5343 15.62 33.2196 15.844 32.8463 16.036C32.4836 16.228 32.0943 16.3827 31.6783 16.5C31.2729 16.6067 30.8729 16.66 30.4783 16.66ZM35.9333 16.5V8.1H37.5973V10.74L37.4373 10.1C37.5546 9.69467 37.7519 9.32667 38.0293 8.996C38.3173 8.66533 38.6426 8.404 39.0052 8.212C39.3786 8.02 39.7626 7.924 40.1573 7.924C40.3386 7.924 40.5093 7.94 40.6693 7.972C40.8399 8.004 40.9733 8.04133 41.0693 8.084L40.6373 9.876C40.5093 9.82267 40.3653 9.78 40.2053 9.748C40.0559 9.70533 39.9066 9.684 39.7573 9.684C39.4693 9.684 39.1919 9.74267 38.9253 9.86C38.6693 9.96667 38.4399 10.1213 38.2373 10.324C38.0453 10.516 37.8906 10.7453 37.7733 11.012C37.6559 11.268 37.5973 11.5507 37.5973 11.86V16.5H35.9333ZM43.7389 16.5V5.956H45.3869V16.5H43.7389ZM41.9949 9.7V8.1H47.3389V9.7H41.9949ZM51.9934 16.66C51.3 16.66 50.6654 16.468 50.0894 16.084C49.524 15.7 49.0707 15.1773 48.7294 14.516C48.388 13.8547 48.2174 13.108 48.2174 12.276C48.2174 11.4333 48.388 10.6867 48.7294 10.036C49.0814 9.37467 49.5507 8.85733 50.1374 8.484C50.7347 8.11067 51.4014 7.924 52.1374 7.924C52.5747 7.924 52.9747 7.988 53.3374 8.116C53.7 8.244 54.0147 8.42533 54.2814 8.66C54.5587 8.884 54.7827 9.14533 54.9534 9.444C55.1347 9.74267 55.2467 10.0627 55.2894 10.404L54.9214 10.276V8.1H56.5854V16.5H54.9214V14.5L55.3054 14.388C55.2414 14.676 55.108 14.9587 54.9054 15.236C54.7134 15.5027 54.4627 15.7427 54.1534 15.956C53.8547 16.1693 53.5187 16.34 53.1454 16.468C52.7827 16.596 52.3987 16.66 51.9934 16.66ZM52.4254 15.14C52.9267 15.14 53.3694 15.0173 53.7534 14.772C54.1374 14.5267 54.436 14.1907 54.6494 13.764C54.8734 13.3267 54.9854 12.8307 54.9854 12.276C54.9854 11.732 54.8734 11.2467 54.6494 10.82C54.436 10.3933 54.1374 10.0573 53.7534 9.812C53.3694 9.56667 52.9267 9.444 52.4254 9.444C51.9347 9.444 51.4974 9.56667 51.1134 9.812C50.74 10.0573 50.4414 10.3933 50.2174 10.82C50.004 11.2467 49.8974 11.732 49.8974 12.276C49.8974 12.8307 50.004 13.3267 50.2174 13.764C50.4414 14.1907 50.74 14.5267 51.1134 14.772C51.4974 15.0173 51.9347 15.14 52.4254 15.14ZM59.1584 16.5V8.1H60.8064V16.5H59.1584ZM59.9584 6.244C59.6064 6.244 59.3344 6.15333 59.1424 5.972C58.9504 5.79067 58.8544 5.53467 58.8544 5.204C58.8544 4.89467 58.9504 4.644 59.1424 4.452C59.345 4.26 59.617 4.164 59.9584 4.164C60.3104 4.164 60.5824 4.25467 60.7744 4.436C60.9664 4.61733 61.0624 4.87333 61.0624 5.204C61.0624 5.51333 60.961 5.764 60.7584 5.956C60.5664 6.148 60.2997 6.244 59.9584 6.244ZM63.3395 16.5V8.1H64.9875V9.828L64.6995 10.02C64.8062 9.64667 65.0142 9.30533 65.3235 8.996C65.6328 8.676 66.0008 8.42 66.4275 8.228C66.8542 8.02533 67.2915 7.924 67.7395 7.924C68.3795 7.924 68.9128 8.052 69.3395 8.308C69.7662 8.55333 70.0862 8.932 70.2995 9.444C70.5128 9.956 70.6195 10.6013 70.6195 11.38V16.5H68.9715V11.492C68.9715 11.012 68.9075 10.6173 68.7795 10.308C68.6515 9.988 68.4542 9.75867 68.1875 9.62C67.9208 9.47067 67.5902 9.40667 67.1955 9.428C66.8755 9.428 66.5822 9.48133 66.3155 9.588C66.0488 9.684 65.8142 9.82267 65.6115 10.004C65.4195 10.1853 65.2648 10.3987 65.1475 10.644C65.0408 10.8787 64.9875 11.1347 64.9875 11.412V16.5H64.1715C64.0328 16.5 63.8942 16.5 63.7555 16.5C63.6168 16.5 63.4782 16.5 63.3395 16.5ZM72.8231 16.5V8.1H74.4871V9.892L74.1831 10.084C74.2685 9.80667 74.4018 9.54 74.5831 9.284C74.7751 9.028 75.0045 8.804 75.2711 8.612C75.5485 8.40933 75.8418 8.24933 76.1511 8.132C76.4711 8.01467 76.7965 7.956 77.1271 7.956C77.6071 7.956 78.0285 8.036 78.3911 8.196C78.7538 8.356 79.0525 8.596 79.2871 8.916C79.5218 9.236 79.6925 9.636 79.7991 10.116L79.5431 10.052L79.6551 9.78C79.7725 9.53467 79.9325 9.30533 80.1351 9.092C80.3485 8.868 80.5885 8.67067 80.8551 8.5C81.1218 8.32933 81.4045 8.196 81.7031 8.1C82.0018 8.004 82.2951 7.956 82.5831 7.956C83.2125 7.956 83.7298 8.084 84.1351 8.34C84.5511 8.596 84.8605 8.98533 85.0631 9.508C85.2765 10.0307 85.3831 10.6813 85.3831 11.46V16.5H83.7191V11.556C83.7191 11.076 83.6551 10.6867 83.5271 10.388C83.4098 10.0787 83.2285 9.84933 82.9831 9.7C82.7378 9.55067 82.4231 9.476 82.0391 9.476C81.7405 9.476 81.4578 9.52933 81.1911 9.636C80.9351 9.732 80.7111 9.87067 80.5191 10.052C80.3271 10.2333 80.1778 10.4467 80.0711 10.692C79.9645 10.9267 79.9111 11.188 79.9111 11.476V16.5H78.2471V11.524C78.2471 11.0867 78.1831 10.7187 78.0551 10.42C77.9271 10.1107 77.7405 9.876 77.4951 9.716C77.2498 9.556 76.9511 9.476 76.5991 9.476C76.3005 9.476 76.0231 9.52933 75.7671 9.636C75.5111 9.732 75.2871 9.87067 75.0951 10.052C74.9031 10.2227 74.7538 10.4307 74.6471 10.676C74.5405 10.9107 74.4871 11.1667 74.4871 11.444V16.5H72.8231ZM91.5095 16.66C90.6455 16.66 89.8775 16.4787 89.2055 16.116C88.5442 15.7427 88.0215 15.236 87.6375 14.596C87.2642 13.956 87.0775 13.22 87.0775 12.388C87.0775 11.7267 87.1842 11.124 87.3975 10.58C87.6108 10.036 87.9042 9.56667 88.2775 9.172C88.6615 8.76667 89.1148 8.45733 89.6375 8.244C90.1708 8.02 90.7468 7.908 91.3655 7.908C91.9095 7.908 92.4162 8.01467 92.8855 8.228C93.3548 8.43067 93.7602 8.71333 94.1015 9.076C94.4535 9.43867 94.7202 9.87067 94.9015 10.372C95.0935 10.8627 95.1842 11.4013 95.1735 11.988L95.1575 12.692H88.2935L87.9255 11.38H93.7335L93.4935 11.652V11.268C93.4615 10.916 93.3442 10.6013 93.1415 10.324C92.9388 10.0467 92.6828 9.828 92.3735 9.668C92.0642 9.508 91.7282 9.428 91.3655 9.428C90.7895 9.428 90.3042 9.54 89.9095 9.764C89.5148 9.97733 89.2162 10.2973 89.0135 10.724C88.8108 11.14 88.7095 11.6573 88.7095 12.276C88.7095 12.8627 88.8322 13.3747 89.0775 13.812C89.3228 14.2387 89.6695 14.5693 90.1175 14.804C90.5655 15.0387 91.0828 15.156 91.6695 15.156C92.0855 15.156 92.4695 15.0867 92.8215 14.948C93.1842 14.8093 93.5735 14.5587 93.9895 14.196L94.8215 15.364C94.5655 15.62 94.2508 15.844 93.8775 16.036C93.5148 16.228 93.1255 16.3827 92.7095 16.5C92.3042 16.6067 91.9042 16.66 91.5095 16.66Z" fill="black"/>
</g>
</svg>
