<svg width="35" height="14" viewBox="0 0 35 14" fill="none" xmlns="http://www.w3.org/2000/svg">
<mask id="mask0_11_2613" style="mask-type:luminance" maskUnits="userSpaceOnUse" x="0" y="0" width="35" height="14">
<path d="M35 0H0V14H35V0Z" fill="white"/>
</mask>
<g mask="url(#mask0_11_2613)">
<path d="M4.23047 3.92773L1.91016 11H0.0410156L3.21094 2.46875H4.40039L4.23047 3.92773ZM6.1582 11L3.83203 3.92773L3.64453 2.46875H4.8457L8.0332 11H6.1582ZM6.05273 7.82422V9.20117H1.54688V7.82422H6.05273ZM11.3379 9.79883C11.5449 9.79883 11.7285 9.75977 11.8887 9.68164C12.0488 9.59961 12.1738 9.48633 12.2637 9.3418C12.3574 9.19336 12.4062 9.01953 12.4102 8.82031H13.998C13.9941 9.26562 13.875 9.66211 13.6406 10.0098C13.4062 10.3535 13.0918 10.625 12.6973 10.8242C12.3027 11.0195 11.8613 11.1172 11.373 11.1172C10.8809 11.1172 10.4512 11.0352 10.084 10.8711C9.7207 10.707 9.41797 10.4805 9.17578 10.1914C8.93359 9.89844 8.75195 9.55859 8.63086 9.17188C8.50977 8.78125 8.44922 8.36328 8.44922 7.91797V7.74805C8.44922 7.29883 8.50977 6.88086 8.63086 6.49414C8.75195 6.10352 8.93359 5.76367 9.17578 5.47461C9.41797 5.18164 9.7207 4.95312 10.084 4.78906C10.4473 4.625 10.873 4.54297 11.3613 4.54297C11.8809 4.54297 12.3359 4.64258 12.7266 4.8418C13.1211 5.04102 13.4297 5.32617 13.6523 5.69727C13.8789 6.06445 13.9941 6.5 13.998 7.00391H12.4102C12.4062 6.79297 12.3613 6.60156 12.2754 6.42969C12.1934 6.25781 12.0723 6.12109 11.9121 6.01953C11.7559 5.91406 11.5625 5.86133 11.332 5.86133C11.0859 5.86133 10.8848 5.91406 10.7285 6.01953C10.5723 6.12109 10.4512 6.26172 10.3652 6.44141C10.2793 6.61719 10.2188 6.81836 10.1836 7.04492C10.1523 7.26758 10.1367 7.50195 10.1367 7.74805V7.91797C10.1367 8.16406 10.1523 8.40039 10.1836 8.62695C10.2148 8.85352 10.2734 9.05469 10.3594 9.23047C10.4492 9.40625 10.5723 9.54492 10.7285 9.64648C10.8848 9.74805 11.0879 9.79883 11.3379 9.79883ZM18.082 4.66016V5.85547H14.3906V4.66016H18.082ZM15.3047 3.0957H16.9922V9.08984C16.9922 9.27344 17.0156 9.41406 17.0625 9.51172C17.1133 9.60938 17.1875 9.67773 17.2852 9.7168C17.3828 9.75195 17.5059 9.76953 17.6543 9.76953C17.7598 9.76953 17.8535 9.76562 17.9355 9.75781C18.0215 9.74609 18.0938 9.73438 18.1523 9.72266L18.1582 10.9648C18.0137 11.0117 17.8574 11.0488 17.6895 11.0762C17.5215 11.1035 17.3359 11.1172 17.1328 11.1172C16.7617 11.1172 16.4375 11.0566 16.1602 10.9355C15.8867 10.8105 15.6758 10.6113 15.5273 10.3379C15.3789 10.0645 15.3047 9.70508 15.3047 9.25977V3.0957ZM20.8242 4.66016V11H19.1309V4.66016H20.8242ZM19.0254 3.00781C19.0254 2.76172 19.1113 2.55859 19.2832 2.39844C19.4551 2.23828 19.6855 2.1582 19.9746 2.1582C20.2598 2.1582 20.4883 2.23828 20.6602 2.39844C20.8359 2.55859 20.9238 2.76172 20.9238 3.00781C20.9238 3.25391 20.8359 3.45703 20.6602 3.61719C20.4883 3.77734 20.2598 3.85742 19.9746 3.85742C19.6855 3.85742 19.4551 3.77734 19.2832 3.61719C19.1113 3.45703 19.0254 3.25391 19.0254 3.00781ZM24.375 9.76953L25.7812 4.66016H27.5449L25.4062 11H24.3398L24.375 9.76953ZM23.4082 4.66016L24.8203 9.77539L24.8496 11H23.7773L21.6387 4.66016H23.4082ZM31.1367 11.1172C30.6445 11.1172 30.2031 11.0391 29.8125 10.8828C29.4219 10.7227 29.0898 10.502 28.8164 10.2207C28.5469 9.93945 28.3398 9.61328 28.1953 9.24219C28.0508 8.86719 27.9785 8.46875 27.9785 8.04688V7.8125C27.9785 7.33203 28.0469 6.89258 28.1836 6.49414C28.3203 6.0957 28.5156 5.75 28.7695 5.45703C29.0273 5.16406 29.3398 4.93945 29.707 4.7832C30.0742 4.62305 30.4883 4.54297 30.9492 4.54297C31.3984 4.54297 31.7969 4.61719 32.1445 4.76562C32.4922 4.91406 32.7832 5.125 33.0176 5.39844C33.2559 5.67188 33.4355 6 33.5566 6.38281C33.6777 6.76172 33.7383 7.18359 33.7383 7.64844V8.35156H28.6992V7.22656H32.0801V7.09766C32.0801 6.86328 32.0371 6.6543 31.9512 6.4707C31.8691 6.2832 31.7441 6.13477 31.5762 6.02539C31.4082 5.91602 31.1934 5.86133 30.9316 5.86133C30.709 5.86133 30.5176 5.91016 30.3574 6.00781C30.1973 6.10547 30.0664 6.24219 29.9648 6.41797C29.8672 6.59375 29.793 6.80078 29.7422 7.03906C29.6953 7.27344 29.6719 7.53125 29.6719 7.8125V8.04688C29.6719 8.30078 29.707 8.53516 29.7773 8.75C29.8516 8.96484 29.9551 9.15039 30.0879 9.30664C30.2246 9.46289 30.3887 9.58398 30.5801 9.66992C30.7754 9.75586 30.9961 9.79883 31.2422 9.79883C31.5469 9.79883 31.8301 9.74023 32.0918 9.62305C32.3574 9.50195 32.5859 9.32031 32.7773 9.07812L33.5977 9.96875C33.4648 10.1602 33.2832 10.3438 33.0527 10.5195C32.8262 10.6953 32.5527 10.8398 32.2324 10.9531C31.9121 11.0625 31.5469 11.1172 31.1367 11.1172Z" fill="white"/>
</g>
</svg>
