<svg width="88" height="24" viewBox="0 0 88 24" fill="none" xmlns="http://www.w3.org/2000/svg">
<mask id="mask0_11_571" style="mask-type:luminance" maskUnits="userSpaceOnUse" x="0" y="0" width="88" height="24">
<path d="M88 0H0V24H88V0Z" fill="white"/>
</mask>
<g mask="url(#mask0_11_571)">
<path d="M10.0703 5.125V16.5H8.55469L2.82812 7.72656V16.5H1.32031V5.125H2.82812L8.57812 13.9219V5.125H10.0703ZM16.0312 16.6562C15.4427 16.6562 14.9089 16.5573 14.4297 16.3594C13.9557 16.1562 13.5469 15.8724 13.2031 15.5078C12.8646 15.1432 12.6042 14.7109 12.4219 14.2109C12.2396 13.7109 12.1484 13.1641 12.1484 12.5703V12.2422C12.1484 11.5547 12.25 10.9427 12.4531 10.4062C12.6562 9.86458 12.9323 9.40625 13.2812 9.03125C13.6302 8.65625 14.026 8.3724 14.4688 8.17969C14.9115 7.98698 15.3698 7.89062 15.8438 7.89062C16.4479 7.89062 16.9688 7.99479 17.4062 8.20312C17.849 8.41146 18.2109 8.70312 18.4922 9.07812C18.7734 9.44792 18.9818 9.88542 19.1172 10.3906C19.2526 10.8906 19.3203 11.4375 19.3203 12.0312V12.6797H13.0078V11.5H17.875V11.3906C17.8542 11.0156 17.776 10.651 17.6406 10.2969C17.5104 9.94271 17.3021 9.65104 17.0156 9.42188C16.7292 9.19271 16.3385 9.07812 15.8438 9.07812C15.5156 9.07812 15.2135 9.14844 14.9375 9.28906C14.6615 9.42448 14.4245 9.6276 14.2266 9.89844C14.0286 10.1693 13.875 10.5 13.7656 10.8906C13.6562 11.2812 13.6016 11.7318 13.6016 12.2422V12.5703C13.6016 12.9714 13.6562 13.349 13.7656 13.7031C13.8802 14.0521 14.0443 14.3594 14.2578 14.625C14.4766 14.8906 14.7396 15.099 15.0469 15.25C15.3594 15.401 15.7135 15.4766 16.1094 15.4766C16.6198 15.4766 17.0521 15.3724 17.4062 15.1641C17.7604 14.9557 18.0703 14.6771 18.3359 14.3281L19.2109 15.0234C19.0286 15.2995 18.7969 15.5625 18.5156 15.8125C18.2344 16.0625 17.888 16.2656 17.4766 16.4219C17.0703 16.5781 16.5885 16.6562 16.0312 16.6562ZM23.1484 15L25.3203 8.04688H26.2734L26.0859 9.42969L23.875 16.5H22.9453L23.1484 15ZM21.6875 8.04688L23.5391 15.0781L23.6719 16.5H22.6953L20.2422 8.04688H21.6875ZM28.3516 15.0234L30.1172 8.04688H31.5547L29.1016 16.5H28.1328L28.3516 15.0234ZM26.4844 8.04688L28.6094 14.8828L28.8516 16.5H27.9297L25.6562 9.41406L25.4688 8.04688H26.4844ZM37.9609 14.2578C37.9609 14.0495 37.9141 13.8568 37.8203 13.6797C37.7318 13.4974 37.5469 13.3333 37.2656 13.1875C36.9896 13.0365 36.5729 12.9062 36.0156 12.7969C35.5469 12.6979 35.1224 12.5807 34.7422 12.4453C34.3672 12.3099 34.0469 12.1458 33.7812 11.9531C33.5208 11.7604 33.3203 11.5339 33.1797 11.2734C33.0391 11.013 32.9688 10.7083 32.9688 10.3594C32.9688 10.026 33.0417 9.71094 33.1875 9.41406C33.3385 9.11719 33.5495 8.85417 33.8203 8.625C34.0964 8.39583 34.4271 8.21615 34.8125 8.08594C35.1979 7.95573 35.6276 7.89062 36.1016 7.89062C36.7786 7.89062 37.3568 8.01042 37.8359 8.25C38.3151 8.48958 38.6823 8.8099 38.9375 9.21094C39.1927 9.60677 39.3203 10.0469 39.3203 10.5312H37.875C37.875 10.2969 37.8047 10.0703 37.6641 9.85156C37.5286 9.6276 37.3281 9.44271 37.0625 9.29688C36.8021 9.15104 36.4818 9.07812 36.1016 9.07812C35.7005 9.07812 35.375 9.14062 35.125 9.26562C34.8802 9.38542 34.7005 9.53906 34.5859 9.72656C34.4766 9.91406 34.4219 10.112 34.4219 10.3203C34.4219 10.4766 34.4479 10.6172 34.5 10.7422C34.5573 10.862 34.6562 10.974 34.7969 11.0781C34.9375 11.1771 35.1354 11.2708 35.3906 11.3594C35.6458 11.4479 35.9714 11.5365 36.3672 11.625C37.0599 11.7812 37.6302 11.9688 38.0781 12.1875C38.526 12.4062 38.8594 12.6745 39.0781 12.9922C39.2969 13.3099 39.4062 13.6953 39.4062 14.1484C39.4062 14.5182 39.3281 14.8568 39.1719 15.1641C39.0208 15.4714 38.7995 15.737 38.5078 15.9609C38.2214 16.1797 37.8776 16.3516 37.4766 16.4766C37.0807 16.5964 36.6354 16.6562 36.1406 16.6562C35.3958 16.6562 34.7656 16.5234 34.25 16.2578C33.7344 15.9922 33.3438 15.6484 33.0781 15.2266C32.8125 14.8047 32.6797 14.3594 32.6797 13.8906H34.1328C34.1536 14.2865 34.2682 14.6016 34.4766 14.8359C34.6849 15.0651 34.9401 15.2292 35.2422 15.3281C35.5443 15.4219 35.8438 15.4688 36.1406 15.4688C36.5365 15.4688 36.8672 15.4167 37.1328 15.3125C37.4036 15.2083 37.6094 15.0651 37.75 14.8828C37.8906 14.7005 37.9609 14.4922 37.9609 14.2578ZM49.3828 5.125V16.5H47.8984V5.125H49.3828ZM53.0391 5.125V6.35938H44.25V5.125H53.0391ZM56.0781 8.04688V16.5H54.625V8.04688H56.0781ZM54.5156 5.80469C54.5156 5.57031 54.5859 5.3724 54.7266 5.21094C54.8724 5.04948 55.0859 4.96875 55.3672 4.96875C55.6432 4.96875 55.8542 5.04948 56 5.21094C56.151 5.3724 56.2266 5.57031 56.2266 5.80469C56.2266 6.02865 56.151 6.22135 56 6.38281C55.8542 6.53906 55.6432 6.61719 55.3672 6.61719C55.0859 6.61719 54.8724 6.53906 54.7266 6.38281C54.5859 6.22135 54.5156 6.02865 54.5156 5.80469ZM61.9375 8.04688V9.15625H57.3672V8.04688H61.9375ZM58.9141 5.99219H60.3594V14.4062C60.3594 14.6927 60.4036 14.9089 60.4922 15.0547C60.5807 15.2005 60.6953 15.2969 60.8359 15.3438C60.9766 15.3906 61.1276 15.4141 61.2891 15.4141C61.4089 15.4141 61.5339 15.4036 61.6641 15.3828C61.7995 15.3568 61.901 15.3359 61.9688 15.3203L61.9766 16.5C61.862 16.5365 61.7109 16.5703 61.5234 16.6016C61.3411 16.638 61.1198 16.6562 60.8594 16.6562C60.5052 16.6562 60.1797 16.5859 59.8828 16.4453C59.5859 16.3047 59.349 16.0703 59.1719 15.7422C59 15.4089 58.9141 14.9609 58.9141 14.3984V5.99219ZM65.2031 4.5V16.5H63.75V4.5H65.2031ZM71.0312 16.6562C70.4427 16.6562 69.9089 16.5573 69.4297 16.3594C68.9557 16.1562 68.5469 15.8724 68.2031 15.5078C67.8646 15.1432 67.6042 14.7109 67.4219 14.2109C67.2396 13.7109 67.1484 13.1641 67.1484 12.5703V12.2422C67.1484 11.5547 67.25 10.9427 67.4531 10.4062C67.6562 9.86458 67.9323 9.40625 68.2812 9.03125C68.6302 8.65625 69.026 8.3724 69.4688 8.17969C69.9115 7.98698 70.3698 7.89062 70.8438 7.89062C71.4479 7.89062 71.9688 7.99479 72.4062 8.20312C72.849 8.41146 73.2109 8.70312 73.4922 9.07812C73.7734 9.44792 73.9818 9.88542 74.1172 10.3906C74.2526 10.8906 74.3203 11.4375 74.3203 12.0312V12.6797H68.0078V11.5H72.875V11.3906C72.8542 11.0156 72.776 10.651 72.6406 10.2969C72.5104 9.94271 72.3021 9.65104 72.0156 9.42188C71.7292 9.19271 71.3385 9.07812 70.8438 9.07812C70.5156 9.07812 70.2135 9.14844 69.9375 9.28906C69.6615 9.42448 69.4245 9.6276 69.2266 9.89844C69.0286 10.1693 68.875 10.5 68.7656 10.8906C68.6562 11.2812 68.6016 11.7318 68.6016 12.2422V12.5703C68.6016 12.9714 68.6562 13.349 68.7656 13.7031C68.8802 14.0521 69.0443 14.3594 69.2578 14.625C69.4766 14.8906 69.7396 15.099 70.0469 15.25C70.3594 15.401 70.7135 15.4766 71.1094 15.4766C71.6198 15.4766 72.0521 15.3724 72.4062 15.1641C72.7604 14.9557 73.0703 14.6771 73.3359 14.3281L74.2109 15.0234C74.0286 15.2995 73.7969 15.5625 73.5156 15.8125C73.2344 16.0625 72.888 16.2656 72.4766 16.4219C72.0703 16.5781 71.5885 16.6562 71.0312 16.6562Z" fill="black"/>
</g>
</svg>
