<svg width="57" height="17" viewBox="0 0 57 17" fill="none" xmlns="http://www.w3.org/2000/svg">
<mask id="mask0_14_5101" style="mask-type:luminance" maskUnits="userSpaceOnUse" x="0" y="0" width="57" height="17">
<path d="M57 0H0V17H57V0Z" fill="white"/>
</mask>
<g mask="url(#mask0_14_5101)">
<path d="M2.57031 4.04688V14H1.25098V4.04688H2.57031ZM6.04297 8.18262V14H4.77832V6.60352H5.97461L6.04297 8.18262ZM5.74219 10.0215L5.21582 10.001C5.22038 9.49512 5.29557 9.02799 5.44141 8.59961C5.58724 8.16667 5.79232 7.79069 6.05664 7.47168C6.32096 7.15267 6.63542 6.90658 7 6.7334C7.36914 6.55566 7.77702 6.4668 8.22363 6.4668C8.58822 6.4668 8.91634 6.51693 9.20801 6.61719C9.49967 6.71289 9.74805 6.86784 9.95312 7.08203C10.1628 7.29622 10.3223 7.57422 10.4316 7.91602C10.541 8.25326 10.5957 8.66569 10.5957 9.15332V14H9.32422V9.13965C9.32422 8.75228 9.26725 8.44238 9.15332 8.20996C9.03939 7.97298 8.87305 7.80208 8.6543 7.69727C8.43555 7.58789 8.16667 7.5332 7.84766 7.5332C7.5332 7.5332 7.24609 7.59928 6.98633 7.73145C6.73112 7.86361 6.51009 8.0459 6.32324 8.27832C6.14095 8.51074 5.9974 8.77734 5.89258 9.07812C5.79232 9.37435 5.74219 9.6888 5.74219 10.0215ZM16.8779 12.7354V8.92773C16.8779 8.63607 16.8187 8.38314 16.7002 8.16895C16.5863 7.9502 16.4131 7.78158 16.1807 7.66309C15.9482 7.5446 15.6611 7.48535 15.3193 7.48535C15.0003 7.48535 14.7201 7.54004 14.4785 7.64941C14.2415 7.75879 14.0547 7.90234 13.918 8.08008C13.7858 8.25781 13.7197 8.44922 13.7197 8.6543H12.4551C12.4551 8.38997 12.5234 8.12793 12.6602 7.86816C12.7969 7.6084 12.9928 7.3737 13.248 7.16406C13.5078 6.94987 13.8177 6.78125 14.1777 6.6582C14.5423 6.5306 14.9479 6.4668 15.3945 6.4668C15.9323 6.4668 16.4062 6.55794 16.8164 6.74023C17.2311 6.92253 17.5547 7.19824 17.7871 7.56738C18.0241 7.93197 18.1426 8.38997 18.1426 8.94141V12.3867C18.1426 12.6328 18.1631 12.8949 18.2041 13.1729C18.2497 13.4508 18.3158 13.6901 18.4023 13.8906V14H17.083C17.0192 13.8542 16.9691 13.6605 16.9326 13.4189C16.8962 13.1729 16.8779 12.945 16.8779 12.7354ZM17.0967 9.51562L17.1104 10.4043H15.832C15.472 10.4043 15.1507 10.4339 14.8682 10.4932C14.5856 10.5479 14.3486 10.6322 14.1572 10.7461C13.9658 10.86 13.82 11.0036 13.7197 11.1768C13.6195 11.3454 13.5693 11.5436 13.5693 11.7715C13.5693 12.0039 13.6217 12.2158 13.7266 12.4072C13.8314 12.5986 13.9886 12.7513 14.1982 12.8652C14.4124 12.9746 14.6745 13.0293 14.9844 13.0293C15.3717 13.0293 15.7135 12.9473 16.0098 12.7832C16.306 12.6191 16.5407 12.4186 16.7139 12.1816C16.8916 11.9447 16.9873 11.7145 17.001 11.4912L17.541 12.0996C17.5091 12.291 17.4225 12.5029 17.2812 12.7354C17.14 12.9678 16.9508 13.1911 16.7139 13.4053C16.4814 13.6149 16.2035 13.7904 15.8799 13.9316C15.5609 14.0684 15.2008 14.1367 14.7998 14.1367C14.2985 14.1367 13.8587 14.0387 13.4805 13.8428C13.1068 13.6468 12.8151 13.3848 12.6055 13.0566C12.4004 12.724 12.2979 12.3525 12.2979 11.9424C12.2979 11.5459 12.3753 11.1973 12.5303 10.8965C12.6852 10.5911 12.9085 10.3382 13.2002 10.1377C13.4919 9.93262 13.8428 9.77767 14.2529 9.67285C14.6631 9.56803 15.1211 9.51562 15.627 9.51562H17.0967ZM23.0918 13.0977C23.3926 13.0977 23.6706 13.0361 23.9258 12.9131C24.181 12.79 24.3906 12.6214 24.5547 12.4072C24.7188 12.1885 24.8122 11.9401 24.835 11.6621H26.0381C26.0153 12.0996 25.8672 12.5075 25.5938 12.8857C25.3249 13.2594 24.9717 13.5625 24.5342 13.7949C24.0967 14.0228 23.6159 14.1367 23.0918 14.1367C22.5358 14.1367 22.0505 14.0387 21.6357 13.8428C21.2256 13.6468 20.8838 13.3779 20.6104 13.0361C20.3415 12.6943 20.1387 12.3024 20.002 11.8604C19.8698 11.4137 19.8037 10.9421 19.8037 10.4453V10.1582C19.8037 9.66146 19.8698 9.19206 20.002 8.75C20.1387 8.30339 20.3415 7.90918 20.6104 7.56738C20.8838 7.22559 21.2256 6.95671 21.6357 6.76074C22.0505 6.56478 22.5358 6.4668 23.0918 6.4668C23.6706 6.4668 24.1764 6.58529 24.6094 6.82227C25.0423 7.05469 25.3818 7.3737 25.6279 7.7793C25.8786 8.18034 26.0153 8.63607 26.0381 9.14648H24.835C24.8122 8.84115 24.7256 8.56543 24.5752 8.31934C24.4294 8.07324 24.2288 7.87728 23.9736 7.73145C23.723 7.58105 23.429 7.50586 23.0918 7.50586C22.7044 7.50586 22.3786 7.58333 22.1143 7.73828C21.8545 7.88867 21.6471 8.09375 21.4922 8.35352C21.3418 8.60872 21.2324 8.89355 21.1641 9.20801C21.1003 9.5179 21.0684 9.83464 21.0684 10.1582V10.4453C21.0684 10.7689 21.1003 11.0879 21.1641 11.4023C21.2279 11.7168 21.335 12.0016 21.4854 12.2568C21.6403 12.512 21.8477 12.7171 22.1074 12.8721C22.3717 13.0225 22.6999 13.0977 23.0918 13.0977ZM30.5566 6.60352V7.57422H26.5576V6.60352H30.5566ZM27.9111 4.80566H29.1758V12.168C29.1758 12.4186 29.2145 12.6077 29.292 12.7354C29.3695 12.863 29.4697 12.9473 29.5928 12.9883C29.7158 13.0293 29.848 13.0498 29.9893 13.0498C30.0941 13.0498 30.2035 13.0407 30.3174 13.0225C30.4359 12.9997 30.5247 12.9814 30.584 12.9678L30.5908 14C30.4906 14.0319 30.3584 14.0615 30.1943 14.0889C30.0348 14.1208 29.8411 14.1367 29.6133 14.1367C29.3034 14.1367 29.0186 14.0752 28.7588 13.9521C28.499 13.8291 28.2917 13.624 28.1367 13.3369C27.9863 13.0452 27.9111 12.6533 27.9111 12.1611V4.80566ZM33.4141 6.60352V14H32.1426V6.60352H33.4141ZM32.0469 4.6416C32.0469 4.43652 32.1084 4.26335 32.2314 4.12207C32.359 3.98079 32.5459 3.91016 32.792 3.91016C33.0335 3.91016 33.2181 3.98079 33.3457 4.12207C33.4779 4.26335 33.5439 4.43652 33.5439 4.6416C33.5439 4.83757 33.4779 5.00618 33.3457 5.14746C33.2181 5.28418 33.0335 5.35254 32.792 5.35254C32.5459 5.35254 32.359 5.28418 32.2314 5.14746C32.1084 5.00618 32.0469 4.83757 32.0469 4.6416ZM37.6934 12.8584L39.7168 6.60352H41.0088L38.3496 14H37.502L37.6934 12.8584ZM36.0049 6.60352L38.0898 12.8926L38.2334 14H37.3857L34.7061 6.60352H36.0049ZM45.1992 14.1367C44.6842 14.1367 44.2171 14.0501 43.7979 13.877C43.3831 13.6992 43.0254 13.4508 42.7246 13.1318C42.4284 12.8128 42.2005 12.4346 42.041 11.9971C41.8815 11.5596 41.8018 11.0811 41.8018 10.5615V10.2744C41.8018 9.67285 41.8906 9.13737 42.0684 8.66797C42.2461 8.19401 42.4876 7.79297 42.793 7.46484C43.0983 7.13672 43.4447 6.88835 43.832 6.71973C44.2194 6.55111 44.6204 6.4668 45.0352 6.4668C45.5638 6.4668 46.0195 6.55794 46.4023 6.74023C46.7897 6.92253 47.1064 7.17773 47.3525 7.50586C47.5986 7.82943 47.7809 8.21224 47.8994 8.6543C48.0179 9.0918 48.0771 9.57031 48.0771 10.0898V10.6572H42.5537V9.625H46.8125V9.5293C46.7943 9.20117 46.7259 8.88216 46.6074 8.57227C46.4935 8.26237 46.3112 8.00716 46.0605 7.80664C45.8099 7.60612 45.4681 7.50586 45.0352 7.50586C44.748 7.50586 44.4837 7.56738 44.2422 7.69043C44.0007 7.80892 43.7933 7.98665 43.6201 8.22363C43.4469 8.46061 43.3125 8.75 43.2168 9.0918C43.1211 9.43359 43.0732 9.8278 43.0732 10.2744V10.5615C43.0732 10.9124 43.1211 11.2428 43.2168 11.5527C43.3171 11.8581 43.4606 12.127 43.6475 12.3594C43.8389 12.5918 44.069 12.7741 44.3379 12.9062C44.6113 13.0384 44.9212 13.1045 45.2676 13.1045C45.7142 13.1045 46.0924 13.0133 46.4023 12.8311C46.7122 12.6488 46.9834 12.4049 47.2158 12.0996L47.9814 12.708C47.8219 12.9495 47.6191 13.1797 47.373 13.3984C47.127 13.6172 46.8239 13.7949 46.4639 13.9316C46.1084 14.0684 45.6868 14.1367 45.1992 14.1367Z" fill="black"/>
</g>
</svg>
