<svg width="113" height="26" viewBox="0 0 113 26" fill="none" xmlns="http://www.w3.org/2000/svg">
<g filter="url(#filter0_d_14_3579)">
<path d="M99.8571 0H12.8529C5.75445 0 0 5.75442 0 12.8529C0 19.9513 5.75445 25.7058 12.8529 25.7058H99.8571C106.956 25.7058 112.71 19.9513 112.71 12.8529C112.71 5.75442 106.956 0 99.8571 0Z" fill="#E5E7EB"/>
<path d="M99.8571 0H12.8529C5.75445 0 0 5.75442 0 12.8529C0 19.9513 5.75445 25.7058 12.8529 25.7058H99.8571C106.956 25.7058 112.71 19.9513 112.71 12.8529C112.71 5.75442 106.956 0 99.8571 0Z" stroke="#E5E7EB"/>
</g>
<defs>
<filter id="filter0_d_14_3579" x="0" y="0" width="112.71" height="25.7058" filterUnits="userSpaceOnUse" color-interpolation-filters="sRGB">
<feFlood flood-opacity="0" result="BackgroundImageFix"/>
<feColorMatrix in="SourceAlpha" type="matrix" values="0 0 0 0 0 0 0 0 0 0 0 0 0 0 0 0 0 0 127 0" result="hardAlpha"/>
<feOffset/>
<feComposite in2="hardAlpha" operator="out"/>
<feColorMatrix type="matrix" values="0 0 0 0 0 0 0 0 0 0 0 0 0 0 0 0 0 0 0.08 0"/>
<feBlend mode="normal" in2="BackgroundImageFix" result="effect1_dropShadow_14_3579"/>
<feBlend mode="normal" in="SourceGraphic" in2="effect1_dropShadow_14_3579" result="shape"/>
</filter>
</defs>
</svg>
