<svg width="111" height="20" viewBox="0 0 111 20" fill="none" xmlns="http://www.w3.org/2000/svg">
<mask id="mask0_14_3613" style="mask-type:luminance" maskUnits="userSpaceOnUse" x="0" y="0" width="111" height="20">
<path d="M111 0H0V20H111V0Z" fill="white"/>
</mask>
<g mask="url(#mask0_14_3613)">
<path d="M1.488 16.5L0.96 15.188L4.384 11.332C4.56533 11.14 4.752 10.9213 4.944 10.676C5.14667 10.42 5.33867 10.1587 5.52 9.892C5.70133 9.62533 5.84533 9.364 5.952 9.108C6.06933 8.84133 6.128 8.59067 6.128 8.356C6.128 8.01467 6.05867 7.72667 5.92 7.492C5.792 7.24667 5.6 7.06 5.344 6.932C5.09867 6.804 4.8 6.74 4.448 6.74C4.13867 6.74 3.83467 6.83067 3.536 7.012C3.23733 7.19333 2.96533 7.44933 2.72 7.78C2.47467 8.11067 2.28267 8.49467 2.144 8.932L0.816 8.1C0.997333 7.48133 1.26933 6.95333 1.632 6.516C2.00533 6.068 2.448 5.72667 2.96 5.492C3.48267 5.25733 4.048 5.14 4.656 5.14C5.28533 5.14 5.84533 5.27333 6.336 5.54C6.82667 5.796 7.21067 6.15867 7.488 6.628C7.76533 7.08667 7.904 7.62 7.904 8.228C7.904 8.47333 7.87733 8.724 7.824 8.98C7.77067 9.236 7.68533 9.50267 7.568 9.78C7.45067 10.0467 7.30133 10.3293 7.12 10.628C6.93867 10.916 6.72 11.22 6.464 11.54C6.21867 11.86 5.936 12.196 5.616 12.548L3.072 15.316L2.752 14.836H8.256V16.5H1.488ZM13.6136 16.66C12.7603 16.66 12.0243 16.4253 11.4056 15.956C10.7976 15.4867 10.3283 14.8253 9.99763 13.972C9.66696 13.108 9.50163 12.084 9.50163 10.9C9.50163 9.716 9.66696 8.69733 9.99763 7.844C10.3283 6.98 10.7976 6.31333 11.4056 5.844C12.0243 5.37467 12.7603 5.14 13.6136 5.14C14.467 5.14 15.203 5.37467 15.8216 5.844C16.4403 6.31333 16.915 6.98 17.2456 7.844C17.5763 8.69733 17.7416 9.716 17.7416 10.9C17.7416 12.084 17.5763 13.108 17.2456 13.972C16.915 14.8253 16.4403 15.4867 15.8216 15.956C15.203 16.4253 14.467 16.66 13.6136 16.66ZM13.6136 15.092C14.3923 15.092 14.995 14.7293 15.4216 14.004C15.8483 13.268 16.0616 12.2333 16.0616 10.9C16.0616 9.56667 15.8483 8.53733 15.4216 7.812C14.995 7.076 14.3923 6.708 13.6136 6.708C12.835 6.708 12.2323 7.076 11.8056 7.812C11.379 8.53733 11.1656 9.56667 11.1656 10.9C11.1656 12.2333 11.379 13.268 11.8056 14.004C12.2323 14.7293 12.835 15.092 13.6136 15.092ZM19.9724 16.5L19.4444 15.188L22.8684 11.332C23.0497 11.14 23.2364 10.9213 23.4284 10.676C23.631 10.42 23.823 10.1587 24.0044 9.892C24.1857 9.62533 24.3297 9.364 24.4364 9.108C24.5537 8.84133 24.6124 8.59067 24.6124 8.356C24.6124 8.01467 24.543 7.72667 24.4044 7.492C24.2764 7.24667 24.0844 7.06 23.8284 6.932C23.583 6.804 23.2844 6.74 22.9324 6.74C22.623 6.74 22.319 6.83067 22.0204 7.012C21.7217 7.19333 21.4497 7.44933 21.2044 7.78C20.959 8.11067 20.767 8.49467 20.6284 8.932L19.3004 8.1C19.4817 7.48133 19.7537 6.95333 20.1164 6.516C20.4897 6.068 20.9324 5.72667 21.4444 5.492C21.967 5.25733 22.5324 5.14 23.1404 5.14C23.7697 5.14 24.3297 5.27333 24.8204 5.54C25.311 5.796 25.695 6.15867 25.9724 6.628C26.2497 7.08667 26.3884 7.62 26.3884 8.228C26.3884 8.47333 26.3617 8.724 26.3084 8.98C26.255 9.236 26.1697 9.50267 26.0524 9.78C25.935 10.0467 25.7857 10.3293 25.6044 10.628C25.423 10.916 25.2044 11.22 24.9484 11.54C24.703 11.86 24.4204 12.196 24.1004 12.548L21.5564 15.316L21.2364 14.836H26.7404V16.5H19.9724ZM31.266 16.66C30.4767 16.66 29.7887 16.4787 29.202 16.116C28.626 15.7533 28.082 15.1453 27.57 14.292L28.914 13.444C29.1807 13.8387 29.442 14.164 29.698 14.42C29.9647 14.6653 30.2367 14.8467 30.514 14.964C30.7913 15.0813 31.0847 15.14 31.394 15.14C31.7673 15.14 32.114 15.0493 32.434 14.868C32.754 14.676 33.01 14.4147 33.202 14.084C33.394 13.7533 33.49 13.38 33.49 12.964C33.49 12.548 33.4153 12.196 33.266 11.908C33.1167 11.6093 32.898 11.3853 32.61 11.236C32.322 11.076 31.9807 10.996 31.586 10.996C31.4047 10.996 31.2127 11.0173 31.01 11.06C30.818 11.092 30.61 11.1453 30.386 11.22C30.162 11.284 29.9167 11.3693 29.65 11.476L29.17 10.212L32.626 6.404L32.962 6.9H28.194V5.3H34.61L34.93 5.94L31.266 10.004L30.866 9.588C30.9513 9.54533 31.09 9.508 31.282 9.476C31.4847 9.43333 31.65 9.412 31.778 9.412C32.2473 9.412 32.6847 9.50267 33.09 9.684C33.506 9.85467 33.8633 10.1 34.162 10.42C34.4713 10.7293 34.7113 11.0973 34.882 11.524C35.0633 11.94 35.154 12.388 35.154 12.868C35.154 13.5933 34.978 14.244 34.626 14.82C34.2847 15.3853 33.8207 15.8333 33.234 16.164C32.6473 16.4947 31.9913 16.66 31.266 16.66ZM36.5668 12.74V11.108H41.1748V12.74H36.5668ZM45.4876 15.716V6.628L46.0796 7.076L43.8716 8.244L43.4076 6.74L46.3996 5.14H47.2316V15.716H45.4876ZM43.7116 16.5V14.836H49.0556V16.5H43.7116ZM54.8636 16.66C54.0103 16.66 53.2743 16.4253 52.6556 15.956C52.0476 15.4867 51.5783 14.8253 51.2476 13.972C50.917 13.108 50.7516 12.084 50.7516 10.9C50.7516 9.716 50.917 8.69733 51.2476 7.844C51.5783 6.98 52.0476 6.31333 52.6556 5.844C53.2743 5.37467 54.0103 5.14 54.8636 5.14C55.717 5.14 56.453 5.37467 57.0716 5.844C57.6903 6.31333 58.165 6.98 58.4956 7.844C58.8263 8.69733 58.9916 9.716 58.9916 10.9C58.9916 12.084 58.8263 13.108 58.4956 13.972C58.165 14.8253 57.6903 15.4867 57.0716 15.956C56.453 16.4253 55.717 16.66 54.8636 16.66ZM54.8636 15.092C55.6423 15.092 56.245 14.7293 56.6716 14.004C57.0983 13.268 57.3116 12.2333 57.3116 10.9C57.3116 9.56667 57.0983 8.53733 56.6716 7.812C56.245 7.076 55.6423 6.708 54.8636 6.708C54.085 6.708 53.4823 7.076 53.0556 7.812C52.629 8.53733 52.4156 9.56667 52.4156 10.9C52.4156 12.2333 52.629 13.268 53.0556 14.004C53.4823 14.7293 54.085 15.092 54.8636 15.092ZM60.5824 12.74V11.108H65.1904V12.74H60.5824ZM70.8793 16.66C70.0259 16.66 69.2899 16.4253 68.6713 15.956C68.0633 15.4867 67.5939 14.8253 67.2633 13.972C66.9326 13.108 66.7673 12.084 66.7673 10.9C66.7673 9.716 66.9326 8.69733 67.2633 7.844C67.5939 6.98 68.0633 6.31333 68.6713 5.844C69.2899 5.37467 70.0259 5.14 70.8793 5.14C71.7326 5.14 72.4686 5.37467 73.0873 5.844C73.7059 6.31333 74.1806 6.98 74.5113 7.844C74.8419 8.69733 75.0073 9.716 75.0073 10.9C75.0073 12.084 74.8419 13.108 74.5113 13.972C74.1806 14.8253 73.7059 15.4867 73.0873 15.956C72.4686 16.4253 71.7326 16.66 70.8793 16.66ZM70.8793 15.092C71.6579 15.092 72.2606 14.7293 72.6873 14.004C73.1139 13.268 73.3273 12.2333 73.3273 10.9C73.3273 9.56667 73.1139 8.53733 72.6873 7.812C72.2606 7.076 71.6579 6.708 70.8793 6.708C70.1006 6.708 69.4979 7.076 69.0713 7.812C68.6446 8.53733 68.4313 9.56667 68.4313 10.9C68.4313 12.2333 68.6446 13.268 69.0713 14.004C69.4979 14.7293 70.1006 15.092 70.8793 15.092ZM79.222 15.716V6.628L79.814 7.076L77.606 8.244L77.142 6.74L80.134 5.14H80.966V15.716H79.222ZM77.446 16.5V14.836H82.79V16.5H77.446Z" fill="black"/>
</g>
</svg>
