<svg width="343" height="19" viewBox="0 0 343 19" fill="none" xmlns="http://www.w3.org/2000/svg">
<mask id="mask0_14_5123" style="mask-type:luminance" maskUnits="userSpaceOnUse" x="0" y="0" width="343" height="19">
<path d="M343 0H0V19H343V0Z" fill="white"/>
</mask>
<g mask="url(#mask0_14_5123)">
<path d="M4.0332 14.1367C3.51823 14.1367 3.05111 14.0501 2.63184 13.877C2.21712 13.6992 1.85938 13.4508 1.55859 13.1318C1.26237 12.8128 1.03451 12.4346 0.875 11.9971C0.715495 11.5596 0.635742 11.0811 0.635742 10.5615V10.2744C0.635742 9.67285 0.724609 9.13737 0.902344 8.66797C1.08008 8.19401 1.32161 7.79297 1.62695 7.46484C1.93229 7.13672 2.27865 6.88835 2.66602 6.71973C3.05339 6.55111 3.45443 6.4668 3.86914 6.4668C4.39779 6.4668 4.85352 6.55794 5.23633 6.74023C5.6237 6.92253 5.94043 7.17773 6.18652 7.50586C6.43262 7.82943 6.61491 8.21224 6.7334 8.6543C6.85189 9.0918 6.91113 9.57031 6.91113 10.0898V10.6572H1.3877V9.625H5.64648V9.5293C5.62826 9.20117 5.5599 8.88216 5.44141 8.57227C5.32747 8.26237 5.14518 8.00716 4.89453 7.80664C4.64388 7.60612 4.30208 7.50586 3.86914 7.50586C3.58203 7.50586 3.31771 7.56738 3.07617 7.69043C2.83464 7.80892 2.62728 7.98665 2.4541 8.22363C2.28092 8.46061 2.14648 8.75 2.05078 9.0918C1.95508 9.43359 1.90723 9.8278 1.90723 10.2744V10.5615C1.90723 10.9124 1.95508 11.2428 2.05078 11.5527C2.15104 11.8581 2.2946 12.127 2.48145 12.3594C2.67285 12.5918 2.90299 12.7741 3.17188 12.9062C3.44531 13.0384 3.75521 13.1045 4.10156 13.1045C4.54818 13.1045 4.92643 13.0133 5.23633 12.8311C5.54622 12.6488 5.81738 12.4049 6.0498 12.0996L6.81543 12.708C6.65592 12.9495 6.45312 13.1797 6.20703 13.3984C5.96094 13.6172 5.65788 13.7949 5.29785 13.9316C4.94238 14.0684 4.52083 14.1367 4.0332 14.1367ZM9.64551 8.07324V14H8.37402V6.60352H9.57715L9.64551 8.07324ZM9.38574 10.0215L8.79785 10.001C8.80241 9.49512 8.86849 9.02799 8.99609 8.59961C9.1237 8.16667 9.31283 7.79069 9.56348 7.47168C9.81413 7.15267 10.1263 6.90658 10.5 6.7334C10.8737 6.55566 11.3066 6.4668 11.7988 6.4668C12.1452 6.4668 12.4642 6.51693 12.7559 6.61719C13.0475 6.71289 13.3005 6.86556 13.5146 7.0752C13.7288 7.28483 13.8952 7.55371 14.0137 7.88184C14.1322 8.20996 14.1914 8.60645 14.1914 9.07129V14H12.9268V9.13281C12.9268 8.74544 12.8607 8.43555 12.7285 8.20312C12.6009 7.9707 12.4186 7.80208 12.1816 7.69727C11.9447 7.58789 11.6667 7.5332 11.3477 7.5332C10.974 7.5332 10.6618 7.59928 10.4111 7.73145C10.1605 7.86361 9.95996 8.0459 9.80957 8.27832C9.65918 8.51074 9.5498 8.77734 9.48145 9.07812C9.41764 9.37435 9.38574 9.6888 9.38574 10.0215ZM14.1777 9.32422L13.3301 9.58398C13.3346 9.17839 13.4007 8.78874 13.5283 8.41504C13.6605 8.04134 13.8496 7.70866 14.0957 7.41699C14.3464 7.12533 14.654 6.89518 15.0186 6.72656C15.3831 6.55339 15.8001 6.4668 16.2695 6.4668C16.666 6.4668 17.0169 6.51921 17.3223 6.62402C17.6322 6.72884 17.8919 6.89062 18.1016 7.10938C18.3158 7.32357 18.4775 7.59928 18.5869 7.93652C18.6963 8.27376 18.751 8.6748 18.751 9.13965V14H17.4795V9.12598C17.4795 8.71126 17.4134 8.38997 17.2812 8.16211C17.1536 7.92969 16.9714 7.7679 16.7344 7.67676C16.502 7.58105 16.224 7.5332 15.9004 7.5332C15.6224 7.5332 15.3763 7.58105 15.1621 7.67676C14.9479 7.77246 14.7679 7.90462 14.6221 8.07324C14.4762 8.2373 14.3646 8.42643 14.2871 8.64062C14.2142 8.85482 14.1777 9.08268 14.1777 9.32422ZM22.0391 6.60352V14H20.7676V6.60352H22.0391ZM20.6719 4.6416C20.6719 4.43652 20.7334 4.26335 20.8564 4.12207C20.984 3.98079 21.1709 3.91016 21.417 3.91016C21.6585 3.91016 21.8431 3.98079 21.9707 4.12207C22.1029 4.26335 22.1689 4.43652 22.1689 4.6416C22.1689 4.83757 22.1029 5.00618 21.9707 5.14746C21.8431 5.28418 21.6585 5.35254 21.417 5.35254C21.1709 5.35254 20.984 5.28418 20.8564 5.14746C20.7334 5.00618 20.6719 4.83757 20.6719 4.6416ZM25.4434 3.5V14H24.1719V3.5H25.4434ZM29.5518 13.2344L31.6094 6.60352H32.9629L29.9961 15.1416C29.9277 15.3239 29.8366 15.5199 29.7227 15.7295C29.6133 15.9437 29.472 16.1465 29.2988 16.3379C29.1257 16.5293 28.916 16.6842 28.6699 16.8027C28.4284 16.9258 28.139 16.9873 27.8018 16.9873C27.7015 16.9873 27.5739 16.9736 27.4189 16.9463C27.264 16.9189 27.1546 16.8962 27.0908 16.8779L27.084 15.8525C27.1204 15.8571 27.1774 15.8617 27.2549 15.8662C27.3369 15.8753 27.3939 15.8799 27.4258 15.8799C27.7129 15.8799 27.9567 15.8411 28.1572 15.7637C28.3577 15.6908 28.5264 15.5654 28.6631 15.3877C28.8044 15.2145 28.9251 14.9753 29.0254 14.6699L29.5518 13.2344ZM28.041 6.60352L29.9619 12.3457L30.29 13.6787L29.3809 14.1436L26.6602 6.60352H28.041ZM33.3867 13.3301C33.3867 13.1159 33.4528 12.9359 33.585 12.79C33.7217 12.6396 33.9176 12.5645 34.1729 12.5645C34.4281 12.5645 34.6217 12.6396 34.7539 12.79C34.8906 12.9359 34.959 13.1159 34.959 13.3301C34.959 13.5397 34.8906 13.7174 34.7539 13.8633C34.6217 14.0091 34.4281 14.082 34.1729 14.082C33.9176 14.082 33.7217 14.0091 33.585 13.8633C33.4528 13.7174 33.3867 13.5397 33.3867 13.3301ZM37.0508 3.5H38.3223V12.5645L38.2129 14H37.0508V3.5ZM43.3193 10.2402V10.3838C43.3193 10.9215 43.2555 11.4206 43.1279 11.8809C43.0003 12.3366 42.8135 12.7331 42.5674 13.0703C42.3213 13.4076 42.0205 13.6696 41.665 13.8564C41.3096 14.0433 40.9017 14.1367 40.4414 14.1367C39.972 14.1367 39.5596 14.057 39.2041 13.8975C38.8532 13.7334 38.557 13.4987 38.3154 13.1934C38.0739 12.888 37.8802 12.5189 37.7344 12.0859C37.5931 11.653 37.4951 11.1654 37.4404 10.623V9.99414C37.4951 9.44727 37.5931 8.95736 37.7344 8.52441C37.8802 8.09147 38.0739 7.72233 38.3154 7.41699C38.557 7.1071 38.8532 6.8724 39.2041 6.71289C39.555 6.54883 39.9629 6.4668 40.4277 6.4668C40.8926 6.4668 41.305 6.55794 41.665 6.74023C42.0251 6.91797 42.3258 7.17318 42.5674 7.50586C42.8135 7.83854 43.0003 8.2373 43.1279 8.70215C43.2555 9.16243 43.3193 9.67513 43.3193 10.2402ZM42.0479 10.3838V10.2402C42.0479 9.87109 42.0137 9.52474 41.9453 9.20117C41.877 8.87305 41.7676 8.58594 41.6172 8.33984C41.4668 8.08919 41.2686 7.89323 41.0225 7.75195C40.7764 7.60612 40.4733 7.5332 40.1133 7.5332C39.7943 7.5332 39.5163 7.58789 39.2793 7.69727C39.0469 7.80664 38.8486 7.95475 38.6846 8.1416C38.5205 8.32389 38.3861 8.53353 38.2812 8.77051C38.181 9.00293 38.1058 9.24447 38.0557 9.49512V11.1426C38.1286 11.4616 38.2471 11.7692 38.4111 12.0654C38.5798 12.3571 38.8031 12.5964 39.0811 12.7832C39.3636 12.9701 39.7122 13.0635 40.127 13.0635C40.4688 13.0635 40.7604 12.9951 41.002 12.8584C41.248 12.7171 41.4463 12.5234 41.5967 12.2773C41.7516 12.0312 41.8656 11.7464 41.9385 11.4229C42.0114 11.0993 42.0479 10.7529 42.0479 10.3838ZM46.1836 7.76562V14H44.9189V6.60352H46.1494L46.1836 7.76562ZM48.4941 6.5625L48.4873 7.73828C48.3825 7.71549 48.2822 7.70182 48.1865 7.69727C48.0954 7.68815 47.9906 7.68359 47.8721 7.68359C47.5804 7.68359 47.3229 7.72917 47.0996 7.82031C46.8763 7.91146 46.6872 8.03906 46.5322 8.20312C46.3773 8.36719 46.2542 8.56315 46.1631 8.79102C46.0765 9.01432 46.0195 9.26042 45.9922 9.5293L45.6367 9.73438C45.6367 9.28776 45.68 8.86849 45.7666 8.47656C45.8577 8.08464 45.9967 7.73828 46.1836 7.4375C46.3704 7.13216 46.6074 6.89518 46.8945 6.72656C47.1862 6.55339 47.5326 6.4668 47.9336 6.4668C48.0247 6.4668 48.1296 6.47819 48.248 6.50098C48.3665 6.51921 48.4486 6.53971 48.4941 6.5625ZM49.1914 10.3838V10.2266C49.1914 9.69336 49.2689 9.19889 49.4238 8.74316C49.5788 8.28288 49.8021 7.88411 50.0938 7.54688C50.3854 7.20508 50.7386 6.94076 51.1533 6.75391C51.568 6.5625 52.0329 6.4668 52.5479 6.4668C53.0674 6.4668 53.5345 6.5625 53.9492 6.75391C54.3685 6.94076 54.724 7.20508 55.0156 7.54688C55.3118 7.88411 55.5374 8.28288 55.6924 8.74316C55.8473 9.19889 55.9248 9.69336 55.9248 10.2266V10.3838C55.9248 10.917 55.8473 11.4115 55.6924 11.8672C55.5374 12.3229 55.3118 12.7217 55.0156 13.0635C54.724 13.4007 54.3708 13.665 53.9561 13.8564C53.5459 14.0433 53.0811 14.1367 52.5615 14.1367C52.042 14.1367 51.5749 14.0433 51.1602 13.8564C50.7454 13.665 50.39 13.4007 50.0938 13.0635C49.8021 12.7217 49.5788 12.3229 49.4238 11.8672C49.2689 11.4115 49.1914 10.917 49.1914 10.3838ZM50.4561 10.2266V10.3838C50.4561 10.7529 50.4993 11.1016 50.5859 11.4297C50.6725 11.7533 50.8024 12.0404 50.9756 12.291C51.1533 12.5417 51.3743 12.7399 51.6387 12.8857C51.903 13.027 52.2106 13.0977 52.5615 13.0977C52.9079 13.0977 53.2109 13.027 53.4707 12.8857C53.735 12.7399 53.9538 12.5417 54.127 12.291C54.3001 12.0404 54.43 11.7533 54.5166 11.4297C54.6077 11.1016 54.6533 10.7529 54.6533 10.3838V10.2266C54.6533 9.86198 54.6077 9.5179 54.5166 9.19434C54.43 8.86621 54.2979 8.57682 54.1201 8.32617C53.9469 8.07096 53.7282 7.87044 53.4639 7.72461C53.2041 7.57878 52.8988 7.50586 52.5479 7.50586C52.2015 7.50586 51.8962 7.57878 51.6318 7.72461C51.3721 7.87044 51.1533 8.07096 50.9756 8.32617C50.8024 8.57682 50.6725 8.86621 50.5859 9.19434C50.4993 9.5179 50.4561 9.86198 50.4561 10.2266ZM59.3838 12.6875L61.2842 6.60352H62.1182L61.9541 7.81348L60.0195 14H59.2061L59.3838 12.6875ZM58.1055 6.60352L59.7256 12.7559L59.8418 14H58.9873L56.8408 6.60352H58.1055ZM63.9365 12.708L65.4814 6.60352H66.7393L64.5928 14H63.7451L63.9365 12.708ZM62.3027 6.60352L64.1621 12.585L64.374 14H63.5674L61.5781 7.7998L61.4141 6.60352H62.3027ZM69.3027 8.18262V14H68.0381V6.60352H69.2344L69.3027 8.18262ZM69.002 10.0215L68.4756 10.001C68.4801 9.49512 68.5553 9.02799 68.7012 8.59961C68.847 8.16667 69.0521 7.79069 69.3164 7.47168C69.5807 7.15267 69.8952 6.90658 70.2598 6.7334C70.6289 6.55566 71.0368 6.4668 71.4834 6.4668C71.848 6.4668 72.1761 6.51693 72.4678 6.61719C72.7594 6.71289 73.0078 6.86784 73.2129 7.08203C73.4225 7.29622 73.582 7.57422 73.6914 7.91602C73.8008 8.25326 73.8555 8.66569 73.8555 9.15332V14H72.584V9.13965C72.584 8.75228 72.527 8.44238 72.4131 8.20996C72.2992 7.97298 72.1328 7.80208 71.9141 7.69727C71.6953 7.58789 71.4264 7.5332 71.1074 7.5332C70.793 7.5332 70.5059 7.59928 70.2461 7.73145C69.9909 7.86361 69.7699 8.0459 69.583 8.27832C69.4007 8.51074 69.2572 8.77734 69.1523 9.07812C69.0521 9.37435 69.002 9.6888 69.002 10.0215ZM86.6797 10.5615C86.6615 10.9808 86.5977 11.4023 86.4883 11.8262C86.3789 12.2454 86.2148 12.6305 85.9961 12.9814C85.7773 13.3324 85.4925 13.6149 85.1416 13.8291C84.7952 14.0387 84.376 14.1436 83.8838 14.1436C83.5693 14.1436 83.2936 14.0889 83.0566 13.9795C82.8242 13.8656 82.6328 13.7038 82.4824 13.4941C82.3366 13.2845 82.234 13.0316 82.1748 12.7354C82.1201 12.4391 82.111 12.1087 82.1475 11.7441L82.4961 7.95703H83.501L83.1523 11.7441C83.125 12.0768 83.1318 12.348 83.1729 12.5576C83.2184 12.7673 83.2868 12.929 83.3779 13.043C83.4691 13.1523 83.5716 13.2275 83.6855 13.2686C83.804 13.3096 83.918 13.3301 84.0273 13.3301C84.3008 13.3301 84.5446 13.2594 84.7588 13.1182C84.973 12.9723 85.153 12.7741 85.2988 12.5234C85.4492 12.2682 85.5654 11.9743 85.6475 11.6416C85.7295 11.3044 85.7796 10.9443 85.7979 10.5615C85.8298 9.88249 85.7979 9.25814 85.7021 8.68848C85.611 8.11882 85.4538 7.61296 85.2305 7.1709C85.0117 6.72884 84.7246 6.35514 84.3691 6.0498C84.0137 5.74447 83.5898 5.51204 83.0977 5.35254C82.6055 5.19303 82.0426 5.11328 81.4092 5.11328C80.835 5.11328 80.304 5.20215 79.8164 5.37988C79.3333 5.55306 78.8981 5.80371 78.5107 6.13184C78.1279 6.45996 77.7975 6.85417 77.5195 7.31445C77.2461 7.77474 77.0296 8.29427 76.8701 8.87305C76.7152 9.44727 76.624 10.0671 76.5967 10.7324C76.5648 11.416 76.6012 12.0449 76.7061 12.6191C76.8109 13.1888 76.9795 13.6969 77.2119 14.1436C77.4489 14.5947 77.7474 14.9753 78.1074 15.2852C78.4674 15.5996 78.8844 15.8366 79.3584 15.9961C79.8324 16.1602 80.361 16.2422 80.9443 16.2422C81.3454 16.2422 81.751 16.1943 82.1611 16.0986C82.5758 16.0029 82.9222 15.873 83.2002 15.709L83.46 16.4883C83.141 16.6934 82.7422 16.846 82.2637 16.9463C81.7897 17.0465 81.3408 17.0967 80.917 17.0967C80.2243 17.0967 79.5908 17.001 79.0166 16.8096C78.4469 16.6227 77.9411 16.347 77.499 15.9824C77.0615 15.6224 76.6969 15.1826 76.4053 14.6631C76.1136 14.1481 75.8994 13.5602 75.7627 12.8994C75.626 12.2386 75.5736 11.5163 75.6055 10.7324C75.6374 9.98503 75.749 9.28092 75.9404 8.62012C76.1364 7.95931 76.403 7.36003 76.7402 6.82227C77.0775 6.28451 77.4785 5.82194 77.9434 5.43457C78.4128 5.04264 78.9391 4.74186 79.5225 4.53223C80.1104 4.32259 80.7484 4.21777 81.4365 4.21777C82.1383 4.21777 82.7741 4.31348 83.3438 4.50488C83.9134 4.69629 84.4124 4.97201 84.8408 5.33203C85.2738 5.69206 85.6315 6.13184 85.9141 6.65137C86.1966 7.1709 86.4017 7.75879 86.5293 8.41504C86.6615 9.07129 86.7116 9.78678 86.6797 10.5615ZM79.6592 11.1426C79.6273 11.4616 79.6273 11.7464 79.6592 11.9971C79.6911 12.2477 79.7526 12.4596 79.8438 12.6328C79.9349 12.806 80.0534 12.9382 80.1992 13.0293C80.3496 13.1159 80.5251 13.1592 80.7256 13.1592C80.8577 13.1592 80.9967 13.1273 81.1426 13.0635C81.2884 12.9951 81.432 12.8903 81.5732 12.749C81.7145 12.6077 81.8467 12.4232 81.9697 12.1953C82.0928 11.9674 82.1953 11.694 82.2773 11.375L82.7285 11.8672C82.6237 12.2409 82.487 12.569 82.3184 12.8516C82.1543 13.1341 81.9697 13.3711 81.7646 13.5625C81.5596 13.7539 81.3408 13.8997 81.1084 14C80.8805 14.0957 80.6481 14.1436 80.4111 14.1436C80.0785 14.1436 79.7868 14.0729 79.5361 13.9316C79.2855 13.7858 79.0827 13.5807 78.9277 13.3164C78.7728 13.0521 78.6634 12.7376 78.5996 12.373C78.5404 12.0039 78.5312 11.5938 78.5723 11.1426C78.6133 10.6641 78.6976 10.222 78.8252 9.81641C78.9528 9.41081 79.11 9.0485 79.2969 8.72949C79.4883 8.41048 79.7025 8.13932 79.9395 7.91602C80.181 7.69271 80.4362 7.52409 80.7051 7.41016C80.974 7.29167 81.2497 7.23242 81.5322 7.23242C82.0244 7.23242 82.4118 7.30534 82.6943 7.45117C82.9769 7.59245 83.2458 7.76107 83.501 7.95703L82.9199 8.63379C82.7878 8.50618 82.6146 8.3877 82.4004 8.27832C82.1862 8.16895 81.9333 8.11426 81.6416 8.11426C81.391 8.11426 81.1562 8.17806 80.9375 8.30566C80.7188 8.43327 80.5205 8.62467 80.3428 8.87988C80.1696 9.13509 80.0238 9.45182 79.9053 9.83008C79.7868 10.2038 79.7048 10.6413 79.6592 11.1426ZM91.4238 14.1367C90.9089 14.1367 90.4417 14.0501 90.0225 13.877C89.6077 13.6992 89.25 13.4508 88.9492 13.1318C88.653 12.8128 88.4251 12.4346 88.2656 11.9971C88.1061 11.5596 88.0264 11.0811 88.0264 10.5615V10.2744C88.0264 9.67285 88.1152 9.13737 88.293 8.66797C88.4707 8.19401 88.7122 7.79297 89.0176 7.46484C89.3229 7.13672 89.6693 6.88835 90.0566 6.71973C90.444 6.55111 90.8451 6.4668 91.2598 6.4668C91.7884 6.4668 92.2441 6.55794 92.627 6.74023C93.0143 6.92253 93.3311 7.17773 93.5771 7.50586C93.8232 7.82943 94.0055 8.21224 94.124 8.6543C94.2425 9.0918 94.3018 9.57031 94.3018 10.0898V10.6572H88.7783V9.625H93.0371V9.5293C93.0189 9.20117 92.9505 8.88216 92.832 8.57227C92.7181 8.26237 92.5358 8.00716 92.2852 7.80664C92.0345 7.60612 91.6927 7.50586 91.2598 7.50586C90.9727 7.50586 90.7083 7.56738 90.4668 7.69043C90.2253 7.80892 90.0179 7.98665 89.8447 8.22363C89.6715 8.46061 89.5371 8.75 89.4414 9.0918C89.3457 9.43359 89.2979 9.8278 89.2979 10.2744V10.5615C89.2979 10.9124 89.3457 11.2428 89.4414 11.5527C89.5417 11.8581 89.6852 12.127 89.8721 12.3594C90.0635 12.5918 90.2936 12.7741 90.5625 12.9062C90.8359 13.0384 91.1458 13.1045 91.4922 13.1045C91.9388 13.1045 92.3171 13.0133 92.627 12.8311C92.9368 12.6488 93.208 12.4049 93.4404 12.0996L94.2061 12.708C94.0465 12.9495 93.8438 13.1797 93.5977 13.3984C93.3516 13.6172 93.0485 13.7949 92.6885 13.9316C92.333 14.0684 91.9115 14.1367 91.4238 14.1367ZM97.0361 8.07324V14H95.7646V6.60352H96.9678L97.0361 8.07324ZM96.7764 10.0215L96.1885 10.001C96.193 9.49512 96.2591 9.02799 96.3867 8.59961C96.5143 8.16667 96.7035 7.79069 96.9541 7.47168C97.2048 7.15267 97.5169 6.90658 97.8906 6.7334C98.2643 6.55566 98.6973 6.4668 99.1895 6.4668C99.5358 6.4668 99.8548 6.51693 100.146 6.61719C100.438 6.71289 100.691 6.86556 100.905 7.0752C101.119 7.28483 101.286 7.55371 101.404 7.88184C101.523 8.20996 101.582 8.60645 101.582 9.07129V14H100.317V9.13281C100.317 8.74544 100.251 8.43555 100.119 8.20312C99.9915 7.9707 99.8092 7.80208 99.5723 7.69727C99.3353 7.58789 99.0573 7.5332 98.7383 7.5332C98.3646 7.5332 98.0524 7.59928 97.8018 7.73145C97.5511 7.86361 97.3506 8.0459 97.2002 8.27832C97.0498 8.51074 96.9404 8.77734 96.8721 9.07812C96.8083 9.37435 96.7764 9.6888 96.7764 10.0215ZM101.568 9.32422L100.721 9.58398C100.725 9.17839 100.791 8.78874 100.919 8.41504C101.051 8.04134 101.24 7.70866 101.486 7.41699C101.737 7.12533 102.045 6.89518 102.409 6.72656C102.774 6.55339 103.191 6.4668 103.66 6.4668C104.057 6.4668 104.408 6.51921 104.713 6.62402C105.023 6.72884 105.283 6.89062 105.492 7.10938C105.706 7.32357 105.868 7.59928 105.978 7.93652C106.087 8.27376 106.142 8.6748 106.142 9.13965V14H104.87V9.12598C104.87 8.71126 104.804 8.38997 104.672 8.16211C104.544 7.92969 104.362 7.7679 104.125 7.67676C103.893 7.58105 103.615 7.5332 103.291 7.5332C103.013 7.5332 102.767 7.58105 102.553 7.67676C102.339 7.77246 102.159 7.90462 102.013 8.07324C101.867 8.2373 101.755 8.42643 101.678 8.64062C101.605 8.85482 101.568 9.08268 101.568 9.32422ZM112.417 12.7354V8.92773C112.417 8.63607 112.358 8.38314 112.239 8.16895C112.125 7.9502 111.952 7.78158 111.72 7.66309C111.487 7.5446 111.2 7.48535 110.858 7.48535C110.539 7.48535 110.259 7.54004 110.018 7.64941C109.781 7.75879 109.594 7.90234 109.457 8.08008C109.325 8.25781 109.259 8.44922 109.259 8.6543H107.994C107.994 8.38997 108.062 8.12793 108.199 7.86816C108.336 7.6084 108.532 7.3737 108.787 7.16406C109.047 6.94987 109.357 6.78125 109.717 6.6582C110.081 6.5306 110.487 6.4668 110.934 6.4668C111.471 6.4668 111.945 6.55794 112.355 6.74023C112.77 6.92253 113.094 7.19824 113.326 7.56738C113.563 7.93197 113.682 8.38997 113.682 8.94141V12.3867C113.682 12.6328 113.702 12.8949 113.743 13.1729C113.789 13.4508 113.855 13.6901 113.941 13.8906V14H112.622C112.558 13.8542 112.508 13.6605 112.472 13.4189C112.435 13.1729 112.417 12.945 112.417 12.7354ZM112.636 9.51562L112.649 10.4043H111.371C111.011 10.4043 110.69 10.4339 110.407 10.4932C110.125 10.5479 109.888 10.6322 109.696 10.7461C109.505 10.86 109.359 11.0036 109.259 11.1768C109.159 11.3454 109.108 11.5436 109.108 11.7715C109.108 12.0039 109.161 12.2158 109.266 12.4072C109.37 12.5986 109.528 12.7513 109.737 12.8652C109.951 12.9746 110.214 13.0293 110.523 13.0293C110.911 13.0293 111.253 12.9473 111.549 12.7832C111.845 12.6191 112.08 12.4186 112.253 12.1816C112.431 11.9447 112.526 11.7145 112.54 11.4912L113.08 12.0996C113.048 12.291 112.962 12.5029 112.82 12.7354C112.679 12.9678 112.49 13.1911 112.253 13.4053C112.021 13.6149 111.743 13.7904 111.419 13.9316C111.1 14.0684 110.74 14.1367 110.339 14.1367C109.838 14.1367 109.398 14.0387 109.02 13.8428C108.646 13.6468 108.354 13.3848 108.145 13.0566C107.939 12.724 107.837 12.3525 107.837 11.9424C107.837 11.5459 107.914 11.1973 108.069 10.8965C108.224 10.5911 108.448 10.3382 108.739 10.1377C109.031 9.93262 109.382 9.77767 109.792 9.67285C110.202 9.56803 110.66 9.51562 111.166 9.51562H112.636ZM117.045 6.60352V14H115.773V6.60352H117.045ZM115.678 4.6416C115.678 4.43652 115.739 4.26335 115.862 4.12207C115.99 3.98079 116.177 3.91016 116.423 3.91016C116.664 3.91016 116.849 3.98079 116.977 4.12207C117.109 4.26335 117.175 4.43652 117.175 4.6416C117.175 4.83757 117.109 5.00618 116.977 5.14746C116.849 5.28418 116.664 5.35254 116.423 5.35254C116.177 5.35254 115.99 5.28418 115.862 5.14746C115.739 5.00618 115.678 4.83757 115.678 4.6416ZM120.449 3.5V14H119.178V3.5H120.449ZM122.5 13.3301C122.5 13.1159 122.566 12.9359 122.698 12.79C122.835 12.6396 123.031 12.5645 123.286 12.5645C123.541 12.5645 123.735 12.6396 123.867 12.79C124.004 12.9359 124.072 13.1159 124.072 13.3301C124.072 13.5397 124.004 13.7174 123.867 13.8633C123.735 14.0091 123.541 14.082 123.286 14.082C123.031 14.082 122.835 14.0091 122.698 13.8633C122.566 13.7174 122.5 13.5397 122.5 13.3301ZM129.131 13.0977C129.432 13.0977 129.71 13.0361 129.965 12.9131C130.22 12.79 130.43 12.6214 130.594 12.4072C130.758 12.1885 130.851 11.9401 130.874 11.6621H132.077C132.054 12.0996 131.906 12.5075 131.633 12.8857C131.364 13.2594 131.011 13.5625 130.573 13.7949C130.136 14.0228 129.655 14.1367 129.131 14.1367C128.575 14.1367 128.09 14.0387 127.675 13.8428C127.265 13.6468 126.923 13.3779 126.649 13.0361C126.381 12.6943 126.178 12.3024 126.041 11.8604C125.909 11.4137 125.843 10.9421 125.843 10.4453V10.1582C125.843 9.66146 125.909 9.19206 126.041 8.75C126.178 8.30339 126.381 7.90918 126.649 7.56738C126.923 7.22559 127.265 6.95671 127.675 6.76074C128.09 6.56478 128.575 6.4668 129.131 6.4668C129.71 6.4668 130.215 6.58529 130.648 6.82227C131.081 7.05469 131.421 7.3737 131.667 7.7793C131.918 8.18034 132.054 8.63607 132.077 9.14648H130.874C130.851 8.84115 130.765 8.56543 130.614 8.31934C130.468 8.07324 130.268 7.87728 130.013 7.73145C129.762 7.58105 129.468 7.50586 129.131 7.50586C128.743 7.50586 128.418 7.58333 128.153 7.73828C127.894 7.88867 127.686 8.09375 127.531 8.35352C127.381 8.60872 127.271 8.89355 127.203 9.20801C127.139 9.5179 127.107 9.83464 127.107 10.1582V10.4453C127.107 10.7689 127.139 11.0879 127.203 11.4023C127.267 11.7168 127.374 12.0016 127.524 12.2568C127.679 12.512 127.887 12.7171 128.146 12.8721C128.411 13.0225 128.739 13.0977 129.131 13.0977ZM133.164 10.3838V10.2266C133.164 9.69336 133.242 9.19889 133.396 8.74316C133.551 8.28288 133.775 7.88411 134.066 7.54688C134.358 7.20508 134.711 6.94076 135.126 6.75391C135.541 6.5625 136.006 6.4668 136.521 6.4668C137.04 6.4668 137.507 6.5625 137.922 6.75391C138.341 6.94076 138.697 7.20508 138.988 7.54688C139.285 7.88411 139.51 8.28288 139.665 8.74316C139.82 9.19889 139.897 9.69336 139.897 10.2266V10.3838C139.897 10.917 139.82 11.4115 139.665 11.8672C139.51 12.3229 139.285 12.7217 138.988 13.0635C138.697 13.4007 138.343 13.665 137.929 13.8564C137.519 14.0433 137.054 14.1367 136.534 14.1367C136.015 14.1367 135.548 14.0433 135.133 13.8564C134.718 13.665 134.363 13.4007 134.066 13.0635C133.775 12.7217 133.551 12.3229 133.396 11.8672C133.242 11.4115 133.164 10.917 133.164 10.3838ZM134.429 10.2266V10.3838C134.429 10.7529 134.472 11.1016 134.559 11.4297C134.645 11.7533 134.775 12.0404 134.948 12.291C135.126 12.5417 135.347 12.7399 135.611 12.8857C135.876 13.027 136.183 13.0977 136.534 13.0977C136.881 13.0977 137.184 13.027 137.443 12.8857C137.708 12.7399 137.926 12.5417 138.1 12.291C138.273 12.0404 138.403 11.7533 138.489 11.4297C138.58 11.1016 138.626 10.7529 138.626 10.3838V10.2266C138.626 9.86198 138.58 9.5179 138.489 9.19434C138.403 8.86621 138.271 8.57682 138.093 8.32617C137.92 8.07096 137.701 7.87044 137.437 7.72461C137.177 7.57878 136.871 7.50586 136.521 7.50586C136.174 7.50586 135.869 7.57878 135.604 7.72461C135.345 7.87044 135.126 8.07096 134.948 8.32617C134.775 8.57682 134.645 8.86621 134.559 9.19434C134.472 9.5179 134.429 9.86198 134.429 10.2266ZM142.741 8.07324V14H141.47V6.60352H142.673L142.741 8.07324ZM142.481 10.0215L141.894 10.001C141.898 9.49512 141.964 9.02799 142.092 8.59961C142.219 8.16667 142.409 7.79069 142.659 7.47168C142.91 7.15267 143.222 6.90658 143.596 6.7334C143.969 6.55566 144.402 6.4668 144.895 6.4668C145.241 6.4668 145.56 6.51693 145.852 6.61719C146.143 6.71289 146.396 6.86556 146.61 7.0752C146.825 7.28483 146.991 7.55371 147.109 7.88184C147.228 8.20996 147.287 8.60645 147.287 9.07129V14H146.022V9.13281C146.022 8.74544 145.956 8.43555 145.824 8.20312C145.697 7.9707 145.514 7.80208 145.277 7.69727C145.04 7.58789 144.762 7.5332 144.443 7.5332C144.07 7.5332 143.757 7.59928 143.507 7.73145C143.256 7.86361 143.056 8.0459 142.905 8.27832C142.755 8.51074 142.646 8.77734 142.577 9.07812C142.513 9.37435 142.481 9.6888 142.481 10.0215ZM147.273 9.32422L146.426 9.58398C146.43 9.17839 146.496 8.78874 146.624 8.41504C146.756 8.04134 146.945 7.70866 147.191 7.41699C147.442 7.12533 147.75 6.89518 148.114 6.72656C148.479 6.55339 148.896 6.4668 149.365 6.4668C149.762 6.4668 150.113 6.51921 150.418 6.62402C150.728 6.72884 150.988 6.89062 151.197 7.10938C151.411 7.32357 151.573 7.59928 151.683 7.93652C151.792 8.27376 151.847 8.6748 151.847 9.13965V14H150.575V9.12598C150.575 8.71126 150.509 8.38997 150.377 8.16211C150.249 7.92969 150.067 7.7679 149.83 7.67676C149.598 7.58105 149.32 7.5332 148.996 7.5332C148.718 7.5332 148.472 7.58105 148.258 7.67676C148.044 7.77246 147.864 7.90462 147.718 8.07324C147.572 8.2373 147.46 8.42643 147.383 8.64062C147.31 8.85482 147.273 9.08268 147.273 9.32422ZM161.636 4.04688L157.486 14.8545H156.399L160.556 4.04688H161.636ZM172.881 8.66113V9.85059H166.059V8.66113H172.881ZM170.105 5.75586V13.002H168.841V5.75586H170.105ZM178.452 3.99219V14H177.188V5.57129L174.638 6.50098V5.35938L178.254 3.99219H178.452ZM183.429 12.9404H183.559C184.288 12.9404 184.88 12.8379 185.336 12.6328C185.792 12.4277 186.143 12.152 186.389 11.8057C186.635 11.4593 186.803 11.0697 186.895 10.6367C186.986 10.1992 187.031 9.75033 187.031 9.29004V7.76562C187.031 7.31445 186.979 6.91341 186.874 6.5625C186.774 6.21159 186.632 5.91764 186.45 5.68066C186.272 5.44368 186.07 5.26367 185.842 5.14062C185.614 5.01758 185.372 4.95605 185.117 4.95605C184.826 4.95605 184.563 5.0153 184.331 5.13379C184.103 5.24772 183.91 5.40951 183.75 5.61914C183.595 5.82878 183.477 6.07487 183.395 6.35742C183.312 6.63997 183.271 6.94759 183.271 7.28027C183.271 7.5765 183.308 7.86361 183.381 8.1416C183.454 8.4196 183.565 8.67025 183.716 8.89355C183.866 9.11686 184.053 9.2946 184.276 9.42676C184.504 9.55436 184.771 9.61816 185.076 9.61816C185.359 9.61816 185.623 9.56348 185.869 9.4541C186.12 9.34017 186.341 9.1875 186.532 8.99609C186.728 8.80013 186.883 8.5791 186.997 8.33301C187.116 8.08691 187.184 7.82943 187.202 7.56055H187.804C187.804 7.9388 187.729 8.3125 187.578 8.68164C187.432 9.04622 187.227 9.37891 186.963 9.67969C186.699 9.98047 186.389 10.222 186.033 10.4043C185.678 10.582 185.29 10.6709 184.871 10.6709C184.379 10.6709 183.953 10.5752 183.593 10.3838C183.233 10.1924 182.937 9.93717 182.704 9.61816C182.476 9.29915 182.305 8.94368 182.191 8.55176C182.082 8.15527 182.027 7.75423 182.027 7.34863C182.027 6.87467 182.093 6.43034 182.226 6.01562C182.358 5.60091 182.554 5.23633 182.813 4.92188C183.073 4.60286 183.395 4.35449 183.777 4.17676C184.165 3.99902 184.611 3.91016 185.117 3.91016C185.687 3.91016 186.172 4.02409 186.573 4.25195C186.974 4.47982 187.3 4.78516 187.551 5.16797C187.806 5.55078 187.993 5.98145 188.111 6.45996C188.23 6.93848 188.289 7.43066 188.289 7.93652V8.39453C188.289 8.90951 188.255 9.43359 188.187 9.9668C188.123 10.4954 187.997 11.0013 187.811 11.4844C187.628 11.9674 187.362 12.4004 187.011 12.7832C186.66 13.1615 186.202 13.4622 185.637 13.6855C185.076 13.9043 184.383 14.0137 183.559 14.0137H183.429V12.9404ZM196.321 11.3066C196.321 11.9128 196.18 12.4277 195.897 12.8516C195.619 13.2708 195.241 13.5898 194.763 13.8086C194.289 14.0273 193.753 14.1367 193.156 14.1367C192.559 14.1367 192.021 14.0273 191.543 13.8086C191.064 13.5898 190.686 13.2708 190.408 12.8516C190.13 12.4277 189.991 11.9128 189.991 11.3066C189.991 10.9102 190.066 10.5479 190.217 10.2197C190.372 9.88704 190.588 9.59766 190.866 9.35156C191.149 9.10547 191.481 8.91634 191.864 8.78418C192.252 8.64746 192.678 8.5791 193.143 8.5791C193.753 8.5791 194.298 8.69759 194.776 8.93457C195.255 9.16699 195.631 9.48828 195.904 9.89844C196.182 10.3086 196.321 10.778 196.321 11.3066ZM195.05 11.2793C195.05 10.9102 194.97 10.5843 194.811 10.3018C194.651 10.0146 194.428 9.79134 194.141 9.63184C193.854 9.47233 193.521 9.39258 193.143 9.39258C192.755 9.39258 192.42 9.47233 192.138 9.63184C191.86 9.79134 191.643 10.0146 191.488 10.3018C191.333 10.5843 191.256 10.9102 191.256 11.2793C191.256 11.6621 191.331 11.9902 191.481 12.2637C191.636 12.5326 191.855 12.7399 192.138 12.8857C192.425 13.027 192.764 13.0977 193.156 13.0977C193.548 13.0977 193.885 13.027 194.168 12.8857C194.451 12.7399 194.667 12.5326 194.817 12.2637C194.972 11.9902 195.05 11.6621 195.05 11.2793ZM196.089 6.6377C196.089 7.12077 195.961 7.55599 195.706 7.94336C195.451 8.33073 195.102 8.63607 194.66 8.85938C194.218 9.08268 193.717 9.19434 193.156 9.19434C192.587 9.19434 192.078 9.08268 191.632 8.85938C191.19 8.63607 190.843 8.33073 190.593 7.94336C190.342 7.55599 190.217 7.12077 190.217 6.6377C190.217 6.05892 190.342 5.56673 190.593 5.16113C190.848 4.75553 191.197 4.44564 191.639 4.23145C192.081 4.01725 192.584 3.91016 193.149 3.91016C193.719 3.91016 194.225 4.01725 194.667 4.23145C195.109 4.44564 195.455 4.75553 195.706 5.16113C195.961 5.56673 196.089 6.05892 196.089 6.6377ZM194.824 6.6582C194.824 6.32552 194.754 6.03158 194.612 5.77637C194.471 5.52116 194.275 5.32064 194.024 5.1748C193.774 5.02441 193.482 4.94922 193.149 4.94922C192.817 4.94922 192.525 5.01986 192.274 5.16113C192.028 5.29785 191.835 5.49382 191.693 5.74902C191.557 6.00423 191.488 6.30729 191.488 6.6582C191.488 7 191.557 7.2985 191.693 7.55371C191.835 7.80892 192.031 8.00716 192.281 8.14844C192.532 8.28971 192.824 8.36035 193.156 8.36035C193.489 8.36035 193.778 8.28971 194.024 8.14844C194.275 8.00716 194.471 7.80892 194.612 7.55371C194.754 7.2985 194.824 7 194.824 6.6582ZM204.354 4.04688V4.75781L200.231 14H198.898L203.014 5.08594H197.627V4.04688H204.354ZM210.649 4.0332H210.759V5.10645H210.649C209.979 5.10645 209.419 5.21582 208.968 5.43457C208.517 5.64876 208.159 5.93815 207.895 6.30273C207.63 6.66276 207.439 7.06836 207.32 7.51953C207.206 7.9707 207.149 8.42871 207.149 8.89355V10.3564C207.149 10.7985 207.202 11.1904 207.307 11.5322C207.411 11.8695 207.555 12.1543 207.737 12.3867C207.92 12.6191 208.125 12.7946 208.353 12.9131C208.585 13.0316 208.826 13.0908 209.077 13.0908C209.369 13.0908 209.629 13.0361 209.856 12.9268C210.084 12.8128 210.276 12.6556 210.431 12.4551C210.59 12.25 210.711 12.0085 210.793 11.7305C210.875 11.4525 210.916 11.1471 210.916 10.8145C210.916 10.5182 210.88 10.2334 210.807 9.95996C210.734 9.68197 210.622 9.43587 210.472 9.22168C210.321 9.00293 210.132 8.83203 209.904 8.70898C209.681 8.58138 209.414 8.51758 209.104 8.51758C208.754 8.51758 208.425 8.60417 208.12 8.77734C207.819 8.94596 207.571 9.16927 207.375 9.44727C207.184 9.7207 207.074 10.0192 207.047 10.3428L206.377 10.3359C206.441 9.82552 206.559 9.3903 206.732 9.03027C206.91 8.66569 207.129 8.36947 207.389 8.1416C207.653 7.90918 207.947 7.74056 208.271 7.63574C208.599 7.52637 208.945 7.47168 209.31 7.47168C209.806 7.47168 210.235 7.5651 210.595 7.75195C210.955 7.9388 211.251 8.18945 211.483 8.50391C211.716 8.8138 211.887 9.16471 211.996 9.55664C212.11 9.94401 212.167 10.3428 212.167 10.7529C212.167 11.2223 212.101 11.6621 211.969 12.0723C211.837 12.4824 211.638 12.8424 211.374 13.1523C211.114 13.4622 210.793 13.7038 210.41 13.877C210.027 14.0501 209.583 14.1367 209.077 14.1367C208.539 14.1367 208.07 14.0273 207.669 13.8086C207.268 13.5853 206.935 13.2891 206.671 12.9199C206.407 12.5508 206.208 12.1406 206.076 11.6895C205.944 11.2383 205.878 10.7803 205.878 10.3154V9.7207C205.878 9.01888 205.949 8.33073 206.09 7.65625C206.231 6.98177 206.475 6.37109 206.821 5.82422C207.172 5.27734 207.658 4.84212 208.277 4.51855C208.897 4.19499 209.688 4.0332 210.649 4.0332ZM215.271 9.2627L214.259 9.00293L214.758 4.04688H219.864V5.21582H215.831L215.53 7.92285C215.713 7.81803 215.943 7.72005 216.221 7.62891C216.503 7.53776 216.827 7.49219 217.191 7.49219C217.652 7.49219 218.064 7.57194 218.429 7.73145C218.793 7.88639 219.103 8.1097 219.358 8.40137C219.618 8.69303 219.816 9.04395 219.953 9.4541C220.09 9.86426 220.158 10.3223 220.158 10.8281C220.158 11.3066 220.092 11.7464 219.96 12.1475C219.832 12.5485 219.639 12.8994 219.379 13.2002C219.119 13.4964 218.791 13.7266 218.395 13.8906C218.003 14.0547 217.54 14.1367 217.007 14.1367C216.606 14.1367 216.225 14.082 215.865 13.9727C215.51 13.8587 215.191 13.6878 214.908 13.46C214.63 13.2275 214.402 12.9404 214.225 12.5986C214.051 12.2523 213.942 11.8467 213.896 11.3818H215.1C215.154 11.7555 215.264 12.07 215.428 12.3252C215.592 12.5804 215.806 12.7741 216.07 12.9062C216.339 13.0339 216.651 13.0977 217.007 13.0977C217.308 13.0977 217.574 13.0452 217.807 12.9404C218.039 12.8356 218.235 12.6852 218.395 12.4893C218.554 12.2933 218.675 12.0563 218.757 11.7783C218.843 11.5003 218.887 11.1882 218.887 10.8418C218.887 10.5273 218.843 10.2357 218.757 9.9668C218.67 9.69792 218.54 9.46322 218.367 9.2627C218.199 9.06217 217.991 8.90723 217.745 8.79785C217.499 8.68392 217.216 8.62695 216.897 8.62695C216.474 8.62695 216.152 8.68392 215.934 8.79785C215.719 8.91178 215.498 9.06673 215.271 9.2627ZM228.272 10.6504V11.6895H221.081V10.9443L225.538 4.04688H226.57L225.463 6.04297L222.517 10.6504H228.272ZM226.885 4.04688V14H225.62V4.04688H226.885ZM231.267 8.40137H232.169C232.611 8.40137 232.976 8.32845 233.263 8.18262C233.554 8.03223 233.771 7.82943 233.912 7.57422C234.058 7.31445 234.131 7.02279 234.131 6.69922C234.131 6.31641 234.067 5.99512 233.939 5.73535C233.812 5.47559 233.62 5.27962 233.365 5.14746C233.11 5.0153 232.786 4.94922 232.395 4.94922C232.039 4.94922 231.725 5.01986 231.451 5.16113C231.182 5.29785 230.97 5.49382 230.815 5.74902C230.665 6.00423 230.59 6.30501 230.59 6.65137H229.325C229.325 6.14551 229.453 5.68522 229.708 5.27051C229.963 4.85579 230.321 4.52539 230.781 4.2793C231.246 4.0332 231.784 3.91016 232.395 3.91016C232.996 3.91016 233.522 4.01725 233.974 4.23145C234.425 4.44108 234.776 4.75553 235.026 5.1748C235.277 5.58952 235.402 6.10677 235.402 6.72656C235.402 6.97721 235.343 7.24609 235.225 7.5332C235.111 7.81576 234.931 8.08008 234.685 8.32617C234.443 8.57227 234.129 8.77507 233.741 8.93457C233.354 9.08952 232.889 9.16699 232.347 9.16699H231.267V8.40137ZM231.267 9.44043V8.68164H232.347C232.98 8.68164 233.504 8.75684 233.919 8.90723C234.334 9.05762 234.66 9.25814 234.896 9.50879C235.138 9.75944 235.307 10.0352 235.402 10.3359C235.503 10.6322 235.553 10.9284 235.553 11.2246C235.553 11.6895 235.473 12.1019 235.313 12.4619C235.159 12.8219 234.938 13.1273 234.65 13.3779C234.368 13.6286 234.035 13.8177 233.652 13.9453C233.27 14.0729 232.853 14.1367 232.401 14.1367C231.968 14.1367 231.561 14.0752 231.178 13.9521C230.799 13.8291 230.465 13.6514 230.173 13.4189C229.881 13.182 229.653 12.8926 229.489 12.5508C229.325 12.2044 229.243 11.8102 229.243 11.3682H230.508C230.508 11.7145 230.583 12.0176 230.733 12.2773C230.888 12.5371 231.107 12.7399 231.39 12.8857C231.677 13.027 232.014 13.0977 232.401 13.0977C232.789 13.0977 233.121 13.0316 233.399 12.8994C233.682 12.7627 233.898 12.5576 234.049 12.2842C234.204 12.0107 234.281 11.6667 234.281 11.252C234.281 10.8372 234.195 10.4977 234.021 10.2334C233.848 9.96452 233.602 9.76628 233.283 9.63867C232.969 9.50651 232.597 9.44043 232.169 9.44043H231.267ZM243.817 12.9609V14H237.303V13.0908L240.563 9.46094C240.965 9.01432 241.274 8.63607 241.493 8.32617C241.716 8.01172 241.871 7.73145 241.958 7.48535C242.049 7.2347 242.095 6.97949 242.095 6.71973C242.095 6.3916 242.026 6.09538 241.89 5.83105C241.757 5.56217 241.562 5.34798 241.302 5.18848C241.042 5.02897 240.728 4.94922 240.358 4.94922C239.916 4.94922 239.547 5.03581 239.251 5.20898C238.959 5.3776 238.741 5.61458 238.595 5.91992C238.449 6.22526 238.376 6.57617 238.376 6.97266H237.111C237.111 6.41211 237.234 5.89941 237.48 5.43457C237.727 4.96973 238.091 4.60059 238.574 4.32715C239.057 4.04915 239.652 3.91016 240.358 3.91016C240.987 3.91016 241.525 4.02181 241.972 4.24512C242.418 4.46387 242.76 4.77376 242.997 5.1748C243.239 5.57129 243.359 6.03613 243.359 6.56934C243.359 6.861 243.309 7.15723 243.209 7.45801C243.113 7.75423 242.979 8.05046 242.806 8.34668C242.637 8.6429 242.439 8.93457 242.211 9.22168C241.988 9.50879 241.748 9.79134 241.493 10.0693L238.827 12.9609H243.817ZM249.327 3.99219V14H248.062V5.57129L245.513 6.50098V5.35938L249.129 3.99219H249.327Z" fill="black"/>
</g>
</svg>
