<svg width="75" height="22" viewBox="0 0 75 22" fill="none" xmlns="http://www.w3.org/2000/svg">
<mask id="mask0_14_3700" style="mask-type:luminance" maskUnits="userSpaceOnUse" x="0" y="0" width="75" height="22">
<path d="M75 0H0V22H75V0Z" fill="white"/>
</mask>
<g mask="url(#mask0_14_3700)">
<path d="M1.568 18V6.8H6.128C6.736 6.8 7.28533 6.95467 7.776 7.264C8.27733 7.56267 8.67733 7.97333 8.976 8.496C9.27467 9.01867 9.424 9.6 9.424 10.24C9.424 10.88 9.27467 11.4613 8.976 11.984C8.67733 12.5067 8.27733 12.928 7.776 13.248C7.28533 13.5573 6.736 13.712 6.128 13.712H3.296V18H1.568ZM3.296 12.048H6.096C6.384 12.048 6.64533 11.968 6.88 11.808C7.11467 11.6373 7.30133 11.4187 7.44 11.152C7.58933 10.8747 7.664 10.5707 7.664 10.24C7.664 9.90933 7.58933 9.61067 7.44 9.344C7.30133 9.07733 7.11467 8.864 6.88 8.704C6.64533 8.544 6.384 8.464 6.096 8.464H3.296V12.048ZM14.1585 18.16C13.5612 18.16 13.0385 18.0213 12.5905 17.744C12.1532 17.4667 11.8118 17.0773 11.5665 16.576C11.3318 16.0747 11.2145 15.4773 11.2145 14.784V9.6H12.8625V14.336C12.8625 14.8267 12.9372 15.2533 13.0865 15.616C13.2465 15.968 13.4705 16.24 13.7585 16.432C14.0572 16.624 14.4145 16.72 14.8305 16.72C15.1398 16.72 15.4225 16.672 15.6785 16.576C15.9345 16.4693 16.1532 16.3253 16.3345 16.144C16.5265 15.9627 16.6758 15.744 16.7825 15.488C16.8892 15.232 16.9425 14.9547 16.9425 14.656V9.6H18.5905V18H16.9425V16.24L17.2305 16.048C17.1025 16.4427 16.8838 16.8 16.5745 17.12C16.2758 17.44 15.9185 17.696 15.5025 17.888C15.0865 18.0693 14.6385 18.16 14.1585 18.16ZM25.318 18.16C24.9553 18.16 24.5927 18.1013 24.23 17.984C23.878 17.8667 23.5527 17.712 23.254 17.52C22.966 17.3173 22.7207 17.0987 22.518 16.864C22.326 16.6187 22.198 16.3733 22.134 16.128L22.55 15.904V17.952H20.902V6.16H22.55V11.52L22.294 11.376C22.3473 11.1307 22.4647 10.896 22.646 10.672C22.8273 10.4373 23.0567 10.2293 23.334 10.048C23.622 9.856 23.9313 9.70667 24.262 9.6C24.5927 9.48267 24.9287 9.424 25.27 9.424C26.0273 9.424 26.6993 9.61067 27.286 9.984C27.8727 10.3573 28.3367 10.8747 28.678 11.536C29.0193 12.1867 29.19 12.9333 29.19 13.776C29.19 14.6187 29.0193 15.3707 28.678 16.032C28.3473 16.6933 27.8887 17.216 27.302 17.6C26.7153 17.9733 26.054 18.16 25.318 18.16ZM25.046 16.656C25.5367 16.656 25.974 16.5333 26.358 16.288C26.742 16.032 27.046 15.6907 27.27 15.264C27.494 14.8267 27.606 14.3307 27.606 13.776C27.606 13.232 27.494 12.7467 27.27 12.32C27.0567 11.8827 26.758 11.5413 26.374 11.296C25.99 11.0507 25.5473 10.928 25.046 10.928C24.5447 10.928 24.102 11.0507 23.718 11.296C23.334 11.5413 23.03 11.8827 22.806 12.32C22.582 12.7467 22.47 13.232 22.47 13.776C22.47 14.3307 22.582 14.8267 22.806 15.264C23.03 15.6907 23.334 16.032 23.718 16.288C24.102 16.5333 24.5447 16.656 25.046 16.656ZM31.0121 18V6.16H32.6601V18H31.0121ZM35.2678 18V9.6H36.9158V18H35.2678ZM36.0678 7.744C35.7158 7.744 35.4438 7.65333 35.2518 7.472C35.0598 7.29067 34.9638 7.03467 34.9638 6.704C34.9638 6.39467 35.0598 6.144 35.2518 5.952C35.4544 5.76 35.7264 5.664 36.0678 5.664C36.4198 5.664 36.6918 5.75467 36.8838 5.936C37.0758 6.11733 37.1718 6.37333 37.1718 6.704C37.1718 7.01333 37.0704 7.264 36.8678 7.456C36.6758 7.648 36.4091 7.744 36.0678 7.744ZM42.2489 18.16C41.5449 18.16 40.9102 18.0373 40.3449 17.792C39.7795 17.5467 39.3102 17.184 38.9369 16.704L40.0569 15.744C40.3769 16.1173 40.7235 16.3893 41.0969 16.56C41.4809 16.72 41.9129 16.8 42.3929 16.8C42.5849 16.8 42.7609 16.7787 42.9209 16.736C43.0915 16.6827 43.2355 16.608 43.3529 16.512C43.4809 16.416 43.5769 16.304 43.6409 16.176C43.7049 16.0373 43.7369 15.888 43.7369 15.728C43.7369 15.4507 43.6355 15.2267 43.4329 15.056C43.3262 14.9813 43.1555 14.9013 42.9209 14.816C42.6969 14.72 42.4035 14.624 42.0409 14.528C41.4222 14.368 40.9155 14.1867 40.5209 13.984C40.1262 13.7813 39.8222 13.552 39.6089 13.296C39.4489 13.0933 39.3315 12.8747 39.2569 12.64C39.1822 12.3947 39.1449 12.128 39.1449 11.84C39.1449 11.488 39.2195 11.168 39.3689 10.88C39.5289 10.5813 39.7422 10.3253 40.0089 10.112C40.2862 9.888 40.6062 9.71733 40.9689 9.6C41.3422 9.48267 41.7369 9.424 42.1529 9.424C42.5475 9.424 42.9369 9.47733 43.3209 9.584C43.7155 9.69067 44.0782 9.84533 44.4089 10.048C44.7395 10.2507 45.0169 10.4907 45.2409 10.768L44.2969 11.808C44.0942 11.6053 43.8702 11.4293 43.6249 11.28C43.3902 11.12 43.1502 10.9973 42.9049 10.912C42.6595 10.8267 42.4355 10.784 42.2329 10.784C42.0089 10.784 41.8062 10.8053 41.6249 10.848C41.4435 10.8907 41.2889 10.9547 41.1609 11.04C41.0435 11.1253 40.9529 11.232 40.8889 11.36C40.8249 11.488 40.7929 11.632 40.7929 11.792C40.8035 11.9307 40.8355 12.064 40.8889 12.192C40.9529 12.3093 41.0382 12.4107 41.1449 12.496C41.2622 12.5813 41.4382 12.672 41.6729 12.768C41.9075 12.864 42.2062 12.9547 42.5689 13.04C43.1022 13.1787 43.5395 13.3333 43.8809 13.504C44.2329 13.664 44.5102 13.8507 44.7129 14.064C44.9262 14.2667 45.0755 14.5013 45.1609 14.768C45.2462 15.0347 45.2889 15.3333 45.2889 15.664C45.2889 16.144 45.1502 16.576 44.8729 16.96C44.6062 17.3333 44.2435 17.6267 43.7849 17.84C43.3262 18.0533 42.8142 18.16 42.2489 18.16ZM47.1051 18V6.16H48.7531V11.328L48.4651 11.52C48.5718 11.1467 48.7798 10.8053 49.0891 10.496C49.3985 10.176 49.7665 9.92 50.1931 9.728C50.6198 9.52533 51.0571 9.424 51.5051 9.424C52.1451 9.424 52.6785 9.552 53.1051 9.808C53.5318 10.0533 53.8518 10.432 54.0651 10.944C54.2785 11.456 54.3851 12.1013 54.3851 12.88V18H52.7371V12.992C52.7371 12.512 52.6731 12.1173 52.5451 11.808C52.4171 11.488 52.2198 11.2587 51.9531 11.12C51.6865 10.9707 51.3558 10.9067 50.9611 10.928C50.6411 10.928 50.3478 10.9813 50.0811 11.088C49.8145 11.184 49.5798 11.3227 49.3771 11.504C49.1851 11.6853 49.0305 11.8987 48.9131 12.144C48.8065 12.3787 48.7531 12.6347 48.7531 12.912V18H47.9371C47.7985 18 47.6598 18 47.5211 18C47.3825 18 47.2438 18 47.1051 18ZM60.5408 18.16C59.6768 18.16 58.9088 17.9787 58.2368 17.616C57.5754 17.2427 57.0528 16.736 56.6688 16.096C56.2954 15.456 56.1088 14.72 56.1088 13.888C56.1088 13.2267 56.2154 12.624 56.4288 12.08C56.6421 11.536 56.9354 11.0667 57.3088 10.672C57.6928 10.2667 58.1461 9.95733 58.6688 9.744C59.2021 9.52 59.7781 9.408 60.3968 9.408C60.9408 9.408 61.4474 9.51467 61.9168 9.728C62.3861 9.93067 62.7914 10.2133 63.1328 10.576C63.4848 10.9387 63.7514 11.3707 63.9328 11.872C64.1248 12.3627 64.2154 12.9013 64.2048 13.488L64.1888 14.192H57.3248L56.9568 12.88H62.7648L62.5248 13.152V12.768C62.4928 12.416 62.3754 12.1013 62.1728 11.824C61.9701 11.5467 61.7141 11.328 61.4048 11.168C61.0954 11.008 60.7594 10.928 60.3968 10.928C59.8208 10.928 59.3354 11.04 58.9408 11.264C58.5461 11.4773 58.2474 11.7973 58.0448 12.224C57.8421 12.64 57.7408 13.1573 57.7408 13.776C57.7408 14.3627 57.8634 14.8747 58.1088 15.312C58.3541 15.7387 58.7008 16.0693 59.1488 16.304C59.5968 16.5387 60.1141 16.656 60.7008 16.656C61.1168 16.656 61.5008 16.5867 61.8528 16.448C62.2154 16.3093 62.6048 16.0587 63.0208 15.696L63.8528 16.864C63.5968 17.12 63.2821 17.344 62.9088 17.536C62.5461 17.728 62.1568 17.8827 61.7408 18C61.3354 18.1067 60.9354 18.16 60.5408 18.16ZM69.4998 18.16C68.7318 18.16 68.0438 17.9733 67.4358 17.6C66.8384 17.216 66.3638 16.6987 66.0118 16.048C65.6598 15.3867 65.4838 14.6347 65.4838 13.792C65.4838 12.9493 65.6544 12.2027 65.9958 11.552C66.3478 10.8907 66.8224 10.3733 67.4198 10C68.0171 9.616 68.6944 9.424 69.4518 9.424C69.8678 9.424 70.2678 9.49333 70.6518 9.632C71.0464 9.76 71.3984 9.94133 71.7078 10.176C72.0171 10.4 72.2571 10.6507 72.4278 10.928C72.6091 11.1947 72.6998 11.4667 72.6998 11.744L72.2198 11.776V6.16H73.8678V18H72.2198V16H72.5398C72.5398 16.256 72.4544 16.512 72.2838 16.768C72.1131 17.0133 71.8838 17.2427 71.5958 17.456C71.3184 17.6693 70.9931 17.84 70.6198 17.968C70.2571 18.096 69.8838 18.16 69.4998 18.16ZM69.7238 16.736C70.2251 16.736 70.6678 16.608 71.0518 16.352C71.4358 16.096 71.7344 15.7493 71.9478 15.312C72.1718 14.864 72.2838 14.3573 72.2838 13.792C72.2838 13.2267 72.1718 12.7253 71.9478 12.288C71.7344 11.84 71.4358 11.488 71.0518 11.232C70.6678 10.976 70.2251 10.848 69.7238 10.848C69.2224 10.848 68.7798 10.976 68.3958 11.232C68.0118 11.488 67.7078 11.84 67.4838 12.288C67.2704 12.7253 67.1638 13.2267 67.1638 13.792C67.1638 14.3573 67.2704 14.864 67.4838 15.312C67.7078 15.7493 68.0118 16.096 68.3958 16.352C68.7798 16.608 69.2224 16.736 69.7238 16.736Z" fill="white"/>
</g>
</svg>
