<svg width="28" height="19" viewBox="0 0 28 19" fill="none" xmlns="http://www.w3.org/2000/svg">
<mask id="mask0_11_565" style="mask-type:luminance" maskUnits="userSpaceOnUse" x="0" y="0" width="28" height="19">
<path d="M28 0H0V19H28V0Z" fill="white"/>
</mask>
<g mask="url(#mask0_11_565)">
<path d="M8.54688 15.2734V16.5H2.52344V15.2734H8.54688ZM2.82812 5.125V16.5H1.32031V5.125H2.82812ZM7.75 10.0156V11.2422H2.52344V10.0156H7.75ZM8.46875 5.125V6.35938H2.52344V5.125H8.46875ZM15.3672 14.8594V4.5H16.8203V16.5H15.4922L15.3672 14.8594ZM9.67969 12.3672V12.2031C9.67969 11.5573 9.75781 10.9714 9.91406 10.4453C10.0755 9.91406 10.3021 9.45833 10.5938 9.07812C10.8906 8.69792 11.2422 8.40625 11.6484 8.20312C12.0599 7.99479 12.5182 7.89062 13.0234 7.89062C13.5547 7.89062 14.0182 7.98438 14.4141 8.17188C14.8151 8.35417 15.1536 8.6224 15.4297 8.97656C15.7109 9.32552 15.9323 9.7474 16.0938 10.2422C16.2552 10.737 16.3672 11.2969 16.4297 11.9219V12.6406C16.3724 13.2604 16.2604 13.8177 16.0938 14.3125C15.9323 14.8073 15.7109 15.2292 15.4297 15.5781C15.1536 15.9271 14.8151 16.1953 14.4141 16.3828C14.013 16.5651 13.5443 16.6562 13.0078 16.6562C12.513 16.6562 12.0599 16.5495 11.6484 16.3359C11.2422 16.1224 10.8906 15.8229 10.5938 15.4375C10.3021 15.0521 10.0755 14.599 9.91406 14.0781C9.75781 13.5521 9.67969 12.9818 9.67969 12.3672ZM11.1328 12.2031V12.3672C11.1328 12.7891 11.1745 13.1849 11.2578 13.5547C11.3464 13.9245 11.4818 14.25 11.6641 14.5312C11.8464 14.8125 12.0781 15.0339 12.3594 15.1953C12.6406 15.3516 12.9766 15.4297 13.3672 15.4297C13.8464 15.4297 14.2396 15.3281 14.5469 15.125C14.8594 14.9219 15.1094 14.6536 15.2969 14.3203C15.4844 13.987 15.6302 13.625 15.7344 13.2344V11.3516C15.6719 11.0651 15.5807 10.7891 15.4609 10.5234C15.3464 10.2526 15.1953 10.013 15.0078 9.80469C14.8255 9.59115 14.599 9.42188 14.3281 9.29688C14.0625 9.17188 13.7474 9.10938 13.3828 9.10938C12.987 9.10938 12.6458 9.19271 12.3594 9.35938C12.0781 9.52083 11.8464 9.74479 11.6641 10.0312C11.4818 10.3125 11.3464 10.6406 11.2578 11.0156C11.1745 11.3854 11.1328 11.7812 11.1328 12.2031ZM20.6406 8.04688V16.5H19.1875V8.04688H20.6406ZM19.0781 5.80469C19.0781 5.57031 19.1484 5.3724 19.2891 5.21094C19.4349 5.04948 19.6484 4.96875 19.9297 4.96875C20.2057 4.96875 20.4167 5.04948 20.5625 5.21094C20.7135 5.3724 20.7891 5.57031 20.7891 5.80469C20.7891 6.02865 20.7135 6.22135 20.5625 6.38281C20.4167 6.53906 20.2057 6.61719 19.9297 6.61719C19.6484 6.61719 19.4349 6.53906 19.2891 6.38281C19.1484 6.22135 19.0781 6.02865 19.0781 5.80469ZM26.5 8.04688V9.15625H21.9297V8.04688H26.5ZM23.4766 5.99219H24.9219V14.4062C24.9219 14.6927 24.9661 14.9089 25.0547 15.0547C25.1432 15.2005 25.2578 15.2969 25.3984 15.3438C25.5391 15.3906 25.6901 15.4141 25.8516 15.4141C25.9714 15.4141 26.0964 15.4036 26.2266 15.3828C26.362 15.3568 26.4635 15.3359 26.5312 15.3203L26.5391 16.5C26.4245 16.5365 26.2734 16.5703 26.0859 16.6016C25.9036 16.638 25.6823 16.6562 25.4219 16.6562C25.0677 16.6562 24.7422 16.5859 24.4453 16.4453C24.1484 16.3047 23.9115 16.0703 23.7344 15.7422C23.5625 15.4089 23.4766 14.9609 23.4766 14.3984V5.99219Z" fill="#DC143C"/>
</g>
</svg>
