<svg width="98" height="18" viewBox="0 0 98 18" fill="none" xmlns="http://www.w3.org/2000/svg">
<mask id="mask0_11_772" style="mask-type:luminance" maskUnits="userSpaceOnUse" x="0" y="0" width="98" height="18">
<path d="M98 0H0V18H98V0Z" fill="white"/>
</mask>
<g mask="url(#mask0_11_772)">
<path d="M1.372 15V5.2H7.546V6.656H2.884V13.544H7.546V15H1.372ZM2.058 10.702V9.246H6.776V10.702H2.058ZM9.60761 15V7.65H11.0496V9.162L10.7976 9.33C10.8909 9.00333 11.0729 8.70467 11.3436 8.434C11.6143 8.154 11.9363 7.93 12.3096 7.762C12.6829 7.58467 13.0656 7.496 13.4576 7.496C14.0176 7.496 14.4843 7.608 14.8576 7.832C15.2309 8.04667 15.5109 8.378 15.6976 8.826C15.8843 9.274 15.9776 9.83867 15.9776 10.52V15H14.5356V10.618C14.5356 10.198 14.4796 9.85267 14.3676 9.582C14.2556 9.302 14.0829 9.10133 13.8496 8.98C13.6163 8.84933 13.3269 8.79333 12.9816 8.812C12.7016 8.812 12.4449 8.85867 12.2116 8.952C11.9783 9.036 11.7729 9.15733 11.5956 9.316C11.4276 9.47467 11.2923 9.66133 11.1896 9.876C11.0963 10.0813 11.0496 10.3053 11.0496 10.548V15H10.3356C10.2143 15 10.0929 15 9.97161 15C9.85028 15 9.72894 15 9.60761 15ZM18.8438 15V5.774H20.2858V15H18.8438ZM17.3178 9.05V7.65H21.9938V9.05H17.3178ZM26.6685 15.14C25.9125 15.14 25.2405 14.9813 24.6525 14.664C24.0738 14.3373 23.6165 13.894 23.2805 13.334C22.9538 12.774 22.7905 12.13 22.7905 11.402C22.7905 10.8233 22.8838 10.296 23.0705 9.82C23.2571 9.344 23.5138 8.93333 23.8405 8.588C24.1765 8.23333 24.5731 7.96267 25.0305 7.776C25.4971 7.58 26.0011 7.482 26.5425 7.482C27.0185 7.482 27.4618 7.57533 27.8725 7.762C28.2831 7.93933 28.6378 8.18667 28.9365 8.504C29.2445 8.82133 29.4778 9.19933 29.6365 9.638C29.8045 10.0673 29.8838 10.5387 29.8745 11.052L29.8605 11.668H23.8545L23.5325 10.52H28.6145L28.4045 10.758V10.422C28.3765 10.114 28.2738 9.83867 28.0965 9.596C27.9191 9.35333 27.6951 9.162 27.4245 9.022C27.1538 8.882 26.8598 8.812 26.5425 8.812C26.0385 8.812 25.6138 8.91 25.2685 9.106C24.9231 9.29267 24.6618 9.57267 24.4845 9.946C24.3071 10.31 24.2185 10.7627 24.2185 11.304C24.2185 11.8173 24.3258 12.2653 24.5405 12.648C24.7551 13.0213 25.0585 13.3107 25.4505 13.516C25.8425 13.7213 26.2951 13.824 26.8085 13.824C27.1725 13.824 27.5085 13.7633 27.8165 13.642C28.1338 13.5207 28.4745 13.3013 28.8385 12.984L29.5665 14.006C29.3425 14.23 29.0671 14.426 28.7405 14.594C28.4231 14.762 28.0825 14.8973 27.7185 15C27.3638 15.0933 27.0138 15.14 26.6685 15.14ZM31.4416 15V7.65H32.8976V9.96L32.7576 9.4C32.8603 9.04533 33.0329 8.72333 33.2756 8.434C33.5276 8.14467 33.8123 7.916 34.1296 7.748C34.4563 7.58 34.7923 7.496 35.1376 7.496C35.2963 7.496 35.4456 7.51 35.5856 7.538C35.7349 7.566 35.8516 7.59867 35.9356 7.636L35.5576 9.204C35.4456 9.15733 35.3196 9.12 35.1796 9.092C35.0489 9.05467 34.9183 9.036 34.7876 9.036C34.5356 9.036 34.2929 9.08733 34.0596 9.19C33.8356 9.28333 33.6349 9.41867 33.4576 9.596C33.2896 9.764 33.1543 9.96467 33.0516 10.198C32.9489 10.422 32.8976 10.6693 32.8976 10.94V15H31.4416ZM38.2715 15V5.774H39.7135V15H38.2715ZM36.7455 9.05V7.65H41.4215V9.05H36.7455ZM45.4942 15.14C44.8875 15.14 44.3322 14.972 43.8282 14.636C43.3335 14.3 42.9369 13.8427 42.6382 13.264C42.3395 12.6853 42.1902 12.032 42.1902 11.304C42.1902 10.5667 42.3395 9.91333 42.6382 9.344C42.9462 8.76533 43.3569 8.31267 43.8702 7.986C44.3929 7.65933 44.9762 7.496 45.6202 7.496C46.0029 7.496 46.3529 7.552 46.6702 7.664C46.9875 7.776 47.2629 7.93467 47.4962 8.14C47.7389 8.336 47.9349 8.56467 48.0842 8.826C48.2429 9.08733 48.3409 9.36733 48.3782 9.666L48.0562 9.554V7.65H49.5122V15H48.0562V13.25L48.3922 13.152C48.3362 13.404 48.2195 13.6513 48.0422 13.894C47.8742 14.1273 47.6549 14.3373 47.3842 14.524C47.1229 14.7107 46.8289 14.86 46.5022 14.972C46.1849 15.084 45.8489 15.14 45.4942 15.14ZM45.8722 13.81C46.3109 13.81 46.6982 13.7027 47.0342 13.488C47.3702 13.2733 47.6315 12.9793 47.8182 12.606C48.0142 12.2233 48.1122 11.7893 48.1122 11.304C48.1122 10.828 48.0142 10.4033 47.8182 10.03C47.6315 9.65667 47.3702 9.36267 47.0342 9.148C46.6982 8.93333 46.3109 8.826 45.8722 8.826C45.4429 8.826 45.0602 8.93333 44.7242 9.148C44.3975 9.36267 44.1362 9.65667 43.9402 10.03C43.7535 10.4033 43.6602 10.828 43.6602 11.304C43.6602 11.7893 43.7535 12.2233 43.9402 12.606C44.1362 12.9793 44.3975 13.2733 44.7242 13.488C45.0602 13.7027 45.4429 13.81 45.8722 13.81ZM51.7636 15V7.65H53.2056V15H51.7636ZM52.4636 6.026C52.1556 6.026 51.9176 5.94667 51.7496 5.788C51.5816 5.62933 51.4976 5.40533 51.4976 5.116C51.4976 4.84533 51.5816 4.626 51.7496 4.458C51.9269 4.29 52.1649 4.206 52.4636 4.206C52.7716 4.206 53.0096 4.28533 53.1776 4.444C53.3456 4.60267 53.4296 4.82667 53.4296 5.116C53.4296 5.38667 53.3409 5.606 53.1636 5.774C52.9956 5.942 52.7622 6.026 52.4636 6.026ZM55.4221 15V7.65H56.8641V9.162L56.6121 9.33C56.7054 9.00333 56.8874 8.70467 57.1581 8.434C57.4287 8.154 57.7507 7.93 58.1241 7.762C58.4974 7.58467 58.8801 7.496 59.2721 7.496C59.8321 7.496 60.2987 7.608 60.6721 7.832C61.0454 8.04667 61.3254 8.378 61.5121 8.826C61.6987 9.274 61.7921 9.83867 61.7921 10.52V15H60.3501V10.618C60.3501 10.198 60.2941 9.85267 60.1821 9.582C60.0701 9.302 59.8974 9.10133 59.6641 8.98C59.4307 8.84933 59.1414 8.79333 58.7961 8.812C58.5161 8.812 58.2594 8.85867 58.0261 8.952C57.7927 9.036 57.5874 9.15733 57.4101 9.316C57.2421 9.47467 57.1067 9.66133 57.0041 9.876C56.9107 10.0813 56.8641 10.3053 56.8641 10.548V15H56.1501C56.0287 15 55.9074 15 55.7861 15C55.6647 15 55.5434 15 55.4221 15ZM63.7202 15V7.65H65.1762V9.218L64.9102 9.386C64.9849 9.14333 65.1016 8.91 65.2602 8.686C65.4282 8.462 65.6289 8.266 65.8622 8.098C66.1049 7.92067 66.3616 7.78067 66.6322 7.678C66.9122 7.57533 67.1969 7.524 67.4862 7.524C67.9062 7.524 68.2749 7.594 68.5922 7.734C68.9096 7.874 69.1709 8.084 69.3762 8.364C69.5816 8.644 69.7309 8.994 69.8242 9.414L69.6002 9.358L69.6982 9.12C69.8009 8.90533 69.9409 8.70467 70.1182 8.518C70.3049 8.322 70.5149 8.14933 70.7482 8C70.9816 7.85067 71.2289 7.734 71.4902 7.65C71.7516 7.566 72.0082 7.524 72.2602 7.524C72.8109 7.524 73.2636 7.636 73.6182 7.86C73.9822 8.084 74.2529 8.42467 74.4302 8.882C74.6169 9.33933 74.7102 9.90867 74.7102 10.59V15H73.2542V10.674C73.2542 10.254 73.1982 9.91333 73.0862 9.652C72.9836 9.38133 72.8249 9.18067 72.6102 9.05C72.3956 8.91933 72.1202 8.854 71.7842 8.854C71.5229 8.854 71.2756 8.90067 71.0422 8.994C70.8182 9.078 70.6222 9.19933 70.4542 9.358C70.2862 9.51667 70.1556 9.70333 70.0622 9.918C69.9689 10.1233 69.9222 10.352 69.9222 10.604V15H68.4662V10.646C68.4662 10.2633 68.4102 9.94133 68.2982 9.68C68.1862 9.40933 68.0229 9.204 67.8082 9.064C67.5936 8.924 67.3322 8.854 67.0242 8.854C66.7629 8.854 66.5202 8.90067 66.2962 8.994C66.0722 9.078 65.8762 9.19933 65.7082 9.358C65.5402 9.50733 65.4096 9.68933 65.3162 9.904C65.2229 10.1093 65.1762 10.3333 65.1762 10.576V15H63.7202ZM80.0708 15.14C79.3148 15.14 78.6428 14.9813 78.0548 14.664C77.4761 14.3373 77.0188 13.894 76.6828 13.334C76.3561 12.774 76.1928 12.13 76.1928 11.402C76.1928 10.8233 76.2861 10.296 76.4728 9.82C76.6595 9.344 76.9161 8.93333 77.2428 8.588C77.5788 8.23333 77.9755 7.96267 78.4328 7.776C78.8995 7.58 79.4035 7.482 79.9448 7.482C80.4208 7.482 80.8641 7.57533 81.2748 7.762C81.6855 7.93933 82.0401 8.18667 82.3388 8.504C82.6468 8.82133 82.8801 9.19933 83.0388 9.638C83.2068 10.0673 83.2861 10.5387 83.2768 11.052L83.2628 11.668H77.2568L76.9348 10.52H82.0168L81.8068 10.758V10.422C81.7788 10.114 81.6761 9.83867 81.4988 9.596C81.3215 9.35333 81.0975 9.162 80.8268 9.022C80.5561 8.882 80.2621 8.812 79.9448 8.812C79.4408 8.812 79.0161 8.91 78.6708 9.106C78.3255 9.29267 78.0641 9.57267 77.8868 9.946C77.7095 10.31 77.6208 10.7627 77.6208 11.304C77.6208 11.8173 77.7281 12.2653 77.9428 12.648C78.1575 13.0213 78.4608 13.3107 78.8528 13.516C79.2448 13.7213 79.6975 13.824 80.2108 13.824C80.5748 13.824 80.9108 13.7633 81.2188 13.642C81.5361 13.5207 81.8768 13.3013 82.2408 12.984L82.9688 14.006C82.7448 14.23 82.4695 14.426 82.1428 14.594C81.8255 14.762 81.4848 14.8973 81.1208 15C80.7661 15.0933 80.4161 15.14 80.0708 15.14ZM84.8439 15V7.65H86.2859V9.162L86.0339 9.33C86.1273 9.00333 86.3093 8.70467 86.5799 8.434C86.8506 8.154 87.1726 7.93 87.5459 7.762C87.9193 7.58467 88.3019 7.496 88.6939 7.496C89.2539 7.496 89.7206 7.608 90.0939 7.832C90.4673 8.04667 90.7473 8.378 90.9339 8.826C91.1206 9.274 91.2139 9.83867 91.2139 10.52V15H89.7719V10.618C89.7719 10.198 89.7159 9.85267 89.6039 9.582C89.4919 9.302 89.3193 9.10133 89.0859 8.98C88.8526 8.84933 88.5633 8.79333 88.2179 8.812C87.9379 8.812 87.6813 8.85867 87.4479 8.952C87.2146 9.036 87.0093 9.15733 86.8319 9.316C86.6639 9.47467 86.5286 9.66133 86.4259 9.876C86.3326 10.0813 86.2859 10.3053 86.2859 10.548V15H85.5719C85.4506 15 85.3293 15 85.2079 15C85.0866 15 84.9653 15 84.8439 15ZM94.0801 15V5.774H95.5221V15H94.0801ZM92.5541 9.05V7.65H97.2301V9.05H92.5541Z" fill="white"/>
</g>
</svg>
