<svg width="64" height="20" viewBox="0 0 64 20" fill="none" xmlns="http://www.w3.org/2000/svg">
<mask id="mask0_14_3691" style="mask-type:luminance" maskUnits="userSpaceOnUse" x="0" y="0" width="64" height="20">
<path d="M64 0H0V20H64V0Z" fill="white"/>
</mask>
<g mask="url(#mask0_14_3691)">
<path d="M1.568 18V6.8H6.128C6.736 6.8 7.28533 6.95467 7.776 7.264C8.27733 7.56267 8.67733 7.97333 8.976 8.496C9.27467 9.01867 9.424 9.6 9.424 10.24C9.424 10.88 9.27467 11.4613 8.976 11.984C8.67733 12.5067 8.27733 12.928 7.776 13.248C7.28533 13.5573 6.736 13.712 6.128 13.712H3.296V18H1.568ZM3.296 12.048H6.096C6.384 12.048 6.64533 11.968 6.88 11.808C7.11467 11.6373 7.30133 11.4187 7.44 11.152C7.58933 10.8747 7.664 10.5707 7.664 10.24C7.664 9.90933 7.58933 9.61067 7.44 9.344C7.30133 9.07733 7.11467 8.864 6.88 8.704C6.64533 8.544 6.384 8.464 6.096 8.464H3.296V12.048ZM14.9124 18.16C14.091 18.16 13.355 17.9733 12.7044 17.6C12.0644 17.216 11.5577 16.6987 11.1844 16.048C10.811 15.3867 10.6244 14.6347 10.6244 13.792C10.6244 12.9493 10.811 12.2027 11.1844 11.552C11.5577 10.8907 12.0644 10.3733 12.7044 10C13.355 9.616 14.091 9.424 14.9124 9.424C15.723 9.424 16.4484 9.616 17.0884 10C17.739 10.3733 18.251 10.8907 18.6244 11.552C18.9977 12.2027 19.1844 12.9493 19.1844 13.792C19.1844 14.6347 18.9977 15.3867 18.6244 16.048C18.251 16.6987 17.739 17.216 17.0884 17.6C16.4484 17.9733 15.723 18.16 14.9124 18.16ZM14.9124 16.656C15.4137 16.656 15.8617 16.5333 16.2564 16.288C16.651 16.032 16.9604 15.6907 17.1844 15.264C17.4084 14.8267 17.515 14.336 17.5044 13.792C17.515 13.2373 17.4084 12.7467 17.1844 12.32C16.9604 11.8827 16.651 11.5413 16.2564 11.296C15.8617 11.0507 15.4137 10.928 14.9124 10.928C14.411 10.928 13.9577 11.056 13.5524 11.312C13.1577 11.5573 12.8484 11.8987 12.6244 12.336C12.4004 12.7627 12.2937 13.248 12.3044 13.792C12.2937 14.336 12.4004 14.8267 12.6244 15.264C12.8484 15.6907 13.1577 16.032 13.5524 16.288C13.9577 16.5333 14.411 16.656 14.9124 16.656ZM21.0121 18V6.16H22.6601V18H21.0121ZM25.2678 18V9.6H26.9158V18H25.2678ZM26.0678 7.744C25.7158 7.744 25.4438 7.65333 25.2518 7.472C25.0598 7.29067 24.9638 7.03467 24.9638 6.704C24.9638 6.39467 25.0598 6.144 25.2518 5.952C25.4544 5.76 25.7264 5.664 26.0678 5.664C26.4198 5.664 26.6918 5.75467 26.8838 5.936C27.0758 6.11733 27.1718 6.37333 27.1718 6.704C27.1718 7.01333 27.0704 7.264 26.8678 7.456C26.6758 7.648 26.4091 7.744 26.0678 7.744ZM30.4889 18V7.456H32.1369V18H30.4889ZM28.7449 11.2V9.6H34.0889V11.2H28.7449ZM35.8615 18V9.6H37.5095V18H35.8615ZM36.6615 7.744C36.3095 7.744 36.0375 7.65333 35.8455 7.472C35.6535 7.29067 35.5575 7.03467 35.5575 6.704C35.5575 6.39467 35.6535 6.144 35.8455 5.952C36.0482 5.76 36.3202 5.664 36.6615 5.664C37.0135 5.664 37.2855 5.75467 37.4775 5.936C37.6695 6.11733 37.7655 6.37333 37.7655 6.704C37.7655 7.01333 37.6642 7.264 37.4615 7.456C37.2695 7.648 37.0028 7.744 36.6615 7.744ZM43.6106 18.16C42.832 18.16 42.1333 17.968 41.5146 17.584C40.9066 17.2 40.4213 16.6773 40.0586 16.016C39.7066 15.3547 39.5306 14.6133 39.5306 13.792C39.5306 12.9707 39.7066 12.2293 40.0586 11.568C40.4213 10.9067 40.9066 10.384 41.5146 10C42.1333 9.616 42.832 9.424 43.6106 9.424C44.3573 9.424 45.0346 9.57867 45.6426 9.888C46.2613 10.1867 46.7306 10.5973 47.0506 11.12L46.1386 12.24C45.968 11.9947 45.7493 11.7707 45.4826 11.568C45.216 11.3653 44.9333 11.2053 44.6346 11.088C44.336 10.9707 44.048 10.912 43.7706 10.912C43.2586 10.912 42.8 11.04 42.3946 11.296C42 11.5413 41.6853 11.8827 41.4506 12.32C41.216 12.7573 41.0986 13.248 41.0986 13.792C41.0986 14.336 41.2213 14.8267 41.4666 15.264C41.712 15.6907 42.0373 16.032 42.4426 16.288C42.848 16.544 43.296 16.672 43.7866 16.672C44.0746 16.672 44.352 16.624 44.6186 16.528C44.896 16.432 45.1626 16.288 45.4186 16.096C45.6746 15.904 45.9146 15.6693 46.1386 15.392L47.0506 16.512C46.7093 16.992 46.2186 17.3867 45.5786 17.696C44.9493 18.0053 44.2933 18.16 43.6106 18.16ZM51.4051 18.16C50.7011 18.16 50.0665 18.0373 49.5011 17.792C48.9358 17.5467 48.4665 17.184 48.0931 16.704L49.2131 15.744C49.5331 16.1173 49.8798 16.3893 50.2531 16.56C50.6371 16.72 51.0691 16.8 51.5491 16.8C51.7411 16.8 51.9171 16.7787 52.0771 16.736C52.2478 16.6827 52.3918 16.608 52.5091 16.512C52.6371 16.416 52.7331 16.304 52.7971 16.176C52.8611 16.0373 52.8931 15.888 52.8931 15.728C52.8931 15.4507 52.7918 15.2267 52.5891 15.056C52.4825 14.9813 52.3118 14.9013 52.0771 14.816C51.8531 14.72 51.5598 14.624 51.1971 14.528C50.5785 14.368 50.0718 14.1867 49.6771 13.984C49.2825 13.7813 48.9785 13.552 48.7651 13.296C48.6051 13.0933 48.4878 12.8747 48.4131 12.64C48.3385 12.3947 48.3011 12.128 48.3011 11.84C48.3011 11.488 48.3758 11.168 48.5251 10.88C48.6851 10.5813 48.8985 10.3253 49.1651 10.112C49.4425 9.888 49.7625 9.71733 50.1251 9.6C50.4985 9.48267 50.8931 9.424 51.3091 9.424C51.7038 9.424 52.0931 9.47733 52.4771 9.584C52.8718 9.69067 53.2345 9.84533 53.5651 10.048C53.8958 10.2507 54.1731 10.4907 54.3971 10.768L53.4531 11.808C53.2505 11.6053 53.0265 11.4293 52.7811 11.28C52.5465 11.12 52.3065 10.9973 52.0611 10.912C51.8158 10.8267 51.5918 10.784 51.3891 10.784C51.1651 10.784 50.9625 10.8053 50.7811 10.848C50.5998 10.8907 50.4451 10.9547 50.3171 11.04C50.1998 11.1253 50.1091 11.232 50.0451 11.36C49.9811 11.488 49.9491 11.632 49.9491 11.792C49.9598 11.9307 49.9918 12.064 50.0451 12.192C50.1091 12.3093 50.1945 12.4107 50.3011 12.496C50.4185 12.5813 50.5945 12.672 50.8291 12.768C51.0638 12.864 51.3625 12.9547 51.7251 13.04C52.2585 13.1787 52.6958 13.3333 53.0371 13.504C53.3891 13.664 53.6665 13.8507 53.8691 14.064C54.0825 14.2667 54.2318 14.5013 54.3171 14.768C54.4025 15.0347 54.4451 15.3333 54.4451 15.664C54.4451 16.144 54.3065 16.576 54.0291 16.96C53.7625 17.3333 53.3998 17.6267 52.9411 17.84C52.4825 18.0533 51.9705 18.16 51.4051 18.16Z" fill="black"/>
</g>
</svg>
