<svg width="53" height="19" viewBox="0 0 53 19" fill="none" xmlns="http://www.w3.org/2000/svg">
<mask id="mask0_14_4512" style="mask-type:luminance" maskUnits="userSpaceOnUse" x="0" y="0" width="53" height="19">
<path d="M53 0H0V19H53V0Z" fill="white"/>
</mask>
<g mask="url(#mask0_14_4512)">
<path d="M1.32031 5.125H5.08594C5.9401 5.125 6.66146 5.25521 7.25 5.51562C7.84375 5.77604 8.29427 6.16146 8.60156 6.67188C8.91406 7.17708 9.07031 7.79948 9.07031 8.53906C9.07031 9.0599 8.96354 9.53646 8.75 9.96875C8.54167 10.3958 8.23958 10.7604 7.84375 11.0625C7.45312 11.3594 6.98438 11.5807 6.4375 11.7266L6.01562 11.8906H2.47656L2.46094 10.6641H5.13281C5.67448 10.6641 6.125 10.5703 6.48438 10.3828C6.84375 10.1901 7.11458 9.93229 7.29688 9.60938C7.47917 9.28646 7.57031 8.92969 7.57031 8.53906C7.57031 8.10156 7.48438 7.71875 7.3125 7.39062C7.14062 7.0625 6.86979 6.8099 6.5 6.63281C6.13542 6.45052 5.66406 6.35938 5.08594 6.35938H2.82812V16.5H1.32031V5.125ZM7.96875 16.5L5.20312 11.3438L6.77344 11.3359L9.57812 16.4062V16.5H7.96875ZM14.4688 16.6562C13.8802 16.6562 13.3464 16.5573 12.8672 16.3594C12.3932 16.1562 11.9844 15.8724 11.6406 15.5078C11.3021 15.1432 11.0417 14.7109 10.8594 14.2109C10.6771 13.7109 10.5859 13.1641 10.5859 12.5703V12.2422C10.5859 11.5547 10.6875 10.9427 10.8906 10.4062C11.0938 9.86458 11.3698 9.40625 11.7188 9.03125C12.0677 8.65625 12.4635 8.3724 12.9062 8.17969C13.349 7.98698 13.8073 7.89062 14.2812 7.89062C14.8854 7.89062 15.4062 7.99479 15.8438 8.20312C16.2865 8.41146 16.6484 8.70312 16.9297 9.07812C17.2109 9.44792 17.4193 9.88542 17.5547 10.3906C17.6901 10.8906 17.7578 11.4375 17.7578 12.0312V12.6797H11.4453V11.5H16.3125V11.3906C16.2917 11.0156 16.2135 10.651 16.0781 10.2969C15.9479 9.94271 15.7396 9.65104 15.4531 9.42188C15.1667 9.19271 14.776 9.07812 14.2812 9.07812C13.9531 9.07812 13.651 9.14844 13.375 9.28906C13.099 9.42448 12.862 9.6276 12.6641 9.89844C12.4661 10.1693 12.3125 10.5 12.2031 10.8906C12.0938 11.2812 12.0391 11.7318 12.0391 12.2422V12.5703C12.0391 12.9714 12.0938 13.349 12.2031 13.7031C12.3177 14.0521 12.4818 14.3594 12.6953 14.625C12.9141 14.8906 13.1771 15.099 13.4844 15.25C13.7969 15.401 14.151 15.4766 14.5469 15.4766C15.0573 15.4766 15.4896 15.3724 15.8438 15.1641C16.1979 14.9557 16.5078 14.6771 16.7734 14.3281L17.6484 15.0234C17.4661 15.2995 17.2344 15.5625 16.9531 15.8125C16.6719 16.0625 16.3255 16.2656 15.9141 16.4219C15.5078 16.5781 15.026 16.6562 14.4688 16.6562ZM24.3672 14.2578C24.3672 14.0495 24.3203 13.8568 24.2266 13.6797C24.138 13.4974 23.9531 13.3333 23.6719 13.1875C23.3958 13.0365 22.9792 12.9062 22.4219 12.7969C21.9531 12.6979 21.5286 12.5807 21.1484 12.4453C20.7734 12.3099 20.4531 12.1458 20.1875 11.9531C19.9271 11.7604 19.7266 11.5339 19.5859 11.2734C19.4453 11.013 19.375 10.7083 19.375 10.3594C19.375 10.026 19.4479 9.71094 19.5938 9.41406C19.7448 9.11719 19.9557 8.85417 20.2266 8.625C20.5026 8.39583 20.8333 8.21615 21.2188 8.08594C21.6042 7.95573 22.0339 7.89062 22.5078 7.89062C23.1849 7.89062 23.763 8.01042 24.2422 8.25C24.7214 8.48958 25.0885 8.8099 25.3438 9.21094C25.599 9.60677 25.7266 10.0469 25.7266 10.5312H24.2812C24.2812 10.2969 24.2109 10.0703 24.0703 9.85156C23.9349 9.6276 23.7344 9.44271 23.4688 9.29688C23.2083 9.15104 22.888 9.07812 22.5078 9.07812C22.1068 9.07812 21.7812 9.14062 21.5312 9.26562C21.2865 9.38542 21.1068 9.53906 20.9922 9.72656C20.8828 9.91406 20.8281 10.112 20.8281 10.3203C20.8281 10.4766 20.8542 10.6172 20.9062 10.7422C20.9635 10.862 21.0625 10.974 21.2031 11.0781C21.3438 11.1771 21.5417 11.2708 21.7969 11.3594C22.0521 11.4479 22.3776 11.5365 22.7734 11.625C23.4661 11.7812 24.0365 11.9688 24.4844 12.1875C24.9323 12.4062 25.2656 12.6745 25.4844 12.9922C25.7031 13.3099 25.8125 13.6953 25.8125 14.1484C25.8125 14.5182 25.7344 14.8568 25.5781 15.1641C25.4271 15.4714 25.2057 15.737 24.9141 15.9609C24.6276 16.1797 24.2839 16.3516 23.8828 16.4766C23.487 16.5964 23.0417 16.6562 22.5469 16.6562C21.8021 16.6562 21.1719 16.5234 20.6562 16.2578C20.1406 15.9922 19.75 15.6484 19.4844 15.2266C19.2188 14.8047 19.0859 14.3594 19.0859 13.8906H20.5391C20.5599 14.2865 20.6745 14.6016 20.8828 14.8359C21.0911 15.0651 21.3464 15.2292 21.6484 15.3281C21.9505 15.4219 22.25 15.4688 22.5469 15.4688C22.9427 15.4688 23.2734 15.4167 23.5391 15.3125C23.8099 15.2083 24.0156 15.0651 24.1562 14.8828C24.2969 14.7005 24.3672 14.4922 24.3672 14.2578ZM31.2188 16.6562C30.6302 16.6562 30.0964 16.5573 29.6172 16.3594C29.1432 16.1562 28.7344 15.8724 28.3906 15.5078C28.0521 15.1432 27.7917 14.7109 27.6094 14.2109C27.4271 13.7109 27.3359 13.1641 27.3359 12.5703V12.2422C27.3359 11.5547 27.4375 10.9427 27.6406 10.4062C27.8438 9.86458 28.1198 9.40625 28.4688 9.03125C28.8177 8.65625 29.2135 8.3724 29.6562 8.17969C30.099 7.98698 30.5573 7.89062 31.0312 7.89062C31.6354 7.89062 32.1562 7.99479 32.5938 8.20312C33.0365 8.41146 33.3984 8.70312 33.6797 9.07812C33.9609 9.44792 34.1693 9.88542 34.3047 10.3906C34.4401 10.8906 34.5078 11.4375 34.5078 12.0312V12.6797H28.1953V11.5H33.0625V11.3906C33.0417 11.0156 32.9635 10.651 32.8281 10.2969C32.6979 9.94271 32.4896 9.65104 32.2031 9.42188C31.9167 9.19271 31.526 9.07812 31.0312 9.07812C30.7031 9.07812 30.401 9.14844 30.125 9.28906C29.849 9.42448 29.612 9.6276 29.4141 9.89844C29.2161 10.1693 29.0625 10.5 28.9531 10.8906C28.8438 11.2812 28.7891 11.7318 28.7891 12.2422V12.5703C28.7891 12.9714 28.8438 13.349 28.9531 13.7031C29.0677 14.0521 29.2318 14.3594 29.4453 14.625C29.6641 14.8906 29.9271 15.099 30.2344 15.25C30.5469 15.401 30.901 15.4766 31.2969 15.4766C31.8073 15.4766 32.2396 15.3724 32.5938 15.1641C32.9479 14.9557 33.2578 14.6771 33.5234 14.3281L34.3984 15.0234C34.2161 15.2995 33.9844 15.5625 33.7031 15.8125C33.4219 16.0625 33.0755 16.2656 32.6641 16.4219C32.2578 16.5781 31.776 16.6562 31.2188 16.6562ZM37.6406 9.85156V16.5H36.1953V8.04688H37.5625L37.6406 9.85156ZM37.2969 11.9531L36.6953 11.9297C36.7005 11.3516 36.7865 10.8177 36.9531 10.3281C37.1198 9.83333 37.3542 9.40365 37.6562 9.03906C37.9583 8.67448 38.3177 8.39323 38.7344 8.19531C39.1562 7.99219 39.6224 7.89062 40.1328 7.89062C40.5495 7.89062 40.9245 7.94792 41.2578 8.0625C41.5911 8.17188 41.875 8.34896 42.1094 8.59375C42.349 8.83854 42.5312 9.15625 42.6562 9.54688C42.7812 9.93229 42.8438 10.4036 42.8438 10.9609V16.5H41.3906V10.9453C41.3906 10.5026 41.3255 10.1484 41.1953 9.88281C41.0651 9.61198 40.875 9.41667 40.625 9.29688C40.375 9.17188 40.0677 9.10938 39.7031 9.10938C39.3438 9.10938 39.0156 9.1849 38.7188 9.33594C38.4271 9.48698 38.1745 9.69531 37.9609 9.96094C37.7526 10.2266 37.5885 10.5312 37.4688 10.875C37.3542 11.2135 37.2969 11.5729 37.2969 11.9531ZM50.3672 14.8594V4.5H51.8203V16.5H50.4922L50.3672 14.8594ZM44.6797 12.3672V12.2031C44.6797 11.5573 44.7578 10.9714 44.9141 10.4453C45.0755 9.91406 45.3021 9.45833 45.5938 9.07812C45.8906 8.69792 46.2422 8.40625 46.6484 8.20312C47.0599 7.99479 47.5182 7.89062 48.0234 7.89062C48.5547 7.89062 49.0182 7.98438 49.4141 8.17188C49.8151 8.35417 50.1536 8.6224 50.4297 8.97656C50.7109 9.32552 50.9323 9.7474 51.0938 10.2422C51.2552 10.737 51.3672 11.2969 51.4297 11.9219V12.6406C51.3724 13.2604 51.2604 13.8177 51.0938 14.3125C50.9323 14.8073 50.7109 15.2292 50.4297 15.5781C50.1536 15.9271 49.8151 16.1953 49.4141 16.3828C49.013 16.5651 48.5443 16.6562 48.0078 16.6562C47.513 16.6562 47.0599 16.5495 46.6484 16.3359C46.2422 16.1224 45.8906 15.8229 45.5938 15.4375C45.3021 15.0521 45.0755 14.599 44.9141 14.0781C44.7578 13.5521 44.6797 12.9818 44.6797 12.3672ZM46.1328 12.2031V12.3672C46.1328 12.7891 46.1745 13.1849 46.2578 13.5547C46.3464 13.9245 46.4818 14.25 46.6641 14.5312C46.8464 14.8125 47.0781 15.0339 47.3594 15.1953C47.6406 15.3516 47.9766 15.4297 48.3672 15.4297C48.8464 15.4297 49.2396 15.3281 49.5469 15.125C49.8594 14.9219 50.1094 14.6536 50.2969 14.3203C50.4844 13.987 50.6302 13.625 50.7344 13.2344V11.3516C50.6719 11.0651 50.5807 10.7891 50.4609 10.5234C50.3464 10.2526 50.1953 10.013 50.0078 9.80469C49.8255 9.59115 49.599 9.42188 49.3281 9.29688C49.0625 9.17188 48.7474 9.10938 48.3828 9.10938C47.987 9.10938 47.6458 9.19271 47.3594 9.35938C47.0781 9.52083 46.8464 9.74479 46.6641 10.0312C46.4818 10.3125 46.3464 10.6406 46.2578 11.0156C46.1745 11.3854 46.1328 11.7812 46.1328 12.2031Z" fill="#3B82F6"/>
</g>
</svg>
