<svg width="178" height="28" viewBox="0 0 178 28" fill="none" xmlns="http://www.w3.org/2000/svg">
<mask id="mask0_14_5375" style="mask-type:luminance" maskUnits="userSpaceOnUse" x="0" y="0" width="178" height="28">
<path d="M178 0H0V28H178V0Z" fill="white"/>
</mask>
<g mask="url(#mask0_14_5375)">
<path d="M4.32 20.5V10.6H0.576V7.9H11.214V10.6H7.38V20.5H4.32ZM15.78 20.68C14.784 20.68 13.896 20.464 13.116 20.032C12.348 19.6 11.736 19.012 11.28 18.268C10.836 17.524 10.614 16.672 10.614 15.712C10.614 14.752 10.836 13.9 11.28 13.156C11.736 12.412 12.348 11.824 13.116 11.392C13.896 10.96 14.784 10.744 15.78 10.744C16.776 10.744 17.658 10.96 18.426 11.392C19.206 11.824 19.818 12.412 20.262 13.156C20.706 13.9 20.928 14.752 20.928 15.712C20.928 16.672 20.706 17.524 20.262 18.268C19.818 19.012 19.206 19.6 18.426 20.032C17.658 20.464 16.776 20.68 15.78 20.68ZM15.78 18.196C16.212 18.196 16.596 18.088 16.932 17.872C17.268 17.656 17.532 17.362 17.724 16.99C17.916 16.618 18.006 16.192 17.994 15.712C18.006 15.232 17.916 14.806 17.724 14.434C17.532 14.05 17.268 13.75 16.932 13.534C16.596 13.318 16.212 13.21 15.78 13.21C15.348 13.21 14.958 13.318 14.61 13.534C14.274 13.75 14.01 14.05 13.818 14.434C13.626 14.806 13.536 15.232 13.548 15.712C13.536 16.192 13.626 16.618 13.818 16.99C14.01 17.362 14.274 17.656 14.61 17.872C14.958 18.088 15.348 18.196 15.78 18.196ZM23.6032 20.5V8.53H26.4832V20.5H23.6032ZM21.9112 13.462V10.942H28.3372V13.462H21.9112ZM33.4232 20.662C32.6192 20.662 31.8992 20.452 31.2632 20.032C30.6392 19.6 30.1412 19.012 29.7692 18.268C29.3972 17.512 29.2112 16.66 29.2112 15.712C29.2112 14.74 29.3972 13.882 29.7692 13.138C30.1412 12.394 30.6512 11.812 31.2992 11.392C31.9472 10.96 32.6852 10.744 33.5132 10.744C33.9692 10.744 34.3832 10.81 34.7552 10.942C35.1392 11.074 35.4752 11.26 35.7632 11.5C36.0512 11.728 36.2972 11.998 36.5012 12.31C36.7052 12.61 36.8552 12.934 36.9512 13.282L36.3572 13.21V10.942H39.2192V20.5H36.3032V18.196L36.9512 18.178C36.8552 18.514 36.6992 18.832 36.4832 19.132C36.2672 19.432 36.0032 19.696 35.6912 19.924C35.3792 20.152 35.0312 20.332 34.6472 20.464C34.2632 20.596 33.8552 20.662 33.4232 20.662ZM34.2152 18.232C34.6592 18.232 35.0432 18.13 35.3672 17.926C35.6912 17.722 35.9432 17.434 36.1232 17.062C36.3032 16.678 36.3932 16.228 36.3932 15.712C36.3932 15.196 36.3032 14.752 36.1232 14.38C35.9432 13.996 35.6912 13.702 35.3672 13.498C35.0432 13.282 34.6592 13.174 34.2152 13.174C33.7832 13.174 33.4052 13.282 33.0812 13.498C32.7692 13.702 32.5232 13.996 32.3432 14.38C32.1632 14.752 32.0732 15.196 32.0732 15.712C32.0732 16.228 32.1632 16.678 32.3432 17.062C32.5232 17.434 32.7692 17.722 33.0812 17.926C33.4052 18.13 33.7832 18.232 34.2152 18.232ZM41.7784 20.5V7.18H44.6584V20.5H41.7784ZM53.2988 20.5V7.9H58.9688C59.7728 7.9 60.4988 8.074 61.1468 8.422C61.8068 8.77 62.3228 9.25 62.6948 9.862C63.0668 10.462 63.2528 11.146 63.2528 11.914C63.2528 12.706 63.0668 13.42 62.6948 14.056C62.3228 14.68 61.8128 15.172 61.1648 15.532C60.5168 15.892 59.7848 16.072 58.9688 16.072H56.2148V20.5H53.2988ZM60.2828 20.5L57.0788 14.812L60.2108 14.362L63.7748 20.5H60.2828ZM56.2148 13.732H58.6988C59.0108 13.732 59.2808 13.666 59.5088 13.534C59.7488 13.39 59.9288 13.192 60.0488 12.94C60.1808 12.688 60.2468 12.4 60.2468 12.076C60.2468 11.752 60.1748 11.47 60.0308 11.23C59.8868 10.978 59.6768 10.786 59.4008 10.654C59.1368 10.522 58.8128 10.456 58.4288 10.456H56.2148V13.732ZM69.834 20.68C68.778 20.68 67.86 20.47 67.08 20.05C66.3 19.618 65.694 19.036 65.262 18.304C64.83 17.56 64.614 16.714 64.614 15.766C64.614 15.034 64.734 14.362 64.974 13.75C65.214 13.138 65.55 12.61 65.982 12.166C66.414 11.71 66.924 11.362 67.512 11.122C68.112 10.87 68.766 10.744 69.474 10.744C70.146 10.744 70.758 10.864 71.31 11.104C71.874 11.344 72.36 11.68 72.768 12.112C73.176 12.544 73.488 13.054 73.704 13.642C73.92 14.23 74.016 14.872 73.992 15.568L73.974 16.342H66.36L65.946 14.722H71.634L71.328 15.064V14.704C71.304 14.404 71.208 14.14 71.04 13.912C70.884 13.672 70.674 13.486 70.41 13.354C70.146 13.222 69.846 13.156 69.51 13.156C69.042 13.156 68.64 13.252 68.304 13.444C67.98 13.624 67.734 13.894 67.566 14.254C67.398 14.602 67.314 15.034 67.314 15.55C67.314 16.078 67.422 16.54 67.638 16.936C67.866 17.32 68.19 17.62 68.61 17.836C69.042 18.052 69.552 18.16 70.14 18.16C70.548 18.16 70.908 18.1 71.22 17.98C71.544 17.86 71.892 17.656 72.264 17.368L73.614 19.276C73.242 19.6 72.846 19.864 72.426 20.068C72.006 20.272 71.574 20.422 71.13 20.518C70.698 20.626 70.266 20.68 69.834 20.68ZM80.3808 20.68C79.3248 20.68 78.4068 20.47 77.6268 20.05C76.8468 19.618 76.2408 19.036 75.8088 18.304C75.3768 17.56 75.1608 16.714 75.1608 15.766C75.1608 15.034 75.2808 14.362 75.5208 13.75C75.7608 13.138 76.0968 12.61 76.5288 12.166C76.9608 11.71 77.4708 11.362 78.0588 11.122C78.6588 10.87 79.3128 10.744 80.0208 10.744C80.6928 10.744 81.3048 10.864 81.8568 11.104C82.4208 11.344 82.9068 11.68 83.3148 12.112C83.7228 12.544 84.0348 13.054 84.2508 13.642C84.4668 14.23 84.5628 14.872 84.5388 15.568L84.5208 16.342H76.9068L76.4928 14.722H82.1808L81.8748 15.064V14.704C81.8508 14.404 81.7548 14.14 81.5868 13.912C81.4308 13.672 81.2208 13.486 80.9568 13.354C80.6928 13.222 80.3928 13.156 80.0568 13.156C79.5888 13.156 79.1868 13.252 78.8508 13.444C78.5268 13.624 78.2808 13.894 78.1128 14.254C77.9448 14.602 77.8608 15.034 77.8608 15.55C77.8608 16.078 77.9688 16.54 78.1848 16.936C78.4128 17.32 78.7368 17.62 79.1568 17.836C79.5888 18.052 80.0988 18.16 80.6868 18.16C81.0948 18.16 81.4548 18.1 81.7668 17.98C82.0908 17.86 82.4388 17.656 82.8108 17.368L84.1608 19.276C83.7888 19.6 83.3928 19.864 82.9728 20.068C82.5528 20.272 82.1208 20.422 81.6768 20.518C81.2448 20.626 80.8128 20.68 80.3808 20.68ZM86.3917 20.5V7.18H89.2717V20.5H86.3917ZM95.0625 20.68C94.1265 20.68 93.2985 20.53 92.5785 20.23C91.8705 19.93 91.3065 19.528 90.8865 19.024L92.6325 17.512C93.0045 17.884 93.4245 18.16 93.8925 18.34C94.3605 18.508 94.8045 18.592 95.2245 18.592C95.3925 18.592 95.5425 18.574 95.6745 18.538C95.8065 18.502 95.9145 18.454 95.9985 18.394C96.0945 18.322 96.1665 18.244 96.2145 18.16C96.2625 18.064 96.2865 17.956 96.2865 17.836C96.2865 17.596 96.1785 17.41 95.9625 17.278C95.8545 17.218 95.6745 17.146 95.4225 17.062C95.1705 16.978 94.8465 16.882 94.4505 16.774C93.8865 16.63 93.3945 16.462 92.9745 16.27C92.5665 16.066 92.2305 15.832 91.9665 15.568C91.7265 15.316 91.5405 15.04 91.4085 14.74C91.2765 14.428 91.2105 14.08 91.2105 13.696C91.2105 13.252 91.3125 12.85 91.5165 12.49C91.7325 12.13 92.0145 11.818 92.3625 11.554C92.7225 11.29 93.1305 11.092 93.5865 10.96C94.0545 10.816 94.5345 10.744 95.0265 10.744C95.5545 10.744 96.0585 10.804 96.5385 10.924C97.0185 11.044 97.4625 11.212 97.8705 11.428C98.2905 11.644 98.6625 11.902 98.9865 12.202L97.4745 13.894C97.2585 13.69 97.0125 13.51 96.7365 13.354C96.4725 13.186 96.1965 13.054 95.9085 12.958C95.6205 12.862 95.3565 12.814 95.1165 12.814C94.9365 12.814 94.7745 12.832 94.6305 12.868C94.4985 12.892 94.3845 12.94 94.2885 13.012C94.1925 13.072 94.1205 13.15 94.0725 13.246C94.0245 13.33 94.0005 13.432 94.0005 13.552C94.0005 13.672 94.0305 13.786 94.0905 13.894C94.1625 14.002 94.2585 14.092 94.3785 14.164C94.4985 14.236 94.6905 14.32 94.9545 14.416C95.2185 14.5 95.5785 14.608 96.0345 14.74C96.5985 14.896 97.0845 15.07 97.4925 15.262C97.9005 15.454 98.2245 15.682 98.4645 15.946C98.6565 16.15 98.8005 16.39 98.8965 16.666C98.9925 16.93 99.0405 17.218 99.0405 17.53C99.0405 18.142 98.8665 18.688 98.5185 19.168C98.1825 19.636 97.7145 20.008 97.1145 20.284C96.5145 20.548 95.8305 20.68 95.0625 20.68Z" fill="black"/>
</g>
</svg>
