<svg width="35" height="19" viewBox="0 0 35 19" fill="none" xmlns="http://www.w3.org/2000/svg">
<mask id="mask0_14_4579" style="mask-type:luminance" maskUnits="userSpaceOnUse" x="0" y="0" width="35" height="19">
<path d="M35 0H0V19H35V0Z" fill="white"/>
</mask>
<g mask="url(#mask0_14_4579)">
<path d="M4.99219 14.7734L8.34375 5.125H9.97656L5.76562 16.5H4.60156L4.99219 14.7734ZM1.85938 5.125L5.17969 14.7734L5.59375 16.5H4.42969L0.226562 5.125H1.85938ZM12.8594 8.04688V16.5H11.4062V8.04688H12.8594ZM11.2969 5.80469C11.2969 5.57031 11.3672 5.3724 11.5078 5.21094C11.6536 5.04948 11.8672 4.96875 12.1484 4.96875C12.4245 4.96875 12.6354 5.04948 12.7812 5.21094C12.9323 5.3724 13.0078 5.57031 13.0078 5.80469C13.0078 6.02865 12.9323 6.22135 12.7812 6.38281C12.6354 6.53906 12.4245 6.61719 12.1484 6.61719C11.8672 6.61719 11.6536 6.53906 11.5078 6.38281C11.3672 6.22135 11.2969 6.02865 11.2969 5.80469ZM18.6875 16.6562C18.099 16.6562 17.5651 16.5573 17.0859 16.3594C16.612 16.1562 16.2031 15.8724 15.8594 15.5078C15.5208 15.1432 15.2604 14.7109 15.0781 14.2109C14.8958 13.7109 14.8047 13.1641 14.8047 12.5703V12.2422C14.8047 11.5547 14.9062 10.9427 15.1094 10.4062C15.3125 9.86458 15.5885 9.40625 15.9375 9.03125C16.2865 8.65625 16.6823 8.3724 17.125 8.17969C17.5677 7.98698 18.026 7.89062 18.5 7.89062C19.1042 7.89062 19.625 7.99479 20.0625 8.20312C20.5052 8.41146 20.8672 8.70312 21.1484 9.07812C21.4297 9.44792 21.638 9.88542 21.7734 10.3906C21.9089 10.8906 21.9766 11.4375 21.9766 12.0312V12.6797H15.6641V11.5H20.5312V11.3906C20.5104 11.0156 20.4323 10.651 20.2969 10.2969C20.1667 9.94271 19.9583 9.65104 19.6719 9.42188C19.3854 9.19271 18.9948 9.07812 18.5 9.07812C18.1719 9.07812 17.8698 9.14844 17.5938 9.28906C17.3177 9.42448 17.0807 9.6276 16.8828 9.89844C16.6849 10.1693 16.5312 10.5 16.4219 10.8906C16.3125 11.2812 16.2578 11.7318 16.2578 12.2422V12.5703C16.2578 12.9714 16.3125 13.349 16.4219 13.7031C16.5365 14.0521 16.7005 14.3594 16.9141 14.625C17.1328 14.8906 17.3958 15.099 17.7031 15.25C18.0156 15.401 18.3698 15.4766 18.7656 15.4766C19.276 15.4766 19.7083 15.3724 20.0625 15.1641C20.4167 14.9557 20.7266 14.6771 20.9922 14.3281L21.8672 15.0234C21.6849 15.2995 21.4531 15.5625 21.1719 15.8125C20.8906 16.0625 20.5443 16.2656 20.1328 16.4219C19.7266 16.5781 19.2448 16.6562 18.6875 16.6562ZM25.8047 15L27.9766 8.04688H28.9297L28.7422 9.42969L26.5312 16.5H25.6016L25.8047 15ZM24.3438 8.04688L26.1953 15.0781L26.3281 16.5H25.3516L22.8984 8.04688H24.3438ZM31.0078 15.0234L32.7734 8.04688H34.2109L31.7578 16.5H30.7891L31.0078 15.0234ZM29.1406 8.04688L31.2656 14.8828L31.5078 16.5H30.5859L28.3125 9.41406L28.125 8.04688H29.1406Z" fill="#3B82F6"/>
</g>
</svg>
