<svg width="143" height="20" viewBox="0 0 143 20" fill="none" xmlns="http://www.w3.org/2000/svg">
<mask id="mask0_14_4807" style="mask-type:luminance" maskUnits="userSpaceOnUse" x="0" y="0" width="143" height="20">
<path d="M143 0H0V20H143V0Z" fill="white"/>
</mask>
<g mask="url(#mask0_14_4807)">
<path d="M1.568 18V6.8H3.12L9.968 15.968L9.712 16.112C9.66933 15.8453 9.632 15.5573 9.6 15.248C9.568 14.928 9.536 14.592 9.504 14.24C9.48267 13.8773 9.46133 13.4987 9.44 13.104C9.42933 12.6987 9.41867 12.2773 9.408 11.84C9.39733 11.4027 9.392 10.9493 9.392 10.48V6.8H11.12V18H9.536L2.8 9.168L2.976 8.944C3.02933 9.59467 3.072 10.1493 3.104 10.608C3.14667 11.056 3.17867 11.44 3.2 11.76C3.232 12.0693 3.25333 12.3253 3.264 12.528C3.27467 12.72 3.28 12.88 3.28 13.008C3.29067 13.136 3.296 13.248 3.296 13.344V18H1.568ZM17.6155 18.16C16.7942 18.16 16.0582 17.9733 15.4075 17.6C14.7675 17.216 14.2608 16.6987 13.8875 16.048C13.5142 15.3867 13.3275 14.6347 13.3275 13.792C13.3275 12.9493 13.5142 12.2027 13.8875 11.552C14.2608 10.8907 14.7675 10.3733 15.4075 10C16.0582 9.616 16.7942 9.424 17.6155 9.424C18.4262 9.424 19.1515 9.616 19.7915 10C20.4422 10.3733 20.9542 10.8907 21.3275 11.552C21.7008 12.2027 21.8875 12.9493 21.8875 13.792C21.8875 14.6347 21.7008 15.3867 21.3275 16.048C20.9542 16.6987 20.4422 17.216 19.7915 17.6C19.1515 17.9733 18.4262 18.16 17.6155 18.16ZM17.6155 16.656C18.1168 16.656 18.5648 16.5333 18.9595 16.288C19.3542 16.032 19.6635 15.6907 19.8875 15.264C20.1115 14.8267 20.2182 14.336 20.2075 13.792C20.2182 13.2373 20.1115 12.7467 19.8875 12.32C19.6635 11.8827 19.3542 11.5413 18.9595 11.296C18.5648 11.0507 18.1168 10.928 17.6155 10.928C17.1142 10.928 16.6608 11.056 16.2555 11.312C15.8608 11.5573 15.5515 11.8987 15.3275 12.336C15.1035 12.7627 14.9968 13.248 15.0075 13.792C14.9968 14.336 15.1035 14.8267 15.3275 15.264C15.5515 15.6907 15.8608 16.032 16.2555 16.288C16.6608 16.5333 17.1142 16.656 17.6155 16.656ZM24.7233 18V7.456H26.3713V18H24.7233ZM22.9793 11.2V9.6H28.3233V11.2H22.9793ZM30.0959 18V9.6H31.7439V18H30.0959ZM30.8959 7.744C30.5439 7.744 30.2719 7.65333 30.0799 7.472C29.8879 7.29067 29.7919 7.03467 29.7919 6.704C29.7919 6.39467 29.8879 6.144 30.0799 5.952C30.2825 5.76 30.5545 5.664 30.8959 5.664C31.2479 5.664 31.5199 5.75467 31.7119 5.936C31.9039 6.11733 31.9999 6.37333 31.9999 6.704C31.9999 7.01333 31.8985 7.264 31.6959 7.456C31.5039 7.648 31.2372 7.744 30.8959 7.744ZM35.189 18V8.656C35.189 8.176 35.2957 7.74933 35.509 7.376C35.7223 7.00267 36.0157 6.70933 36.389 6.496C36.7623 6.28267 37.1943 6.176 37.685 6.176C38.0263 6.176 38.3463 6.24 38.645 6.368C38.9437 6.496 39.1837 6.66667 39.365 6.88L38.805 8.144C38.6663 8.016 38.5117 7.91467 38.341 7.84C38.181 7.75467 38.0263 7.712 37.877 7.712C37.653 7.712 37.461 7.74933 37.301 7.824C37.1517 7.888 37.0397 7.99467 36.965 8.144C36.8903 8.28267 36.853 8.45333 36.853 8.656V18H36.021C35.8823 18 35.7437 18 35.605 18C35.4663 18 35.3277 18 35.189 18ZM33.845 11.264V9.744H38.837V11.264H33.845ZM40.837 18V9.6H42.485V18H40.837ZM41.637 7.744C41.285 7.744 41.013 7.65333 40.821 7.472C40.629 7.29067 40.533 7.03467 40.533 6.704C40.533 6.39467 40.629 6.144 40.821 5.952C41.0237 5.76 41.2957 5.664 41.637 5.664C41.989 5.664 42.261 5.75467 42.453 5.936C42.645 6.11733 42.741 6.37333 42.741 6.704C42.741 7.01333 42.6397 7.264 42.437 7.456C42.245 7.648 41.9783 7.744 41.637 7.744ZM48.5794 18.16C47.8007 18.16 47.102 17.968 46.4834 17.584C45.8754 17.2 45.39 16.6773 45.0274 16.016C44.6754 15.3547 44.4994 14.6133 44.4994 13.792C44.4994 12.9707 44.6754 12.2293 45.0274 11.568C45.39 10.9067 45.8754 10.384 46.4834 10C47.102 9.616 47.8007 9.424 48.5794 9.424C49.326 9.424 50.0034 9.57867 50.6114 9.888C51.23 10.1867 51.6994 10.5973 52.0194 11.12L51.1074 12.24C50.9367 11.9947 50.718 11.7707 50.4514 11.568C50.1847 11.3653 49.902 11.2053 49.6034 11.088C49.3047 10.9707 49.0167 10.912 48.7394 10.912C48.2274 10.912 47.7687 11.04 47.3634 11.296C46.9687 11.5413 46.654 11.8827 46.4194 12.32C46.1847 12.7573 46.0674 13.248 46.0674 13.792C46.0674 14.336 46.19 14.8267 46.4354 15.264C46.6807 15.6907 47.006 16.032 47.4114 16.288C47.8167 16.544 48.2647 16.672 48.7554 16.672C49.0434 16.672 49.3207 16.624 49.5874 16.528C49.8647 16.432 50.1314 16.288 50.3874 16.096C50.6434 15.904 50.8834 15.6693 51.1074 15.392L52.0194 16.512C51.678 16.992 51.1874 17.3867 50.5474 17.696C49.918 18.0053 49.262 18.16 48.5794 18.16ZM56.8059 18.16C56.1125 18.16 55.4779 17.968 54.9019 17.584C54.3365 17.2 53.8832 16.6773 53.5419 16.016C53.2005 15.3547 53.0299 14.608 53.0299 13.776C53.0299 12.9333 53.2005 12.1867 53.5419 11.536C53.8939 10.8747 54.3632 10.3573 54.9499 9.984C55.5472 9.61067 56.2139 9.424 56.9499 9.424C57.3872 9.424 57.7872 9.488 58.1499 9.616C58.5125 9.744 58.8272 9.92533 59.0939 10.16C59.3712 10.384 59.5952 10.6453 59.7659 10.944C59.9472 11.2427 60.0592 11.5627 60.1019 11.904L59.7339 11.776V9.6H61.3979V18H59.7339V16L60.1179 15.888C60.0539 16.176 59.9205 16.4587 59.7179 16.736C59.5259 17.0027 59.2752 17.2427 58.9659 17.456C58.6672 17.6693 58.3312 17.84 57.9579 17.968C57.5952 18.096 57.2112 18.16 56.8059 18.16ZM57.2379 16.64C57.7392 16.64 58.1819 16.5173 58.5659 16.272C58.9499 16.0267 59.2485 15.6907 59.4619 15.264C59.6859 14.8267 59.7979 14.3307 59.7979 13.776C59.7979 13.232 59.6859 12.7467 59.4619 12.32C59.2485 11.8933 58.9499 11.5573 58.5659 11.312C58.1819 11.0667 57.7392 10.944 57.2379 10.944C56.7472 10.944 56.3099 11.0667 55.9259 11.312C55.5525 11.5573 55.2539 11.8933 55.0299 12.32C54.8165 12.7467 54.7099 13.232 54.7099 13.776C54.7099 14.3307 54.8165 14.8267 55.0299 15.264C55.2539 15.6907 55.5525 16.0267 55.9259 16.272C56.3099 16.5173 56.7472 16.64 57.2379 16.64ZM64.7389 18V7.456H66.3869V18H64.7389ZM62.9949 11.2V9.6H68.3389V11.2H62.9949ZM70.1115 18V9.6H71.7595V18H70.1115ZM70.9115 7.744C70.5595 7.744 70.2875 7.65333 70.0955 7.472C69.9035 7.29067 69.8075 7.03467 69.8075 6.704C69.8075 6.39467 69.9035 6.144 70.0955 5.952C70.2982 5.76 70.5702 5.664 70.9115 5.664C71.2635 5.664 71.5355 5.75467 71.7275 5.936C71.9195 6.11733 72.0155 6.37333 72.0155 6.704C72.0155 7.01333 71.9142 7.264 71.7115 7.456C71.5195 7.648 71.2528 7.744 70.9115 7.744ZM78.0686 18.16C77.2473 18.16 76.5113 17.9733 75.8606 17.6C75.2206 17.216 74.714 16.6987 74.3406 16.048C73.9673 15.3867 73.7806 14.6347 73.7806 13.792C73.7806 12.9493 73.9673 12.2027 74.3406 11.552C74.714 10.8907 75.2206 10.3733 75.8606 10C76.5113 9.616 77.2473 9.424 78.0686 9.424C78.8793 9.424 79.6046 9.616 80.2446 10C80.8953 10.3733 81.4073 10.8907 81.7806 11.552C82.154 12.2027 82.3406 12.9493 82.3406 13.792C82.3406 14.6347 82.154 15.3867 81.7806 16.048C81.4073 16.6987 80.8953 17.216 80.2446 17.6C79.6046 17.9733 78.8793 18.16 78.0686 18.16ZM78.0686 16.656C78.57 16.656 79.018 16.5333 79.4126 16.288C79.8073 16.032 80.1166 15.6907 80.3406 15.264C80.5646 14.8267 80.6713 14.336 80.6606 13.792C80.6713 13.2373 80.5646 12.7467 80.3406 12.32C80.1166 11.8827 79.8073 11.5413 79.4126 11.296C79.018 11.0507 78.57 10.928 78.0686 10.928C77.5673 10.928 77.114 11.056 76.7086 11.312C76.314 11.5573 76.0046 11.8987 75.7806 12.336C75.5566 12.7627 75.45 13.248 75.4606 13.792C75.45 14.336 75.5566 14.8267 75.7806 15.264C76.0046 15.6907 76.314 16.032 76.7086 16.288C77.114 16.5333 77.5673 16.656 78.0686 16.656ZM84.1364 18V9.6H85.7844V11.328L85.4964 11.52C85.603 11.1467 85.811 10.8053 86.1204 10.496C86.4297 10.176 86.7977 9.92 87.2244 9.728C87.651 9.52533 88.0884 9.424 88.5364 9.424C89.1764 9.424 89.7097 9.552 90.1364 9.808C90.563 10.0533 90.883 10.432 91.0964 10.944C91.3097 11.456 91.4164 12.1013 91.4164 12.88V18H89.7684V12.992C89.7684 12.512 89.7044 12.1173 89.5764 11.808C89.4484 11.488 89.251 11.2587 88.9844 11.12C88.7177 10.9707 88.387 10.9067 87.9924 10.928C87.6724 10.928 87.379 10.9813 87.1124 11.088C86.8457 11.184 86.611 11.3227 86.4084 11.504C86.2164 11.6853 86.0617 11.8987 85.9444 12.144C85.8377 12.3787 85.7844 12.6347 85.7844 12.912V18H84.9684C84.8297 18 84.691 18 84.5524 18C84.4137 18 84.275 18 84.1364 18ZM100.68 18V8.464H97.5444V6.8H105.64V8.464H102.408V18H100.68ZM107.627 18V9.6H109.275V18H107.627ZM108.427 7.744C108.075 7.744 107.803 7.65333 107.611 7.472C107.419 7.29067 107.323 7.03467 107.323 6.704C107.323 6.39467 107.419 6.144 107.611 5.952C107.814 5.76 108.086 5.664 108.427 5.664C108.779 5.664 109.051 5.75467 109.243 5.936C109.435 6.11733 109.531 6.37333 109.531 6.704C109.531 7.01333 109.43 7.264 109.227 7.456C109.035 7.648 108.768 7.744 108.427 7.744ZM112.848 18V7.456H114.496V18H112.848ZM111.104 11.2V9.6H116.448V11.2H111.104ZM117.981 18V6.16H119.629V18H117.981ZM125.728 18.16C124.864 18.16 124.096 17.9787 123.424 17.616C122.763 17.2427 122.24 16.736 121.856 16.096C121.483 15.456 121.296 14.72 121.296 13.888C121.296 13.2267 121.403 12.624 121.616 12.08C121.83 11.536 122.123 11.0667 122.496 10.672C122.88 10.2667 123.334 9.95733 123.856 9.744C124.39 9.52 124.966 9.408 125.584 9.408C126.128 9.408 126.635 9.51467 127.104 9.728C127.574 9.93067 127.979 10.2133 128.32 10.576C128.672 10.9387 128.939 11.3707 129.12 11.872C129.312 12.3627 129.403 12.9013 129.392 13.488L129.376 14.192H122.512L122.144 12.88H127.952L127.712 13.152V12.768C127.68 12.416 127.563 12.1013 127.36 11.824C127.158 11.5467 126.902 11.328 126.592 11.168C126.283 11.008 125.947 10.928 125.584 10.928C125.008 10.928 124.523 11.04 124.128 11.264C123.734 11.4773 123.435 11.7973 123.232 12.224C123.03 12.64 122.928 13.1573 122.928 13.776C122.928 14.3627 123.051 14.8747 123.296 15.312C123.542 15.7387 123.888 16.0693 124.336 16.304C124.784 16.5387 125.302 16.656 125.888 16.656C126.304 16.656 126.688 16.5867 127.04 16.448C127.403 16.3093 127.792 16.0587 128.208 15.696L129.04 16.864C128.784 17.12 128.47 17.344 128.096 17.536C127.734 17.728 127.344 17.8827 126.928 18C126.523 18.1067 126.123 18.16 125.728 18.16ZM137.988 17.216V8.128L138.58 8.576L136.372 9.744L135.908 8.24L138.9 6.64H139.732V17.216H137.988ZM136.212 18V16.336H141.556V18H136.212Z" fill="black"/>
</g>
</svg>
