<svg width="16" height="16" viewBox="0 0 16 16" fill="none" xmlns="http://www.w3.org/2000/svg">
<path d="M9 4.25V0H2.75C2.33437 0 2 0.334375 2 0.75V15.25C2 15.6656 2.33437 16 2.75 16H13.25C13.6656 16 14 15.6656 14 15.25V5H9.75C9.3375 5 9 4.6625 9 4.25ZM11 11.625C11 11.8313 10.8313 12 10.625 12H5.375C5.16875 12 5 11.8313 5 11.625V11.375C5 11.1687 5.16875 11 5.375 11H10.625C10.8313 11 11 11.1687 11 11.375V11.625ZM11 9.625C11 9.83125 10.8313 10 10.625 10H5.375C5.16875 10 5 9.83125 5 9.625V9.375C5 9.16875 5.16875 9 5.375 9H10.625C10.8313 9 11 9.16875 11 9.375V9.625ZM11 7.375V7.625C11 7.83125 10.8313 8 10.625 8H5.375C5.16875 8 5 7.83125 5 7.625V7.375C5 7.16875 5.16875 7 5.375 7H10.625C10.8313 7 11 7.16875 11 7.375ZM14 3.80938V4H10V0H10.1906C10.3906 0 10.5813 0.078125 10.7219 0.21875L13.7812 3.28125C13.9219 3.42188 14 3.6125 14 3.80938Z" fill="#DC143C"/>
</svg>
