<svg width="94" height="28" viewBox="0 0 94 28" fill="none" xmlns="http://www.w3.org/2000/svg">
<mask id="mask0_14_5339" style="mask-type:luminance" maskUnits="userSpaceOnUse" x="0" y="0" width="94" height="28">
<path d="M94 0H0V28H94V0Z" fill="white"/>
</mask>
<g mask="url(#mask0_14_5339)">
<path d="M4.32 20.5V10.6H0.576V7.9H11.214V10.6H7.38V20.5H4.32ZM15.78 20.68C14.784 20.68 13.896 20.464 13.116 20.032C12.348 19.6 11.736 19.012 11.28 18.268C10.836 17.524 10.614 16.672 10.614 15.712C10.614 14.752 10.836 13.9 11.28 13.156C11.736 12.412 12.348 11.824 13.116 11.392C13.896 10.96 14.784 10.744 15.78 10.744C16.776 10.744 17.658 10.96 18.426 11.392C19.206 11.824 19.818 12.412 20.262 13.156C20.706 13.9 20.928 14.752 20.928 15.712C20.928 16.672 20.706 17.524 20.262 18.268C19.818 19.012 19.206 19.6 18.426 20.032C17.658 20.464 16.776 20.68 15.78 20.68ZM15.78 18.196C16.212 18.196 16.596 18.088 16.932 17.872C17.268 17.656 17.532 17.362 17.724 16.99C17.916 16.618 18.006 16.192 17.994 15.712C18.006 15.232 17.916 14.806 17.724 14.434C17.532 14.05 17.268 13.75 16.932 13.534C16.596 13.318 16.212 13.21 15.78 13.21C15.348 13.21 14.958 13.318 14.61 13.534C14.274 13.75 14.01 14.05 13.818 14.434C13.626 14.806 13.536 15.232 13.548 15.712C13.536 16.192 13.626 16.618 13.818 16.99C14.01 17.362 14.274 17.656 14.61 17.872C14.958 18.088 15.348 18.196 15.78 18.196ZM23.6032 20.5V8.53H26.4832V20.5H23.6032ZM21.9112 13.462V10.942H28.3372V13.462H21.9112ZM33.4232 20.662C32.6192 20.662 31.8992 20.452 31.2632 20.032C30.6392 19.6 30.1412 19.012 29.7692 18.268C29.3972 17.512 29.2112 16.66 29.2112 15.712C29.2112 14.74 29.3972 13.882 29.7692 13.138C30.1412 12.394 30.6512 11.812 31.2992 11.392C31.9472 10.96 32.6852 10.744 33.5132 10.744C33.9692 10.744 34.3832 10.81 34.7552 10.942C35.1392 11.074 35.4752 11.26 35.7632 11.5C36.0512 11.728 36.2972 11.998 36.5012 12.31C36.7052 12.61 36.8552 12.934 36.9512 13.282L36.3572 13.21V10.942H39.2192V20.5H36.3032V18.196L36.9512 18.178C36.8552 18.514 36.6992 18.832 36.4832 19.132C36.2672 19.432 36.0032 19.696 35.6912 19.924C35.3792 20.152 35.0312 20.332 34.6472 20.464C34.2632 20.596 33.8552 20.662 33.4232 20.662ZM34.2152 18.232C34.6592 18.232 35.0432 18.13 35.3672 17.926C35.6912 17.722 35.9432 17.434 36.1232 17.062C36.3032 16.678 36.3932 16.228 36.3932 15.712C36.3932 15.196 36.3032 14.752 36.1232 14.38C35.9432 13.996 35.6912 13.702 35.3672 13.498C35.0432 13.282 34.6592 13.174 34.2152 13.174C33.7832 13.174 33.4052 13.282 33.0812 13.498C32.7692 13.702 32.5232 13.996 32.3432 14.38C32.1632 14.752 32.0732 15.196 32.0732 15.712C32.0732 16.228 32.1632 16.678 32.3432 17.062C32.5232 17.434 32.7692 17.722 33.0812 17.926C33.4052 18.13 33.7832 18.232 34.2152 18.232ZM41.7784 20.5V7.18H44.6584V20.5H41.7784Z" fill="black"/>
</g>
</svg>
