<svg width="46" height="19" viewBox="0 0 46 19" fill="none" xmlns="http://www.w3.org/2000/svg">
<mask id="mask0_14_4553" style="mask-type:luminance" maskUnits="userSpaceOnUse" x="0" y="0" width="46" height="19">
<path d="M46 0H0V19H46V0Z" fill="white"/>
</mask>
<g mask="url(#mask0_14_4553)">
<path d="M4.39844 16.5H2.02344L2.03906 15.2734H4.39844C5.21094 15.2734 5.88802 15.1042 6.42969 14.7656C6.97135 14.4219 7.3776 13.9427 7.64844 13.3281C7.92448 12.7083 8.0625 11.9844 8.0625 11.1562V10.4609C8.0625 9.8099 7.98438 9.23177 7.82812 8.72656C7.67188 8.21615 7.44271 7.78646 7.14062 7.4375C6.83854 7.08333 6.46875 6.8151 6.03125 6.63281C5.59896 6.45052 5.10156 6.35938 4.53906 6.35938H1.97656V5.125H4.53906C5.28385 5.125 5.96354 5.25 6.57812 5.5C7.19271 5.74479 7.72135 6.10156 8.16406 6.57031C8.61198 7.03385 8.95573 7.59635 9.19531 8.25781C9.4349 8.91406 9.55469 9.65365 9.55469 10.4766V11.1562C9.55469 11.9792 9.4349 12.7214 9.19531 13.3828C8.95573 14.0391 8.60938 14.599 8.15625 15.0625C7.70833 15.526 7.16667 15.8828 6.53125 16.1328C5.90104 16.3776 5.1901 16.5 4.39844 16.5ZM2.82812 5.125V16.5H1.32031V5.125H2.82812ZM15.1094 16.6562C14.5208 16.6562 13.987 16.5573 13.5078 16.3594C13.0339 16.1562 12.625 15.8724 12.2812 15.5078C11.9427 15.1432 11.6823 14.7109 11.5 14.2109C11.3177 13.7109 11.2266 13.1641 11.2266 12.5703V12.2422C11.2266 11.5547 11.3281 10.9427 11.5312 10.4062C11.7344 9.86458 12.0104 9.40625 12.3594 9.03125C12.7083 8.65625 13.1042 8.3724 13.5469 8.17969C13.9896 7.98698 14.4479 7.89062 14.9219 7.89062C15.526 7.89062 16.0469 7.99479 16.4844 8.20312C16.9271 8.41146 17.2891 8.70312 17.5703 9.07812C17.8516 9.44792 18.0599 9.88542 18.1953 10.3906C18.3307 10.8906 18.3984 11.4375 18.3984 12.0312V12.6797H12.0859V11.5H16.9531V11.3906C16.9323 11.0156 16.8542 10.651 16.7188 10.2969C16.5885 9.94271 16.3802 9.65104 16.0938 9.42188C15.8073 9.19271 15.4167 9.07812 14.9219 9.07812C14.5938 9.07812 14.2917 9.14844 14.0156 9.28906C13.7396 9.42448 13.5026 9.6276 13.3047 9.89844C13.1068 10.1693 12.9531 10.5 12.8438 10.8906C12.7344 11.2812 12.6797 11.7318 12.6797 12.2422V12.5703C12.6797 12.9714 12.7344 13.349 12.8438 13.7031C12.9583 14.0521 13.1224 14.3594 13.3359 14.625C13.5547 14.8906 13.8177 15.099 14.125 15.25C14.4375 15.401 14.7917 15.4766 15.1875 15.4766C15.6979 15.4766 16.1302 15.3724 16.4844 15.1641C16.8385 14.9557 17.1484 14.6771 17.4141 14.3281L18.2891 15.0234C18.1068 15.2995 17.875 15.5625 17.5938 15.8125C17.3125 16.0625 16.9661 16.2656 16.5547 16.4219C16.1484 16.5781 15.6667 16.6562 15.1094 16.6562ZM21.6562 4.5V16.5H20.2031V4.5H21.6562ZM27.4844 16.6562C26.8958 16.6562 26.362 16.5573 25.8828 16.3594C25.4089 16.1562 25 15.8724 24.6562 15.5078C24.3177 15.1432 24.0573 14.7109 23.875 14.2109C23.6927 13.7109 23.6016 13.1641 23.6016 12.5703V12.2422C23.6016 11.5547 23.7031 10.9427 23.9062 10.4062C24.1094 9.86458 24.3854 9.40625 24.7344 9.03125C25.0833 8.65625 25.4792 8.3724 25.9219 8.17969C26.3646 7.98698 26.8229 7.89062 27.2969 7.89062C27.901 7.89062 28.4219 7.99479 28.8594 8.20312C29.3021 8.41146 29.6641 8.70312 29.9453 9.07812C30.2266 9.44792 30.4349 9.88542 30.5703 10.3906C30.7057 10.8906 30.7734 11.4375 30.7734 12.0312V12.6797H24.4609V11.5H29.3281V11.3906C29.3073 11.0156 29.2292 10.651 29.0938 10.2969C28.9635 9.94271 28.7552 9.65104 28.4688 9.42188C28.1823 9.19271 27.7917 9.07812 27.2969 9.07812C26.9688 9.07812 26.6667 9.14844 26.3906 9.28906C26.1146 9.42448 25.8776 9.6276 25.6797 9.89844C25.4818 10.1693 25.3281 10.5 25.2188 10.8906C25.1094 11.2812 25.0547 11.7318 25.0547 12.2422V12.5703C25.0547 12.9714 25.1094 13.349 25.2188 13.7031C25.3333 14.0521 25.4974 14.3594 25.7109 14.625C25.9297 14.8906 26.1927 15.099 26.5 15.25C26.8125 15.401 27.1667 15.4766 27.5625 15.4766C28.0729 15.4766 28.5052 15.3724 28.8594 15.1641C29.2135 14.9557 29.5234 14.6771 29.7891 14.3281L30.6641 15.0234C30.4818 15.2995 30.25 15.5625 29.9688 15.8125C29.6875 16.0625 29.3411 16.2656 28.9297 16.4219C28.5234 16.5781 28.0417 16.6562 27.4844 16.6562ZM36 8.04688V9.15625H31.4297V8.04688H36ZM32.9766 5.99219H34.4219V14.4062C34.4219 14.6927 34.4661 14.9089 34.5547 15.0547C34.6432 15.2005 34.7578 15.2969 34.8984 15.3438C35.0391 15.3906 35.1901 15.4141 35.3516 15.4141C35.4714 15.4141 35.5964 15.4036 35.7266 15.3828C35.862 15.3568 35.9635 15.3359 36.0312 15.3203L36.0391 16.5C35.9245 16.5365 35.7734 16.5703 35.5859 16.6016C35.4036 16.638 35.1823 16.6562 34.9219 16.6562C34.5677 16.6562 34.2422 16.5859 33.9453 16.4453C33.6484 16.3047 33.4115 16.0703 33.2344 15.7422C33.0625 15.4089 32.9766 14.9609 32.9766 14.3984V5.99219ZM41.2031 16.6562C40.6146 16.6562 40.0807 16.5573 39.6016 16.3594C39.1276 16.1562 38.7188 15.8724 38.375 15.5078C38.0365 15.1432 37.776 14.7109 37.5938 14.2109C37.4115 13.7109 37.3203 13.1641 37.3203 12.5703V12.2422C37.3203 11.5547 37.4219 10.9427 37.625 10.4062C37.8281 9.86458 38.1042 9.40625 38.4531 9.03125C38.8021 8.65625 39.1979 8.3724 39.6406 8.17969C40.0833 7.98698 40.5417 7.89062 41.0156 7.89062C41.6198 7.89062 42.1406 7.99479 42.5781 8.20312C43.0208 8.41146 43.3828 8.70312 43.6641 9.07812C43.9453 9.44792 44.1536 9.88542 44.2891 10.3906C44.4245 10.8906 44.4922 11.4375 44.4922 12.0312V12.6797H38.1797V11.5H43.0469V11.3906C43.026 11.0156 42.9479 10.651 42.8125 10.2969C42.6823 9.94271 42.474 9.65104 42.1875 9.42188C41.901 9.19271 41.5104 9.07812 41.0156 9.07812C40.6875 9.07812 40.3854 9.14844 40.1094 9.28906C39.8333 9.42448 39.5964 9.6276 39.3984 9.89844C39.2005 10.1693 39.0469 10.5 38.9375 10.8906C38.8281 11.2812 38.7734 11.7318 38.7734 12.2422V12.5703C38.7734 12.9714 38.8281 13.349 38.9375 13.7031C39.0521 14.0521 39.2161 14.3594 39.4297 14.625C39.6484 14.8906 39.9115 15.099 40.2188 15.25C40.5312 15.401 40.8854 15.4766 41.2812 15.4766C41.7917 15.4766 42.224 15.3724 42.5781 15.1641C42.9323 14.9557 43.2422 14.6771 43.5078 14.3281L44.3828 15.0234C44.2005 15.2995 43.9688 15.5625 43.6875 15.8125C43.4062 16.0625 43.0599 16.2656 42.6484 16.4219C42.2422 16.5781 41.7604 16.6562 41.2031 16.6562Z" fill="#EF4444"/>
</g>
</svg>
