<svg width="196" height="28" viewBox="0 0 196 28" fill="none" xmlns="http://www.w3.org/2000/svg">
<mask id="mask0_14_5363" style="mask-type:luminance" maskUnits="userSpaceOnUse" x="0" y="0" width="196" height="28">
<path d="M196 0H0V28H196V0Z" fill="white"/>
</mask>
<g mask="url(#mask0_14_5363)">
<path d="M4.32 20.5V10.6H0.576V7.9H11.214V10.6H7.38V20.5H4.32ZM15.78 20.68C14.784 20.68 13.896 20.464 13.116 20.032C12.348 19.6 11.736 19.012 11.28 18.268C10.836 17.524 10.614 16.672 10.614 15.712C10.614 14.752 10.836 13.9 11.28 13.156C11.736 12.412 12.348 11.824 13.116 11.392C13.896 10.96 14.784 10.744 15.78 10.744C16.776 10.744 17.658 10.96 18.426 11.392C19.206 11.824 19.818 12.412 20.262 13.156C20.706 13.9 20.928 14.752 20.928 15.712C20.928 16.672 20.706 17.524 20.262 18.268C19.818 19.012 19.206 19.6 18.426 20.032C17.658 20.464 16.776 20.68 15.78 20.68ZM15.78 18.196C16.212 18.196 16.596 18.088 16.932 17.872C17.268 17.656 17.532 17.362 17.724 16.99C17.916 16.618 18.006 16.192 17.994 15.712C18.006 15.232 17.916 14.806 17.724 14.434C17.532 14.05 17.268 13.75 16.932 13.534C16.596 13.318 16.212 13.21 15.78 13.21C15.348 13.21 14.958 13.318 14.61 13.534C14.274 13.75 14.01 14.05 13.818 14.434C13.626 14.806 13.536 15.232 13.548 15.712C13.536 16.192 13.626 16.618 13.818 16.99C14.01 17.362 14.274 17.656 14.61 17.872C14.958 18.088 15.348 18.196 15.78 18.196ZM23.6032 20.5V8.53H26.4832V20.5H23.6032ZM21.9112 13.462V10.942H28.3372V13.462H21.9112ZM33.4232 20.662C32.6192 20.662 31.8992 20.452 31.2632 20.032C30.6392 19.6 30.1412 19.012 29.7692 18.268C29.3972 17.512 29.2112 16.66 29.2112 15.712C29.2112 14.74 29.3972 13.882 29.7692 13.138C30.1412 12.394 30.6512 11.812 31.2992 11.392C31.9472 10.96 32.6852 10.744 33.5132 10.744C33.9692 10.744 34.3832 10.81 34.7552 10.942C35.1392 11.074 35.4752 11.26 35.7632 11.5C36.0512 11.728 36.2972 11.998 36.5012 12.31C36.7052 12.61 36.8552 12.934 36.9512 13.282L36.3572 13.21V10.942H39.2192V20.5H36.3032V18.196L36.9512 18.178C36.8552 18.514 36.6992 18.832 36.4832 19.132C36.2672 19.432 36.0032 19.696 35.6912 19.924C35.3792 20.152 35.0312 20.332 34.6472 20.464C34.2632 20.596 33.8552 20.662 33.4232 20.662ZM34.2152 18.232C34.6592 18.232 35.0432 18.13 35.3672 17.926C35.6912 17.722 35.9432 17.434 36.1232 17.062C36.3032 16.678 36.3932 16.228 36.3932 15.712C36.3932 15.196 36.3032 14.752 36.1232 14.38C35.9432 13.996 35.6912 13.702 35.3672 13.498C35.0432 13.282 34.6592 13.174 34.2152 13.174C33.7832 13.174 33.4052 13.282 33.0812 13.498C32.7692 13.702 32.5232 13.996 32.3432 14.38C32.1632 14.752 32.0732 15.196 32.0732 15.712C32.0732 16.228 32.1632 16.678 32.3432 17.062C32.5232 17.434 32.7692 17.722 33.0812 17.926C33.4052 18.13 33.7832 18.232 34.2152 18.232ZM41.7784 20.5V7.18H44.6584V20.5H41.7784ZM51.6968 20.5L56.6828 7.9H59.2748L64.2248 20.5H61.1288L58.7528 14.11C58.6568 13.858 58.5608 13.588 58.4648 13.3C58.3688 13.012 58.2728 12.718 58.1768 12.418C58.0808 12.106 57.9848 11.806 57.8888 11.518C57.8048 11.218 57.7328 10.942 57.6728 10.69L58.2128 10.672C58.1408 10.972 58.0568 11.266 57.9608 11.554C57.8768 11.842 57.7868 12.13 57.6908 12.418C57.6068 12.694 57.5108 12.976 57.4028 13.264C57.2948 13.54 57.1928 13.828 57.0968 14.128L54.7208 20.5H51.6968ZM54.0728 18.088L55.0268 15.784H60.8228L61.7588 18.088H54.0728ZM65.4909 20.5V10.942H68.2269L68.3529 14.056L67.8129 13.462C67.9569 12.946 68.1909 12.484 68.5149 12.076C68.8509 11.668 69.2409 11.344 69.6849 11.104C70.1289 10.864 70.6029 10.744 71.1069 10.744C71.3229 10.744 71.5209 10.762 71.7009 10.798C71.8929 10.834 72.0669 10.876 72.2229 10.924L71.4309 14.11C71.2989 14.026 71.1189 13.96 70.8909 13.912C70.6749 13.852 70.4469 13.822 70.2069 13.822C69.9429 13.822 69.6969 13.87 69.4689 13.966C69.2409 14.05 69.0489 14.176 68.8929 14.344C68.7369 14.512 68.6109 14.71 68.5149 14.938C68.4309 15.166 68.3889 15.424 68.3889 15.712V20.5H65.4909ZM74.8259 20.5V8.53H77.7059V20.5H74.8259ZM73.1339 13.462V10.942H79.5599V13.462H73.1339ZM81.3677 20.5V10.942H84.2477V20.5H81.3677ZM82.8077 9.052C82.2677 9.052 81.8417 8.926 81.5297 8.674C81.2297 8.41 81.0797 8.038 81.0797 7.558C81.0797 7.126 81.2357 6.772 81.5477 6.496C81.8597 6.22 82.2797 6.082 82.8077 6.082C83.3477 6.082 83.7677 6.214 84.0677 6.478C84.3677 6.73 84.5177 7.09 84.5177 7.558C84.5177 8.002 84.3617 8.362 84.0497 8.638C83.7497 8.914 83.3357 9.052 82.8077 9.052ZM91.1478 20.68C90.2238 20.68 89.3958 20.464 88.6638 20.032C87.9318 19.6 87.3498 19.012 86.9178 18.268C86.4978 17.512 86.2878 16.66 86.2878 15.712C86.2878 14.764 86.4978 13.918 86.9178 13.174C87.3498 12.418 87.9318 11.824 88.6638 11.392C89.3958 10.96 90.2238 10.744 91.1478 10.744C91.9998 10.744 92.7798 10.894 93.4878 11.194C94.2078 11.494 94.7778 11.914 95.1978 12.454L93.6318 14.326C93.4638 14.134 93.2658 13.954 93.0378 13.786C92.8098 13.618 92.5578 13.486 92.2818 13.39C92.0058 13.294 91.7178 13.246 91.4178 13.246C90.9618 13.246 90.5598 13.354 90.2118 13.57C89.8638 13.774 89.5938 14.062 89.4018 14.434C89.2098 14.806 89.1138 15.232 89.1138 15.712C89.1138 16.168 89.2098 16.582 89.4018 16.954C89.6058 17.326 89.8818 17.62 90.2298 17.836C90.5778 18.052 90.9738 18.16 91.4178 18.16C91.7298 18.16 92.0178 18.124 92.2818 18.052C92.5458 17.968 92.7858 17.848 93.0018 17.692C93.2298 17.536 93.4398 17.344 93.6318 17.116L95.1798 19.006C94.7718 19.522 94.2018 19.93 93.4698 20.23C92.7498 20.53 91.9758 20.68 91.1478 20.68ZM96.7804 20.5V7.18H99.6604V20.5H96.7804ZM106.607 20.68C105.551 20.68 104.633 20.47 103.853 20.05C103.073 19.618 102.467 19.036 102.035 18.304C101.603 17.56 101.387 16.714 101.387 15.766C101.387 15.034 101.507 14.362 101.747 13.75C101.987 13.138 102.323 12.61 102.755 12.166C103.187 11.71 103.697 11.362 104.285 11.122C104.885 10.87 105.539 10.744 106.247 10.744C106.919 10.744 107.531 10.864 108.083 11.104C108.647 11.344 109.133 11.68 109.541 12.112C109.949 12.544 110.261 13.054 110.477 13.642C110.693 14.23 110.789 14.872 110.765 15.568L110.747 16.342H103.133L102.719 14.722H108.407L108.101 15.064V14.704C108.077 14.404 107.981 14.14 107.813 13.912C107.657 13.672 107.447 13.486 107.183 13.354C106.919 13.222 106.619 13.156 106.283 13.156C105.815 13.156 105.413 13.252 105.077 13.444C104.753 13.624 104.507 13.894 104.339 14.254C104.171 14.602 104.087 15.034 104.087 15.55C104.087 16.078 104.195 16.54 104.411 16.936C104.639 17.32 104.963 17.62 105.383 17.836C105.815 18.052 106.325 18.16 106.913 18.16C107.321 18.16 107.681 18.1 107.993 17.98C108.317 17.86 108.665 17.656 109.037 17.368L110.387 19.276C110.015 19.6 109.619 19.864 109.199 20.068C108.779 20.272 108.347 20.422 107.903 20.518C107.471 20.626 107.039 20.68 106.607 20.68ZM115.822 20.68C114.886 20.68 114.058 20.53 113.338 20.23C112.63 19.93 112.066 19.528 111.646 19.024L113.392 17.512C113.764 17.884 114.184 18.16 114.652 18.34C115.12 18.508 115.564 18.592 115.984 18.592C116.152 18.592 116.302 18.574 116.434 18.538C116.566 18.502 116.674 18.454 116.758 18.394C116.854 18.322 116.926 18.244 116.974 18.16C117.022 18.064 117.046 17.956 117.046 17.836C117.046 17.596 116.938 17.41 116.722 17.278C116.614 17.218 116.434 17.146 116.182 17.062C115.93 16.978 115.606 16.882 115.21 16.774C114.646 16.63 114.154 16.462 113.734 16.27C113.326 16.066 112.99 15.832 112.726 15.568C112.486 15.316 112.3 15.04 112.168 14.74C112.036 14.428 111.97 14.08 111.97 13.696C111.97 13.252 112.072 12.85 112.276 12.49C112.492 12.13 112.774 11.818 113.122 11.554C113.482 11.29 113.89 11.092 114.346 10.96C114.814 10.816 115.294 10.744 115.786 10.744C116.314 10.744 116.818 10.804 117.298 10.924C117.778 11.044 118.222 11.212 118.63 11.428C119.05 11.644 119.422 11.902 119.746 12.202L118.234 13.894C118.018 13.69 117.772 13.51 117.496 13.354C117.232 13.186 116.956 13.054 116.668 12.958C116.38 12.862 116.116 12.814 115.876 12.814C115.696 12.814 115.534 12.832 115.39 12.868C115.258 12.892 115.144 12.94 115.048 13.012C114.952 13.072 114.88 13.15 114.832 13.246C114.784 13.33 114.76 13.432 114.76 13.552C114.76 13.672 114.79 13.786 114.85 13.894C114.922 14.002 115.018 14.092 115.138 14.164C115.258 14.236 115.45 14.32 115.714 14.416C115.978 14.5 116.338 14.608 116.794 14.74C117.358 14.896 117.844 15.07 118.252 15.262C118.66 15.454 118.984 15.682 119.224 15.946C119.416 16.15 119.56 16.39 119.656 16.666C119.752 16.93 119.8 17.218 119.8 17.53C119.8 18.142 119.626 18.688 119.278 19.168C118.942 19.636 118.474 20.008 117.874 20.284C117.274 20.548 116.59 20.68 115.822 20.68Z" fill="black"/>
</g>
</svg>
