<svg width="150" height="28" viewBox="0 0 150 28" fill="none" xmlns="http://www.w3.org/2000/svg">
<mask id="mask0_14_5351" style="mask-type:luminance" maskUnits="userSpaceOnUse" x="0" y="0" width="150" height="28">
<path d="M150 0H0V28H150V0Z" fill="white"/>
</mask>
<g mask="url(#mask0_14_5351)">
<path d="M-0.018 20.5L4.968 7.9H7.56L12.51 20.5H9.414L7.038 14.11C6.942 13.858 6.846 13.588 6.75 13.3C6.654 13.012 6.558 12.718 6.462 12.418C6.366 12.106 6.27 11.806 6.174 11.518C6.09 11.218 6.018 10.942 5.958 10.69L6.498 10.672C6.426 10.972 6.342 11.266 6.246 11.554C6.162 11.842 6.072 12.13 5.976 12.418C5.892 12.694 5.796 12.976 5.688 13.264C5.58 13.54 5.478 13.828 5.382 14.128L3.006 20.5H-0.018ZM2.358 18.088L3.312 15.784H9.108L10.044 18.088H2.358ZM17.6185 20.68C16.6945 20.68 15.8665 20.464 15.1345 20.032C14.4025 19.6 13.8205 19.012 13.3885 18.268C12.9685 17.512 12.7585 16.66 12.7585 15.712C12.7585 14.764 12.9685 13.918 13.3885 13.174C13.8205 12.418 14.4025 11.824 15.1345 11.392C15.8665 10.96 16.6945 10.744 17.6185 10.744C18.4705 10.744 19.2505 10.894 19.9585 11.194C20.6785 11.494 21.2485 11.914 21.6685 12.454L20.1025 14.326C19.9345 14.134 19.7365 13.954 19.5085 13.786C19.2805 13.618 19.0285 13.486 18.7525 13.39C18.4765 13.294 18.1885 13.246 17.8885 13.246C17.4325 13.246 17.0305 13.354 16.6825 13.57C16.3345 13.774 16.0645 14.062 15.8725 14.434C15.6805 14.806 15.5845 15.232 15.5845 15.712C15.5845 16.168 15.6805 16.582 15.8725 16.954C16.0765 17.326 16.3525 17.62 16.7005 17.836C17.0485 18.052 17.4445 18.16 17.8885 18.16C18.2005 18.16 18.4885 18.124 18.7525 18.052C19.0165 17.968 19.2565 17.848 19.4725 17.692C19.7005 17.536 19.9105 17.344 20.1025 17.116L21.6505 19.006C21.2425 19.522 20.6725 19.93 19.9405 20.23C19.2205 20.53 18.4465 20.68 17.6185 20.68ZM24.0251 20.5V8.53H26.9051V20.5H24.0251ZM22.3331 13.462V10.942H28.7591V13.462H22.3331ZM30.567 20.5V10.942H33.447V20.5H30.567ZM32.007 9.052C31.467 9.052 31.041 8.926 30.729 8.674C30.429 8.41 30.279 8.038 30.279 7.558C30.279 7.126 30.435 6.772 30.747 6.496C31.059 6.22 31.479 6.082 32.007 6.082C32.547 6.082 32.967 6.214 33.267 6.478C33.567 6.73 33.717 7.09 33.717 7.558C33.717 8.002 33.561 8.362 33.249 8.638C32.949 8.914 32.535 9.052 32.007 9.052ZM39.087 20.5L35.091 10.942H38.277L40.653 18.088L39.951 18.16L42.399 10.942H45.549L41.355 20.5H39.087ZM51.3418 20.68C50.2858 20.68 49.3678 20.47 48.5878 20.05C47.8078 19.618 47.2018 19.036 46.7698 18.304C46.3378 17.56 46.1218 16.714 46.1218 15.766C46.1218 15.034 46.2418 14.362 46.4818 13.75C46.7218 13.138 47.0578 12.61 47.4898 12.166C47.9218 11.71 48.4318 11.362 49.0198 11.122C49.6198 10.87 50.2738 10.744 50.9818 10.744C51.6538 10.744 52.2658 10.864 52.8178 11.104C53.3818 11.344 53.8678 11.68 54.2758 12.112C54.6838 12.544 54.9958 13.054 55.2118 13.642C55.4278 14.23 55.5238 14.872 55.4998 15.568L55.4818 16.342H47.8678L47.4538 14.722H53.1418L52.8358 15.064V14.704C52.8118 14.404 52.7158 14.14 52.5478 13.912C52.3918 13.672 52.1818 13.486 51.9178 13.354C51.6538 13.222 51.3538 13.156 51.0178 13.156C50.5498 13.156 50.1478 13.252 49.8118 13.444C49.4878 13.624 49.2418 13.894 49.0738 14.254C48.9058 14.602 48.8218 15.034 48.8218 15.55C48.8218 16.078 48.9298 16.54 49.1458 16.936C49.3738 17.32 49.6978 17.62 50.1178 17.836C50.5498 18.052 51.0598 18.16 51.6478 18.16C52.0558 18.16 52.4158 18.1 52.7278 17.98C53.0518 17.86 53.3998 17.656 53.7718 17.368L55.1218 19.276C54.7498 19.6 54.3538 19.864 53.9338 20.068C53.5138 20.272 53.0818 20.422 52.6378 20.518C52.2058 20.626 51.7738 20.68 51.3418 20.68ZM68.7163 20.608C67.6723 20.608 66.7423 20.398 65.9263 19.978C65.1103 19.546 64.4683 18.958 64.0003 18.214C63.5443 17.47 63.3163 16.618 63.3163 15.658V7.9H66.4123V15.496C66.4123 15.952 66.5143 16.366 66.7183 16.738C66.9223 17.098 67.1983 17.386 67.5463 17.602C67.8943 17.806 68.2843 17.908 68.7163 17.908C69.1723 17.908 69.5743 17.806 69.9223 17.602C70.2823 17.386 70.5703 17.098 70.7863 16.738C71.0023 16.366 71.1103 15.952 71.1103 15.496V7.9H74.0983V15.658C74.0983 16.618 73.8643 17.47 73.3963 18.214C72.9403 18.958 72.3043 19.546 71.4883 19.978C70.6723 20.398 69.7483 20.608 68.7163 20.608ZM80.0859 20.68C79.1499 20.68 78.3219 20.53 77.6019 20.23C76.8939 19.93 76.3299 19.528 75.9099 19.024L77.6559 17.512C78.0279 17.884 78.4479 18.16 78.9159 18.34C79.3839 18.508 79.8279 18.592 80.2479 18.592C80.4159 18.592 80.5659 18.574 80.6979 18.538C80.8299 18.502 80.9379 18.454 81.0219 18.394C81.1179 18.322 81.1899 18.244 81.2379 18.16C81.2859 18.064 81.3099 17.956 81.3099 17.836C81.3099 17.596 81.2019 17.41 80.9859 17.278C80.8779 17.218 80.6979 17.146 80.4459 17.062C80.1939 16.978 79.8699 16.882 79.4739 16.774C78.9099 16.63 78.4179 16.462 77.9979 16.27C77.5899 16.066 77.2539 15.832 76.9899 15.568C76.7499 15.316 76.5639 15.04 76.4319 14.74C76.2999 14.428 76.2339 14.08 76.2339 13.696C76.2339 13.252 76.3359 12.85 76.5399 12.49C76.7559 12.13 77.0379 11.818 77.3859 11.554C77.7459 11.29 78.1539 11.092 78.6099 10.96C79.0779 10.816 79.5579 10.744 80.0499 10.744C80.5779 10.744 81.0819 10.804 81.5619 10.924C82.0419 11.044 82.4859 11.212 82.8939 11.428C83.3139 11.644 83.6859 11.902 84.0099 12.202L82.4979 13.894C82.2819 13.69 82.0359 13.51 81.7599 13.354C81.4959 13.186 81.2199 13.054 80.9319 12.958C80.6439 12.862 80.3799 12.814 80.1399 12.814C79.9599 12.814 79.7979 12.832 79.6539 12.868C79.5219 12.892 79.4079 12.94 79.3119 13.012C79.2159 13.072 79.1439 13.15 79.0959 13.246C79.0479 13.33 79.0239 13.432 79.0239 13.552C79.0239 13.672 79.0539 13.786 79.1139 13.894C79.1859 14.002 79.2819 14.092 79.4019 14.164C79.5219 14.236 79.7139 14.32 79.9779 14.416C80.2419 14.5 80.6019 14.608 81.0579 14.74C81.6219 14.896 82.1079 15.07 82.5159 15.262C82.9239 15.454 83.2479 15.682 83.4879 15.946C83.6799 16.15 83.8239 16.39 83.9199 16.666C84.0159 16.93 84.0639 17.218 84.0639 17.53C84.0639 18.142 83.8899 18.688 83.5419 19.168C83.2059 19.636 82.7379 20.008 82.1379 20.284C81.5379 20.548 80.8539 20.68 80.0859 20.68ZM90.33 20.68C89.274 20.68 88.356 20.47 87.576 20.05C86.796 19.618 86.19 19.036 85.758 18.304C85.326 17.56 85.11 16.714 85.11 15.766C85.11 15.034 85.23 14.362 85.47 13.75C85.71 13.138 86.046 12.61 86.478 12.166C86.91 11.71 87.42 11.362 88.008 11.122C88.608 10.87 89.262 10.744 89.97 10.744C90.642 10.744 91.254 10.864 91.806 11.104C92.37 11.344 92.856 11.68 93.264 12.112C93.672 12.544 93.984 13.054 94.2 13.642C94.416 14.23 94.512 14.872 94.488 15.568L94.47 16.342H86.856L86.442 14.722H92.13L91.824 15.064V14.704C91.8 14.404 91.704 14.14 91.536 13.912C91.38 13.672 91.17 13.486 90.906 13.354C90.642 13.222 90.342 13.156 90.006 13.156C89.538 13.156 89.136 13.252 88.8 13.444C88.476 13.624 88.23 13.894 88.062 14.254C87.894 14.602 87.81 15.034 87.81 15.55C87.81 16.078 87.918 16.54 88.134 16.936C88.362 17.32 88.686 17.62 89.106 17.836C89.538 18.052 90.048 18.16 90.636 18.16C91.044 18.16 91.404 18.1 91.716 17.98C92.04 17.86 92.388 17.656 92.76 17.368L94.11 19.276C93.738 19.6 93.342 19.864 92.922 20.068C92.502 20.272 92.07 20.422 91.626 20.518C91.194 20.626 90.762 20.68 90.33 20.68ZM96.3229 20.5V10.942H99.0589L99.1849 14.056L98.6449 13.462C98.7889 12.946 99.0229 12.484 99.3469 12.076C99.6829 11.668 100.073 11.344 100.517 11.104C100.961 10.864 101.435 10.744 101.939 10.744C102.155 10.744 102.353 10.762 102.533 10.798C102.725 10.834 102.899 10.876 103.055 10.924L102.263 14.11C102.131 14.026 101.951 13.96 101.723 13.912C101.507 13.852 101.279 13.822 101.039 13.822C100.775 13.822 100.529 13.87 100.301 13.966C100.073 14.05 99.8809 14.176 99.7249 14.344C99.5689 14.512 99.4429 14.71 99.3469 14.938C99.2629 15.166 99.2209 15.424 99.2209 15.712V20.5H96.3229ZM107.736 20.68C106.8 20.68 105.972 20.53 105.252 20.23C104.544 19.93 103.98 19.528 103.56 19.024L105.306 17.512C105.678 17.884 106.098 18.16 106.566 18.34C107.034 18.508 107.478 18.592 107.898 18.592C108.066 18.592 108.216 18.574 108.348 18.538C108.48 18.502 108.588 18.454 108.672 18.394C108.768 18.322 108.84 18.244 108.888 18.16C108.936 18.064 108.96 17.956 108.96 17.836C108.96 17.596 108.852 17.41 108.636 17.278C108.528 17.218 108.348 17.146 108.096 17.062C107.844 16.978 107.52 16.882 107.124 16.774C106.56 16.63 106.068 16.462 105.648 16.27C105.24 16.066 104.904 15.832 104.64 15.568C104.4 15.316 104.214 15.04 104.082 14.74C103.95 14.428 103.884 14.08 103.884 13.696C103.884 13.252 103.986 12.85 104.19 12.49C104.406 12.13 104.688 11.818 105.036 11.554C105.396 11.29 105.804 11.092 106.26 10.96C106.728 10.816 107.208 10.744 107.7 10.744C108.228 10.744 108.732 10.804 109.212 10.924C109.692 11.044 110.136 11.212 110.544 11.428C110.964 11.644 111.336 11.902 111.66 12.202L110.148 13.894C109.932 13.69 109.686 13.51 109.41 13.354C109.146 13.186 108.87 13.054 108.582 12.958C108.294 12.862 108.03 12.814 107.79 12.814C107.61 12.814 107.448 12.832 107.304 12.868C107.172 12.892 107.058 12.94 106.962 13.012C106.866 13.072 106.794 13.15 106.746 13.246C106.698 13.33 106.674 13.432 106.674 13.552C106.674 13.672 106.704 13.786 106.764 13.894C106.836 14.002 106.932 14.092 107.052 14.164C107.172 14.236 107.364 14.32 107.628 14.416C107.892 14.5 108.252 14.608 108.708 14.74C109.272 14.896 109.758 15.07 110.166 15.262C110.574 15.454 110.898 15.682 111.138 15.946C111.33 16.15 111.474 16.39 111.57 16.666C111.666 16.93 111.714 17.218 111.714 17.53C111.714 18.142 111.54 18.688 111.192 19.168C110.856 19.636 110.388 20.008 109.788 20.284C109.188 20.548 108.504 20.68 107.736 20.68Z" fill="black"/>
</g>
</svg>
