<svg width="27" height="27" viewBox="0 0 27 27" fill="none" xmlns="http://www.w3.org/2000/svg">
<path d="M4.05 12.15C5.53922 12.15 6.75 10.9392 6.75 9.44999C6.75 7.96077 5.53922 6.74999 4.05 6.74999C2.56078 6.74999 1.35 7.96077 1.35 9.44999C1.35 10.9392 2.56078 12.15 4.05 12.15ZM22.95 12.15C24.4392 12.15 25.65 10.9392 25.65 9.44999C25.65 7.96077 24.4392 6.74999 22.95 6.74999C21.4608 6.74999 20.25 7.96077 20.25 9.44999C20.25 10.9392 21.4608 12.15 22.95 12.15ZM24.3 13.5H21.6C20.8575 13.5 20.1867 13.7995 19.6973 14.2847C21.3975 15.217 22.6041 16.9003 22.8656 18.9H25.65C26.3967 18.9 27 18.2967 27 17.55V16.2C27 14.7108 25.7892 13.5 24.3 13.5ZM13.5 13.5C16.1114 13.5 18.225 11.3864 18.225 8.77499C18.225 6.16358 16.1114 4.04999 13.5 4.04999C10.8886 4.04999 8.775 6.16358 8.775 8.77499C8.775 11.3864 10.8886 13.5 13.5 13.5ZM16.74 14.85H16.3898C15.5123 15.2719 14.5378 15.525 13.5 15.525C12.4622 15.525 11.4919 15.2719 10.6102 14.85H10.26C7.57688 14.85 5.4 17.0269 5.4 19.71V20.925C5.4 22.043 6.30703 22.95 7.425 22.95H19.575C20.693 22.95 21.6 22.043 21.6 20.925V19.71C21.6 17.0269 19.4231 14.85 16.74 14.85ZM7.30266 14.2847C6.81328 13.7995 6.1425 13.5 5.4 13.5H2.7C1.21078 13.5 0 14.7108 0 16.2V17.55C0 18.2967 0.603281 18.9 1.35 18.9H4.13016C4.39594 16.9003 5.6025 15.217 7.30266 14.2847Z" fill="#DC143C"/>
</svg>
