<svg width="27" height="27" viewBox="0 0 27 27" fill="none" xmlns="http://www.w3.org/2000/svg">
<g clip-path="url(#clip0_14_5344)">
<path d="M9.45 13.5C12.4327 13.5 14.85 11.0827 14.85 8.10001C14.85 5.11736 12.4327 2.70001 9.45 2.70001C6.46734 2.70001 4.05 5.11736 4.05 8.10001C4.05 11.0827 6.46734 13.5 9.45 13.5ZM13.23 14.85H12.5255C11.5889 15.2803 10.5469 15.525 9.45 15.525C8.35313 15.525 7.31531 15.2803 6.37453 14.85H5.67C2.53969 14.85 0 17.3897 0 20.52V22.275C0 23.393 0.907031 24.3 2.025 24.3H16.875C17.993 24.3 18.9 23.393 18.9 22.275V20.52C18.9 17.3897 16.3603 14.85 13.23 14.85ZM26.8566 9.43314L25.6838 8.24767C25.4897 8.04939 25.1733 8.04939 24.975 8.24345L20.5538 12.6309L18.6342 10.6988C18.4402 10.5005 18.1238 10.5005 17.9255 10.6945L16.74 11.8716C16.5417 12.0656 16.5417 12.382 16.7358 12.5803L20.1825 16.0524C20.3766 16.2506 20.693 16.2506 20.8913 16.0566L26.8523 10.1419C27.0464 9.94361 27.0506 9.6272 26.8566 9.43314Z" fill="#DC143C"/>
</g>
<defs>
<clipPath id="clip0_14_5344">
<rect width="27" height="27" fill="white"/>
</clipPath>
</defs>
</svg>
