<svg width="216" height="23" viewBox="0 0 216 23" fill="none" xmlns="http://www.w3.org/2000/svg">
<mask id="mask0_14_4646" style="mask-type:luminance" maskUnits="userSpaceOnUse" x="0" y="0" width="216" height="23">
<path d="M216 0H0V23H216V0Z" fill="white"/>
</mask>
<g mask="url(#mask0_14_4646)">
<path d="M5.53125 6.13281L1.76562 16.5H0.226562L4.5625 5.125H5.55469L5.53125 6.13281ZM8.6875 16.5L4.91406 6.13281L4.89062 5.125H5.88281L10.2344 16.5H8.6875ZM8.49219 12.2891V13.5234H2.10156V12.2891H8.49219ZM13.1094 4.5V16.5H11.6562V4.5H13.1094ZM17 4.5V16.5H15.5469V4.5H17ZM32.2578 5.125V16.5H30.7422L25.0156 7.72656V16.5H23.5078V5.125H25.0156L30.7656 13.9219V5.125H32.2578ZM38.2188 16.6562C37.6302 16.6562 37.0964 16.5573 36.6172 16.3594C36.1432 16.1562 35.7344 15.8724 35.3906 15.5078C35.0521 15.1432 34.7917 14.7109 34.6094 14.2109C34.4271 13.7109 34.3359 13.1641 34.3359 12.5703V12.2422C34.3359 11.5547 34.4375 10.9427 34.6406 10.4062C34.8438 9.86458 35.1198 9.40625 35.4688 9.03125C35.8177 8.65625 36.2135 8.3724 36.6562 8.17969C37.099 7.98698 37.5573 7.89062 38.0312 7.89062C38.6354 7.89062 39.1562 7.99479 39.5938 8.20312C40.0365 8.41146 40.3984 8.70312 40.6797 9.07812C40.9609 9.44792 41.1693 9.88542 41.3047 10.3906C41.4401 10.8906 41.5078 11.4375 41.5078 12.0312V12.6797H35.1953V11.5H40.0625V11.3906C40.0417 11.0156 39.9635 10.651 39.8281 10.2969C39.6979 9.94271 39.4896 9.65104 39.2031 9.42188C38.9167 9.19271 38.526 9.07812 38.0312 9.07812C37.7031 9.07812 37.401 9.14844 37.125 9.28906C36.849 9.42448 36.612 9.6276 36.4141 9.89844C36.2161 10.1693 36.0625 10.5 35.9531 10.8906C35.8438 11.2812 35.7891 11.7318 35.7891 12.2422V12.5703C35.7891 12.9714 35.8438 13.349 35.9531 13.7031C36.0677 14.0521 36.2318 14.3594 36.4453 14.625C36.6641 14.8906 36.9271 15.099 37.2344 15.25C37.5469 15.401 37.901 15.4766 38.2969 15.4766C38.8073 15.4766 39.2396 15.3724 39.5938 15.1641C39.9479 14.9557 40.2578 14.6771 40.5234 14.3281L41.3984 15.0234C41.2161 15.2995 40.9844 15.5625 40.7031 15.8125C40.4219 16.0625 40.0755 16.2656 39.6641 16.4219C39.2578 16.5781 38.776 16.6562 38.2188 16.6562ZM45.3359 15L47.5078 8.04688H48.4609L48.2734 9.42969L46.0625 16.5H45.1328L45.3359 15ZM43.875 8.04688L45.7266 15.0781L45.8594 16.5H44.8828L42.4297 8.04688H43.875ZM50.5391 15.0234L52.3047 8.04688H53.7422L51.2891 16.5H50.3203L50.5391 15.0234ZM48.6719 8.04688L50.7969 14.8828L51.0391 16.5H50.1172L47.8438 9.41406L47.6562 8.04688H48.6719ZM60.1484 14.2578C60.1484 14.0495 60.1016 13.8568 60.0078 13.6797C59.9193 13.4974 59.7344 13.3333 59.4531 13.1875C59.1771 13.0365 58.7604 12.9062 58.2031 12.7969C57.7344 12.6979 57.3099 12.5807 56.9297 12.4453C56.5547 12.3099 56.2344 12.1458 55.9688 11.9531C55.7083 11.7604 55.5078 11.5339 55.3672 11.2734C55.2266 11.013 55.1562 10.7083 55.1562 10.3594C55.1562 10.026 55.2292 9.71094 55.375 9.41406C55.526 9.11719 55.737 8.85417 56.0078 8.625C56.2839 8.39583 56.6146 8.21615 57 8.08594C57.3854 7.95573 57.8151 7.89062 58.2891 7.89062C58.9661 7.89062 59.5443 8.01042 60.0234 8.25C60.5026 8.48958 60.8698 8.8099 61.125 9.21094C61.3802 9.60677 61.5078 10.0469 61.5078 10.5312H60.0625C60.0625 10.2969 59.9922 10.0703 59.8516 9.85156C59.7161 9.6276 59.5156 9.44271 59.25 9.29688C58.9896 9.15104 58.6693 9.07812 58.2891 9.07812C57.888 9.07812 57.5625 9.14062 57.3125 9.26562C57.0677 9.38542 56.888 9.53906 56.7734 9.72656C56.6641 9.91406 56.6094 10.112 56.6094 10.3203C56.6094 10.4766 56.6354 10.6172 56.6875 10.7422C56.7448 10.862 56.8438 10.974 56.9844 11.0781C57.125 11.1771 57.3229 11.2708 57.5781 11.3594C57.8333 11.4479 58.1589 11.5365 58.5547 11.625C59.2474 11.7812 59.8177 11.9688 60.2656 12.1875C60.7135 12.4062 61.0469 12.6745 61.2656 12.9922C61.4844 13.3099 61.5938 13.6953 61.5938 14.1484C61.5938 14.5182 61.5156 14.8568 61.3594 15.1641C61.2083 15.4714 60.987 15.737 60.6953 15.9609C60.4089 16.1797 60.0651 16.3516 59.6641 16.4766C59.2682 16.5964 58.8229 16.6562 58.3281 16.6562C57.5833 16.6562 56.9531 16.5234 56.4375 16.2578C55.9219 15.9922 55.5312 15.6484 55.2656 15.2266C55 14.8047 54.8672 14.3594 54.8672 13.8906H56.3203C56.3411 14.2865 56.4557 14.6016 56.6641 14.8359C56.8724 15.0651 57.1276 15.2292 57.4297 15.3281C57.7318 15.4219 58.0312 15.4688 58.3281 15.4688C58.724 15.4688 59.0547 15.4167 59.3203 15.3125C59.5911 15.2083 59.7969 15.0651 59.9375 14.8828C60.0781 14.7005 60.1484 14.4922 60.1484 14.2578ZM74.5781 15.2734V16.5H68.8906V15.2734H74.5781ZM69.1875 5.125V16.5H67.6797V5.125H69.1875ZM77.6562 8.04688V16.5H76.2031V8.04688H77.6562ZM76.0938 5.80469C76.0938 5.57031 76.1641 5.3724 76.3047 5.21094C76.4505 5.04948 76.6641 4.96875 76.9453 4.96875C77.2214 4.96875 77.4323 5.04948 77.5781 5.21094C77.7292 5.3724 77.8047 5.57031 77.8047 5.80469C77.8047 6.02865 77.7292 6.22135 77.5781 6.38281C77.4323 6.53906 77.2214 6.61719 76.9453 6.61719C76.6641 6.61719 76.4505 6.53906 76.3047 6.38281C76.1641 6.22135 76.0938 6.02865 76.0938 5.80469ZM84.8984 14.2578C84.8984 14.0495 84.8516 13.8568 84.7578 13.6797C84.6693 13.4974 84.4844 13.3333 84.2031 13.1875C83.9271 13.0365 83.5104 12.9062 82.9531 12.7969C82.4844 12.6979 82.0599 12.5807 81.6797 12.4453C81.3047 12.3099 80.9844 12.1458 80.7188 11.9531C80.4583 11.7604 80.2578 11.5339 80.1172 11.2734C79.9766 11.013 79.9062 10.7083 79.9062 10.3594C79.9062 10.026 79.9792 9.71094 80.125 9.41406C80.276 9.11719 80.487 8.85417 80.7578 8.625C81.0339 8.39583 81.3646 8.21615 81.75 8.08594C82.1354 7.95573 82.5651 7.89062 83.0391 7.89062C83.7161 7.89062 84.2943 8.01042 84.7734 8.25C85.2526 8.48958 85.6198 8.8099 85.875 9.21094C86.1302 9.60677 86.2578 10.0469 86.2578 10.5312H84.8125C84.8125 10.2969 84.7422 10.0703 84.6016 9.85156C84.4661 9.6276 84.2656 9.44271 84 9.29688C83.7396 9.15104 83.4193 9.07812 83.0391 9.07812C82.638 9.07812 82.3125 9.14062 82.0625 9.26562C81.8177 9.38542 81.638 9.53906 81.5234 9.72656C81.4141 9.91406 81.3594 10.112 81.3594 10.3203C81.3594 10.4766 81.3854 10.6172 81.4375 10.7422C81.4948 10.862 81.5938 10.974 81.7344 11.0781C81.875 11.1771 82.0729 11.2708 82.3281 11.3594C82.5833 11.4479 82.9089 11.5365 83.3047 11.625C83.9974 11.7812 84.5677 11.9688 85.0156 12.1875C85.4635 12.4062 85.7969 12.6745 86.0156 12.9922C86.2344 13.3099 86.3438 13.6953 86.3438 14.1484C86.3438 14.5182 86.2656 14.8568 86.1094 15.1641C85.9583 15.4714 85.737 15.737 85.4453 15.9609C85.1589 16.1797 84.8151 16.3516 84.4141 16.4766C84.0182 16.5964 83.5729 16.6562 83.0781 16.6562C82.3333 16.6562 81.7031 16.5234 81.1875 16.2578C80.6719 15.9922 80.2812 15.6484 80.0156 15.2266C79.75 14.8047 79.6172 14.3594 79.6172 13.8906H81.0703C81.0911 14.2865 81.2057 14.6016 81.4141 14.8359C81.6224 15.0651 81.8776 15.2292 82.1797 15.3281C82.4818 15.4219 82.7812 15.4688 83.0781 15.4688C83.474 15.4688 83.8047 15.4167 84.0703 15.3125C84.3411 15.2083 84.5469 15.0651 84.6875 14.8828C84.8281 14.7005 84.8984 14.4922 84.8984 14.2578ZM91.7812 8.04688V9.15625H87.2109V8.04688H91.7812ZM88.7578 5.99219H90.2031V14.4062C90.2031 14.6927 90.2474 14.9089 90.3359 15.0547C90.4245 15.2005 90.5391 15.2969 90.6797 15.3438C90.8203 15.3906 90.9714 15.4141 91.1328 15.4141C91.2526 15.4141 91.3776 15.4036 91.5078 15.3828C91.6432 15.3568 91.7448 15.3359 91.8125 15.3203L91.8203 16.5C91.7057 16.5365 91.5547 16.5703 91.3672 16.6016C91.1849 16.638 90.9635 16.6562 90.7031 16.6562C90.349 16.6562 90.0234 16.5859 89.7266 16.4453C89.4297 16.3047 89.1927 16.0703 89.0156 15.7422C88.8438 15.4089 88.7578 14.9609 88.7578 14.3984V5.99219Z" fill="white"/>
</g>
</svg>
