<svg width="1078" height="20" viewBox="0 0 1078 20" fill="none" xmlns="http://www.w3.org/2000/svg">
<g filter="url(#filter0_d_14_5798)">
<path d="M1070 0H8C3.58172 0 0 3.58172 0 8V12C0 16.4183 3.58172 20 8 20H1070C1074.42 20 1078 16.4183 1078 12V8C1078 3.58172 1074.42 0 1070 0Z" fill="white"/>
<path d="M1070 0H8C3.58172 0 0 3.58172 0 8V12C0 16.4183 3.58172 20 8 20H1070C1074.42 20 1078 16.4183 1078 12V8C1078 3.58172 1074.42 0 1070 0Z" stroke="#D1D5DB"/>
</g>
<mask id="mask0_14_5798" style="mask-type:luminance" maskUnits="userSpaceOnUse" x="0" y="0" width="1078" height="20">
<path d="M1078 0H0V20H1078V0Z" fill="white"/>
</mask>
<g mask="url(#mask0_14_5798)">
<path d="M8.936 15V13.7H10.405V7.2H8.936V5.9H13.278V7.2H11.809V13.7H13.278V15H8.936ZM15.118 15V8.175H16.47V9.631L16.223 9.787C16.2923 9.56167 16.4007 9.345 16.548 9.137C16.704 8.929 16.8903 8.747 17.107 8.591C17.3323 8.42633 17.5707 8.29633 17.822 8.201C18.082 8.10567 18.3463 8.058 18.615 8.058C19.005 8.058 19.3473 8.123 19.642 8.253C19.9367 8.383 20.1793 8.578 20.37 8.838C20.5607 9.098 20.6993 9.423 20.786 9.813L20.578 9.761L20.669 9.54C20.7643 9.34067 20.8943 9.15433 21.059 8.981C21.2323 8.799 21.4273 8.63867 21.644 8.5C21.8607 8.36133 22.0903 8.253 22.333 8.175C22.5757 8.097 22.814 8.058 23.048 8.058C23.5593 8.058 23.9797 8.162 24.309 8.37C24.647 8.578 24.8983 8.89433 25.063 9.319C25.2363 9.74367 25.323 10.2723 25.323 10.905V15H23.971V10.983C23.971 10.593 23.919 10.2767 23.815 10.034C23.7197 9.78267 23.5723 9.59633 23.373 9.475C23.1737 9.35367 22.918 9.293 22.606 9.293C22.3633 9.293 22.1337 9.33633 21.917 9.423C21.709 9.501 21.527 9.61367 21.371 9.761C21.215 9.90833 21.0937 10.0817 21.007 10.281C20.9203 10.4717 20.877 10.684 20.877 10.918V15H19.525V10.957C19.525 10.6017 19.473 10.3027 19.369 10.06C19.265 9.80867 19.1133 9.618 18.914 9.488C18.7147 9.358 18.472 9.293 18.186 9.293C17.9433 9.293 17.718 9.33633 17.51 9.423C17.302 9.501 17.12 9.61367 16.964 9.761C16.808 9.89967 16.6867 10.0687 16.6 10.268C16.5133 10.4587 16.47 10.6667 16.47 10.892V15H15.118ZM27.0897 15V8.175H28.4417V9.631L28.1947 9.787C28.264 9.56167 28.3724 9.345 28.5197 9.137C28.6757 8.929 28.862 8.747 29.0787 8.591C29.304 8.42633 29.5424 8.29633 29.7937 8.201C30.0537 8.10567 30.318 8.058 30.5867 8.058C30.9767 8.058 31.319 8.123 31.6137 8.253C31.9084 8.383 32.151 8.578 32.3417 8.838C32.5324 9.098 32.671 9.423 32.7577 9.813L32.5497 9.761L32.6407 9.54C32.736 9.34067 32.866 9.15433 33.0307 8.981C33.204 8.799 33.399 8.63867 33.6157 8.5C33.8324 8.36133 34.062 8.253 34.3047 8.175C34.5474 8.097 34.7857 8.058 35.0197 8.058C35.531 8.058 35.9514 8.162 36.2807 8.37C36.6187 8.578 36.87 8.89433 37.0347 9.319C37.208 9.74367 37.2947 10.2723 37.2947 10.905V15H35.9427V10.983C35.9427 10.593 35.8907 10.2767 35.7867 10.034C35.6914 9.78267 35.544 9.59633 35.3447 9.475C35.1454 9.35367 34.8897 9.293 34.5777 9.293C34.335 9.293 34.1054 9.33633 33.8887 9.423C33.6807 9.501 33.4987 9.61367 33.3427 9.761C33.1867 9.90833 33.0654 10.0817 32.9787 10.281C32.892 10.4717 32.8487 10.684 32.8487 10.918V15H31.4967V10.957C31.4967 10.6017 31.4447 10.3027 31.3407 10.06C31.2367 9.80867 31.085 9.618 30.8857 9.488C30.6864 9.358 30.4437 9.293 30.1577 9.293C29.915 9.293 29.6897 9.33633 29.4817 9.423C29.2737 9.501 29.0917 9.61367 28.9357 9.761C28.7797 9.89967 28.6584 10.0687 28.5717 10.268C28.485 10.4587 28.4417 10.6667 28.4417 10.892V15H27.0897ZM42.2724 15.13C41.5704 15.13 40.9464 14.9827 40.4004 14.688C39.863 14.3847 39.4384 13.973 39.1264 13.453C38.823 12.933 38.6714 12.335 38.6714 11.659C38.6714 11.1217 38.758 10.632 38.9314 10.19C39.1047 9.748 39.343 9.36667 39.6464 9.046C39.9584 8.71667 40.3267 8.46533 40.7514 8.292C41.1847 8.11 41.6527 8.019 42.1554 8.019C42.5974 8.019 43.009 8.10567 43.3904 8.279C43.7717 8.44367 44.101 8.67333 44.3784 8.968C44.6644 9.26267 44.881 9.61367 45.0284 10.021C45.1844 10.4197 45.258 10.8573 45.2494 11.334L45.2364 11.906H39.6594L39.3604 10.84H44.0794L43.8844 11.061V10.749C43.8584 10.463 43.763 10.2073 43.5984 9.982C43.4337 9.75667 43.2257 9.579 42.9744 9.449C42.723 9.319 42.45 9.254 42.1554 9.254C41.6874 9.254 41.293 9.345 40.9724 9.527C40.6517 9.70033 40.409 9.96033 40.2444 10.307C40.0797 10.645 39.9974 11.0653 39.9974 11.568C39.9974 12.0447 40.097 12.4607 40.2964 12.816C40.4957 13.1627 40.7774 13.4313 41.1414 13.622C41.5054 13.8127 41.9257 13.908 42.4024 13.908C42.7404 13.908 43.0524 13.8517 43.3384 13.739C43.633 13.6263 43.9494 13.4227 44.2874 13.128L44.9634 14.077C44.7554 14.285 44.4997 14.467 44.1964 14.623C43.9017 14.779 43.5854 14.9047 43.2474 15C42.918 15.0867 42.593 15.13 42.2724 15.13ZM49.5516 15.13C48.9276 15.13 48.3686 14.9783 47.8746 14.675C47.3892 14.363 47.0036 13.9427 46.7176 13.414C46.4316 12.8767 46.2886 12.2657 46.2886 11.581C46.2886 10.8963 46.4272 10.2897 46.7046 9.761C46.9906 9.22367 47.3762 8.80333 47.8616 8.5C48.3469 8.188 48.8972 8.032 49.5126 8.032C49.8506 8.032 50.1756 8.08833 50.4876 8.201C50.8082 8.305 51.0942 8.45233 51.3456 8.643C51.5969 8.825 51.7919 9.02867 51.9306 9.254C52.0779 9.47067 52.1516 9.69167 52.1516 9.917L51.7616 9.943V5.38H53.1006V15H51.7616V13.375H52.0216C52.0216 13.583 51.9522 13.791 51.8136 13.999C51.6749 14.1983 51.4886 14.3847 51.2546 14.558C51.0292 14.7313 50.7649 14.87 50.4616 14.974C50.1669 15.078 49.8636 15.13 49.5516 15.13ZM49.7336 13.973C50.1409 13.973 50.5006 13.869 50.8126 13.661C51.1246 13.453 51.3672 13.1713 51.5406 12.816C51.7226 12.452 51.8136 12.0403 51.8136 11.581C51.8136 11.1217 51.7226 10.7143 51.5406 10.359C51.3672 9.995 51.1246 9.709 50.8126 9.501C50.5006 9.293 50.1409 9.189 49.7336 9.189C49.3262 9.189 48.9666 9.293 48.6546 9.501C48.3426 9.709 48.0956 9.995 47.9136 10.359C47.7402 10.7143 47.6536 11.1217 47.6536 11.581C47.6536 12.0403 47.7402 12.452 47.9136 12.816C48.0956 13.1713 48.3426 13.453 48.6546 13.661C48.9666 13.869 49.3262 13.973 49.7336 13.973ZM55.1648 15V8.175H56.5038V15H55.1648ZM55.8148 6.667C55.5288 6.667 55.3078 6.59333 55.1518 6.446C54.9958 6.29867 54.9178 6.09067 54.9178 5.822C54.9178 5.57067 54.9958 5.367 55.1518 5.211C55.3165 5.055 55.5375 4.977 55.8148 4.977C56.1008 4.977 56.3218 5.05067 56.4778 5.198C56.6338 5.34533 56.7118 5.55333 56.7118 5.822C56.7118 6.07333 56.6295 6.277 56.4648 6.433C56.3088 6.589 56.0921 6.667 55.8148 6.667ZM61.188 15.13C60.6246 15.13 60.109 14.974 59.641 14.662C59.1816 14.35 58.8133 13.9253 58.536 13.388C58.2586 12.8507 58.12 12.244 58.12 11.568C58.12 10.8833 58.2586 10.2767 58.536 9.748C58.822 9.21067 59.2033 8.79033 59.68 8.487C60.1653 8.18367 60.707 8.032 61.305 8.032C61.6603 8.032 61.9853 8.084 62.28 8.188C62.5746 8.292 62.8303 8.43933 63.047 8.63C63.2723 8.812 63.4543 9.02433 63.593 9.267C63.7403 9.50967 63.8313 9.76967 63.866 10.047L63.567 9.943V8.175H64.919V15H63.567V13.375L63.879 13.284C63.827 13.518 63.7186 13.7477 63.554 13.973C63.398 14.1897 63.1943 14.3847 62.943 14.558C62.7003 14.7313 62.4273 14.87 62.124 14.974C61.8293 15.078 61.5173 15.13 61.188 15.13ZM61.539 13.895C61.9463 13.895 62.306 13.7953 62.618 13.596C62.93 13.3967 63.1726 13.1237 63.346 12.777C63.528 12.4217 63.619 12.0187 63.619 11.568C63.619 11.126 63.528 10.7317 63.346 10.385C63.1726 10.0383 62.93 9.76533 62.618 9.566C62.306 9.36667 61.9463 9.267 61.539 9.267C61.1403 9.267 60.785 9.36667 60.473 9.566C60.1696 9.76533 59.927 10.0383 59.745 10.385C59.5716 10.7317 59.485 11.126 59.485 11.568C59.485 12.0187 59.5716 12.4217 59.745 12.777C59.927 13.1237 60.1696 13.3967 60.473 13.596C60.785 13.7953 61.1403 13.895 61.539 13.895ZM67.6335 15V6.433H68.9725V15H67.6335ZM66.2165 9.475V8.175H70.5585V9.475H66.2165ZM74.8993 15.13C74.1973 15.13 73.5733 14.9827 73.0273 14.688C72.49 14.3847 72.0653 13.973 71.7533 13.453C71.45 12.933 71.2983 12.335 71.2983 11.659C71.2983 11.1217 71.385 10.632 71.5583 10.19C71.7317 9.748 71.97 9.36667 72.2733 9.046C72.5853 8.71667 72.9537 8.46533 73.3783 8.292C73.8117 8.11 74.2797 8.019 74.7823 8.019C75.2243 8.019 75.636 8.10567 76.0173 8.279C76.3987 8.44367 76.728 8.67333 77.0053 8.968C77.2913 9.26267 77.508 9.61367 77.6553 10.021C77.8113 10.4197 77.885 10.8573 77.8763 11.334L77.8633 11.906H72.2863L71.9873 10.84H76.7063L76.5113 11.061V10.749C76.4853 10.463 76.39 10.2073 76.2253 9.982C76.0607 9.75667 75.8527 9.579 75.6013 9.449C75.35 9.319 75.077 9.254 74.7823 9.254C74.3143 9.254 73.92 9.345 73.5993 9.527C73.2787 9.70033 73.036 9.96033 72.8713 10.307C72.7067 10.645 72.6243 11.0653 72.6243 11.568C72.6243 12.0447 72.724 12.4607 72.9233 12.816C73.1227 13.1627 73.4043 13.4313 73.7683 13.622C74.1323 13.8127 74.5527 13.908 75.0293 13.908C75.3673 13.908 75.6793 13.8517 75.9653 13.739C76.26 13.6263 76.5763 13.4227 76.9143 13.128L77.5903 14.077C77.3823 14.285 77.1267 14.467 76.8233 14.623C76.5287 14.779 76.2123 14.9047 75.8743 15C75.545 15.0867 75.22 15.13 74.8993 15.13Z" fill="#94A3B8"/>
</g>
<mask id="mask1_14_5798" style="mask-type:luminance" maskUnits="userSpaceOnUse" x="0" y="0" width="1078" height="20">
<path d="M1078 0H0V20H1078V0Z" fill="white"/>
</mask>
<g mask="url(#mask1_14_5798)">
<g clip-path="url(#clip0_14_5798)">
<path d="M1065.68 8.01074L1063 10.6824L1060.32 8.01074L1059.5 8.83324L1063 12.3332L1066.5 8.83324L1065.68 8.01074Z" fill="#94A3B8"/>
</g>
</g>
<defs>
<filter id="filter0_d_14_5798" x="-0.5" y="-0.5" width="1079" height="21" filterUnits="userSpaceOnUse" color-interpolation-filters="sRGB">
<feFlood flood-opacity="0" result="BackgroundImageFix"/>
<feColorMatrix in="SourceAlpha" type="matrix" values="0 0 0 0 0 0 0 0 0 0 0 0 0 0 0 0 0 0 127 0" result="hardAlpha"/>
<feOffset/>
<feComposite in2="hardAlpha" operator="out"/>
<feColorMatrix type="matrix" values="0 0 0 0 0 0 0 0 0 0 0 0 0 0 0 0 0 0 0.08 0"/>
<feBlend mode="normal" in2="BackgroundImageFix" result="effect1_dropShadow_14_5798"/>
<feBlend mode="normal" in="SourceGraphic" in2="effect1_dropShadow_14_5798" result="shape"/>
</filter>
<clipPath id="clip0_14_5798">
<rect width="14" height="14" fill="white" transform="translate(1056 3)"/>
</clipPath>
</defs>
</svg>
