<svg width="14" height="14" viewBox="0 0 14 14" fill="none" xmlns="http://www.w3.org/2000/svg">
<path d="M13.9154 6.64518C12.5973 4.07341 9.98787 2.33337 6.99999 2.33337C4.0121 2.33337 1.40193 4.07462 0.08457 6.64542C0.0289691 6.75541 0 6.87692 0 7.00016C0 7.1234 0.0289691 7.24492 0.08457 7.3549C1.40266 9.92667 4.0121 11.6667 6.99999 11.6667C9.98787 11.6667 12.598 9.92546 13.9154 7.35466C13.971 7.24467 14 7.12316 14 6.99992C14 6.87668 13.971 6.75516 13.9154 6.64518ZM6.99999 10.5C6.30775 10.5 5.63106 10.2948 5.05549 9.91019C4.47992 9.5256 4.03132 8.97897 3.76641 8.33943C3.5015 7.69989 3.43219 6.99616 3.56724 6.31722C3.70229 5.63829 4.03563 5.01465 4.52511 4.52517C5.0146 4.03568 5.63824 3.70234 6.31717 3.56729C6.9961 3.43224 7.69984 3.50156 8.33938 3.76646C8.97892 4.03137 9.52555 4.47997 9.91013 5.05554C10.2947 5.63112 10.5 6.30781 10.5 7.00004C10.5002 7.45973 10.4098 7.91496 10.234 8.3397C10.0582 8.76444 9.80041 9.15036 9.47536 9.47541C9.15031 9.80046 8.76438 10.0583 8.33964 10.2341C7.9149 10.4099 7.45968 10.5003 6.99999 10.5ZM6.99999 4.66671C6.79172 4.66962 6.5848 4.7006 6.38481 4.75883C6.54966 4.98284 6.62876 5.25852 6.60778 5.53586C6.5868 5.8132 6.46712 6.07384 6.27046 6.27051C6.07379 6.46718 5.81315 6.58686 5.53581 6.60784C5.25847 6.62882 4.98279 6.54971 4.75877 6.38487C4.63121 6.85484 4.65423 7.35298 4.82461 7.80917C4.99499 8.26537 5.30413 8.65665 5.70854 8.92795C6.11294 9.19924 6.59224 9.33689 7.07897 9.32151C7.5657 9.30614 8.03536 9.13851 8.42183 8.84223C8.80831 8.54596 9.09214 8.13594 9.23338 7.6699C9.37463 7.20386 9.36616 6.70526 9.20919 6.24428C9.05222 5.7833 8.75464 5.38315 8.35833 5.10015C7.96203 4.81715 7.48696 4.66556 6.99999 4.66671Z" fill="black"/>
</svg>
